<?xml version="1.0" encoding="UTF-8"?>
<svg width="27px" height="31px" viewBox="0 0 27 31" version="1.1" xmlns="http://www.w3.org/2000/svg" xmlns:xlink="http://www.w3.org/1999/xlink">
    <title>形状</title>
    <g id="页面-1" stroke="none" stroke-width="1" fill="none" fill-rule="evenodd">
        <g id="流程管理/流程设定备份-3" transform="translate(-115.000000, -302.000000)" fill-rule="nonzero" stroke="#333333">
            <g id="编组-11" transform="translate(110.750000, 301.501919)">
                <path d="M28.6276175,19.9848511 L24.0808635,19.9848511 C22.6634776,19.9848511 21.5128928,18.8259285 21.5128928,17.3974255 L21.5128928,16.9221852 C21.5128928,15.9272364 21.9714603,15.0073249 22.7051638,14.3403182 C24.3198719,12.8701263 25.256459,10.657904 24.9757616,8.23166752 C24.600572,5.00780445 22.0048005,2.40371149 18.8059617,2.04520292 C14.5649266,1.5699626 10.9741954,4.90499346 10.9741954,9.0848794 C10.9741954,11.2137375 11.9080032,13.1202654 13.3837508,14.4181321 C14.1091194,15.054567 14.4870882,16.002271 14.4870882,16.9722065 L14.4870882,17.3974228 C14.4870882,18.8259257 13.3365034,19.9848483 11.9191175,19.9848483 L7.3723635,19.9848483 C6.52748941,19.9848483 5.84103057,20.6768657 5.84103057,21.5300776 L5.84103057,25.9795574 L30.158926,25.9795574 L30.158926,21.5273092 C30.158926,20.6740973 29.4724672,19.9848592 28.6275931,19.9848592 L28.6276175,19.9848511 Z M5.84105771,28.2029185 C5.84105771,29.0811411 6.54697139,29.7926133 7.41685884,29.7926133 L28.5831683,29.7926133 C29.4530558,29.7926133 30.1589694,29.0811411 30.1589694,28.2029185 L30.1589694,28.1584514 L5.84105771,28.1584514 L5.84105771,28.2029185 L5.84105771,28.2029185 Z" id="形状"></path>
            </g>
        </g>
    </g>
</svg>