<?xml version="1.0" encoding="UTF-8"?>
<svg width="31px" height="28px" viewBox="0 0 31 28" version="1.1" xmlns="http://www.w3.org/2000/svg" xmlns:xlink="http://www.w3.org/1999/xlink">
    <title>形状</title>
    <g id="页面-1" stroke="none" stroke-width="1" fill="none" fill-rule="evenodd">
        <g id="流程管理/流程设定备份-3" transform="translate(-197.000000, -424.000000)" fill-rule="nonzero" stroke="#F17D1D">
            <g id="形状-3备份" transform="translate(198.000000, 425.574419)">
                <path d="M10.4282925,17.6845063 L10.4282926,17.6845063 C10.1487108,17.9096296 9.78119987,17.9938214 9.43149755,17.9128629 L9.43149755,17.9183 L0.864497373,15.3211959 L0.864497376,15.3211959 C0.222348993,15.1278406 -0.141469865,14.4505322 0.0518857157,13.8083838 C0.149604194,13.4838534 0.378508828,13.2149312 0.683261917,13.0666267 L27.2541927,0.122790216 L27.2541925,0.122790284 C27.8571572,-0.170765852 28.5839284,0.0800606262 28.8774846,0.683025903 C29.0027435,0.940308611 29.0331157,1.23356259 28.9632429,1.51105391 L24.0191396,21.0083647 L24.0191396,21.0083646 C23.8538865,21.6583118 23.1930344,22.0512359 22.5430872,21.8859803 C22.525117,21.8814113 22.5072538,21.8764312 22.4895115,21.8710441 L13.3751802,19.110828 L13.3751802,19.110828 C13.1605122,19.0630028 13.0067795,18.8740232 13.0036475,18.6541147 C13.0036475,18.5181881 13.0652676,18.3967603 13.1613223,18.3097673 L24.1550653,5.94950894 L10.4282916,17.6826926 L10.4264793,17.6826926 L10.4264793,17.684505 L10.4282925,17.6845063 Z M13.4494876,20.5770242 L15.1132292,21.1297924 L15.1132291,21.1297924 C15.3620895,21.2125032 15.49678,21.4812957 15.4140687,21.7301547 C15.4009339,21.7696748 15.3826572,21.807295 15.3597088,21.8420475 L13.6977796,24.3666574 L13.6977796,24.3666574 C13.5553872,24.5868777 13.2614326,24.6499709 13.0412117,24.5075773 C12.9044254,24.4191324 12.8225211,24.2667465 12.8241989,24.1038668 L12.8241989,21.0283011 L12.8241989,21.0283026 C12.8237291,20.766058 13.0359185,20.5530636 13.2981642,20.5525671 C13.3495969,20.5524707 13.4007036,20.5607302 13.4494871,20.5770237 L13.4494876,20.5770242 Z" id="形状"></path>
            </g>
        </g>
    </g>
</svg>