<?xml version="1.0" encoding="UTF-8"?>
<svg width="31px" height="28px" viewBox="0 0 31 28" version="1.1" xmlns="http://www.w3.org/2000/svg" xmlns:xlink="http://www.w3.org/1999/xlink">
    <title>形状</title>
    <g id="页面-1" stroke="none" stroke-width="1" fill="none" fill-rule="evenodd">
        <g id="流程管理/流程设定备份-3" transform="translate(-113.000000, -424.000000)" fill-rule="nonzero" stroke="#333333">
            <g id="形状-3" transform="translate(113.250000, 423.574419)">
                <path d="M11.4282925,19.6845063 L11.4282926,19.6845063 C11.1487108,19.9096296 10.7811999,19.9938214 10.4314976,19.9128629 L10.4314976,19.9183 L1.86449737,17.3211959 L1.86449738,17.3211959 C1.22234899,17.1278406 0.858530135,16.4505322 1.05188572,15.8083838 C1.14960419,15.4838534 1.37850883,15.2149312 1.68326192,15.0666267 L28.2541927,2.12279022 L28.2541925,2.12279028 C28.8571572,1.82923415 29.5839284,2.08006063 29.8774846,2.6830259 C30.0027435,2.94030861 30.0331157,3.23356259 29.9632429,3.51105391 L25.0191396,23.0083647 L25.0191396,23.0083646 C24.8538865,23.6583118 24.1930344,24.0512359 23.5430872,23.8859803 C23.525117,23.8814113 23.5072538,23.8764312 23.4895115,23.8710441 L14.3751802,21.110828 L14.3751802,21.110828 C14.1605122,21.0630028 14.0067795,20.8740232 14.0036475,20.6541147 C14.0036475,20.5181881 14.0652676,20.3967603 14.1613223,20.3097673 L25.1550653,7.94950894 L11.4282916,19.6826926 L11.4264793,19.6826926 L11.4264793,19.684505 L11.4282925,19.6845063 Z M14.4494876,22.5770242 L16.1132292,23.1297924 L16.1132291,23.1297924 C16.3620895,23.2125032 16.49678,23.4812957 16.4140687,23.7301547 C16.4009339,23.7696748 16.3826572,23.807295 16.3597088,23.8420475 L14.6977796,26.3666574 L14.6977796,26.3666574 C14.5553872,26.5868777 14.2614326,26.6499709 14.0412117,26.5075773 C13.9044254,26.4191324 13.8225211,26.2667465 13.8241989,26.1038668 L13.8241989,23.0283011 L13.8241989,23.0283026 C13.8237291,22.766058 14.0359185,22.5530636 14.2981642,22.5525671 C14.3495969,22.5524707 14.4007036,22.5607302 14.4494871,22.5770237 L14.4494876,22.5770242 Z" id="形状"></path>
            </g>
        </g>
    </g>
</svg>