<?xml version="1.0" encoding="UTF-8"?>
<svg width="31px" height="30px" viewBox="0 0 31 30" version="1.1" xmlns="http://www.w3.org/2000/svg" xmlns:xlink="http://www.w3.org/1999/xlink">
    <title>形状</title>
    <g id="页面-1" stroke="none" stroke-width="1" fill="none" fill-rule="evenodd">
        <g id="流程管理/流程设定备份-3" transform="translate(-113.000000, -364.000000)" fill-rule="nonzero" stroke="#333333">
            <g id="编组-10" transform="translate(113.250000, 364.179419)">
                <path d="M25.267429,10.4523929 L25.2674288,10.4523929 C27.409135,10.4523929 29.1453336,12.1885884 29.1453336,14.3302977 L29.1453336,24.0250596 L29.1453336,24.0250596 C29.1453336,26.1667658 27.409135,27.9029644 25.2674288,27.9029644 L5.87790495,27.9029644 L5.87790478,27.9029644 C3.73619856,27.9029644 2,26.1667658 2,24.0250596 C2,24.0250596 2,24.0250596 2,24.0250596 L2,14.3302977 L2,14.3302983 C2,12.188592 3.73619553,10.4523929 5.87790478,10.4523929 L25.2674287,10.4523929 L25.267429,10.4523929 Z M15.5726671,19.6624167 L15.572667,19.6624167 C14.5018139,19.6624167 13.6337146,20.530516 13.6337146,21.6013691 C13.6337146,22.6722222 14.5018139,23.5403215 15.572667,23.5403215 L15.5726669,23.5403215 C16.64352,23.5403215 17.5116193,22.6722222 17.5116193,21.6013691 C17.5116193,20.530516 16.64352,19.6624167 15.5726669,19.6624167 L15.5726671,19.6624167 Z M15.5726671,5.36264287 C17.5770591,5.36264287 19.2542529,5.97729078 20.5344462,7.21240345 L20.5344463,7.21240348 C21.0160638,7.67715522 21.0297365,8.44433506 20.5649848,8.92595266 C20.100233,9.40757025 19.3330532,9.4212429 18.8514356,8.95649116 C18.0448314,8.17848651 16.9754991,7.78633339 15.5726671,7.78633339 C14.1703198,7.78633339 13.1005028,8.17848651 12.2938986,8.95649116 L12.2938986,8.95649115 C11.812281,9.42124289 11.0451012,9.40757025 10.5803494,8.92595265 C10.1155977,8.44433506 10.1292703,7.67715522 10.6108879,7.21240348 C11.8910812,5.97729081 13.5677903,5.36264287 15.5726671,5.36264287 L15.5726671,5.36264287 Z M15.6022361,1 C18.6076123,1 21.2155032,1.90306707 23.3774352,3.70483858 L23.3774352,3.70483862 C23.8837805,4.14250865 23.9394496,4.90778589 23.5017787,5.41413119 C23.0751395,5.90771272 22.3343143,5.9749459 21.8257876,5.56623291 C20.1093331,4.13625553 18.0516168,3.42369052 15.6017505,3.42369052 C13.1412199,3.42369052 11.2604361,4.116866 9.8852341,5.49255272 L9.88523419,5.49255263 C9.41191774,5.96586909 8.64451674,5.96586909 8.17120028,5.4925528 C7.69788382,5.01923634 7.69788382,4.25183534 8.17120011,3.77851889 C10.027747,1.92197197 12.5289956,1 15.6022351,1 L15.6022361,1 Z" id="形状"></path>
            </g>
        </g>
    </g>
</svg>