<?xml version="1.0" encoding="UTF-8"?>
<svg width="27px" height="26px" viewBox="0 0 27 26" version="1.1" xmlns="http://www.w3.org/2000/svg" xmlns:xlink="http://www.w3.org/1999/xlink">
    <title>路径</title>
    <g id="页面-1" stroke="none" stroke-width="1" fill="none" fill-rule="evenodd">
        <g id="流程管理/流程设定备份-3" transform="translate(-199.000000, -483.000000)" fill-rule="nonzero" stroke="#F17D1D">
            <g id="路径-2备份" transform="translate(200.000000, 483.815453)">
                <path d="M16.9933803,21.5999928 L5.40004321,21.5999928 L5.40004301,21.5999928 C2.42950365,21.6117982 0.0118549762,19.2132816 -6.75015599e-14,16.2427422 C-6.75015599e-14,16.2284918 -6.75015599e-14,16.2142411 -6.75015599e-14,16.1999906 C-6.75015599e-14,13.1999903 2.40004271,10.7999901 5.40004301,10.7999901 L18.6013803,10.7999901 L18.6013802,10.7999901 C20.2419538,10.8162712 21.5850915,9.49952275 21.6013805,7.85895852 C21.6015756,7.83930592 21.6015756,7.81965195 21.6013805,7.79999937 L21.6013805,7.80000079 C21.6139478,6.15571235 20.2911773,4.812563 18.6468959,4.8000005 C18.631727,4.79988456 18.6165574,4.79988455 18.6013887,4.80000047 L7.00805158,4.80000047 C6.53071872,6.22133499 5.21605062,7.20000071 3.60005124,7.20000071 C1.56005104,7.20000071 -6.75015599e-14,5.64000056 -6.75015599e-14,3.60000036 C-6.75015599e-14,1.56000015 1.56005104,0 3.60005124,0 C5.21605062,0 6.5307234,0.978665722 7.00805158,2.40000024 L18.6013887,2.40000024 L18.6013888,2.40000024 C21.5726548,2.38893403 23.9903269,4.78865672 24.0014275,7.75992264 C24.0014275,7.7732808 24.0014275,7.78663905 24.0014275,7.79999726 L24.0014275,7.80002832 C24.0124386,10.7712942 21.6127096,13.1889429 18.6414437,13.2000054 C18.6280855,13.2000551 18.6147272,13.200055 18.601369,13.2000052 L5.40005523,13.2000052 L5.40005521,13.2000052 C3.75576676,13.1874387 2.41261741,14.5102108 2.40005491,16.1544898 C2.39993898,16.1696587 2.39993898,16.1848283 2.40005491,16.199997 L2.40005489,16.1999993 C2.38154203,17.8383393 3.6946722,19.1814839 5.33300049,19.1999996 C5.35534826,19.2002521 5.37769815,19.2002521 5.40004604,19.1999995 L16.9933831,19.1999995 C17.4693824,17.778665 18.7853841,16.7999993 20.4013835,16.7999993 C22.4413837,16.7999993 24.0014275,18.3599994 24.0014275,20.3999996 C24.0014275,22.4399998 22.4413837,24 20.4013835,24 C18.7853841,24 17.4693754,23.0213343 16.9933831,21.5999998" id="路径"></path>
            </g>
        </g>
    </g>
</svg>