<?xml version="1.0" encoding="UTF-8"?>
<svg width="27px" height="26px" viewBox="0 0 27 26" version="1.1" xmlns="http://www.w3.org/2000/svg" xmlns:xlink="http://www.w3.org/1999/xlink">
    <title>路径</title>
    <g id="页面-1" stroke="none" stroke-width="1" fill="none" fill-rule="evenodd">
        <g id="流程管理/流程设定备份-3" transform="translate(-115.000000, -483.000000)" fill-rule="nonzero" stroke="#333333">
            <g id="路径-2" transform="translate(115.250000, 482.815453)">
                <path d="M17.9933803,22.5999928 L6.40004321,22.5999928 L6.40004301,22.5999928 C3.42950365,22.6117982 1.01185498,20.2132816 1,17.2427422 C1,17.2284918 1,17.2142411 1,17.1999906 C1,14.1999903 3.40004271,11.7999901 6.40004301,11.7999901 L19.6013803,11.7999901 L19.6013802,11.7999901 C21.2419538,11.8162712 22.5850915,10.4995227 22.6013805,8.85895852 C22.6015756,8.83930592 22.6015756,8.81965195 22.6013805,8.79999937 L22.6013805,8.80000079 C22.6139478,7.15571235 21.2911773,5.812563 19.6468959,5.8000005 C19.631727,5.79988456 19.6165574,5.79988455 19.6013887,5.80000047 L8.00805158,5.80000047 C7.53071872,7.22133499 6.21605062,8.20000071 4.60005124,8.20000071 C2.56005104,8.20000071 1,6.64000056 1,4.60000036 C1,2.56000015 2.56005104,1 4.60005124,1 C6.21605062,1 7.5307234,1.97866572 8.00805158,3.40000024 L19.6013887,3.40000024 L19.6013888,3.40000024 C22.5726548,3.38893403 24.9903269,5.78865672 25.0014275,8.75992264 C25.0014275,8.7732808 25.0014275,8.78663905 25.0014275,8.79999726 L25.0014275,8.80002832 C25.0124386,11.7712942 22.6127096,14.1889429 19.6414437,14.2000054 C19.6280855,14.2000551 19.6147272,14.200055 19.601369,14.2000052 L6.40005523,14.2000052 L6.40005521,14.2000052 C4.75576676,14.1874387 3.41261741,15.5102108 3.40005491,17.1544898 C3.39993898,17.1696587 3.39993898,17.1848283 3.40005491,17.199997 L3.40005489,17.1999993 C3.38154203,18.8383393 4.6946722,20.1814839 6.33300049,20.1999996 C6.35534826,20.2002521 6.37769815,20.2002521 6.40004604,20.1999995 L17.9933831,20.1999995 C18.4693824,18.778665 19.7853841,17.7999993 21.4013835,17.7999993 C23.4413837,17.7999993 25.0014275,19.3599994 25.0014275,21.3999996 C25.0014275,23.4399998 23.4413837,25 21.4013835,25 C19.7853841,25 18.4693754,24.0213343 17.9933831,22.5999998" id="路径"></path>
            </g>
        </g>
    </g>
</svg>