<?xml version="1.0" standalone="no"?><!DOCTYPE svg PUBLIC "-//W3C//DTD SVG 1.1//EN" "http://www.w3.org/Graphics/SVG/1.1/DTD/svg11.dtd"><svg t="1591943558082" class="icon" viewBox="0 0 1024 1024" version="1.1" xmlns="http://www.w3.org/2000/svg" p-id="3839" width="30" height="30" xmlns:xlink="http://www.w3.org/1999/xlink"><defs><style type="text/css"></style></defs><path d="M923.733 187.733H716.8C714.667 83.2 629.333 0 524.8 0s-189.867 83.2-192 187.733H106.667c-27.734 0-49.067 21.334-49.067 49.067s21.333 49.067 49.067 49.067h81.066v550.4c0 102.4 0 187.733 136.534 187.733h381.866c136.534 0 136.534-83.2 136.534-187.733v-550.4h81.066c27.734 0 49.067-21.334 49.067-49.067s-23.467-49.067-49.067-49.067z m-401.066-96c53.333 0 98.133 40.534 100.266 93.867H422.4c4.267-51.2 46.933-93.867 100.267-93.867z m179.2 840.534H328.533c-51.2 0-53.333-38.4-53.333-96v-550.4h480v550.4c0 57.6 4.267 96-53.333 96z" p-id="3840" fill="#ffffff"></path><path d="M430.933 422.4c-23.466 0-40.533 23.467-40.533 51.2v290.133c0 27.734 17.067 51.2 40.533 51.2 23.467 0 40.534-23.466 40.534-51.2V473.6c0-27.733-19.2-51.2-40.534-51.2z m168.534 0c-23.467 0-40.534 23.467-40.534 51.2v290.133c0 27.734 19.2 51.2 40.534 51.2 23.466 0 40.533-23.466 40.533-51.2V473.6c2.133-27.733-17.067-51.2-40.533-51.2z" p-id="3841" fill="#ffffff"></path></svg>