<?xml version="1.0" encoding="UTF-8"?>
<svg width="21px" height="23px" viewBox="0 0 21 23" version="1.1" xmlns="http://www.w3.org/2000/svg" xmlns:xlink="http://www.w3.org/1999/xlink">
    <!-- Generator: Sketch 59.1 (86144) - https://sketch.com -->
    <title>形状</title>
    <desc>Created with Sketch.</desc>
    <g id="页面-1" stroke="none" stroke-width="1" fill="none" fill-rule="evenodd">
        <g id="共公模块/消息设置备份" transform="translate(-1717.000000, -32.000000)" fill="#333333" fill-rule="nonzero" stroke="#333333" stroke-width="0.3">
            <g id="铃铛" transform="translate(1717.500000, 32.500000)">
                <g id="形状-2" transform="translate(0.465282, 0.427429)">
                    <path d="M19.1870152,16.575845 L17.381564,13.4965673 L17.381564,9.22932247 L17.381564,9.22932108 C17.3454127,7.78472657 16.8494629,6.38930224 15.9658106,5.24593005 L15.9658105,5.24593002 C15.0326664,3.9947202 13.7577644,3.03989154 12.2945847,2.49639654 L12.2684939,2.48769958 C12.1574689,2.45254167 12.0457037,2.41960426 11.9333835,2.3890724 L11.9333835,2.17220361 C11.9333835,0.972578771 10.9609897,-3.55271368e-15 9.76117986,-3.55271368e-15 C8.56155502,-3.55271368e-15 7.58897625,0.972578771 7.58897625,2.17220361 L7.58897625,2.37167848 C7.49312469,2.39776935 7.39764321,2.4255256 7.3029019,2.45513226 L7.28439773,2.46068351 L7.28439838,2.46068327 C5.79780868,2.99206962 4.49936004,3.94713882 3.54933322,5.20799625 L3.54933311,5.20799639 C2.6500632,6.35837472 2.14450636,7.76742273 2.10730374,9.22710045 L2.10730374,13.4945304 L0.175284152,16.7904918 L0.175284145,16.7904918 C-0.0584280506,17.1840684 -0.0584280506,17.6738874 0.175284158,18.067464 L0.175284133,18.067464 C0.344589816,18.402084 0.718374358,18.5803091 1.08494875,18.5012015 L6.50592815,18.5012015 L6.50592811,18.5007472 C6.50592838,20.2973463 7.96236066,21.7537789 9.75895985,21.7537789 C10.3296143,21.7537789 10.890228,21.6036636 11.3845274,21.3185032 L11.3845276,21.318503 C12.3908349,20.7373359 13.0107012,19.6635 13.0106734,18.5014293 L18.4318378,18.5014293 L18.4318379,18.5014293 C18.9540161,18.5771255 19.4386886,18.2151792 19.5143845,17.693001 C19.5270649,17.6055277 19.527545,17.5167176 19.5158112,17.4291131 L19.5158112,17.4291141 C19.518401,17.1132781 19.4007072,16.8082925 19.1866222,16.5760722 M9.76245229,1.16839642 L9.76245229,1.16839642 C10.3068679,1.16129022 10.7621466,1.58043554 10.7999811,2.12358135 L10.7999811,2.12358135 C10.6833535,2.10186651 10.5662596,2.08274128 10.4487836,2.06621983 L10.4487837,2.06621984 C10.3990942,2.059744 10.3487744,2.059744 10.299085,2.06621983 L10.2374661,2.05752288 L10.2374664,2.05752292 C9.91244306,1.99682811 9.57899343,1.99682811 9.25397013,2.05752283 L9.20086318,2.06510954 L9.20086323,2.06510955 C9.14937771,2.05863281 9.09728387,2.05863281 9.04579835,2.06510953 C8.93736396,2.08028295 8.82892957,2.09656661 8.72715667,2.11599598 L8.72715667,2.11599612 C8.76830784,1.57650264 9.22144448,1.16175497 9.76246455,1.16839797 M9.76246455,20.653836 L9.76246462,20.653836 C8.61435073,20.5540879 7.70175783,19.6477254 7.59414687,18.5003213 L11.9311525,18.5003213 L11.9311525,18.5003213 C11.8202327,19.6462979 10.909193,20.5509641 9.76246465,20.653836 M18.4361057,17.4163475 L1.08919368,17.4163475 C1.02313383,17.4163475 1.19762808,17.5736328 1.16191504,17.5247818 L1.16191504,17.5247818 C1.12880577,17.4686037 1.12880577,17.398879 1.16191505,17.3427009 L3.1698017,13.9186907 C3.21772748,13.8359771 3.24307819,13.742161 3.24363331,13.6464945 L3.24363331,9.23357556 L3.24363319,9.2335773 C3.43066146,6.60940952 5.17119096,4.35245684 7.66168698,3.50468865 L7.66168744,3.50468851 C8.11868937,3.36814074 8.58356944,3.25950605 9.05375557,3.17938534 C9.09335448,3.18382633 9.13350851,3.18382633 9.17310742,3.17938534 C9.26081715,3.17068838 9.34334571,3.15884572 9.42235849,3.14792826 L9.42235846,3.14792827 C9.52982878,3.12882991 9.63855438,3.11763579 9.74766163,3.11443573 C9.85665115,3.1173964 9.96545562,3.12868394 10.0727798,3.14792827 C10.1521626,3.15884572 10.2343211,3.17068838 10.3233261,3.17938534 C10.3594092,3.18327122 10.3958624,3.18327122 10.4317605,3.17938534 L10.4317617,3.17938554 C10.9330556,3.26674231 11.4284421,3.38515021 11.9150553,3.53392529 L11.9150548,3.5339251 C14.3625078,4.40644493 16.0636649,6.64209238 16.2520604,9.23357718 L16.2520604,13.6462648 C16.2524304,13.7419313 16.2777811,13.8355623 16.3255219,13.918461 L18.2405176,17.1829653 C18.2671636,17.2288556 18.3002861,17.270675 18.3391448,17.3067582 L18.3391448,17.3067582 C18.3733484,17.3395441 18.3921572,17.3852223 18.3909565,17.4325865 C18.3867005,17.5245521 18.5449111,17.4161178 18.4364767,17.4161178" id="形状"></path>
                </g>
            </g>
        </g>
    </g>
</svg>