<?xml version="1.0" encoding="UTF-8"?>
<svg width="29px" height="28px" viewBox="0 0 29 28" version="1.1" xmlns="http://www.w3.org/2000/svg" xmlns:xlink="http://www.w3.org/1999/xlink">
    <title>删 除</title>
    <g id="页面-1" stroke="none" stroke-width="1" fill="none" fill-rule="evenodd">
        <g id="流程管理/流程设定备份-3" transform="translate(-172.000000, -642.000000)">
            <g id="编组-9" transform="translate(172.000000, 642.121501)">
                <g id="编组-12" transform="translate(0.500000, 1.000000)">
                    <path d="M-2.13162821e-14,4.49047054 L-2.13162821e-14,3.84008196 C0.288104416,3.32107197 0.756295815,3.1642965 1.36219641,3.17700735 C3.12475989,3.21513991 4.90003423,3.1897182 6.66048751,3.1897182 C6.89352811,3.1897182 7.14349997,3.17700735 7.40407247,3.1642965 L7.40407247,2.37197832 C7.43162921,0.927186186 8.31289854,0.0692035386 9.84031122,0.00564926846 C10.1856393,-0.00706158557 10.5288324,0.00564926846 10.8720254,0.00564926846 C13.0752236,0.00564926846 15.2784465,-0.00706158557 17.4795345,0.00564926846 C19.2124559,0.0183601225 20.09375,0.823389153 20.1763706,2.46308932 L20.2187235,3.1897182 C22.2694163,3.1897182 24.2650203,3.20242906 26.2458034,3.17700735 C26.8389683,3.1642965 27.2647819,3.34649368 27.5401755,3.84010679 L27.5401755,4.49047054 C27.1546294,4.9989047 26.5911066,5.10059153 25.97252,5.07516983 C25.1738464,5.04974812 24.3878837,5.07516983 23.5214354,5.07516983 L23.5214354,21.5357258 C23.5214354,23.0673837 22.9430915,24.277025 21.4432108,24.9909431 C21.030108,25.1879613 20.5492306,25.2769373 20.09375,25.4210019 L7.43160438,25.4210019 C4.65217258,24.5757301 4.0208751,23.7304583 4.0208751,20.883227 L4.0208751,5.07516983 C3.09720316,5.07516983 2.25617659,5.04974812 1.41726022,5.08788068 C0.826205512,5.10059153 0.343193059,4.97134797 -2.13162821e-14,4.49047054 Z M9.3848555,3.13887479 L18.1553448,3.13887479 C18.1553448,2.86348123 18.1404989,2.64315148 18.1553448,2.43555741 C18.1807665,2.04574134 17.9879687,1.89110089 17.5897118,1.89110089 C15.0432957,1.90381175 12.5117256,1.89110089 9.96319936,1.89110089 C9.5522068,1.89110089 9.37214465,2.07116305 9.3869657,2.43553259 L9.3869657,3.13887479 L9.3848555,3.13887479 Z M19.4348958,14.7862623 C19.4348958,13.1762042 19.4348958,11.5492149 19.422185,9.91164979 C19.422185,9.11933161 19.1255901,8.70411865 18.5387806,8.68927277 C17.9667922,8.67656192 17.606643,9.11933161 17.606643,9.88622808 C17.591822,13.1105398 17.606643,16.3200304 17.606643,19.5464771 C17.6172437,20.3112386 17.9773928,20.7667191 18.5387806,20.7540083 C19.110769,20.7412974 19.4348958,20.2985277 19.4348958,19.5189204 L19.4348958,14.7862623 Z M10.0415747,14.722708 C10.0288638,14.722708 10.0288638,14.722708 10.0415747,14.722708 C10.0288638,13.0575862 10.0415747,11.3797534 10.0415747,9.71674175 C10.0288638,9.0917997 9.64118278,8.70198363 9.13063842,8.70198363 C8.59042712,8.71469448 8.25358949,9.0917997 8.21545693,9.7294526 L8.21545693,19.4151234 C8.21545693,19.5846097 8.19003522,19.7667821 8.22816778,19.9341582 C8.32771959,20.4425923 8.62855969,20.7667191 9.12850339,20.7540083 C9.61576107,20.7412974 9.94199805,20.4425923 10.0182632,19.9214473 C10.0542855,19.7138284 10.0415747,19.4934987 10.0415747,19.2710588 L10.0415747,14.722708 L10.0415747,14.722708 Z M14.7742576,14.7481297 L14.7742576,9.79509225 C14.7742576,9.10448573 14.4395302,8.7019588 13.8738972,8.68924795 C13.2976883,8.67653709 12.9375392,9.10448573 12.9375392,9.82051395 L12.9375392,19.6354283 C12.9375392,20.3239246 13.2849527,20.7412726 13.8357646,20.7539834 C14.4013976,20.7666943 14.7742576,20.3387457 14.7742576,19.6227174 L14.7742576,14.7481049 L14.7742576,14.7481297 Z" id="形状" stroke="#F17D1D" fill-rule="nonzero"></path>
                    <rect id="矩形" fill="#F17D1D" x="8.88243978" y="3.08105318" width="1" height="1"></rect>
                </g>
            </g>
        </g>
    </g>
</svg>