<?xml version="1.0" encoding="UTF-8"?>
<svg width="23px" height="22px" viewBox="0 0 23 22" version="1.1" xmlns="http://www.w3.org/2000/svg" xmlns:xlink="http://www.w3.org/1999/xlink">
    <!-- Generator: Sketch 59.1 (86144) - https://sketch.com -->
    <title>形状</title>
    <desc>Created with Sketch.</desc>
    <g id="页面-1" stroke="none" stroke-width="1" fill="none" fill-rule="evenodd">
        <g id="共公模块/消息设置备份" transform="translate(-1671.000000, -33.000000)" fill="#333333" fill-rule="nonzero">
            <g id="搜索" transform="translate(1671.500000, 33.000000)">
                <path d="M21.4400853,20.3756884 L16.7299553,15.6655584 C18.1608449,13.9829002 18.9384442,11.8732491 18.9384442,9.64244028 C18.9384442,7.15350835 17.969629,4.81438236 16.2105054,3.05523253 C14.4513819,1.29610895 12.1122296,0.327293807 9.62329768,0.327293807 C7.13436575,0.327293807 4.79523976,1.29610895 3.03608993,3.05523253 C1.27696635,4.8143561 0.308151206,7.15350835 0.308151206,9.64244028 C0.308151206,12.1313722 1.27696635,14.4704982 3.03608993,16.229648 C4.7952135,17.9887716 7.13436575,18.9575868 9.62329768,18.9575868 C11.8541065,18.9575868 13.9669612,18.1768365 15.6464158,16.7490979 L20.3565458,21.4592279 C20.5062993,21.6089813 20.7007188,21.6823219 20.8982893,21.6823219 C21.0958599,21.6823219 21.2902794,21.6090338 21.4400328,21.4592279 C21.7395922,21.1596685 21.7395922,20.6752741 21.4400328,20.3756884 L21.4400853,20.3756884 Z M4.11965564,15.1492859 C1.08259937,12.1122296 1.08259937,7.17262469 4.11965564,4.13877198 C5.58877801,2.66964961 7.54549839,1.85699502 9.62650124,1.85699502 C11.7075041,1.85699502 13.6610472,2.66644605 15.1333468,4.13877198 C18.1704031,7.17582825 18.1704031,12.1154332 15.1333468,15.1492859 C12.0931133,18.1831648 7.15353461,18.1831648 4.11965564,15.1492859 Z" id="形状"></path>
            </g>
        </g>
    </g>
</svg>