<?xml version="1.0" encoding="UTF-8"?>
<svg width="15px" height="22px" viewBox="0 0 15 22" version="1.1" xmlns="http://www.w3.org/2000/svg" xmlns:xlink="http://www.w3.org/1999/xlink">
    <title>形状结合</title>
    <g id="v2.1" stroke="none" stroke-width="1" fill="none" fill-rule="evenodd">
        <g id="信息中心-详情" transform="translate(-842.000000, -603.000000)" fill="#999999">
            <g id="形状结合-2" transform="translate(842.000000, 603.000000)">
                <path d="M6.67163265,0 C7.10557067,-7.97131207e-17 7.45734693,0.351776268 7.45734693,0.785714286 L7.45734693,21.2142857 C7.45734693,21.6482237 7.10557067,22 6.67163265,22 C6.23769463,22 5.88591836,21.6482237 5.88591836,21.2142857 L5.88591836,0.785714286 C5.88591836,0.351776268 6.23769463,7.97131207e-17 6.67163265,0 Z M9.2287755,6.83817152 C9.2818188,6.83817152 9.33268959,6.85924288 9.37019686,6.89675016 L13.3320253,10.8585786 C13.4101302,10.9366835 13.4101302,11.0633165 13.3320253,11.1414214 L9.37019686,15.1032498 C9.292092,15.1813547 9.16545901,15.1813547 9.08735415,15.1032498 C9.04984687,15.0657426 9.0287755,15.0148718 9.0287755,14.9618285 L9.0287755,7.03817152 C9.0287755,6.92771457 9.11831856,6.83817152 9.2287755,6.83817152 Z M4.11448979,6.83817152 C4.22494674,6.83817152 4.31448979,6.92771457 4.31448979,7.03817152 L4.31448979,7.03817152 L4.31448979,14.9618285 C4.31448979,15.0148718 4.29341842,15.0657426 4.25591115,15.1032498 C4.17780629,15.1813547 4.05117329,15.1813547 3.97306843,15.1032498 L3.97306843,15.1032498 L0.0112399509,11.1414214 C-0.0668649074,11.0633165 -0.0668649074,10.9366835 0.0112399509,10.8585786 L0.0112399509,10.8585786 L3.97306843,6.89675016 C4.01057571,6.85924288 4.06144649,6.83817152 4.11448979,6.83817152 Z" id="形状结合"></path>
            </g>
        </g>
    </g>
</svg>