<?xml version="1.0" encoding="UTF-8"?>
<svg width="16px" height="16px" viewBox="0 0 16 16" version="1.1" xmlns="http://www.w3.org/2000/svg" xmlns:xlink="http://www.w3.org/1999/xlink">
    <title>工作台</title>
    <g id="页面-1" stroke="none" stroke-width="1" fill="none" fill-rule="evenodd">
        <g id="工作台" transform="translate(-1260.000000, -24.000000)">
            <g id="编组" transform="translate(1260.000000, 24.000000)">
                <rect id="矩形" stroke="#979797" fill="#D8D8D8" opacity="0" x="0" y="0" width="16" height="16"></rect>
                <g id="工作台" transform="translate(0.569378, 0.569378)" fill="#4B4B4B" fill-rule="nonzero">
                    <path d="M7.43061646,8.54524013 L7.43061643,8.54524013 C8.04618906,8.54524013 8.54520817,9.04425924 8.54520817,9.65983187 C8.54520817,10.2754045 8.04618906,10.7744236 7.43061643,10.7744236 C7.43061641,10.7744236 7.4306164,10.7744236 7.43061638,10.7744236 L7.43061636,10.7744236 C6.81504373,10.7744236 6.31602461,10.2754045 6.31602461,9.65983187 C6.31602461,9.04425924 6.81504373,8.54524013 7.43061636,8.54524013 L7.43061646,8.54524013 Z M7.43061646,7.43064838 L7.43061636,7.43064838 C6.19947256,7.43064838 5.20142707,8.42868807 5.20142707,9.65983767 C5.20142707,10.8909815 6.19946675,11.889027 7.43061636,11.889027 L7.43061626,11.889027 C8.66176006,11.889027 9.65980555,10.8909873 9.65980555,9.65983767 C9.65980555,8.42869387 8.66176587,7.43064838 7.43061626,7.43064838 L7.43061646,7.43064838 Z" id="形状"></path>
                    <path d="M7.41797567,1.24466407 L13.1752198,6.37178492 L11.9833495,6.37178492 L11.9833495,13.3194104 L11.9833495,13.3194108 C11.9875559,13.54819 11.8077849,13.7382052 11.5791232,13.7466706 L3.26426168,13.7466706 L3.26426166,13.7466706 C3.0317903,13.740588 2.84770368,13.5482089 2.85186309,13.3156954 L2.85186309,6.37178531 L1.65999278,6.37178531 L7.41797711,1.24466407 L7.41797567,1.24466407 Z M7.41797567,-4.18480962e-05 L7.41797563,-4.18480962e-05 C7.24736718,0.000371300878 7.08206902,0.0594061531 6.94984733,0.167225479 L0.268244283,6.11171574 L0.268244343,6.11171569 C-0.0556455407,6.39342223 -0.0898424074,6.88435473 0.191864858,7.20824461 C0.335663822,7.37357615 0.542568871,7.47052992 0.761637514,7.47523212 L1.73876258,7.47523212 L1.73876258,13.3156935 L1.7387626,13.3156907 C1.7329964,14.1635185 2.41562197,14.8555003 3.26344971,14.8612625 C3.2634732,14.8612625 3.26349668,14.8612625 3.26352017,14.8612625 L11.5783817,14.8612625 L11.5783817,14.8612625 C12.4225202,14.85596 13.1025318,14.1673518 13.0972346,13.3232089 C13.0972266,13.3219408 13.0972171,13.3206728 13.097206,13.3194047 L13.097206,7.48637391 L14.0995952,7.48637391 L14.0995951,7.48637391 C14.5279754,7.47931616 14.8695246,7.12632356 14.8625744,6.69794333 C14.8588198,6.47657584 14.7607627,6.26731505 14.5929876,6.12285603 L7.91138452,0.178365772 L7.91138451,0.178365762 C7.77407501,0.0609082399 7.59867105,-0.00249173217 7.41799497,-4.18480962e-05 L7.41797567,-4.18480962e-05 Z" id="形状"></path>
                </g>
            </g>
        </g>
    </g>
</svg>