<?xml version="1.0" encoding="UTF-8"?>
<svg width="50px" height="45px" viewBox="0 0 50 45" version="1.1" xmlns="http://www.w3.org/2000/svg" xmlns:xlink="http://www.w3.org/1999/xlink">
    <!-- Generator: Sketch 59.1 (86144) - https://sketch.com -->
    <title>形状</title>
    <desc>Created with Sketch.</desc>
    <g id="UI" stroke="none" stroke-width="1" fill="none" fill-rule="evenodd">
        <g id="数据源管理-新增" transform="translate(-392.000000, -1008.000000)" fill="#000000" fill-rule="nonzero">
            <g id="编组-9" transform="translate(320.000000, 84.000000)">
                <g id="区块链(4)" transform="translate(72.000000, 924.000000)">
                    <path d="M15.2416262,45 C14.2198926,45 13.2948095,44.7639694 12.4919458,44.2980856 C9.48632063,42.5550109 8.53285605,37.822558 9.86474048,31.2947795 C3.59217591,29.1918675 -2.0469737e-16,25.9927129 -2.0469737e-16,22.4988417 C-2.0469737e-16,19.0023966 3.59140885,15.804529 9.86499616,13.7059927 C8.54257223,7.18387682 9.4988494,2.45168136 12.4998722,0.70294402 C13.3004347,0.236545424 14.224495,2.31144964e-13 15.2462286,2.31144964e-13 C17.9994886,2.31144964e-13 21.4571721,1.74024332 25.0002557,4.90567926 C28.5443621,1.74178769 32,0.00231654931 34.7494247,0.00231654931 C35.7709026,0.00231654931 36.6962414,0.238347185 37.4996165,0.704488386 C40.5019177,2.44576129 41.4581948,7.1753828 40.1350038,13.6995579 C46.4083355,15.8060734 50,19.0078019 50,22.50296 C50,26.0009495 46.4080798,29.1983023 40.1352595,31.2942647 C41.4658655,37.8212711 40.5093327,42.5534665 37.4996165,44.2973134 C36.6975198,44.7621676 35.7734595,44.9979408 34.7530043,44.9979408 C31.9989772,44.9979408 28.5418052,43.2566679 25,40.089945 C21.4551266,43.2579549 17.9961647,45 15.2416262,45 Z M27,37.8906983 C29.8390665,40.4679936 32.5764307,42 34.356221,42 C34.789807,42 35.1580479,41.908216 35.4508719,41.7277948 L35.5370978,41.6748223 C37.009816,40.6397608 37.4075358,36.8844833 36.5614906,32 C34.6551206,32.4929417 32.7209826,32.85427 30.771092,33.0817402 C29.6138099,34.770937 28.3540804,36.3773647 27,37.8906983 L27,37.8906983 Z M13.5540694,41.729141 C13.8462761,41.9089263 14.2133192,42 14.6451057,42 C16.4239478,42 19.1611393,40.4640823 22,37.8804231 C20.6528991,36.3633204 19.3982211,34.7558796 18.2436546,33.067951 C16.2878452,32.8434553 14.347383,32.4867537 12.4339848,32 C11.5765661,36.9799218 12.0100758,40.7840214 13.5535771,41.7294034 L13.5540694,41.729141 L13.5540694,41.729141 Z M23,33 C23.6377425,33.6891495 24.3033868,34.3562807 24.9955424,35 C25.6912185,34.3605911 26.3598613,33.6970379 27,33.0108001 C26.3065478,33.0346044 25.6487561,33.0465065 25.0030119,33.0465065 C24.4037709,33.0465065 23.770556,33.0319594 23,33 L23,33 Z M20.4766866,29.7550503 C21.9758608,29.9100754 23.4976496,29.992654 25.0013975,30 C26.5023504,30 28.018295,29.9257805 29.5080676,29.7796213 C30.3805271,28.5599895 31.1933994,27.2990695 31.9438445,26.0012665 C32.6976859,24.6921392 33.383965,23.345484 34,21.9665632 C33.3801749,20.6137132 32.696742,19.2907335 31.9519756,18.0020265 L31.9179266,17.9430055 C31.1792225,16.673003 30.3804579,15.4386751 29.5243298,14.2441897 C28.0206524,14.0892521 26.5102706,14.0077581 24.9986025,14 C23.4973955,14 21.9819591,14.0739662 20.4919324,14.2193655 C19.6168229,15.4402671 18.8011588,16.7024452 18.0477703,18.0015199 C17.3001126,19.308277 16.6167136,20.6505451 16,22.0235577 C16.6540465,23.444367 17.3271503,24.7463745 18.0559014,26.0010132 C18.8044276,27.2888431 19.6122166,28.5415233 20.4766866,29.7550503 L20.4766866,29.7550503 Z M33.6049012,28.9117871 C33.4065735,29.2767699 33.2049295,29.639526 33,30 C34.0079577,29.7926877 35.0086434,29.5440707 36,29.2546601 C35.7281738,28.1573173 35.419296,27.0716669 35.0740185,26 C34.7541593,26.6875845 34.4198174,27.3667719 34.0712678,28.0370037 L33.6049012,28.9303583 L33.6049012,28.9117871 L33.6049012,28.9117871 Z M14,29.2732386 C14.8688772,29.5283364 15.8570711,29.7676839 17,30 C16.6335119,29.3496796 16.2790861,28.6909344 15.9369505,28.0241879 C15.5943279,27.35475 15.2601242,26.6799541 14.9344386,26 C14.5345391,27.263676 14.2323537,28.321755 14,29.2732386 L14,29.2732386 Z M10.8419629,17 C6.06853705,18.7231936 3,21.0624442 3,22.9933095 C3,24.9279215 6.06512202,27.2719893 10.8335566,29 C11.4278986,26.9516936 12.1515543,24.9446567 13,22.9914362 C12.1547324,21.0437276 11.433885,19.0424129 10.8419629,17 L10.8419629,17 Z M37,22.9978593 C37.8446453,24.9504329 38.5681281,26.9550883 39.1661807,29 C43.934878,27.2727557 47,24.9351559 47,23.0101681 C47,21.1020381 43.8602727,18.7023592 39.1582998,17 C38.5635951,19.0435918 37.8427259,21.0468687 37,22.9978593 Z M14,15.7462479 C14.2727787,16.8432018 14.5822137,17.9285346 14.9276646,19 C15.2256098,18.3629794 15.5596392,17.668149 15.9247411,16.9738744 C16.2736466,16.309598 16.6321122,15.6515557 17,15 C15.9918315,15.2064736 14.9911081,15.4554029 14,15.7462479 L14,15.7462479 Z M33,15 C33.3893553,15.6957381 33.7323707,16.3262772 34.0665715,16.982783 C34.4074056,17.6498284 34.7397096,18.3223029 35.0633815,19 C35.4648254,17.7338414 35.7672935,16.6756986 36,15.7259385 C35.1351578,15.4719165 34.1655473,15.2370872 33,15 L33,15 Z M13.5457893,3.2758476 C12.0082353,4.22322154 11.578035,8.0250413 12.4342541,13 C14.3403787,12.5082255 16.2741467,12.1473785 18.2236334,11.9196843 C19.3846454,10.232406 20.646026,8.62628809 22,7.11123056 C19.1656958,4.53289456 16.4285495,3 14.64601,3 C14.2389308,3 13.8884246,3.08049925 13.6033461,3.23887563 L13.5457893,3.2758476 L13.5457893,3.2758476 Z M30.7667374,11.9319674 C32.7187158,12.1570879 34.6553592,12.513813 36.5650344,13 C37.4105732,8.09167323 37.0035715,4.32413974 35.5164875,3.31074337 L35.4516924,3.27134226 C35.1590059,3.09114789 34.7909305,3 34.3583063,3 C32.5785358,3 29.8398968,4.53427896 27,7.1153139 C28.352357,8.63194536 29.6106008,10.240904 30.7667374,11.9319674 L30.7667374,11.9319674 Z M25.023705,10.9532422 C25.6973106,10.9532422 26.3781361,10.9744155 27,11 C26.3592817,10.312092 25.6924048,9.64501436 25.0006016,9 C24.3063094,9.63960161 23.6389547,10.3032977 23,10.9896339 C23.6776969,10.9660344 24.3462487,10.9539038 24.9943445,10.9532422 L25.023705,10.9532422 L25.023705,10.9532422 Z M25.0001342,25 C23.897269,25 23,24.102731 23,23.0001342 C23,21.897269 23.897269,21 25.0001342,21 C26.102731,21 27,21.897269 27,23.0001342 C27,24.102731 26.102731,25 25.0001342,25 Z" id="形状"></path>
                </g>
            </g>
        </g>
    </g>
</svg>