<?xml version="1.0" encoding="UTF-8"?>
<svg width="45px" height="30px" viewBox="0 0 45 30" version="1.1" xmlns="http://www.w3.org/2000/svg" xmlns:xlink="http://www.w3.org/1999/xlink">
    <!-- Generator: Sketch 59.1 (86144) - https://sketch.com -->
    <title>内关联</title>
    <desc>Created with Sketch.</desc>
    <g id="UI" stroke="none" stroke-width="1" fill="none" fill-rule="evenodd">
        <g id="内关联" fill="#ccc" fill-rule="nonzero">
            <path d="M14.9055233,29.7819767 C6.71947674,29.7819767 0.0218023256,23.0843023 0.0218023256,14.8982558 C0.0218023256,6.7122093 6.71947674,0.0145348837 14.9055233,0.0145348837 C23.0915698,0.0145348837 29.7892442,6.7122093 29.7892442,14.8982558 C29.7892442,23.0843023 23.0915698,29.7819767 14.9055233,29.7819767 Z M14.9055233,27.9215116 C22.068314,27.9215116 27.9287791,22.0610465 27.9287791,14.8982558 C27.9287791,7.73546512 22.068314,1.875 14.9055233,1.875 C7.74273256,1.875 1.88226744,7.73546512 1.88226744,14.8982558 C1.88226744,22.0610465 7.74273256,27.9215116 14.9055233,27.9215116 Z M29.7892442,29.7819767 C21.6031977,29.7819767 14.9055233,23.0843023 14.9055233,14.8982558 C14.9055233,6.7122093 21.6031977,0.0145348837 29.7892442,0.0145348837 C37.9752907,0.0145348837 44.6729651,6.7122093 44.6729651,14.8982558 C44.6729651,23.0843023 37.9752907,29.7819767 29.7892442,29.7819767 L29.7892442,29.7819767 Z M29.7892442,27.9215116 C36.9520349,27.9215116 42.8125,22.0610465 42.8125,14.8982558 C42.8125,7.73546512 36.9520349,1.875 29.7892442,1.875 C22.6264535,1.875 16.7659884,7.73546512 16.7659884,14.8982558 C16.7659884,22.0610465 22.6264535,27.9215116 29.7892442,27.9215116 Z" id="形状"></path>
            <path d="M22.3473837,3.38662791 C25.9944425,6.32780438 28.2297367,10.6807456 28.2297367,15.3866279 C28.2297367,20.0925103 25.9944425,24.5630985 22.3473837,27.3866279 C18.7003249,24.4454514 16.4650308,20.0925103 16.4650308,15.3866279 C16.4650308,10.6807456 18.7003249,6.21015732 22.3473837,3.38662791 Z" id="路径"></path>
        </g>
    </g>
</svg>