<?xml version="1.0" encoding="UTF-8"?>
<svg width="11px" height="12px" viewBox="0 0 11 12" version="1.1" xmlns="http://www.w3.org/2000/svg" xmlns:xlink="http://www.w3.org/1999/xlink">
    <!-- Generator: Sketch 59.1 (86144) - https://sketch.com -->
    <title>路径</title>
    <desc>Created with Sketch.</desc>
    <g id="UI" stroke="none" stroke-width="1" fill="none" fill-rule="evenodd">
        <g id="新建同步任务2-2" transform="translate(-151.000000, -445.000000)" fill-rule="nonzero">
            <g id="csv" transform="translate(151.000000, 445.000000)">
                <path d="M0.95625,0 C0.43125,0 0,0.43125 0,0.95625 L0,11.04375 C0,11.56875 0.43125,12 0.95625,12 L9.54375,12 C10.06875,12 10.5,11.56875 10.5,11.04375 L10.5,3.80625 L6.9375,0 L0.95625,0 Z" id="路径" fill="#45B058"></path>
                <path d="M3.80625,8.1 C3.825,8.11875 3.84375,8.15625 3.84375,8.19375 C3.84375,8.26875 3.7875,8.325 3.7125,8.325 C3.675,8.325 3.6375,8.325 3.61875,8.2875 C3.4875,8.1375 3.2625,8.025 3.05625,8.025 C2.56875,8.025 2.19375,8.4 2.19375,8.94375 C2.19375,9.46875 2.56875,9.8625 3.05625,9.8625 C3.2625,9.8625 3.46875,9.76875 3.61875,9.6 C3.6375,9.58125 3.675,9.5625 3.7125,9.5625 C3.7875,9.5625 3.84375,9.61875 3.84375,9.69375 C3.84375,9.73125 3.825,9.76875 3.80625,9.7875 C3.6375,9.975 3.39375,10.10625 3.05625,10.10625 C2.4,10.10625 1.89375,9.6375 1.89375,8.94375 C1.89375,8.25 2.4,7.78125 3.05625,7.78125 C3.39375,7.78125 3.6375,7.9125 3.80625,8.1 Z M5.08125,10.10625 C4.74375,10.10625 4.48125,9.99375 4.29375,9.825 C4.25625,9.80625 4.25625,9.76875 4.25625,9.73125 C4.25625,9.65625 4.29375,9.58125 4.3875,9.58125 C4.40625,9.58125 4.44375,9.6 4.4625,9.61875 C4.6125,9.75 4.8375,9.8625 5.1,9.8625 C5.49375,9.8625 5.625,9.6375 5.625,9.46875 C5.625,8.8875 4.29375,9.20625 4.29375,8.4 C4.29375,8.04375 4.6125,7.78125 5.0625,7.78125 C5.34375,7.78125 5.60625,7.875 5.79375,8.025 C5.8125,8.04375 5.83125,8.08125 5.83125,8.11875 C5.83125,8.19375 5.775,8.25 5.7,8.25 C5.68125,8.25 5.64375,8.25 5.625,8.23125 C5.45625,8.1 5.25,8.025 5.04375,8.025 C4.7625,8.025 4.575,8.175 4.575,8.38125 C4.575,8.8875 5.90625,8.60625 5.90625,9.45 C5.90625,9.76875 5.68125,10.10625 5.08125,10.10625 Z M8.26875,8.00625 L7.48125,9.9375 C7.44375,10.03125 7.36875,10.0875 7.275,10.0875 L7.25625,10.0875 C7.1625,10.0875 7.06875,10.03125 7.03125,9.9375 L6.2625,8.00625 C6.24375,7.9875 6.24375,7.96875 6.24375,7.95 C6.24375,7.875 6.3,7.8 6.39375,7.8 C6.45,7.8 6.50625,7.8375 6.525,7.89375 L7.25625,9.76875 L7.9875,7.89375 C8.00625,7.8375 8.0625,7.8 8.11875,7.8 C8.2125,7.8 8.2875,7.875 8.2875,7.95 C8.2875,7.96875 8.26875,7.9875 8.26875,8.00625 L8.26875,8.00625 Z" id="形状" fill="#FFFFFF"></path>
                <path d="M10.5,3.825 L10.5,4.0125 L8.1,4.0125 C8.1,4.0125 6.91875,3.76875 6.95625,2.7375 C6.95625,2.7375 6.99375,3.825 8.08125,3.825 L10.5,3.825 Z" id="路径" fill="#349C42"></path>
                <path d="M6.95625,0 L6.95625,2.7375 C6.95625,3.0375 7.1625,3.825 8.1,3.825 L10.5,3.825 L6.95625,0 Z" id="路径" fill="#FFFFFF" opacity="0.5"></path>
            </g>
        </g>
    </g>
</svg>