<?xml version="1.0" encoding="UTF-8"?>
<svg width="11px" height="12px" viewBox="0 0 11 12" version="1.1" xmlns="http://www.w3.org/2000/svg" xmlns:xlink="http://www.w3.org/1999/xlink">
    <!-- Generator: Sketch 59.1 (86144) - https://sketch.com -->
    <title>txt(1)备份</title>
    <desc>Created with Sketch.</desc>
    <g id="UI" stroke="none" stroke-width="1" fill="none" fill-rule="evenodd">
        <g id="新建同步任务2-2" transform="translate(-168.000000, -473.000000)" fill="#45B058" fill-rule="nonzero">
            <g id="txt(1)备份" transform="translate(168.000000, 473.000000)">
                <path d="M10.0000628,4.72245603 L9.83121859,4.72245603 L9.83121859,3.20888819 C9.83121859,3.11240578 9.79503769,3.01592337 9.72267588,2.94959171 L6.76187186,0.103360553 C6.68951005,0.0370288945 6.60508794,0.00084798995 6.50860553,0.00084798995 L1.02116834,0.00084798995 C0.460364322,0.00084798995 0.00810301508,0.453109296 0.00810301508,1.01391332 L0.00810301508,10.9757224 C0.00810301508,11.5365264 0.460364322,11.9887877 1.02116834,11.9887877 L8.82418342,11.9887877 C9.08951005,11.9887877 9.35483668,11.880245 9.54177136,11.6872802 C9.73473618,11.4943153 9.83724874,11.241049 9.83121859,10.9757224 L9.83121859,10.2641646 L10.006093,10.2641646 C10.2714196,10.2641646 10.5186558,10.161652 10.7055905,9.96868719 C10.8925251,9.78175251 10.9950377,9.53451633 10.9890075,9.27521985 L10.9890075,5.71140075 C10.9890075,5.16868719 10.5427764,4.72245603 10.0000628,4.72245603 Z M6.55081658,0.905370603 L8.73976131,3.00386307 L6.55081658,2.94959171 L6.55081658,0.905370603 Z M9.1076005,10.9757224 C9.11363065,11.0541143 9.0834799,11.1264761 9.02920854,11.1807475 C8.97493719,11.2350188 8.90257538,11.2651696 8.82418342,11.2651696 L1.02116834,11.2651696 C0.864384422,11.2651696 0.731721106,11.1325063 0.731721106,10.9757224 L0.731721106,1.01391332 C0.731721106,0.857129397 0.864384422,0.72446608 1.02116834,0.72446608 L5.82719849,0.72446608 L5.82719849,3.3053706 C5.82719849,3.50436558 5.97795226,3.6611495 6.17694724,3.66717965 L9.1076005,3.73954146 L9.1076005,4.72245603 L2.89654523,4.72245603 C2.35383166,4.72245603 1.9076005,5.16868719 1.9076005,5.71140075 L1.9076005,9.27521985 C1.9076005,9.81793342 2.35383166,10.2641646 2.89654523,10.2641646 L9.1076005,10.2641646 L9.1076005,10.9757224 Z M10.2653894,9.27521985 C10.2653894,9.34758166 10.2412688,9.41391332 10.1930276,9.46215452 C10.1447864,9.51039573 10.0784548,9.54054648 10.006093,9.54054648 L2.89654523,9.54054648 C2.75182161,9.54054648 2.63121859,9.41994347 2.63121859,9.27521985 L2.63121859,5.71140075 C2.63121859,5.56667714 2.75182161,5.44607412 2.89654523,5.44607412 L10.0000628,5.44607412 C10.1447864,5.44607412 10.2653894,5.56667714 10.2653894,5.71140075 L10.2653894,9.27521985 Z" id="形状"></path>
                <path d="M4.74676131,6.41243289 C4.40476131,6.41243289 4.14376131,6.52343289 3.96376131,6.75143289 C3.80476131,6.94943289 3.72676131,7.21043289 3.72676131,7.52843289 C3.72676131,7.85243289 3.80176131,8.11043289 3.95476131,8.30243289 C4.12876131,8.52443289 4.39576131,8.63843289 4.75276131,8.63843289 C4.98376131,8.63843289 5.18176131,8.57243289 5.34676131,8.44043289 C5.52376131,8.29943289 5.63476131,8.10443289 5.68276131,7.85243289 L5.34076131,7.85243289 C5.29876131,8.01443289 5.22676131,8.13743289 5.12476131,8.21843289 C5.02876131,8.29043289 4.90276131,8.32943289 4.74976131,8.32943289 C4.51576131,8.32943289 4.34176131,8.25443289 4.23076131,8.11043289 C4.12876131,7.97543289 4.07776131,7.78043289 4.07776131,7.52843289 C4.07776131,7.28243289 4.12876131,7.09043289 4.23376131,6.95243289 C4.34776131,6.79643289 4.51576131,6.72143289 4.74076131,6.72143289 C4.89076131,6.72143289 5.01376131,6.75143289 5.10976131,6.81743289 C5.20876131,6.88343289 5.27476131,6.98543289 5.31076131,7.12643289 L5.65276131,7.12643289 C5.61976131,6.91043289 5.52676131,6.73643289 5.37076131,6.61043289 C5.20876131,6.47843289 4.99876131,6.41243289 4.74676131,6.41243289 Z M6.76876131,6.41243289 C6.53776131,6.41243289 6.34876131,6.46343289 6.19876131,6.56843289 C6.03676131,6.67643289 5.95876131,6.82643289 5.95876131,7.01543289 C5.95876131,7.20443289 6.03976131,7.34843289 6.20476131,7.44743289 C6.25726131,7.47743289 6.38059464,7.52409955 6.5730252,7.58743289 L6.97838631,7.71705789 C7.04776131,7.74068289 7.09276131,7.75793289 7.11376131,7.76843289 C7.24576131,7.83443289 7.31476131,7.92443289 7.31476131,8.03843289 C7.31476131,8.12843289 7.26676131,8.19743289 7.17676131,8.25143289 C7.08676131,8.30243289 6.96076131,8.32943289 6.80476131,8.32943289 C6.62776131,8.32943289 6.49876131,8.29643289 6.41476131,8.23643289 C6.32176131,8.16743289 6.26476131,8.05043289 6.24076131,7.88843289 L5.89276131,7.88843289 C5.90776131,8.16143289 6.00676131,8.35943289 6.18676131,8.48543289 C6.33376131,8.58743289 6.54076131,8.63843289 6.80476131,8.63843289 C7.07776131,8.63843289 7.29076131,8.58143289 7.44076131,8.47343289 C7.59076131,8.36243289 7.66576131,8.20943289 7.66576131,8.01743289 C7.66576131,7.81943289 7.57276131,7.66643289 7.38676131,7.55543289 C7.33076131,7.52343289 7.22942797,7.48076622 7.08187242,7.42921066 L6.62435331,7.27866489 C6.54184131,7.24979289 6.48676131,7.22783289 6.45976131,7.21343289 C6.35776131,7.15943289 6.30976131,7.08443289 6.30976131,6.99443289 C6.30976131,6.89243289 6.35176131,6.81743289 6.44176131,6.77243289 C6.51376131,6.73343289 6.61576131,6.71543289 6.75076131,6.71543289 C6.90676131,6.71543289 7.02676131,6.74243289 7.10476131,6.80243289 C7.18276131,6.85943289 7.23976131,6.95543289 7.26976131,7.08743289 L7.61776131,7.08743289 C7.59676131,6.85343289 7.50976131,6.67943289 7.35976131,6.56843289 C7.21876131,6.46343289 7.02076131,6.41243289 6.76876131,6.41243289 Z M7.77076131,6.45443289 L8.15176131,6.45443289 L8.73976131,8.20043289 L8.74876131,8.20043289 L9.33676131,6.45443289 L9.71776131,6.45443289 L8.95576131,8.59643289 L8.53276131,8.59643289 L7.77076131,6.45443289 Z" id="CSV"></path>
            </g>
        </g>
    </g>
</svg>