<?xml version="1.0" encoding="UTF-8"?>
<svg width="20px" height="20px" viewBox="0 0 20 20" version="1.1" xmlns="http://www.w3.org/2000/svg" xmlns:xlink="http://www.w3.org/1999/xlink">
    <title>编组备份 15</title>
    <g id="UI" stroke="none" stroke-width="1" fill="none" fill-rule="evenodd">
        <g id="邮件备份-3" transform="translate(0.000000, 2.000000)" fill="#FFCE6D" fill-rule="nonzero">
            <path d="M12.5813333,9.48733335 L19.0667273,15.2714545 L1.09539395,15.2714545 L7.47684849,9.6557576 C8.54890909,10.4910909 9.24212122,10.9187273 9.92854545,10.9187273 C10.6433939,10.9187273 11.3599394,10.4622424 12.5083636,9.54206062 C12.5308485,9.52636364 12.5575758,9.50472727 12.5813333,9.48733335 L12.5813333,9.48733335 Z M20.3636364,3.39690909 L20.3636364,14.432303 C20.3636364,14.5209697 20.3394545,14.6015758 20.3135758,14.6783636 L20.3135758,14.6783636 L13.5944242,8.6859394 C15.4352121,7.23333333 18.3497576,4.96321213 20.3636364,3.39690909 L20.3636364,3.39690909 Z M-8.74855743e-13,3.84618182 C1.67745455,5.17236364 3.42490909,6.52442426 4.93987878,7.69278789 C5.48672727,8.11533335 5.98690909,8.50012122 6.45315151,8.86412122 L6.45315151,8.86412122 L0.0195151449,14.5260606 C0.0161212187,14.4946667 -8.74855743e-13,14.4662424 -8.74855743e-13,14.432303 L-8.74855743e-13,14.432303 Z M19.0909091,1.78523862e-13 C19.5558788,1.78523862e-13 20.3636364,0.807757582 20.3636364,1.274 L20.3636364,1.274 L20.3636364,1.83357576 C17.9772727,3.68963636 13.4675758,7.19896971 11.7913939,8.53872727 C9.93787878,10.0206061 9.93787878,10.0206061 8.1221212,8.59642424 C7.44842424,8.07036364 6.59484847,7.40981818 5.64242424,6.67460605 C3.91533333,5.34248486 1.87684849,3.76981818 -1.77635684e-15,2.27563636 L-1.77635684e-15,2.27563636 L-1.77635684e-15,1.27272727 C-1.77635684e-15,0.80903031 0.808181818,1.78523862e-13 1.27272727,1.78523862e-13 L1.27272727,1.78523862e-13 Z" id="形状结合"></path>
        </g>
    </g>
</svg>