<?xml version="1.0" encoding="UTF-8"?>
<svg width="20px" height="20px" viewBox="0 0 20 20" version="1.1" xmlns="http://www.w3.org/2000/svg" xmlns:xlink="http://www.w3.org/1999/xlink">
    <title>编组备份 12</title>
    <g id="UI" stroke="none" stroke-width="1" fill="none" fill-rule="evenodd">
        <g id="尺子-测量备份-2" transform="translate(2.181818, 2.000000)" fill="#8AC070" fill-rule="nonzero">
            <path d="M13.9859914,8.22719109 L7.76724138,8.22719109 L7.76724138,1.92456897 C7.76724138,0.864762931 6.90517241,0.00215517241 5.84536638,0.00215517241 L1.93013649,0.00215517241 C0.87033046,0.00215517241 0.00790229885,0.864762931 0.00790229885,1.92456897 L0.00790229885,13.9737787 C0.00790229885,13.9962284 0.013829023,14.0170618 0.0145474138,14.0393319 L0.0145474138,14.0644756 C0.0145474138,15.1242816 0.876975575,15.9863506 1.93678161,15.9863506 L13.9859914,15.9863506 C15.0457974,15.9863506 15.908046,15.1242816 15.908046,14.0644756 L15.908046,10.1490661 C15.908046,9.08926006 15.0456178,8.22719109 13.9859914,8.22719109 Z M14.5499282,14.0644756 C14.5499282,14.3753592 14.2970546,14.6282328 13.9859914,14.6282328 L12.3999641,14.6282328 L12.3999641,13.174569 C12.3999641,12.799569 12.0959052,12.4955101 11.7209052,12.4955101 C11.3459052,12.4955101 11.0418463,12.799569 11.0418463,13.174569 L11.0418463,14.6282328 L8.76490661,14.6282328 L8.76490661,12.2291667 C8.76490661,11.8541667 8.4608477,11.5501078 8.0858477,11.5501078 C7.7108477,11.5501078 7.40678879,11.8541667 7.40678879,12.2291667 L7.40678879,14.6282328 L5.84536638,14.6282328 L5.84536638,14.5375359 L5.13002874,14.5375359 L5.13002874,13.1743894 C5.13002874,12.7993894 4.82596983,12.4953305 4.45096983,12.4953305 C4.07596983,12.4953305 3.77191092,12.7993894 3.77191092,13.1743894 L3.77191092,14.5375359 L1.9299569,14.5375359 C1.63056753,14.5375359 1.390625,14.3013649 1.37266523,14.0066451 L1.37266523,12.2291667 L2.87320402,12.2291667 C3.24820402,12.2291667 3.55226293,11.9251078 3.55226293,11.5501078 C3.55226293,11.1751078 3.24820402,10.8710489 2.87320402,10.8710489 L1.37266523,10.8710489 L1.37266523,10.1490661 L1.36602011,10.1490661 L1.36602011,8.59428879 L3.81842672,8.59428879 C4.19342672,8.59428879 4.49748563,8.29022989 4.49748563,7.91522989 C4.49748563,7.54022989 4.19342672,7.23617098 3.81842672,7.23617098 L1.36602011,7.23617098 L1.36602011,4.95923132 L2.87320402,4.95923132 C3.24820402,4.95923132 3.55226293,4.65517241 3.55226293,4.28017241 C3.55226293,3.90517241 3.24820402,3.60111351 2.87320402,3.60111351 L1.36602011,3.60111351 L1.36602011,1.92474856 C1.36602011,1.61350575 1.61889368,1.36063218 1.9299569,1.36063218 L5.84518678,1.36063218 C6.1560704,1.36063218 6.40894397,1.61350575 6.40894397,1.92474856 L6.40894397,9.07130029 L6.40984195,9.07130029 L6.40984195,9.58548851 L13.9858118,9.58548851 C14.296875,9.58548851 14.5497486,9.83836207 14.5497486,10.1492457 L14.5497486,14.0644756 L14.5499282,14.0644756 Z" id="形状"></path>
        </g>
    </g>
</svg>