<?xml version="1.0" encoding="UTF-8"?>
<svg width="20px" height="20px" viewBox="0 0 20 20" version="1.1" xmlns="http://www.w3.org/2000/svg" xmlns:xlink="http://www.w3.org/1999/xlink">
    <title>编组备份 11</title>
    <g id="UI" stroke="none" stroke-width="1" fill="none" fill-rule="evenodd">
        <g id="数据可视化备份-2" transform="translate(1.515152, 2.000000)" fill="#1CC397" fill-rule="nonzero">
            <path d="M16.53125,0.015224359 L0.579126603,0.015224359 C0.264423077,0.015224359 0.0094150641,0.270232372 0.0094150641,0.584935897 L0.0094150641,12.5490785 C0.0094150641,12.8637821 0.264423077,13.1187901 0.579126603,13.1187901 L7.70052083,13.1187901 L7.70052083,14.2582131 L5.99138622,14.2582131 C5.51943109,14.2582131 5.13681891,14.6408253 5.13681891,15.1127804 C5.13681891,15.5847356 5.51943109,15.9673478 5.99138622,15.9673478 L11.1187901,15.9673478 C11.5907452,15.9673478 11.9733574,15.5847356 11.9733574,15.1127804 C11.9733574,14.6408253 11.5907452,14.2582131 11.1187901,14.2582131 L9.40965545,14.2582131 L9.40965545,13.1187901 L16.5310497,13.1187901 C16.8457532,13.1187901 17.1007613,12.8637821 17.1007613,12.5490785 L17.1007613,0.584935897 C17.1009615,0.270232372 16.8459535,0.015224359 16.53125,0.015224359 Z M15.3918269,11.4096554 L1.71854968,11.4096554 L1.71854968,1.72435897 L15.3918269,1.72435897 L15.3918269,11.4096554 L15.3918269,11.4096554 Z" id="形状"></path>
            <path d="M3.59515224,10.1696715 C3.72335737,10.2377804 3.86117788,10.2704327 3.99659455,10.2704327 C4.30208333,10.2704327 4.59775641,10.1059696 4.75160256,9.81790865 L6.58673878,6.37680288 L9.22055288,8.13261218 C9.58193109,8.37379808 10.0667067,8.30508814 10.3469551,7.97355769 L13.4803686,4.27043269 C13.7852564,3.91005609 13.7403846,3.37099359 13.380008,3.06610577 C13.0194311,2.76101763 12.4805689,2.80649038 12.1756811,3.16646635 L9.53465545,6.28786058 L6.75040064,4.43169071 C6.54987981,4.29807692 6.30188301,4.25500801 6.06810897,4.31410256 C5.83409949,4.37294093 5.63584155,4.52790953 5.52223558,4.74078526 L3.2431891,9.01342147 C3.02123397,9.4296875 3.1786859,9.94751603 3.59515224,10.1696715 L3.59515224,10.1696715 Z" id="路径"></path>
        </g>
    </g>
</svg>