<?xml version="1.0" encoding="UTF-8"?>
<svg width="12px" height="12px" viewBox="0 0 12 12" version="1.1" xmlns="http://www.w3.org/2000/svg" xmlns:xlink="http://www.w3.org/1999/xlink">
    <!-- Generator: Sketch 59.1 (86144) - https://sketch.com -->
    <title>数据库(3)备份 5</title>
    <desc>Created with Sketch.</desc>
    <g id="UI" stroke="none" stroke-width="1" fill="none" fill-rule="evenodd">
        <g id="数据库(3)备份-5" fill="#1890FF" fill-rule="nonzero">
            <path d="M4.20984754e-07,1.88679245 C4.20984754e-07,2.56087848 1.13879898,3.18375966 2.98742178,3.52080267 C4.83604457,3.85784569 7.11364179,3.85784569 8.96226459,3.52080267 C10.8108874,3.18375966 11.9496859,2.56087848 11.9496859,1.88679245 C11.9496859,0.844745755 9.27465772,-3.60378394e-13 5.97484318,-3.60378394e-13 C2.67502864,-3.60378394e-13 4.20984754e-07,0.844745755 4.20984754e-07,1.88679245 Z" id="路径"></path>
            <path d="M5.97484318,8.80558119 C3.34905702,8.80558119 1.11949727,8.27098999 0.317610474,7.52885164 C0.263456246,7.4765592 0.183269425,7.46174343 0.114004823,7.49123232 C0.0447402215,7.52072121 -0.000158584709,7.58879125 3.14965831e-11,7.66407176 L3.14965831e-11,10.0634428 C3.14965831e-11,11.1043233 2.67610105,11.9502353 5.97484318,11.9502353 C9.27358531,11.9502353 11.9496859,11.1043233 11.9496859,10.0634428 L11.9496859,7.66407176 C11.9496859,7.49740508 11.7547174,7.41564409 11.6320759,7.52885164 C10.8301891,8.27098999 8.60062934,8.80558119 5.97484318,8.80558119 Z" id="路径"></path>
            <path d="M5.97484318,4.71725603 C3.34905702,4.71725603 1.11949727,4.18266483 0.317610474,3.44052646 C0.263456244,3.38823402 0.183269419,3.37341825 0.114004816,3.40290715 C0.0447402134,3.43239604 -0.000158590647,3.50046609 3.29514194e-13,3.57574659 L3.29514194e-13,5.97511766 C3.29514194e-13,7.01599816 2.67610105,7.86191011 5.97484318,7.86191011 C9.27358531,7.86191011 11.9496859,7.01599816 11.9496859,5.97511766 L11.9496859,3.57574659 C11.9496859,3.40907992 11.7547174,3.32731893 11.6320759,3.44052646 C10.8301891,4.18266483 8.60062934,4.71725603 5.97484318,4.71725603 Z" id="路径"></path>
        </g>
    </g>
</svg>