<?xml version="1.0" encoding="UTF-8"?>
<svg width="12px" height="12px" viewBox="0 0 12 12" version="1.1" xmlns="http://www.w3.org/2000/svg" xmlns:xlink="http://www.w3.org/1999/xlink">
    <!-- Generator: Sketch 59.1 (86144) - https://sketch.com -->
    <title>excel(2)备份</title>
    <desc>Created with Sketch.</desc>
    <g id="UI" stroke="none" stroke-width="1" fill="none" fill-rule="evenodd">
        <g id="新建同步任务2-2" transform="translate(-150.000000, -303.000000)" fill="#1B8046" fill-rule="nonzero">
            <g id="excel(2)备份" transform="translate(150.000000, 303.000000)">
                <path d="M10.6956522,3.91304348 L8.86956522,3.91304348 L8.86956522,5.2173913 L10.6956522,5.2173913 L10.6956522,3.91304348 L10.6956522,3.91304348 Z M10.6956522,5.47826087 L8.86956522,5.47826087 L8.86956522,6.7826087 L10.6956522,6.7826087 L10.6956522,5.47826087 L10.6956522,5.47826087 Z M10.6956522,2.34782609 L8.86956522,2.34782609 L8.86956522,3.65217391 L10.6956522,3.65217391 L10.6956522,2.34782609 Z M10.6956522,8.34782609 L8.86956522,8.34782609 L8.86956522,9.65217391 L10.6956522,9.65217391 L10.6956522,8.34782609 Z M11.5860188,1.25236364 L6.98313713,1.25236364 C6.92972841,1.25241975 6.8768723,1.26317692 6.82768965,1.284 L6.82768965,0 L1.21902488e-13,1.36036364 L1.21902488e-13,10.6396364 L6.82768965,12 L6.82768965,10.7803636 C6.8768723,10.8011867 6.92972841,10.8119439 6.98313713,10.812 L11.5860188,10.812 C11.8145539,10.812 12,10.6178182 12,10.38 L12,1.68436364 C11.9994546,1.446 11.8145539,1.25236364 11.5860188,1.25236364 Z M4.69565217,8.08695652 L3.8758536,8.03276408 L3.26140997,6.46063578 L2.5950872,7.92492659 L1.82608696,7.87073414 L2.79936134,6.08074127 L1.92876443,4.12981326 L2.69722427,4.07562081 L3.20953083,5.53881682 L3.31166789,5.53881682 L3.87531319,3.96668852 L4.69511177,3.91304348 L3.67049865,5.97235638 L4.69565217,8.08695652 Z M11.4782609,10.4347826 L6.7826087,10.4347826 L6.7826087,9.77687779 L8.34727592,9.77687779 L8.34727592,8.57016516 L6.7826087,8.57016516 L6.7826087,8.29659194 L8.34727592,8.29659194 L8.34727592,7.0904331 L6.7826087,7.0904331 L6.7826087,6.76148069 L8.34727592,6.76148069 L8.34727592,5.55476806 L6.7826087,5.55476806 L6.7826087,5.22526186 L8.34727592,5.22526186 L8.34727592,4.01910302 L6.7826087,4.01910302 L6.7826087,3.69070441 L8.34727592,3.69070441 L8.34727592,2.48399178 L6.7826087,2.48399178 L6.7826087,1.82608696 L11.4782609,1.82608696 L11.4782609,10.4347826 Z M10.6956522,7.04347826 L8.86956522,7.04347826 L8.86956522,8.34782609 L10.6956522,8.34782609 L10.6956522,7.04347826 Z" id="形状"></path>
            </g>
        </g>
    </g>
</svg>