<?xml version="1.0" encoding="UTF-8"?>
<svg width="46px" height="46px" viewBox="0 0 46 46" version="1.1" xmlns="http://www.w3.org/2000/svg" xmlns:xlink="http://www.w3.org/1999/xlink">
    <!-- Generator: Sketch 59.1 (86144) - https://sketch.com -->
    <title>形状</title>
    <desc>Created with Sketch.</desc>
    <g id="UI" stroke="none" stroke-width="1" fill="none" fill-rule="evenodd">
        <g id="数据源管理-新增" transform="translate(-394.000000, -814.000000)" fill="#1B8046" fill-rule="nonzero">
            <g id="编组-9" transform="translate(320.000000, 84.000000)">
                <g id="excel(2)备份" transform="translate(74.000000, 730.000000)">
                    <path d="M41,15 L34,15 L34,20 L41,20 L41,15 L41,15 Z M41,21 L34,21 L34,26 L41,26 L41,21 L41,21 Z M41,9 L34,9 L34,14 L41,14 L41,9 Z M41,32 L34,32 L34,37 L41,37 L41,32 Z M44.4130721,4.80072727 L26.7686923,4.80072727 C26.5639589,4.80094238 26.3613438,4.8421782 26.1728103,4.922 L26.1728103,0 L1.21902488e-13,5.21472727 L1.21902488e-13,40.7852727 L26.1728103,46 L26.1728103,41.3247273 C26.3613438,41.4045491 26.5639589,41.4457849 26.7686923,41.446 L44.4130721,41.446 C45.2891232,41.446 46,40.7016364 46,39.79 L46,6.45672727 C45.9979092,5.543 45.2891232,4.80072727 44.4130721,4.80072727 Z M18,31 L14.8574388,30.7922623 L12.5020716,24.7657705 L9.94783427,30.3788852 L7,30.1711475 L10.7308851,23.3095082 L7.39359699,15.8309508 L10.3393597,15.6232131 L12.3032015,21.2321311 L12.6947269,21.2321311 L14.8553672,15.2056393 L17.9979284,15 L14.0702448,22.8940328 L18,31 Z M44,40 L26,40 L26,37.4780315 L31.997891,37.4780315 L31.997891,32.8522998 L26,32.8522998 L26,31.8036024 L31.997891,31.8036024 L31.997891,27.1799936 L26,27.1799936 L26,25.9190093 L31.997891,25.9190093 L31.997891,21.2932776 L26,21.2932776 L26,20.0301705 L31.997891,20.0301705 L31.997891,15.4065616 L26,15.4065616 L26,14.1477002 L31.997891,14.1477002 L31.997891,9.52196848 L26,9.52196848 L26,7 L44,7 L44,40 Z M41,27 L34,27 L34,32 L41,32 L41,27 Z" id="形状"></path>
                </g>
            </g>
        </g>
    </g>
</svg>