<?xml version="1.0" encoding="UTF-8"?>
<svg width="11px" height="12px" viewBox="0 0 11 12" version="1.1" xmlns="http://www.w3.org/2000/svg" xmlns:xlink="http://www.w3.org/1999/xlink">
    <!-- Generator: Sketch 59.1 (86144) - https://sketch.com -->
    <title>txt(1)备份 2</title>
    <desc>Created with Sketch.</desc>
    <g id="UI" stroke="none" stroke-width="1" fill="none" fill-rule="evenodd">
        <g id="新建同步任务2-2" transform="translate(-168.000000, -331.000000)" fill="#1B8046" fill-rule="nonzero">
            <g id="txt(1)备份-2" transform="translate(168.000000, 331.000000)">
                <path d="M10.0000628,4.72245603 L9.83121859,4.72245603 L9.83121859,3.20888819 C9.83121859,3.11240578 9.79503769,3.01592337 9.72267588,2.94959171 L6.76187186,0.103360553 C6.68951005,0.0370288945 6.60508794,0.00084798995 6.50860553,0.00084798995 L1.02116834,0.00084798995 C0.460364322,0.00084798995 0.00810301508,0.453109296 0.00810301508,1.01391332 L0.00810301508,10.9757224 C0.00810301508,11.5365264 0.460364322,11.9887877 1.02116834,11.9887877 L8.82418342,11.9887877 C9.08951005,11.9887877 9.35483668,11.880245 9.54177136,11.6872802 C9.73473618,11.4943153 9.83724874,11.241049 9.83121859,10.9757224 L9.83121859,10.2641646 L10.006093,10.2641646 C10.2714196,10.2641646 10.5186558,10.161652 10.7055905,9.96868719 C10.8925251,9.78175251 10.9950377,9.53451633 10.9890075,9.27521985 L10.9890075,5.71140075 C10.9890075,5.16868719 10.5427764,4.72245603 10.0000628,4.72245603 Z M6.55081658,0.905370603 L8.73976131,3.00386307 L6.55081658,2.94959171 L6.55081658,0.905370603 Z M9.1076005,10.9757224 C9.11363065,11.0541143 9.0834799,11.1264761 9.02920854,11.1807475 C8.97493719,11.2350188 8.90257538,11.2651696 8.82418342,11.2651696 L1.02116834,11.2651696 C0.864384422,11.2651696 0.731721106,11.1325063 0.731721106,10.9757224 L0.731721106,1.01391332 C0.731721106,0.857129397 0.864384422,0.72446608 1.02116834,0.72446608 L5.82719849,0.72446608 L5.82719849,3.3053706 C5.82719849,3.50436558 5.97795226,3.6611495 6.17694724,3.66717965 L9.1076005,3.73954146 L9.1076005,4.72245603 L2.89654523,4.72245603 C2.35383166,4.72245603 1.9076005,5.16868719 1.9076005,5.71140075 L1.9076005,9.27521985 C1.9076005,9.81793342 2.35383166,10.2641646 2.89654523,10.2641646 L9.1076005,10.2641646 L9.1076005,10.9757224 Z M10.2653894,9.27521985 C10.2653894,9.34758166 10.2412688,9.41391332 10.1930276,9.46215452 C10.1447864,9.51039573 10.0784548,9.54054648 10.006093,9.54054648 L2.89654523,9.54054648 C2.75182161,9.54054648 2.63121859,9.41994347 2.63121859,9.27521985 L2.63121859,5.71140075 C2.63121859,5.56667714 2.75182161,5.44607412 2.89654523,5.44607412 L10.0000628,5.44607412 C10.1447864,5.44607412 10.2653894,5.56667714 10.2653894,5.71140075 L10.2653894,9.27521985 Z" id="形状"></path>
                <path d="M3.79475917,6.8448964 L4.32875917,7.5708964 L3.72575917,8.3958964 L4.12775917,8.3958964 L4.51775917,7.8228964 L4.90475917,8.3958964 L5.30675917,8.3958964 L4.70375917,7.5708964 L5.23775917,6.8448964 L4.83875917,6.8448964 L4.51775917,7.3188964 L4.19375917,6.8448964 L3.79475917,6.8448964 Z M5.53175917,6.2118964 L5.53175917,8.3958964 L5.87375917,8.3958964 L5.87375917,6.2118964 L5.53175917,6.2118964 Z M6.84875917,6.8028964 C6.65675917,6.8028964 6.50375917,6.8418964 6.38675917,6.9258964 C6.26675917,7.0038964 6.20975917,7.1148964 6.20975917,7.2588964 C6.20975917,7.3938964 6.26975917,7.4988964 6.38975917,7.5738964 C6.44975917,7.6122964 6.54431917,7.6487764 6.67343917,7.6833364 L6.93803917,7.7481604 C7.00571917,7.7660164 7.05395917,7.7814964 7.08275917,7.7958964 C7.17275917,7.8378964 7.21775917,7.8948964 7.21775917,7.9668964 C7.21775917,8.0928964 7.09775917,8.1588964 6.85775917,8.1588964 C6.74375917,8.1588964 6.66275917,8.1378964 6.61175917,8.1018964 C6.56075917,8.0598964 6.52475917,7.9908964 6.50675917,7.8918964 L6.17375917,7.8918964 C6.20675917,8.2548964 6.43775917,8.4378964 6.86975917,8.4378964 C7.33475917,8.4378964 7.56875917,8.2728964 7.56875917,7.9428964 C7.56875917,7.8048964 7.50575917,7.6938964 7.38275917,7.6158964 C7.31975917,7.5731464 7.22975917,7.5354589 7.11529042,7.50156827 L6.76963117,7.4084164 C6.73271917,7.3971364 6.70415917,7.3872964 6.68375917,7.3788964 C6.59975917,7.3428964 6.56075917,7.2978964 6.56075917,7.2498964 C6.56075917,7.1898964 6.58475917,7.1478964 6.63875917,7.1208964 C6.68375917,7.0938964 6.75275917,7.0818964 6.84275917,7.0818964 C6.94775917,7.0818964 7.02575917,7.0968964 7.07675917,7.1298964 C7.12475917,7.1598964 7.16075917,7.2168964 7.18475917,7.2948964 L7.51775917,7.2948964 C7.48175917,6.9648964 7.25675917,6.8028964 6.84875917,6.8028964 Z M7.74275917,6.8448964 L8.14175917,6.8448964 L8.46575917,7.3188964 L8.78675917,6.8448964 L9.18575917,6.8448964 L8.65175917,7.5708964 L9.25475917,8.3958964 L8.85275917,8.3958964 L8.46575917,7.8228964 L8.07575917,8.3958964 L7.67375917,8.3958964 L8.27675917,7.5708964 L7.74275917,6.8448964 Z" id="xlsx"></path>
            </g>
        </g>
    </g>
</svg>