<?xml version="1.0" encoding="UTF-8"?>
<svg width="22px" height="20px" viewBox="0 0 22 20" version="1.1" xmlns="http://www.w3.org/2000/svg" xmlns:xlink="http://www.w3.org/1999/xlink">
    <!-- Generator: Sketch 59.1 (86144) - https://sketch.com -->
    <title>形状结合</title>
    <desc>Created with Sketch.</desc>
    <g id="组件" stroke="none" stroke-width="1" fill="none" fill-rule="evenodd">
        <g id="工作空间顶部导航栏" transform="translate(-20.000000, -22.000000)" fill="#FFFFFF" fill-rule="nonzero">
            <g id="菜单" transform="translate(20.000000, 22.000000)">
                <path d="M3.35254445,17 C3.71060699,17 4,17.2677761 4,17.5990923 L4,19.4009077 C4,19.7322239 3.71060699,20 3.35254445,20 L0.647455549,20 C0.28939301,20 -3.75342118e-14,19.7322239 -3.75342118e-14,19.4009077 L-3.75342118e-14,17.5990923 C-3.75342118e-14,17.2677761 0.28939301,17 0.647455549,17 L3.35254445,17 Z M21.4068945,17 C21.734892,17 22,17.2677761 22,17.5990923 L22,19.4009077 C22.0022324,19.7322239 21.7371385,20 21.4091411,20 L6.5930913,20 C6.26509384,20 6,19.7322239 6,19.4009077 L6,17.5990923 C6,17.2677761 6.26509384,17 6.5930913,17 L21.4068945,17 Z M3.35254445,9 C3.71060699,9 4,9.2677761 4,9.59909228 L4,11.4009077 C4,11.7322239 3.71060699,12 3.35254445,12 L0.647455549,12 C0.28939301,12 -3.75342118e-14,11.7322239 -3.75342118e-14,11.4009077 L-3.75342118e-14,9.59909228 C-3.75342118e-14,9.2677761 0.28939301,9 0.647455549,9 L3.35254445,9 Z M21.4068945,9 C21.734892,9 22,9.2677761 22,9.59909228 L22,11.4009077 C22.0022324,11.7322239 21.7371385,12 21.4091411,12 L6.5930913,12 C6.26509384,12 6,11.7322239 6,11.4009077 L6,9.59909228 C6,9.2677761 6.26509384,9 6.5930913,9 L21.4068945,9 Z M3.35254445,-1.19033255e-13 C3.71060699,-1.19033255e-13 4,0.267776097 4,0.599092284 L4,2.40090772 C4,2.72995461 3.71060699,3 3.35254445,3 L0.647455549,3 C0.28939301,3 -3.75342118e-14,2.7322239 -3.75342118e-14,2.40090772 L-3.75342118e-14,0.599092284 C-3.75342118e-14,0.267776097 0.28939301,-1.19033255e-13 0.647455549,-1.19033255e-13 L3.35254445,-1.19033255e-13 Z M21.4068945,-1.19033255e-13 C21.734892,-1.19033255e-13 22,0.267776097 22,0.599092284 L22,2.40090772 C22.0022324,2.72995461 21.7371385,3 21.4091411,3 L6.5930913,3 C6.26509384,3 6,2.7322239 6,2.40090772 L6,0.599092284 C6,0.267776097 6.26509384,-1.19033255e-13 6.5930913,-1.19033255e-13 L21.4068945,-1.19033255e-13 Z" id="形状结合"></path>
            </g>
        </g>
    </g>
</svg>