<?xml version="1.0" encoding="UTF-8"?>
<svg width="20px" height="20px" viewBox="0 0 20 20" version="1.1" xmlns="http://www.w3.org/2000/svg" xmlns:xlink="http://www.w3.org/1999/xlink">
    <title>切片备份 2</title>
    <g id="UI" stroke="none" stroke-width="1" fill="none" fill-rule="evenodd">
        <g id="教程备份" transform="translate(3.000000, 3.000000)" fill="#333333" fill-rule="nonzero">
            <path d="M11.9073508,2.97500425 L11.9073508,11.9069969 L3.26364843,11.9069969 C2.27668669,11.9069969 1.47723573,11.6932987 1.47723573,10.7067722 C1.47723573,9.71935929 2.27666192,9.19949899 3.26364843,9.19949899 L10.9845175,9.19949899 L10.9845175,0.285836276 L2.66788856,0.285836276 C1.35818108,0.285836276 0.286176,1.35783782 0.286176,2.66797347 L0.286176,11.3016616 C0.286176,12.6118043 1.35817755,13.6837988 2.66788856,13.6837988 L13.6841562,13.6837988 L13.6841562,2.97500071 L11.9073508,2.97500069 L11.9073508,2.97500069 L11.9073508,2.97500425 Z M3.85898368,10.1110123 L10.9845175,10.1110123 L10.9845175,10.9667094 L3.85898368,10.9667094 L3.85898368,10.1110123 L3.85898368,10.1110123 L3.85898368,10.1110123 Z" id="形状"></path>
        </g>
    </g>
</svg>