<?xml version="1.0" encoding="UTF-8"?>
<svg width="20px" height="20px" viewBox="0 0 20 20" version="1.1" xmlns="http://www.w3.org/2000/svg" xmlns:xlink="http://www.w3.org/1999/xlink">
    <title>切片</title>
    <g id="UI" stroke="none" stroke-width="1" fill="none" fill-rule="evenodd">
        <path d="M15.7268898,13.6601374 C15.853765,13.4641372 15.9683901,13.2628869 16.0751402,13.0555117 C16.1005152,13.0056366 16.1232653,12.9548866 16.1477653,12.9041365 C16.2291404,12.7361363 16.3035155,12.5646361 16.3708906,12.3896359 C16.3980156,12.3187608 16.4242656,12.2478858 16.4496407,12.1761357 C16.5056407,12.0133855 16.5546408,11.8488853 16.5992658,11.6817601 C16.6202658,11.60126 16.6430159,11.5216349 16.6613909,11.4411348 C16.6998909,11.2687596 16.729641,11.0928844 16.755016,10.9152592 C16.766391,10.8391341 16.781266,10.764759 16.790016,10.6877589 C16.8180161,10.4340087 16.8355161,10.1776334 16.8355161,9.91775805 C16.8355161,6.10362861 13.7318875,3 9.91775805,3 C6.10362861,3 3,6.10275361 3,9.91688305 C3,10.1776334 3.01750002,10.4340087 3.04550005,10.6868839 C3.05425006,10.763884 3.06912508,10.8382591 3.08050009,10.9152592 C3.10675012,11.0920094 3.13562516,11.2670096 3.1741252,11.4393848 C3.19250022,11.5216349 3.21525025,11.60126 3.23625027,11.6808851 C3.28087533,11.8480103 3.32987538,12.0133855 3.38587545,12.1752607 C3.41037548,12.2470108 3.43662551,12.3178858 3.46375054,12.3887609 C3.53112562,12.5637611 3.60637571,12.7352613 3.6868758,12.9032615 C3.71137583,12.9540116 3.73412585,13.0047616 3.75950088,13.0546367 C3.86537601,13.2620119 3.98087614,13.4632622 4.10687629,13.6575124 C4.11125129,13.6653874 4.1156263,13.6732624 4.1208763,13.6802624 C5.35725274,15.5772646 7.49225523,16.8346411 9.91775805,16.8346411 C12.3432609,16.8346411 14.4791384,15.5763896 15.7137648,13.6811374 C15.7181398,13.6741374 15.7225148,13.6671374 15.7268898,13.6601374 Z M9.91775805,6.31362886 C11.3203847,6.31362886 12.460511,7.45463018 12.460511,8.85638181 C12.460511,10.2598834 11.3195097,11.4017598 9.91775805,11.4017598 C8.51600642,11.4017598 7.37500509,10.2598834 7.37500509,8.85638181 C7.37500509,7.45463018 8.51513142,6.31362886 9.91775805,6.31362886 Z M5.71250316,14.2481381 C6.434379,12.5978862 8.0741309,11.4927599 9.91775805,11.4927599 C11.7613852,11.4927599 13.4011371,12.5987612 14.1238879,14.2472631 C13.0345117,15.3051393 11.55226,15.9596401 9.91775805,15.9596401 C8.28325615,15.9596401 6.80100442,15.3051393 5.71250316,14.2481381 Z" id="形状备份-4" fill="#333333" fill-rule="nonzero"></path>
    </g>
</svg>