<?xml version="1.0" encoding="UTF-8"?>
<svg width="20px" height="20px" viewBox="0 0 20 20" version="1.1" xmlns="http://www.w3.org/2000/svg" xmlns:xlink="http://www.w3.org/1999/xlink">
    <title>切片备份 3</title>
    <g id="UI" stroke="none" stroke-width="1" fill="none" fill-rule="evenodd">
        <path d="M16.6604977,9.59045906 L14.3678735,6.72634982 C14.272626,6.63110232 14.082131,6.53585481 13.8899649,6.53585481 L13.6994699,6.53585481 C13.5089749,6.63110232 13.3168089,6.82159733 13.3168089,7.10901086 L13.3168089,8.828479 L8.73156049,8.828479 C8.06315693,8.828479 7.58524839,9.30638755 7.58524839,9.9747911 C7.58524839,10.6431947 8.06315693,11.1211032 8.73156049,11.1211032 L13.3168089,11.1211032 L13.3168089,12.8389003 C13.3168089,13.1246429 13.5073039,13.3168089 13.6994699,13.4120564 L13.8899649,13.4120564 C14.0804599,13.4120564 14.272626,13.3168089 14.3678735,13.2215614 L16.6604977,10.3557811 C16.7557452,10.1636151 16.7557452,9.87787259 16.6604977,9.59045906 Z M11.0241847,14.5583685 L6.43893629,14.5583685 C5.77053274,14.5583685 5.2926242,14.0804599 5.2926242,13.4120564 L5.2926242,6.43893629 C5.2926242,5.77053274 5.77053274,5.2926242 6.43893629,5.2926242 L11.0241847,5.2926242 C11.6925882,5.2926242 12.1704968,4.81471565 12.1704968,4.1463121 C12.1704968,3.47790854 11.6925882,3 11.0241847,3 L5.2926242,3 C4.05106459,3 3,4.05106459 3,5.2926242 L3,14.5583685 C3,15.7999281 4.05106459,16.8509927 5.2926242,16.8509927 L11.0241847,16.8509927 C11.6925882,16.8509927 12.1704968,16.3730841 12.1704968,15.7046806 C12.1704968,15.1315245 11.5973407,14.5583685 11.0241847,14.5583685 Z" id="形状备份" fill="#333333" fill-rule="nonzero"></path>
    </g>
</svg>