<?xml version="1.0" encoding="UTF-8"?>
<svg width="20px" height="20px" viewBox="0 0 20 20" version="1.1" xmlns="http://www.w3.org/2000/svg" xmlns:xlink="http://www.w3.org/1999/xlink">
    <title>切片备份 5</title>
    <g id="UI" stroke="none" stroke-width="1" fill="none" fill-rule="evenodd">
        <g id="刷新" transform="translate(1.000000, 3.000000)" fill="#999999" fill-rule="nonzero">
            <path d="M17.0347786,6.31405838 L15.0303211,8.30941305 L15.0303211,8.30941306 C14.8608342,8.46427541 14.6012029,8.46427541 14.4317161,8.30941305 L12.437269,6.31405838 C12.2003773,6.04072218 12.3589127,5.9404993 12.5283809,5.78560892 L14.3506223,5.78560892 L14.3506223,5.78560896 C13.6990595,2.5834662 10.5750032,0.515796334 7.37286048,1.16736714 C5.68977715,1.50983522 4.23857493,2.56676884 3.39623244,4.06359183 L2.39946668,3.6718098 L2.39946668,3.67180987 C4.23286629,0.276693127 8.47142,-0.989329888 11.8665367,0.844069724 C13.7472389,1.85966703 15.0595634,3.68028535 15.4284803,5.78560769 L16.9482338,5.78560769 L16.9482338,5.7856077 C17.1146428,5.8867542 17.1675485,6.10365039 17.0664027,6.27006074 C17.0570091,6.28551535 17.0464403,6.30022437 17.0347901,6.31405756 L17.0347786,6.31405838 Z M2.71829301,5.8858318 L4.72275049,7.88118647 L4.72275049,7.88118648 C4.84807092,8.03089814 4.8282977,8.25385663 4.67858563,8.37917626 C4.66522508,8.39036009 4.65105594,8.40054087 4.63619409,8.4096354 L2.89686562,8.4096354 L2.89686557,8.40963523 C3.84319218,11.5405306 7.14843281,13.3114652 10.2793282,12.365148 C11.5785951,11.9724383 12.7035421,11.1453477 13.4658547,10.0223254 L14.4726416,10.4141074 L14.4726416,10.4141072 C12.412326,13.6747241 8.09886779,14.6477625 4.83823755,12.5874603 C3.32937537,11.6340477 2.24281896,10.1391146 1.80169363,8.40964976 L0.208143401,8.40964976 C0.0432305989,8.25475938 -0.11530357,8.15453651 0.117031467,7.8812003 L2.11147853,5.88584563 L2.11147855,5.88584561 C2.28213733,5.72592467 2.54762537,5.72592467 2.71828415,5.88584565 L2.71829301,5.8858318 Z" id="形状"></path>
        </g>
    </g>
</svg>