<?xml version="1.0" encoding="UTF-8"?>
<svg width="20px" height="20px" viewBox="0 0 20 20" version="1.1" xmlns="http://www.w3.org/2000/svg" xmlns:xlink="http://www.w3.org/1999/xlink">
    <title>切片备份 6</title>
    <defs>
        <linearGradient x1="14.8125%" y1="16.2514568%" x2="90.7148438%" y2="80.6134976%" id="linearGradient-1">
            <stop stop-color="#FFDA00" offset="0.0819493007%"></stop>
            <stop stop-color="#FFA800" offset="100%"></stop>
        </linearGradient>
    </defs>
    <g id="UI" stroke="none" stroke-width="1" fill="none" fill-rule="evenodd">
        <g id="钻石" transform="translate(2.000000, 3.000000)" fill-rule="nonzero">
            <path d="M11.4713542,0.126302083 L4.4921875,0.126302083 C4.10807292,0.126302083 3.75,0.315104167 3.52864583,0.627604167 L0.33203125,5.22070313 C0.009765625,5.68294271 0.0618489583,6.31119792 0.458984375,6.71158854 L7.14518229,13.4856771 C7.60416667,13.9511719 8.35611979,13.9511719 8.81510417,13.4856771 L15.5013021,6.71484375 C15.8984375,6.31445313 15.9505208,5.68619792 15.6282552,5.22395833 L12.4316406,0.630859375 C12.2135417,0.315104167 11.8554688,0.126302083 11.4713542,0.126302083 L11.4713542,0.126302083 Z" id="路径" fill="url(#linearGradient-1)"></path>
            <path d="M7.96223958,9.12304687 C7.80598958,9.12304687 7.65625,9.06119792 7.54557292,8.95052083 L4.04947917,5.43489583 L4.87955729,4.60807292 L7.96223958,7.70703125 L11.0807292,4.57226562 L11.9108073,5.39908854 L8.37890625,8.95052083 C8.26822917,9.06119792 8.11848958,9.12304687 7.96223958,9.12304687 L7.96223958,9.12304687 Z" id="路径" fill="#FFFEFD"></path>
        </g>
    </g>
</svg>