<?xml version="1.0" encoding="UTF-8"?>
<svg width="20px" height="20px" viewBox="0 0 20 20" version="1.1" xmlns="http://www.w3.org/2000/svg" xmlns:xlink="http://www.w3.org/1999/xlink">
    <title>切片备份 4</title>
    <g id="UI" stroke="none" stroke-width="1" fill="none" fill-rule="evenodd">
        <path d="M16.4037779,7.96750765 L15.498267,7.84086276 C15.2972183,7.81236767 15.134163,7.67622442 15.0550099,7.49100627 C14.876124,7.06832897 14.6481632,6.67256371 14.3758767,6.31162579 C14.253981,6.15015356 14.2175706,5.93960644 14.2935575,5.75280524 L14.6370818,4.90586757 C14.7431469,4.64624556 14.6402479,4.34704702 14.3964565,4.20773765 L12.43821,3.075849 C12.1944186,2.93495656 11.8857217,2.99511288 11.713168,3.21674143 L11.1527644,3.93386809 C11.0277026,4.09534031 10.8250708,4.16974418 10.622439,4.14441521 C10.4008104,4.11592011 10.1744327,4.1000895 9.94488884,4.1000895 C9.71534499,4.1000895 9.48896725,4.11592011 9.26733871,4.14441521 C9.06470689,4.16974418 8.86207508,4.09534031 8.73701325,3.93386809 L8.17660964,3.21674143 C8.00405599,2.99511288 7.69535908,2.93495656 7.45156768,3.075849 L5.49332116,4.20615459 C5.24952976,4.34704702 5.14821385,4.6446625 5.25269588,4.90428451 L5.59622013,5.75122218 C5.67220706,5.93960644 5.63579665,6.1485705 5.51390095,6.31004273 C5.24161445,6.67098065 5.0120706,7.06674591 4.83476776,7.48942321 C4.75561471,7.67622442 4.59255942,7.81236767 4.39151067,7.8392797 L3.48599974,7.96592459 C3.207381,8.00550111 3,8.24296027 3,8.52474514 L3,10.7869394 C3,11.0671412 3.207381,11.3046003 3.48441668,11.3441769 L4.3899276,11.4708218 C4.59097636,11.4993169 4.75403165,11.6354601 4.8331847,11.8206783 C5.0120706,12.2433556 5.24003139,12.6391208 5.51231789,13.0000587 C5.63421359,13.161531 5.670624,13.3720781 5.59463707,13.5588793 L5.25111282,14.405817 C5.14504773,14.665439 5.24794669,14.9646375 5.4917381,15.1039469 L7.44998462,16.2342525 C7.69377602,16.3751449 8.00247293,16.3149886 8.17502658,16.09336 L8.73543019,15.3762334 C8.86049202,15.2147611 9.06312383,15.1403573 9.26575565,15.1656863 C9.48738419,15.1941814 9.71376192,15.210012 9.94330578,15.210012 C10.1728496,15.210012 10.3992274,15.1941814 10.6208559,15.1656863 C10.8234877,15.1403573 11.0261195,15.2147611 11.1511814,15.3762334 L11.711585,16.09336 C11.8841386,16.3149886 12.1928355,16.3751449 12.4366269,16.2342525 L14.3948735,15.1039469 C14.6386649,14.9630544 14.7399808,14.665439 14.6354987,14.405817 L14.2919745,13.5588793 C14.2159876,13.3720781 14.252398,13.161531 14.3742937,13.0000587 C14.6465802,12.6391208 14.876124,12.2433556 15.0534269,11.8206783 C15.1325799,11.633877 15.2956352,11.4977338 15.4966839,11.4708218 L16.4021949,11.3441769 C16.6808136,11.3046003 16.8866473,11.0671412 16.8866473,10.7869394 L16.8866473,8.52474514 C16.8897777,8.24296027 16.6823967,8.00550111 16.4037779,7.96750765 Z M9.94488884,11.8539225 C8.73068101,11.8539225 7.74601704,10.8692586 7.74601704,9.65505073 C7.74601704,8.4408429 8.73068101,7.45617893 9.94488884,7.45617893 C11.1590967,7.45617893 12.1437606,8.4408429 12.1437606,9.65505073 C12.1437606,10.8692586 11.1590967,11.8539225 9.94488884,11.8539225 Z" id="形状备份-3" fill="#333333" fill-rule="nonzero"></path>
    </g>
</svg>