<?xml version="1.0" encoding="UTF-8"?>
<svg width="20px" height="20px" viewBox="0 0 20 20" version="1.1" xmlns="http://www.w3.org/2000/svg" xmlns:xlink="http://www.w3.org/1999/xlink">
    <title>切片备份</title>
    <g id="UI" stroke="none" stroke-width="1" fill="none" fill-rule="evenodd">
        <path d="M13.8375544,8.0618495 L5.7318868,8.0618495 L5.73188685,8.0618495 C4.77708574,8.06592465 4.0040743,8.83893591 4,9.79373975 L4,15.2644102 L4,15.2643934 C4.0040751,16.2185874 4.77766673,16.9905379 5.73187311,16.9925751 L13.8375407,16.9925751 L13.8375407,16.9925751 C14.7917471,16.9905498 15.5653533,16.2186079 15.5694412,15.264407 L15.5694412,9.7937366 L15.5694412,9.79374996 C15.5653769,8.83894884 14.792372,8.0659374 13.8375681,8.0618495 L13.8375544,8.0618495 Z M10.4927127,12.8189601 L10.4927127,14.6140247 L9.06558599,14.6140247 L9.06558599,12.8152413 L9.06558602,12.8152413 C8.37293111,12.4180715 8.13339275,11.5345926 8.53056255,10.8419363 C8.92773234,10.1492814 9.8112113,9.90974303 10.5038676,10.3069128 C11.1965225,10.7040826 11.4360608,11.5875616 11.0388911,12.2802179 C10.9112087,12.5028933 10.726543,12.6875582 10.5038676,12.8152413 L10.4927127,12.8189601 Z M13.5959858,8.11016943 L12.481039,8.11016943 L12.481039,6.80939839 L12.481039,6.80939839 C12.481039,5.32129509 11.2746901,4.11494213 9.78658273,4.11494213 C8.29847944,4.11494213 7.09212647,5.32129099 7.09212647,6.80939839 L7.09212647,8.11016943 L5.97717967,8.11016943 L5.97717967,6.80939839 L5.97717967,6.80939896 C5.97717967,4.70552738 7.68270704,3 9.78657863,3 C11.8904502,3 13.5959858,4.70552738 13.5959858,6.80939896 C13.5959858,6.80939896 13.5959858,6.80939896 13.5959858,6.80939896 L13.5959858,8.11016943 Z" id="形状备份-2" fill="#333333" fill-rule="nonzero"></path>
    </g>
</svg>