<?xml version="1.0" encoding="UTF-8"?>
<svg width="16px" height="9px" viewBox="0 0 16 9" version="1.1" xmlns="http://www.w3.org/2000/svg" xmlns:xlink="http://www.w3.org/1999/xlink">
    <title>下降</title>
    <g id="UI" stroke="none" stroke-width="1" fill="none" fill-rule="evenodd">
        <g id="治理首页" transform="translate(-381.000000, -214.000000)" fill="#FF4D4F" fill-rule="nonzero">
            <g id="编组-12" transform="translate(166.000000, 78.999952)">
                <g id="编组-10" transform="translate(167.586207, 128.000096)">
                    <g id="下降" transform="translate(55.344828, 11.000000) scale(1, -1) translate(-55.344828, -11.000000) translate(47.586207, 7.000000)">
                        <path d="M1.0551691,0.139211997 L1.10482438,0.182012016 L5.45917589,4.36361532 L8.75917973,1.19521632 L12.516419,4.80282521 C12.554488,4.83922528 12.5867639,4.87882533 12.6132467,4.92162534 L13.5240069,4.04642479 L14.8965596,8.00003564 L10.779307,6.68203474 L11.7252399,5.77403352 L11.7252399,5.77403352 C11.6992298,5.75907643 11.6743407,5.74236861 11.6507572,5.72403365 L11.601102,5.68123363 L8.75916924,2.95202733 L5.45957435,6.12042633 L0.189507332,1.06042045 L0.189507333,1.06042045 C-0.0614209764,0.819987667 -0.0632078858,0.428442211 0.185515413,0.185878179 C0.186840176,0.184586224 0.188170831,0.183299931 0.189507333,0.182019323 L0.189507326,0.182019329 C0.424762395,-0.0430839012 0.797376568,-0.0615054852 1.0551627,0.139219311 L1.0551691,0.139211997 Z" id="路径"></path>
                    </g>
                </g>
            </g>
        </g>
    </g>
</svg>