<?xml version="1.0" encoding="UTF-8"?>
<svg width="16px" height="15px" viewBox="0 0 16 15" version="1.1" xmlns="http://www.w3.org/2000/svg" xmlns:xlink="http://www.w3.org/1999/xlink">
    <title>info-circle-o - anticon</title>
    <g id="UI" stroke="none" stroke-width="1" fill="none" fill-rule="evenodd" fill-opacity="0.45">
        <g id="治理首页" transform="translate(-426.000000, -103.000000)" fill="#000000">
            <g id="编组-12" transform="translate(166.000000, 78.999952)">
                <g id="编组-9" transform="translate(260.689655, 24.000096)">
                    <path d="M10.9964305,0.936523438 C12.0719567,1.56087552 12.9218831,2.41080191 13.5462352,3.48632812 C14.1705873,4.56185434 14.4827586,5.73306658 14.4827586,7 C14.4827586,8.26693342 14.1705873,9.43814566 13.5462352,10.5136719 C12.9218831,11.5891981 12.0719567,12.4391245 10.9964305,13.0634766 C9.92090428,13.6878286 8.74969204,14 7.48275862,14 C6.2158252,14 5.04461296,13.6878286 3.96908675,13.0634766 C2.89356053,12.4391245 2.04363414,11.5891981 1.41928206,10.5136719 C0.794929978,9.43814566 0.482758621,8.26693342 0.482758621,7 C0.482758621,5.73306658 0.794929978,4.56185434 1.41928206,3.48632812 C2.04363414,2.41080191 2.89356053,1.56087552 3.96908675,0.936523438 C5.04461296,0.312171357 6.2158252,0 7.48275862,0 C8.74969204,0 9.92090428,0.312171357 10.9964305,0.936523438 Z M11.7347117,11.2519531 C12.2907041,10.6959608 12.7236425,10.0579463 13.0335399,9.33789062 C13.3434373,8.59960568 13.4983836,7.8203166 13.4983836,7 C13.4983836,6.1796834 13.33888,5.40039432 13.019868,4.66210938 C12.7190852,3.94205369 12.2907041,3.30403924 11.7347117,2.74804688 C11.1787194,2.19205451 10.5407049,1.75911613 9.82064925,1.44921875 C9.0823643,1.13932137 8.30307522,0.984375 7.48275862,0.984375 C6.66244202,0.984375 5.88315294,1.14387861 5.144868,1.46289062 C4.42481231,1.76367338 3.78679786,2.19205451 3.2308055,2.74804688 C2.67481313,3.30403924 2.24187475,3.94205369 1.93197737,4.66210938 C1.62207999,5.40039432 1.46713362,6.1796834 1.46713362,7 C1.46713362,7.8203166 1.62663723,8.59960568 1.94564925,9.33789062 C2.246432,10.0579463 2.67481313,10.6959608 3.2308055,11.2519531 C3.78679786,11.8079455 4.42481231,12.2408839 5.144868,12.5507812 C5.88315294,12.8606786 6.66244202,13.015625 7.48275862,13.015625 C8.30307522,13.015625 9.0823643,12.8561214 9.82064925,12.5371094 C10.5407049,12.2363266 11.1787194,11.8079455 11.7347117,11.2519531 Z M9.09603987,9.65234375 C9.2327593,9.65234375 9.34896908,9.70019483 9.44467268,9.79589844 C9.54037629,9.89160204 9.58822737,10.0078118 9.58822737,10.1445312 C9.58822737,10.2812507 9.54037629,10.3974605 9.44467268,10.4931641 C9.34896908,10.5888677 9.2327593,10.6367188 9.09603987,10.6367188 L5.78744612,10.6367188 C5.65072669,10.6367188 5.53451691,10.5888677 5.43881331,10.4931641 C5.3431097,10.3974605 5.29525862,10.2812507 5.29525862,10.1445312 C5.29525862,10.0078118 5.3431097,9.89160204 5.43881331,9.79589844 C5.53451691,9.70019483 5.65072669,9.65234375 5.78744612,9.65234375 L6.9495555,9.65234375 L6.9495555,5.359375 L6.129243,5.359375 C5.99252356,5.359375 5.87631379,5.30924529 5.78061018,5.20898438 C5.68490658,5.10872346 5.6370555,4.9947923 5.6370555,4.8671875 C5.6370555,4.73046807 5.68490658,4.61425829 5.78061018,4.51855469 C5.87631379,4.42285108 5.99252356,4.375 6.129243,4.375 L7.441743,4.375 C7.57846243,4.375 7.6946722,4.42285108 7.79037581,4.51855469 C7.88607941,4.61425829 7.9339305,4.73046807 7.9339305,4.8671875 L7.9339305,9.65234375 L9.09603987,9.65234375 Z M7.09311018,3.35644531 C6.99740658,3.26074171 6.9495555,3.14681056 6.9495555,3.01464844 C6.9495555,2.88248632 6.99740658,2.76627654 7.09311018,2.66601562 C7.18881379,2.56575471 7.30502356,2.515625 7.441743,2.515625 C7.57846243,2.515625 7.6946722,2.56575471 7.79037581,2.66601562 C7.88607941,2.76627654 7.9339305,2.88248632 7.9339305,3.01464844 C7.9339305,3.14681056 7.88607941,3.26074171 7.79037581,3.35644531 C7.6946722,3.45214892 7.57846243,3.5 7.441743,3.5 C7.30502356,3.5 7.18881379,3.45214892 7.09311018,3.35644531 Z" id="info-circle-o---anticon"></path>
                </g>
            </g>
        </g>
    </g>
</svg>