<?xml version="1.0" encoding="UTF-8"?>
<svg width="45px" height="30px" viewBox="0 0 45 30" version="1.1" xmlns="http://www.w3.org/2000/svg" xmlns:xlink="http://www.w3.org/1999/xlink">
    <!-- Generator: Sketch 59.1 (86144) - https://sketch.com -->
    <title>左关联</title>
    <desc>Created with Sketch.</desc>
    <g id="UI" stroke="none" stroke-width="1" fill="none" fill-rule="evenodd">
        <g id="左关联" fill="#ccc" fill-rule="nonzero">
            <path d="M14.9055233,29.7819767 C6.71947674,29.7819767 0.0218023256,23.0843023 0.0218023256,14.8982558 C0.0218023256,6.7122093 6.71947674,0.0145348837 14.9055233,0.0145348837 C23.0915698,0.0145348837 29.7892442,6.7122093 29.7892442,14.8982558 C29.7892442,23.0843023 23.0915698,29.7819767 14.9055233,29.7819767 Z M14.9055233,27.9215116 C22.068314,27.9215116 27.9287791,22.0610465 27.9287791,14.8982558 C27.9287791,7.73546512 22.068314,1.875 14.9055233,1.875 C7.74273256,1.875 1.88226744,7.73546512 1.88226744,14.8982558 C1.88226744,22.0610465 7.74273256,27.9215116 14.9055233,27.9215116 Z M29.7892442,29.7819767 C21.6031977,29.7819767 14.9055233,23.0843023 14.9055233,14.8982558 C14.9055233,6.7122093 21.6031977,0.0145348837 29.7892442,0.0145348837 C37.9752907,0.0145348837 44.6729651,6.7122093 44.6729651,14.8982558 C44.6729651,23.0843023 37.9752907,29.7819767 29.7892442,29.7819767 L29.7892442,29.7819767 Z M29.7892442,27.9215116 C36.9520349,27.9215116 42.8125,22.0610465 42.8125,14.8982558 C42.8125,7.73546512 36.9520349,1.875 29.7892442,1.875 C22.6264535,1.875 16.7659884,7.73546512 16.7659884,14.8982558 C16.7659884,22.0610465 22.6264535,27.9215116 29.7892442,27.9215116 Z M22.8125,2.69127907 C18.4636628,5.89127907 16.1613372,9.29127907 16.1613372,13.9912791 C16.1613372,18.6912791 18.5915698,23.0912791 22.8125,26.2912791 C21.0218023,26.7912791 18.653094,28.8443647 16.8623963,28.8443647 C7.65309396,28.8443647 0.8125,21.1912791 0.8125,13.9912791 C0.8125,6.79127907 8.23110465,0.99127907 17.440407,0.99127907 C19.2311047,0.99127907 21.1497093,2.19127907 22.8125,2.69127907 Z" id="形状"></path>
        </g>
    </g>
</svg>