<?xml version="1.0" encoding="UTF-8"?>
<svg width="32px" height="32px" viewBox="0 0 32 32" version="1.1" xmlns="http://www.w3.org/2000/svg" xmlns:xlink="http://www.w3.org/1999/xlink">
    <!-- Generator: Sketch 59.1 (86144) - https://sketch.com -->
    <title>编组 4</title>
    <desc>Created with Sketch.</desc>
    <g id="组件" stroke="none" stroke-width="1" fill="none" fill-rule="evenodd">
        <g id="工作空间顶部导航栏" transform="translate(-84.000000, -14.000000)" stroke="#FFFFFF" stroke-width="1.36">
            <g id="编组-4" transform="translate(80.000000, 15.000000)">
                <g id="编组-3" transform="translate(11.284293, 0.000000)">
                    <polygon id="矩形" points="8.30848304 2.44249065e-14 15.4023982 4.12692495 8.34178556 8.3687838 1.28117295 4.12692495"></polygon>
                    <line x1="16.0269322" y1="4.775204" x2="16.0269322" y2="12.4359755" id="直线" stroke-linecap="square"></line>
                    <line x1="8.30848304" y1="8.3687838" x2="8.30848304" y2="16.2149377" id="直线备份" stroke-linecap="square"></line>
                    <line x1="0.653846154" y1="4.77259845" x2="0.653846154" y2="20.0993525" id="直线备份-2" stroke-linecap="square"></line>
                </g>
                <g id="编组-3备份" transform="translate(24.860297, 19.535456) rotate(120.000000) translate(-24.860297, -19.535456) translate(15.860297, 8.035456)">
                    <polygon id="矩形" points="9.61617535 -2.84217094e-14 16.7100905 4.12692495 9.64947787 8.3687838 2.58886526 4.12692495"></polygon>
                    <line x1="17.3346245" y1="4.775204" x2="17.3346245" y2="12.6213578" id="直线" stroke-linecap="square"></line>
                    <line x1="9.61617535" y1="8.3687838" x2="9.64947787" y2="17.5118183" id="直线备份" stroke-linecap="square"></line>
                    <line x1="1.96153846" y1="4.77259845" x2="1.90642182" y2="21.2014661" id="直线备份-2" stroke-linecap="square"></line>
                </g>
                <g id="编组-3备份-2" transform="translate(16.723225, 19.091028) scale(-1, 1) rotate(120.000000) translate(-16.723225, -19.091028) translate(7.723225, 5.591028)">
                    <polygon id="矩形" points="8.30848304 2.44249065e-14 15.4023982 4.12692495 8.34178556 8.3687838 1.28117295 4.12692495"></polygon>
                    <line x1="16.0269322" y1="4.775204" x2="16.6082533" y2="25.8820968" id="直线" stroke-linecap="square"></line>
                    <line x1="8.30848304" y1="8.3687838" x2="8.34178556" y2="16.9250349" id="直线备份" stroke-linecap="square"></line>
                    <line x1="0.653846154" y1="4.77259845" x2="1.28117295" y2="11.95208" id="直线备份-2" stroke-linecap="square"></line>
                </g>
            </g>
        </g>
    </g>
</svg>