<?xml version="1.0" encoding="UTF-8"?>
<svg width="16px" height="14px" viewBox="0 0 16 14" version="1.1" xmlns="http://www.w3.org/2000/svg" xmlns:xlink="http://www.w3.org/1999/xlink">
    <title>数据开发</title>
    <g id="UI" stroke="none" stroke-width="1" fill="none" fill-rule="evenodd">
        <g id="数据开发" transform="translate(-0.000000, 0.000000)" fill="#FFFFFF" fill-rule="nonzero">
            <path d="M14.3305398,10.6664299 L0.530539773,10.6664299 C0.239630682,10.6664299 0.00326704545,10.4300663 0.00326704545,10.1391572 L0.00326704545,0.530066288 C0.00326704545,0.239157197 0.239630682,0.00279356055 0.530539773,0.00279356055 L14.3214489,0.00279356055 C14.612358,0.00279356055 14.8487216,0.239157197 14.8487216,0.530066288 L14.8487216,10.1300663 C14.8578125,10.4209754 14.6214489,10.6664299 14.3305398,10.6664299 L14.3305398,10.6664299 Z M1.12144886,9.5391572 L13.7214489,9.5391572 L13.7214489,1.12097538 L1.12144886,1.12097538 L1.12144886,9.5391572 Z" id="形状"></path>
            <path d="M8.4578125,13.9937027 C8.16690341,13.9937027 7.93053977,13.757339 7.93053977,13.4664299 L7.93053977,10.4118845 C7.93053977,10.1209754 8.16690341,9.88461174 8.4578125,9.88461174 C8.74872159,9.88461174 8.98508523,10.1209754 8.98508523,10.4118845 L8.98508523,13.4664299 C8.98508523,13.757339 8.73963068,13.9937027 8.4578125,13.9937027 Z M6.43963068,13.9937027 C6.14872159,13.9937027 5.91235795,13.757339 5.91235795,13.4664299 L5.91235795,10.4118845 C5.91235795,10.1209754 6.14872159,9.88461174 6.43963068,9.88461174 C6.73053977,9.88461174 6.96690341,10.1209754 6.96690341,10.4118845 L6.96690341,13.4664299 C6.96690341,13.757339 6.72144886,13.9937027 6.43963068,13.9937027 Z" id="形状"></path>
            <path d="M11.4941761,13.9937027 L3.39417614,13.9937027 C3.10326705,13.9937027 2.86690341,13.757339 2.86690341,13.4664299 C2.86690341,13.1755208 3.10326705,12.9391572 3.39417614,12.9391572 L11.4941761,12.9391572 C11.7850852,12.9391572 12.0214489,13.1755208 12.0214489,13.4664299 C12.0214489,13.757339 11.7850852,13.9937027 11.4941761,13.9937027 Z M4.23963068,7.73006629 C4.10326705,7.73006629 3.96690341,7.67552083 3.86690341,7.57552083 L1.98508523,5.69370265 C1.77599432,5.48461174 1.77599432,5.15733902 1.98508523,4.94824811 L3.87599432,3.05733902 C4.08508523,2.84824811 4.41235795,2.84824811 4.62144886,3.05733902 C4.83053977,3.26642992 4.83053977,3.59370265 4.62144886,3.80279356 L3.10326705,5.32097538 L4.61235795,6.83006629 C4.82144886,7.0391572 4.82144886,7.36642992 4.61235795,7.57552083 C4.51235795,7.68461174 4.37599432,7.73006629 4.23963068,7.73006629 L4.23963068,7.73006629 Z M10.6396307,7.73006629 C10.503267,7.73006629 10.3669034,7.67552083 10.2669034,7.57552083 C10.0578125,7.36642992 10.0578125,7.0391572 10.2669034,6.83006629 L11.7759943,5.32097538 L10.2669034,3.81188447 C10.0578125,3.60279356 10.0578125,3.27552083 10.2669034,3.06642992 C10.4759943,2.85733902 10.803267,2.85733902 11.012358,3.06642992 L12.903267,4.95733902 C13.003267,5.05733902 13.0578125,5.19370265 13.0578125,5.33006629 C13.0578125,5.47552083 13.003267,5.61188447 12.903267,5.70279356 L11.0214489,7.58461174 C10.903267,7.68461174 10.7669034,7.73006629 10.6396307,7.73006629 Z M6.13963068,8.15733902 C6.04872159,8.15733902 5.96690341,8.1391572 5.88508523,8.08461174 C5.63963068,7.9391572 5.53963068,7.62097538 5.68508523,7.35733902 L8.33963068,2.71188447 C8.48508523,2.46642992 8.80326705,2.36642992 9.06690341,2.51188447 C9.31235795,2.65733902 9.41235795,2.97552083 9.26690341,3.2391572 L6.60326705,7.89370265 C6.48508523,8.06642992 6.31235795,8.15733902 6.13963068,8.15733902 L6.13963068,8.15733902 Z" id="形状"></path>
        </g>
    </g>
</svg>