<?xml version="1.0" encoding="UTF-8"?>
<svg width="30px" height="30px" viewBox="0 0 30 30" version="1.1" xmlns="http://www.w3.org/2000/svg" xmlns:xlink="http://www.w3.org/1999/xlink">
    <title>数据开发</title>
    <g id="组件" stroke="none" stroke-width="1" fill="none" fill-rule="evenodd">
        <g id="数据开发" transform="translate(2.000000, 3.000000)" fill="#1890FF" fill-rule="nonzero">
            <path d="M24.561039,18.2805195 L0.903896104,18.2805195 C0.405194805,18.2805195 5.09814413e-13,17.8753247 5.09814413e-13,17.3766234 L5.09814413e-13,0.903896104 C5.09814413e-13,0.405194805 0.405194805,6.75015599e-14 0.903896104,6.75015599e-14 L24.5454545,6.75015599e-14 C25.0441558,6.75015599e-14 25.4493506,0.405194805 25.4493506,0.903896104 L25.4493506,17.361039 C25.4649351,17.8597403 25.0597403,18.2805195 24.561039,18.2805195 L24.561039,18.2805195 Z M1.91688312,16.3480519 L23.5168831,16.3480519 L23.5168831,1.91688312 L1.91688312,1.91688312 L1.91688312,16.3480519 Z" id="形状"></path>
            <path d="M14.4935065,23.9844156 C13.9948052,23.9844156 13.5896104,23.5792208 13.5896104,23.0805195 L13.5896104,17.8441558 C13.5896104,17.3454545 13.9948052,16.9402597 14.4935065,16.9402597 C14.9922078,16.9402597 15.3974026,17.3454545 15.3974026,17.8441558 L15.3974026,23.0805195 C15.3974026,23.5792208 14.9766234,23.9844156 14.4935065,23.9844156 Z M11.0337662,23.9844156 C10.5350649,23.9844156 10.1298701,23.5792208 10.1298701,23.0805195 L10.1298701,17.8441558 C10.1298701,17.3454545 10.5350649,16.9402597 11.0337662,16.9402597 C11.5324675,16.9402597 11.9376623,17.3454545 11.9376623,17.8441558 L11.9376623,23.0805195 C11.9376623,23.5792208 11.5168831,23.9844156 11.0337662,23.9844156 Z" id="形状"></path>
            <path d="M19.6987013,23.9844156 L5.81298701,23.9844156 C5.31428571,23.9844156 4.90909091,23.5792208 4.90909091,23.0805195 C4.90909091,22.5818182 5.31428571,22.1766234 5.81298701,22.1766234 L19.6987013,22.1766234 C20.1974026,22.1766234 20.6025974,22.5818182 20.6025974,23.0805195 C20.6025974,23.5792208 20.1974026,23.9844156 19.6987013,23.9844156 Z M7.26233766,13.2467532 C7.02857143,13.2467532 6.79480519,13.1532468 6.62337662,12.9818182 L3.3974026,9.75584416 C3.03896104,9.3974026 3.03896104,8.83636364 3.3974026,8.47792208 L6.63896104,5.23636364 C6.9974026,4.87792208 7.55844156,4.87792208 7.91688312,5.23636364 C8.27532468,5.59480519 8.27532468,6.15584416 7.91688312,6.51428571 L5.31428571,9.11688312 L7.9012987,11.7038961 C8.25974026,12.0623377 8.25974026,12.6233766 7.9012987,12.9818182 C7.72987013,13.1688312 7.4961039,13.2467532 7.26233766,13.2467532 L7.26233766,13.2467532 Z M18.2337662,13.2467532 C18,13.2467532 17.7662338,13.1532468 17.5948052,12.9818182 C17.2363636,12.6233766 17.2363636,12.0623377 17.5948052,11.7038961 L20.1818182,9.11688312 L17.5948052,6.52987013 C17.2363636,6.17142857 17.2363636,5.61038961 17.5948052,5.25194805 C17.9532468,4.89350649 18.5142857,4.89350649 18.8727273,5.25194805 L22.1142857,8.49350649 C22.2857143,8.66493506 22.3792208,8.8987013 22.3792208,9.13246753 C22.3792208,9.38181818 22.2857143,9.61558442 22.1142857,9.77142857 L18.8883117,12.9974026 C18.6857143,13.1688312 18.4519481,13.2467532 18.2337662,13.2467532 Z M10.5194805,13.9792208 C10.3636364,13.9792208 10.2233766,13.9480519 10.0831169,13.8545455 C9.66233766,13.6051948 9.49090909,13.0597403 9.74025974,12.6077922 L14.2909091,4.64415584 C14.5402597,4.22337662 15.0857143,4.05194805 15.5376623,4.3012987 C15.9584416,4.55064935 16.1298701,5.0961039 15.8805195,5.54805195 L11.3142857,13.5272727 C11.1116883,13.8233766 10.8155844,13.9792208 10.5194805,13.9792208 L10.5194805,13.9792208 Z" id="形状"></path>
        </g>
    </g>
</svg>