<?xml version="1.0" encoding="UTF-8"?>
<svg width="30px" height="30px" viewBox="0 0 30 30" version="1.1" xmlns="http://www.w3.org/2000/svg" xmlns:xlink="http://www.w3.org/1999/xlink">
    <title>数据源管理</title>
    <g id="组件" stroke="none" stroke-width="1" fill="none" fill-rule="evenodd">
        <g id="数据源管理" transform="translate(3.000000, 3.000000)" fill="#1890FF" fill-rule="nonzero">
            <path d="M1.52380953,19.2132505 L1.52380953,14.9068323 C3.47494824,16.4869565 7.10559008,17.5569358 11.2629399,17.5569358 L11.2629399,16.0331263 C5.31677018,16.0331263 1.5238095,13.7971015 1.52380953,12.2567288 L1.52380953,7.95031057 C3.47494824,9.53043479 7.10559008,10.6004141 11.2629399,10.6004141 C15.4202898,10.6004141 19.0509317,9.54037267 21.0020704,7.95031057 L21.0020704,11.9917184 L22.5258799,11.9917184 L22.5258799,5.30020706 C22.5258799,2.37184265 17.484058,-7.10542736e-15 11.2629399,-7.10542736e-15 C5.04182192,-7.10542736e-15 -4.156675e-13,2.37184265 -4.156675e-13,5.30020706 L-4.156675e-13,19.2132505 C-4.156675e-13,22.1416149 5.04182195,24.5134576 11.2629399,24.5134576 L11.2629399,22.989648 C5.31677018,22.989648 1.5238095,20.7536232 1.52380953,19.2132505 Z M11.2629399,1.52380953 C17.2256729,1.52380953 21.0020704,3.75983437 21.0020704,5.30020706 C21.0020704,6.84057974 17.2256729,9.07660455 11.2629399,9.07660455 C5.30020703,9.07660455 1.52380953,6.84057971 1.52380953,5.30020706 C1.52380953,3.7598344 5.31677018,1.52380953 11.2629399,1.52380953 Z M13.2505176,22.5258799 L23.8509317,22.5258799 L23.8509317,23.8509317 L13.2505176,23.8509317 L13.2505176,22.5258799 Z" id="形状"></path>
            <path d="M13.2505176,18.5507247 L23.8509317,18.5507247 L23.8509317,19.8757764 L13.2505176,19.8757764 L13.2505176,18.5507247 Z M13.2505176,14.5755694 L23.8509317,14.5755694 L23.8509317,15.9006211 L13.2505176,15.9006211 L13.2505176,14.5755694 Z" id="形状"></path>
            <path d="M15.5991719,13.9130435 L18.9118012,13.9130435 L18.9118012,16.563147 L15.5991719,16.563147 L15.5991719,13.9130435 Z M19.6604555,17.8881988 L22.9730849,17.8881988 L22.9730849,20.5383023 L19.6604555,20.5383023 L19.6604555,17.8881988 Z M15.6853002,21.8633541 L18.9979296,21.8633541 L18.9979296,24.5134576 L15.6853002,24.5134576 L15.6853002,21.8633541 Z" id="形状"></path>
        </g>
    </g>
</svg>