<?xml version="1.0" encoding="UTF-8"?>
<svg width="30px" height="30px" viewBox="0 0 30 30" version="1.1" xmlns="http://www.w3.org/2000/svg" xmlns:xlink="http://www.w3.org/1999/xlink">
    <title>数据开发备份 2</title>
    <g id="组件" stroke="none" stroke-width="1" fill="none" fill-rule="evenodd">
        <path d="M26.561039,21.2805195 L2.9038961,21.2805195 C2.40519481,21.2805195 2,20.8753247 2,20.3766234 L2,3.9038961 C2,3.40519481 2.40519481,3 2.9038961,3 L26.5454545,3 C27.0441558,3 27.4493506,3.40519481 27.4493506,3.9038961 L27.4493506,20.361039 C27.4649351,20.8597403 27.0597403,21.2805195 26.561039,21.2805195 L26.561039,21.2805195 Z M3.91688312,19.3480519 L25.5168831,19.3480519 L25.5168831,4.91688312 L3.91688312,4.91688312 L3.91688312,19.3480519 Z" id="形状" fill="#666666" fill-rule="nonzero"></path>
        <path d="M16.4935065,26.9844156 C15.9948052,26.9844156 15.5896104,26.5792208 15.5896104,26.0805195 L15.5896104,20.8441558 C15.5896104,20.3454545 15.9948052,19.9402597 16.4935065,19.9402597 C16.9922078,19.9402597 17.3974026,20.3454545 17.3974026,20.8441558 L17.3974026,26.0805195 C17.3974026,26.5792208 16.9766234,26.9844156 16.4935065,26.9844156 Z M13.0337662,26.9844156 C12.5350649,26.9844156 12.1298701,26.5792208 12.1298701,26.0805195 L12.1298701,20.8441558 C12.1298701,20.3454545 12.5350649,19.9402597 13.0337662,19.9402597 C13.5324675,19.9402597 13.9376623,20.3454545 13.9376623,20.8441558 L13.9376623,26.0805195 C13.9376623,26.5792208 13.5168831,26.9844156 13.0337662,26.9844156 Z" id="形状" fill="#666666" fill-rule="nonzero"></path>
        <path d="M21.6987013,26.9844156 L7.81298701,26.9844156 C7.31428571,26.9844156 6.90909091,26.5792208 6.90909091,26.0805195 C6.90909091,25.5818182 7.31428571,25.1766234 7.81298701,25.1766234 L21.6987013,25.1766234 C22.1974026,25.1766234 22.6025974,25.5818182 22.6025974,26.0805195 C22.6025974,26.5792208 22.1974026,26.9844156 21.6987013,26.9844156 Z M9.26233766,16.2467532 C9.02857143,16.2467532 8.79480519,16.1532468 8.62337662,15.9818182 L5.3974026,12.7558442 C5.03896104,12.3974026 5.03896104,11.8363636 5.3974026,11.4779221 L8.63896104,8.23636364 C8.9974026,7.87792208 9.55844156,7.87792208 9.91688312,8.23636364 C10.2753247,8.59480519 10.2753247,9.15584416 9.91688312,9.51428571 L7.31428571,12.1168831 L9.9012987,14.7038961 C10.2597403,15.0623377 10.2597403,15.6233766 9.9012987,15.9818182 C9.72987013,16.1688312 9.4961039,16.2467532 9.26233766,16.2467532 L9.26233766,16.2467532 Z M20.2337662,16.2467532 C20,16.2467532 19.7662338,16.1532468 19.5948052,15.9818182 C19.2363636,15.6233766 19.2363636,15.0623377 19.5948052,14.7038961 L22.1818182,12.1168831 L19.5948052,9.52987013 C19.2363636,9.17142857 19.2363636,8.61038961 19.5948052,8.25194805 C19.9532468,7.89350649 20.5142857,7.89350649 20.8727273,8.25194805 L24.1142857,11.4935065 C24.2857143,11.6649351 24.3792208,11.8987013 24.3792208,12.1324675 C24.3792208,12.3818182 24.2857143,12.6155844 24.1142857,12.7714286 L20.8883117,15.9974026 C20.6857143,16.1688312 20.4519481,16.2467532 20.2337662,16.2467532 Z M12.5194805,16.9792208 C12.3636364,16.9792208 12.2233766,16.9480519 12.0831169,16.8545455 C11.6623377,16.6051948 11.4909091,16.0597403 11.7402597,15.6077922 L16.2909091,7.64415584 C16.5402597,7.22337662 17.0857143,7.05194805 17.5376623,7.3012987 C17.9584416,7.55064935 18.1298701,8.0961039 17.8805195,8.54805195 L13.3142857,16.5272727 C13.1116883,16.8233766 12.8155844,16.9792208 12.5194805,16.9792208 L12.5194805,16.9792208 Z" id="形状" fill="#666666" fill-rule="nonzero"></path>
    </g>
</svg>