<?xml version="1.0" encoding="UTF-8"?>
<svg width="24px" height="24px" viewBox="0 0 24 24" version="1.1" xmlns="http://www.w3.org/2000/svg" xmlns:xlink="http://www.w3.org/1999/xlink">
    <!-- Generator: Sketch 59.1 (86144) - https://sketch.com -->
    <title>权限审批</title>
    <desc>Created with Sketch.</desc>
    <g id="组件" stroke="none" stroke-width="1" fill="none" fill-rule="evenodd">
        <g id="工作空间左侧栏" transform="translate(-38.000000, -326.000000)" fill="#666666" fill-rule="nonzero">
            <g id="权限审批" transform="translate(38.000000, 326.000000)">
                <path d="M23.1387477,3 C23.367166,3 23.5862289,3.08729852 23.7477451,3.24269088 C23.9092612,3.39808324 24,3.6088405 24,3.82859849 L24,3.82859849 L24,21.4131155 C24,22.8418124 22.79617,24 21.3111704,24 L21.3111704,24 L4.86125226,24 C4.38559577,24 4,23.6290238 4,23.1714015 C4,22.7137792 4.38559577,22.342803 4.86125226,22.342803 L4.86125226,22.342803 L21.3111704,22.342803 C21.8451468,22.342803 22.2774955,21.9268466 22.2774955,21.4131155 L22.2774955,21.4131155 L22.2774955,3.82859849 C22.2774955,3.6088405 22.3682343,3.39808324 22.5297504,3.24269088 C22.6912666,3.08729852 22.9103294,3 23.1387477,3 Z M18.48,1.75033599e-14 C19.8717576,1.75033599e-14 21,1.12824243 21,2.52 L21,2.52 L21,18.48 C21,19.8717576 19.8717576,21 18.48,21 L18.48,21 L2.52,21 C1.12824243,21 1.75033599e-14,19.8717576 1.75033599e-14,18.48 L1.75033599e-14,18.48 L1.75033599e-14,2.52 C1.75033599e-14,1.12824243 1.12824243,1.75033599e-14 2.52,1.75033599e-14 L2.52,1.75033599e-14 Z M18.6765485,1.54080636 L2.39083426,1.54080636 C1.91744733,1.54080636 1.53369141,1.92456229 1.53369141,2.39794922 L1.53369141,2.39794922 L1.53369141,18.6836635 C1.53369141,19.1570504 1.91744733,19.5408064 2.39083426,19.5408064 L2.39083426,19.5408064 L18.6765485,19.5408064 C18.903877,19.5408064 19.1218946,19.4505005 19.2826401,19.289755 C19.4433855,19.1290096 19.5336914,18.9109919 19.5336914,18.6836635 L19.5336914,18.6836635 L19.5336914,2.39794922 C19.5336914,2.1706208 19.4433855,1.95260316 19.2826401,1.79185769 C19.1218946,1.63111222 18.903877,1.54080636 18.6765485,1.54080636 L18.6765485,1.54080636 Z M10.2991797,4.15520798 C12.8654654,4.15520798 14.5411797,5.68844339 14.7126083,8.3543392 C15.0614654,8.56072065 15.3203225,8.9336698 15.1591797,9.5 C14.950894,10.2296478 14.692894,10.6391606 14.3337511,10.7837901 C13.8280368,12.0326416 12.8980368,13.0499234 11.9354654,13.629254 L11.9354654,13.629254 L11.9354654,14.235398 C14.4537511,14.4872809 16.2991797,15.3054939 16.2991797,16.2764618 C16.2991797,17.4481234 4.29917969,17.4481234 4.29917969,16.2764618 C4.29917969,15.3054939 6.14460826,14.4872809 8.66289397,14.235398 L8.66289397,14.235398 L8.66289397,13.6381918 C7.75689397,13.1051752 6.87232254,12.1951467 6.33060826,11.0730492 C5.9474654,10.8991687 5.67060826,10.4457796 5.44517969,9.65519235 C5.28660826,9.10105003 5.48975112,8.7126629 5.80603683,8.4697178 C5.9414654,5.73313229 7.69603683,4.15520798 10.2991797,4.15520798 Z" id="形状结合"></path>
                <g id="形状结合">
                    <path d="M23.1387477,3 C23.367166,3 23.5862289,3.08729852 23.7477451,3.24269088 C23.9092612,3.39808324 24,3.6088405 24,3.82859849 L24,3.82859849 L24,21.4131155 C24,22.8418124 22.79617,24 21.3111704,24 L21.3111704,24 L4.86125226,24 C4.38559577,24 4,23.6290238 4,23.1714015 C4,22.7137792 4.38559577,22.342803 4.86125226,22.342803 L4.86125226,22.342803 L21.3111704,22.342803 C21.8451468,22.342803 22.2774955,21.9268466 22.2774955,21.4131155 L22.2774955,21.4131155 L22.2774955,3.82859849 C22.2774955,3.6088405 22.3682343,3.39808324 22.5297504,3.24269088 C22.6912666,3.08729852 22.9103294,3 23.1387477,3 Z M18.48,1.75033599e-14 C19.8717576,1.75033599e-14 21,1.12824243 21,2.52 L21,2.52 L21,18.48 C21,19.8717576 19.8717576,21 18.48,21 L18.48,21 L2.52,21 C1.12824243,21 1.75033599e-14,19.8717576 1.75033599e-14,18.48 L1.75033599e-14,18.48 L1.75033599e-14,2.52 C1.75033599e-14,1.12824243 1.12824243,1.75033599e-14 2.52,1.75033599e-14 L2.52,1.75033599e-14 Z M18.6765485,1.54080636 L2.39083426,1.54080636 C1.91744733,1.54080636 1.53369141,1.92456229 1.53369141,2.39794922 L1.53369141,2.39794922 L1.53369141,18.6836635 C1.53369141,19.1570504 1.91744733,19.5408064 2.39083426,19.5408064 L2.39083426,19.5408064 L18.6765485,19.5408064 C18.903877,19.5408064 19.1218946,19.4505005 19.2826401,19.289755 C19.4433855,19.1290096 19.5336914,18.9109919 19.5336914,18.6836635 L19.5336914,18.6836635 L19.5336914,2.39794922 C19.5336914,2.1706208 19.4433855,1.95260316 19.2826401,1.79185769 C19.1218946,1.63111222 18.903877,1.54080636 18.6765485,1.54080636 L18.6765485,1.54080636 Z M10.2991797,4.15520798 C12.8654654,4.15520798 14.5411797,5.68844339 14.7126083,8.3543392 C15.0614654,8.56072065 15.3203225,8.9336698 15.1591797,9.5 C14.950894,10.2296478 14.692894,10.6391606 14.3337511,10.7837901 C13.8280368,12.0326416 12.8980368,13.0499234 11.9354654,13.629254 L11.9354654,13.629254 L11.9354654,14.235398 C14.4537511,14.4872809 16.2991797,15.3054939 16.2991797,16.2764618 C16.2991797,17.4481234 4.29917969,17.4481234 4.29917969,16.2764618 C4.29917969,15.3054939 6.14460826,14.4872809 8.66289397,14.235398 L8.66289397,14.235398 L8.66289397,13.6381918 C7.75689397,13.1051752 6.87232254,12.1951467 6.33060826,11.0730492 C5.9474654,10.8991687 5.67060826,10.4457796 5.44517969,9.65519235 C5.28660826,9.10105003 5.48975112,8.7126629 5.80603683,8.4697178 C5.9414654,5.73313229 7.69603683,4.15520798 10.2991797,4.15520798 Z"></path>
                </g>
            </g>
        </g>
    </g>
</svg>