<?xml version="1.0" encoding="UTF-8"?>
<svg width="30px" height="30px" viewBox="0 0 30 30" version="1.1" xmlns="http://www.w3.org/2000/svg" xmlns:xlink="http://www.w3.org/1999/xlink">
    <title>数据建模备份</title>
    <g id="组件" stroke="none" stroke-width="1" fill="none" fill-rule="evenodd">
        <path d="M26.9986467,16.3856988 C27.0388272,15.4632346 26.1709289,15.1280369 26.1709289,15.1280369 L21.3707015,13.0712636 C21.3707015,13.0712636 21.3814163,9.4967149 21.3707015,8.53402699 C21.357308,7.56597593 20.5028032,7.23077819 20.5028032,7.23077819 C20.5028032,7.23077819 16.704409,5.69691334 15.576677,5.13109956 C14.9873634,4.83612555 14.3766202,5.13109956 14.3766202,5.13109956 C14.3766202,5.13109956 10.8032366,6.73468554 9.69693417,7.18787288 C8.6870649,7.60083649 8.70313709,8.49112168 8.70313709,8.49112168 L8.70313709,13.0417662 C8.70313709,13.0417662 5.55566655,14.4227808 4.23238957,14.9510525 C2.96536526,15.4551899 3.0000938,16.5144147 3.0000938,16.5144147 C3.0000938,16.5144147 3.01090313,20.1452766 3.0000938,21.091875 C2.98947354,22.1135577 3.89755228,22.4353476 3.89755228,22.4353476 C3.89755228,22.4353476 6.95126838,23.9933467 8.41115897,24.6691053 C9.4906744,25.1678795 10.1898147,24.6851948 10.1898147,24.6851948 L14.9846847,22.2932237 C14.9846847,22.2932237 18.7777215,24.1032915 19.6697281,24.6744685 C20.7063843,25.3341376 21.4082033,24.7870949 21.4082033,24.7870949 C21.4082033,24.7870949 25.6325105,22.6150136 26.294149,22.3093132 C26.9986467,21.9821602 26.9986467,21.1750041 26.9986467,21.1750041 C26.9986467,21.1750041 26.9584662,17.308163 26.9986467,16.3856988 Z M9.46053825,18 L5,15.9986273 L9.45781675,14 L14,15.9794097 L9.46053825,18 Z M14,21.7350993 L10,24 L10,19.9555345 L14,18 L14,21.7350993 L14,21.7350993 Z M14.9018524,10 L10,8.03459321 L14.9018524,6 L20,8.03459321 L14.9018524,10 L14.9018524,10 Z M16,11.849168 L20,10 L20,13.1105743 L16,15 L16,11.849168 Z M20.5013799,18 L16,15.9986273 L20.3081877,14 L25,15.9986273 L20.5013799,18 L20.5013799,18 Z M25,21.8676749 L21,24 L21,19.9536862 L25,18 L25,21.8676749 Z" id="形状备份-5" fill="#666666" fill-rule="nonzero"></path>
    </g>
</svg>