<?xml version="1.0" encoding="UTF-8"?>
<svg width="17px" height="14px" viewBox="0 0 17 14" version="1.1" xmlns="http://www.w3.org/2000/svg" xmlns:xlink="http://www.w3.org/1999/xlink">
    <title>数据建模</title>
    <g id="UI" stroke="none" stroke-width="1" fill="none" fill-rule="evenodd">
        <path d="M16.7990527,7.96998916 C16.827179,7.32426424 16.2196502,7.08962582 16.2196502,7.08962582 L12.859491,5.6498845 C12.859491,5.6498845 12.8669914,3.14770043 12.859491,2.4738189 C12.8501156,1.79618315 12.2519623,1.56154473 12.2519623,1.56154473 C12.2519623,1.56154473 9.5930863,0.487839339 8.8036739,0.0917696918 C8.39115436,-0.114712115 7.96363411,0.0917696918 7.96363411,0.0917696918 C7.96363411,0.0917696918 5.4622656,1.21427988 4.68785392,1.53151101 C3.98094543,1.82058554 3.99219596,2.44378518 3.99219596,2.44378518 L3.99219596,5.62923632 C3.99219596,5.62923632 1.78896658,6.59594659 0.862672699,6.96573674 C-0.0242443186,7.31863292 6.56586181e-05,8.06009031 6.56586181e-05,8.06009031 C6.56586181e-05,8.06009031 0.00763219152,10.6016936 6.56586181e-05,11.2643125 C-0.00736851914,11.9794904 0.628286595,12.2047433 0.628286595,12.2047433 C0.628286595,12.2047433 2.76588786,13.2953427 3.78781128,13.7683737 C4.54347208,14.1175157 5.03287026,13.7796364 5.03287026,13.7796364 L8.38927927,12.1052566 C8.38927927,12.1052566 11.0444051,13.3723041 11.6688096,13.7721279 C12.394469,14.2338963 12.8857423,13.8509664 12.8857423,13.8509664 C12.8857423,13.8509664 15.8427574,12.3305095 16.3059043,12.1165193 C16.7990527,11.8875122 16.7990527,11.3225029 16.7990527,11.3225029 C16.7990527,11.3225029 16.7709264,8.61571408 16.7990527,7.96998916 Z M4.52237678,9.1 L1.4,7.69903912 L4.52047173,6.3 L7.7,7.68558682 L4.52237678,9.1 Z M7.7,11.7145695 L4.9,13.3 L4.9,10.4688742 L7.7,9.1 L7.7,11.7145695 L7.7,11.7145695 Z M8.33129665,3.5 L4.9,2.12421525 L8.33129665,0.7 L11.9,2.12421525 L8.33129665,3.5 L8.33129665,3.5 Z M9.1,4.79441761 L11.9,3.5 L11.9,5.67740204 L9.1,7 L9.1,4.79441761 Z M12.250966,9.1 L9.1,7.69903912 L12.1157314,6.3 L15.4,7.69903912 L12.250966,9.1 L12.250966,9.1 Z M15.4,11.8073724 L12.6,13.3 L12.6,10.4675803 L15.4,9.1 L15.4,11.8073724 Z" id="数据建模" fill="#FFFFFF" fill-rule="nonzero"></path>
    </g>
</svg>