<?xml version="1.0" encoding="UTF-8"?>
<svg width="30px" height="30px" viewBox="0 0 30 30" version="1.1" xmlns="http://www.w3.org/2000/svg" xmlns:xlink="http://www.w3.org/1999/xlink">
    <title>数据同步</title>
    <g id="组件" stroke="none" stroke-width="1" fill="none" fill-rule="evenodd">
        <g id="数据同步" transform="translate(0.000000, 3.000000)" fill="#1890FF" fill-rule="nonzero" stroke="#FFFFFF">
            <path d="M28.518312,11.460071 C27.8466282,10.5935285 26.9739741,9.90364264 25.975812,9.45007096 C25.4374409,4.09322328 20.934633,0.0115413364 15.550812,-9.23705556e-14 C13.2657942,-0.00839362825 11.042394,0.740652236 9.22831199,2.13007096 C8.36109247,2.7998801 7.60219798,3.59924896 6.97831199,4.50007096 C6.52063151,5.16444556 6.14064924,5.87911421 5.84581199,6.63007096 C2.55253511,7.52122384 0.201302193,10.4229332 0.0122427438,13.8294097 C-0.176816706,17.2358863 1.83887525,20.37996 5.01331199,21.630071 C5.18578557,21.6954985 5.36884808,21.7285514 5.55331199,21.727571 C6.27896652,21.7314827 6.90336307,21.2153778 7.03609296,20.5019546 C7.16882284,19.7885315 6.77181938,19.0823986 6.09331199,18.825071 C5.18422075,18.4715329 4.40095569,17.8553644 3.84331199,17.055071 C2.88473757,15.6675039 2.70494387,13.8852185 3.36707485,12.3341577 C4.02920584,10.7830968 5.44069046,9.6801108 7.10581199,9.41257096 L7.67581199,9.35257096 L7.67581199,9.23257096 L7.75831199,9.18757096 L7.96831199,9.02257096 C7.98670163,9.00828751 8.00200912,8.99042878 8.01331199,8.97007096 L8.26831199,8.64757096 L8.33581199,8.51257096 L8.33581199,8.38507096 C8.79448488,6.85954034 9.72377855,5.5181023 10.990812,4.55257096 C13.2558821,2.85366051 16.2846491,2.57515661 18.8215564,3.83251129 C21.3584637,5.08986598 22.9710439,7.66873757 22.990812,10.500071 C23.0373159,11.2019953 23.5162159,11.8006203 24.190812,12.000071 C25.7862629,12.4344763 26.8965404,13.8790639 26.905812,15.532571 C26.8583599,16.3551225 26.554075,17.1420663 26.035812,17.782571 C25.7122778,18.289819 25.1990693,18.6463638 24.610812,18.772571 C23.7823849,18.772571 23.110812,19.4441438 23.110812,20.272571 C23.110812,21.1009981 23.7823849,21.772571 24.610812,21.772571 C26.1418825,21.6661395 27.5400359,20.8648263 28.405812,19.597571 C29.3257045,18.4338651 29.8510912,17.0074404 29.9058327,15.525071 C29.9094996,14.0532671 29.4211246,12.6224606 28.518312,11.460071 L28.518312,11.460071 Z" id="路径"></path>
            <path d="M20.613312,17.460071 L9.08581199,17.460071 C8.722891,17.4624904 8.3724052,17.592595 8.09581199,17.827571 L8.02081199,17.902571 C7.80045532,18.1186516 7.65577536,18.4001199 7.60831199,18.705071 C7.59378761,18.7995158 7.59378761,18.8956261 7.60831199,18.990071 C7.60801405,19.3481017 7.7417985,19.6932656 7.98331199,19.957571 L11.058312,23.377571 C11.3440361,23.6984642 11.7536506,23.8814254 12.183312,23.880121 C12.5535881,23.8831574 12.9108225,23.7434868 13.180812,23.490071 C13.4969711,23.2047319 13.6769345,22.7984508 13.675812,22.372571 C13.675051,22.0043965 13.5389095,21.6493608 13.293312,21.375071 L12.453312,20.460071 L20.605812,20.460071 C21.4342391,20.460071 22.105812,19.7884981 22.105812,18.960071 C22.105812,18.1316438 21.4342391,17.460071 20.605812,17.460071 L20.613312,17.460071 Z M18.655812,10.350071 C18.3913182,10.0516582 18.0188894,9.87084137 17.620812,9.84757096 C17.2218335,9.82512245 16.8303901,9.96280255 16.533312,10.230071 C16.2351688,10.4951526 16.054906,10.8680828 16.0323868,11.2663923 C16.0098675,11.6647019 16.1469471,12.0555737 16.413312,12.352571 L17.230812,13.267571 L9.08581199,13.267571 C8.69141528,13.2756977 8.31427332,13.4308341 8.02831199,13.702571 C7.59116693,14.1299886 7.45717014,14.7799446 7.68962005,15.3454079 C7.92206996,15.9108711 8.47444576,16.278674 9.08581199,16.2750972 L20.613312,16.2750972 C20.9612136,16.27401 21.2979281,16.1520504 21.565812,15.930071 L21.678312,15.832571 C21.8953404,15.6130374 22.0416282,15.3335232 22.098312,15.030071 C22.105158,14.9351943 22.105158,14.8399476 22.098312,14.745071 C22.0890756,14.3866328 21.9566466,14.0423175 21.723312,13.770071 L18.655812,10.350071 Z" id="形状"></path>
        </g>
    </g>
</svg>