<?xml version="1.0" encoding="UTF-8"?>
<svg width="19px" height="18px" viewBox="0 0 19 18" version="1.1" xmlns="http://www.w3.org/2000/svg" xmlns:xlink="http://www.w3.org/1999/xlink">
    <title>数据治理</title>
    <g id="UI" stroke="none" stroke-width="1" fill="none" fill-rule="evenodd">
        <g id="数据治理" transform="translate(1.000000, 1.000000)" fill-rule="nonzero">
            <path d="M13.4877562,13.5330332 L3.75320363,13.5330332 C1.69633472,13.5330332 0.0210861404,11.8599406 0.0210861404,9.80091569 L0.0210861404,3.75104759 C0.0210861404,1.69417867 1.69417867,0.0189300933 3.75320363,0.0189300933 L13.4899122,0.0189300933 C15.5489372,0.0189300933 17.2220297,1.69202263 17.2220297,3.75104759 L17.2220297,9.80091569 C17.2198737,11.8599406 15.5467811,13.5330332 13.4877562,13.5330332 Z" id="形状" stroke="#FFFFFF"></path>
            <path d="M7.57016158,11.0118811 L7.39767781,10.9881646 C6.78967253,10.8070566 6.22910029,10.4965858 5.75261389,10.0783127 C5.61247083,9.96188616 5.53054104,9.78724635 5.53054104,9.60613839 C5.53054104,9.42287439 5.61247083,9.25039062 5.75261389,9.13396408 C5.87335253,9.04987825 5.95097022,8.91404728 5.96175046,8.76528003 C5.98115488,8.59064022 5.89706904,8.4203125 5.7483018,8.32760248 C5.59953455,8.23489245 5.4098024,8.23920455 5.26103516,8.33407062 C5.09286348,8.40737622 4.90097529,8.40737622 4.73280362,8.33407062 C4.5624759,8.25860897 4.43526913,8.10984172 4.38783609,7.92873377 C4.27356559,7.55358157 4.21535232,7.1654931 4.21535232,6.77309253 C4.21966442,6.41518872 4.2692535,6.061597 4.36196352,5.71662946 C4.39646028,5.54845779 4.50426263,5.40400264 4.65734197,5.3242289 C4.81688946,5.2509233 5.00015346,5.2509233 5.16185699,5.3242289 C5.31062424,5.37597403 5.47448382,5.35225751 5.60384664,5.26170353 C5.73320947,5.17114955 5.81082716,5.0266944 5.81298321,4.86930296 C5.81082716,4.73131595 5.7483018,4.59979708 5.64049944,4.51355519 C5.50898057,4.3992847 5.43351892,4.23326907 5.43136288,4.05862926 C5.43136288,3.8861455 5.50251243,3.72228592 5.62756316,3.60370333 C6.13207818,3.14662135 6.7379274,2.8145901 7.39552176,2.63348214 C7.71677278,2.54724026 8.04880403,2.73266031 8.14582615,3.05175528 C8.22775594,3.24148742 8.41964413,3.35791396 8.6244686,3.34713373 C8.83576121,3.34928977 9.02333731,3.20699067 9.07939453,3.00216619 C9.19582107,2.68953937 9.53863256,2.52567979 9.85341543,2.63348214 C10.5088537,2.8145901 11.1125469,3.15093344 11.6105938,3.61663961 C11.7356445,3.7352222 11.8067941,3.89908178 11.8067941,4.07156554 C11.8003259,4.24404931 11.7248643,4.40790889 11.5976575,4.52649148 C11.4898552,4.61488941 11.4273298,4.74425223 11.4251738,4.88223925 C11.4251738,5.01160207 11.4769189,5.1366528 11.5696289,5.22936282 C11.6623389,5.32207285 11.7873897,5.37381798 11.9167525,5.37381798 L12.0763,5.37381798 C12.2315354,5.30051238 12.4126433,5.30051238 12.5678787,5.37381798 C12.7274262,5.44927963 12.8416967,5.59373478 12.8740374,5.76621855 C12.9689035,6.11118608 13.0163365,6.4647778 13.0206486,6.82268162 C13.0163365,7.19136567 12.9667474,7.55789367 12.8740374,7.91579748 C12.8266044,8.08181311 12.716646,8.22195617 12.5678787,8.30819805 C12.4104873,8.37072342 12.2336914,8.37072342 12.0763,8.30819805 C11.9275327,8.24351664 11.757205,8.26076502 11.6235301,8.35347504 C11.4898552,8.44618506 11.4165496,8.60142045 11.4251738,8.76312399 C11.4294858,8.89895495 11.4876991,9.02616173 11.5847212,9.11887175 C11.7205522,9.22451806 11.7938578,9.39053369 11.7809215,9.5608614 C11.7873897,9.73334517 11.7140841,9.90151684 11.5847212,10.0157873 C11.0888304,10.4642451 10.4959175,10.7919643 9.85341543,10.9730722 C9.68308771,11.0226613 9.49982371,10.9946327 9.34890042,10.8997666 C9.19797712,10.8092127 9.09448686,10.6561333 9.06645825,10.4814935 C9.02980545,10.2551086 8.83360516,10.091249 8.60506417,10.091249 C8.37652318,10.091249 8.1803229,10.2572646 8.1436701,10.4814935 C8.10917335,10.6518212 8.00568309,10.8027445 7.86122793,10.8997666 C7.7771421,10.962292 7.67580788,11.0011009 7.57016158,11.0118811 Z M7.15431648,9.89908178 C7.4804773,9.39625052 8.0399337,9.09273976 8.63789519,9.09273976 C9.23585669,9.09273976 9.79531309,9.39625052 10.1214739,9.89908178 L10.4181896,9.73147136 C10.3162644,9.5095008 10.2641693,9.2671452 10.2641693,9.02252459 C10.2664343,8.08028223 10.9889711,7.29659027 11.9289484,7.21505007 C11.9357434,7.12444984 11.9357434,7.03384961 11.9289484,6.94324939 C11.9357434,6.86170918 11.9357434,6.78016898 11.9289484,6.69862878 C11.3309869,6.65785867 10.7919156,6.32490284 10.4906698,5.80848155 C10.1871591,5.29206026 10.162244,4.65785867 10.4204547,4.11878733 C10.2913493,4.03724712 10.157714,3.96476694 10.0195486,3.89908178 C9.66847277,4.29772277 9.16337651,4.52648835 8.63336518,4.52648835 C8.10335386,4.52648835 7.59599259,4.29772277 7.24718172,3.89908178 C7.10448636,3.96250194 6.96632101,4.03498212 6.83495069,4.11878733 C7.09316133,4.66012368 7.06598126,5.29206026 6.76473551,5.80848155 C6.46348976,6.32490284 5.92441841,6.65785867 5.32645692,6.69862878 C5.3196619,6.78016898 5.3196619,6.86170918 5.32645692,6.94324939 C5.3196619,7.03384961 5.3196619,7.12444984 5.32645692,7.21505007 C5.80890312,7.21052006 6.27096428,7.40078053 6.61298013,7.74053138 C6.95499599,8.08028223 7.14752147,8.54234339 7.14752147,9.02252459 C7.14072645,9.28753025 7.07504129,9.5480059 6.94820097,9.78356649 L7.15431648,9.89908178 Z" id="形状" fill="#FFFFFF"></path>
            <path d="M7.24101045,7.32194095 C7.00837529,6.76075964 7.13693682,6.1159113 7.56547528,5.68737284 C7.99401373,5.25883439 8.63886208,5.13027285 9.20004339,5.36290801 C9.7612247,5.59554317 10.1265027,6.14243987 10.1265027,6.74851568 C10.1265027,7.5749827 9.4551258,8.24840028 8.62661812,8.24840028 C8.0205423,8.24840028 7.47364561,7.88312226 7.24101045,7.32194095 Z M8.29674944,6.6480418 C8.24069222,6.78171672 8.27303292,6.93479606 8.37436714,7.03613028 C8.47570135,7.13746449 8.62878069,7.16764915 8.76245561,7.11374797 C8.89613053,7.05769075 8.98237241,6.92832792 8.98237241,6.78387277 C8.98237241,6.58767248 8.82282493,6.428125 8.62662464,6.428125 C8.48216949,6.428125 8.35280667,6.51436688 8.29674944,6.6480418 Z M9.58746703,15.2470906 L9.58746703,13.5351892 L7.65133675,13.5351892 L7.65133675,15.2470906 L3.09345323,15.2470906 C2.55875355,15.2470906 2.12538809,15.6804561 2.12538809,16.2151557 C2.12538809,16.7498554 2.55875355,16.958992 3.09345323,16.958992 L14.1496626,16.958992 C14.6843623,16.958992 15.1177278,16.7498554 15.1177278,16.2151557 C15.1155717,15.6783 14.6822063,15.2470906 14.1475066,15.2470906 L9.58746703,15.2470906 Z" id="形状" fill="#FFFFFF"></path>
        </g>
    </g>
</svg>