<?xml version="1.0" encoding="UTF-8"?>
<svg width="30px" height="30px" viewBox="0 0 30 30" version="1.1" xmlns="http://www.w3.org/2000/svg" xmlns:xlink="http://www.w3.org/1999/xlink">
    <title>调度管理备份 3</title>
    <g id="组件" stroke="none" stroke-width="1" fill="none" fill-rule="evenodd">
        <path d="M26.4569296,5.55428571 L11.5272023,5.55428571 C11.1281406,4.05131447 9.76101699,3.00301785 8.19606076,3 C6.64397015,3.01843841 5.29513928,4.06353838 4.89943888,5.55428571 L4.05370866,5.55428571 C3.70424185,5.48451968 3.3469103,5.63097293 3.14867584,5.92521573 C2.95044139,6.21945853 2.95044139,6.60339861 3.14867584,6.89764141 C3.3469103,7.19188421 3.70424185,7.33833746 4.05370866,7.26857142 L4.89943888,7.26857142 C5.28200505,8.7729105 6.63405657,9.83456758 8.19606076,9.85714287 C9.76101699,9.85412502 11.1281406,8.80582838 11.5272023,7.30285713 L26.4569296,7.30285713 C26.8679895,7.22079493 27.1637206,6.86215452 27.1637206,6.44571428 C27.1637206,6.02927403 26.8679895,5.67063363 26.4569296,5.58857142 L26.4569296,5.55428571 Z M8.19606076,8.14285713 C7.24282831,8.14285713 6.47008074,7.37534526 6.47008074,6.42857141 C6.47008074,5.48179755 7.24282834,4.71428571 8.19606079,4.71428571 C9.14929324,4.71428571 9.92204083,5.48179757 9.92204083,6.42857142 C9.92204083,6.88322826 9.74019702,7.31926355 9.41651297,7.64075448 C9.09282892,7.96224542 8.65381913,8.14285713 8.19606076,8.14285713 L8.19606076,8.14285713 Z M26.4569296,22.6971429 L11.5272023,22.6971429 C11.1281406,21.1941716 9.76101699,20.145875 8.19606076,20.1428571 C6.64397014,20.1612955 5.29513927,21.2063955 4.89943888,22.6971429 L4.05370866,22.6971429 C3.70424185,22.6273768 3.3469103,22.7738301 3.14867584,23.0680729 C2.95044139,23.3623157 2.95044139,23.7462558 3.14867584,24.0404986 C3.3469103,24.3347414 3.70424185,24.4811946 4.05370866,24.4114286 L4.89943888,24.4114286 C5.28200506,25.9157676 6.63405658,26.9774247 8.19606076,27 C9.76101699,26.9969822 11.1281406,25.9486855 11.5272023,24.4457143 L26.4569296,24.4457143 C26.8063964,24.5154803 27.163728,24.3690271 27.3619625,24.0747843 C27.5601969,23.7805415 27.5601969,23.3966014 27.3619625,23.1023586 C27.163728,22.8081158 26.8063964,22.6616625 26.4569296,22.7314286 L26.4569296,22.6971429 Z M8.19606076,25.2857143 C7.24282831,25.2857143 6.47008074,24.5182024 6.47008074,23.5714286 C6.47008074,22.6246547 7.24282834,21.8571429 8.19606079,21.8571429 C9.14929324,21.8571429 9.92204083,22.6246547 9.92204083,23.5714286 C9.92204083,24.0260854 9.74019702,24.4621207 9.41651297,24.7836116 C9.09282892,25.1051026 8.65381913,25.2857143 8.19606076,25.2857143 L8.19606076,25.2857143 Z M4.05370866,14.1257143 L18.9834361,14.1257143 C19.3824977,12.6227431 20.7496213,11.5744464 22.3145775,11.5714286 C23.8666682,11.589867 25.215499,12.634967 25.6111994,14.1257143 L26.4396698,14.1257143 C26.7891366,14.0559483 27.1464682,14.2024015 27.3447026,14.4966443 C27.5429371,14.7908871 27.5429371,15.1748272 27.3447026,15.46907 C27.1464682,15.7633128 26.7891366,15.909766 26.4396698,15.84 L25.6111994,15.84 C25.2286332,17.3443391 23.8765817,18.4059961 22.3145775,18.4285714 C20.7496213,18.4255536 19.3824977,17.3772569 18.9834361,15.8742857 L4.05370866,15.8742857 C3.70424185,15.9440517 3.3469103,15.7975985 3.14867584,15.5033557 C2.95044139,15.2091129 2.95044139,14.8251728 3.14867584,14.53093 C3.3469103,14.2366872 3.70424185,14.090234 4.05370866,14.16 L4.05370866,14.1257143 Z M22.3145775,16.7142857 C23.26781,16.7142857 24.0405576,15.9467739 24.0405576,15 C24.0405576,14.0532261 23.26781,13.2857143 22.3145775,13.2857143 C21.3613451,13.2857143 20.5885975,14.0532261 20.5885975,15 C20.5885975,15.9467739 21.3613451,16.7142857 22.3145775,16.7142857 Z" id="形状" fill="#666666" fill-rule="nonzero"></path>
    </g>
</svg>