<?xml version="1.0" encoding="UTF-8"?>
<svg width="30px" height="30px" viewBox="0 0 30 30" version="1.1" xmlns="http://www.w3.org/2000/svg" xmlns:xlink="http://www.w3.org/1999/xlink">
    <title>规则分类备份</title>
    <g id="组件" stroke="none" stroke-width="1" fill="none" fill-rule="evenodd">
        <path d="M11.5537304,6.66602715 C11.9690228,6.66602715 12.3056844,7.0026887 12.3056844,7.41798115 C12.3056844,7.83327359 11.9690228,8.16993517 11.5537304,8.16993515 L11.5537304,8.16993515 L6.66602943,8.16993515 C6.25073699,8.16993515 5.91407537,8.5065967 5.91407543,8.92188915 L5.91407543,8.92188915 L5.91407543,15.689475 L5.91407543,15.689475 L5.92093989,15.7915107 C5.97073174,16.1585398 6.28534469,16.441429 6.66602943,16.441429 L6.66602943,16.441429 L7.83531559,16.441429 C8.35641971,15.5458518 9.31516106,14.937521 10.4257971,14.937521 C11.8029539,14.9301918 13.0082633,15.8613694 13.3488538,17.1957728 C13.7586617,18.8013098 12.7893037,20.4350685 11.1837597,20.8448646 L11.1837597,20.8448646 L11.193986,20.9433076 C11.2544251,21.2968993 11.5616014,21.5640262 11.929698,21.5652366 L11.929698,21.5652366 L19.5988768,21.5652366 C19.9808695,20.3425594 21.1088005,19.449238 22.457054,19.449238 C23.8820558,19.4492191 25.1115076,20.4491206 25.4018488,21.8442161 C25.7403221,23.4705422 24.6962927,25.0633171 23.069969,25.401781 C21.4436428,25.7402543 19.850868,24.6962249 19.5124041,23.0699012 L19.5124041,23.0699012 L11.9297001,23.0699018 C10.6980347,23.0688092 9.69522862,22.0794022 9.67757201,20.8478613 L9.67757201,20.8478613 L9.50671602,20.7989566 C8.27094845,20.40548 7.42010536,19.2556623 7.41798324,17.9453026 L7.41798324,17.9453026 L6.6660293,17.9453375 C5.42015197,17.9453375 4.4101673,16.9353528 4.4101673,15.6894755 L4.4101673,15.6894755 L4.4101673,8.92188915 L4.4101673,8.92188915 L4.41537164,8.76743908 C4.49474223,7.59359987 5.47206352,6.66602715 6.6660293,6.66602715 L6.6660293,6.66602715 Z M22.457806,20.952394 L22.3208838,20.9585074 C21.5542396,21.0274867 20.9533421,21.6716632 20.953146,22.456302 C20.9529392,23.2870961 21.62626,23.9607544 22.457054,23.960962 L22.457054,23.960962 L22.5939762,23.9548486 C23.3606205,23.8858693 23.9615179,23.2416928 23.9617141,22.457054 C23.9619208,21.62626 23.2886,20.9526017 22.457806,20.952394 L22.457806,20.952394 Z M10.4261659,16.4414218 C9.59537425,16.4414218 8.92188195,17.1149117 8.92188195,17.9457057 L8.92188195,17.9457057 L8.92802946,18.0824383 C8.99719968,18.8490652 9.64152714,19.4498016 10.4261659,19.4498016 C11.25696,19.4498016 11.9304499,18.7763116 11.9304499,17.9455176 L11.9304499,17.9455176 L11.9243024,17.8087854 C11.8551322,17.0421603 11.2108047,16.4414218 10.4261659,16.4414218 Z M16.441422,4.41015854 L16.6188694,4.41567673 C17.9120557,4.49399502 19.0181879,5.39804996 19.3432126,6.66602054 L19.3432126,6.66602054 L23.2090079,6.66602054 C24.4548852,6.66602054 25.4648699,7.67600521 25.4648699,8.92188254 L25.4648699,8.92188254 L25.4648699,15.6894685 C25.4648699,16.9353459 24.4548852,17.9453305 23.2090079,17.9453305 L23.2090079,17.9453305 L16.065445,17.9453305 C15.6501526,17.9453305 15.313491,17.608669 15.313491,17.1933765 C15.313491,16.7780841 15.6501526,16.4414226 16.065445,16.4414225 L16.065445,16.4414225 L23.209008,16.4414225 C23.6243005,16.4414225 23.960962,16.104761 23.960962,15.6894685 L23.960962,15.6894685 L23.960962,8.92188254 C23.960962,8.5065901 23.6243005,8.16992852 23.209008,8.16992854 L23.209008,8.16992854 L19.3432126,8.16992854 C19.0034233,9.49553415 17.8098844,10.4233878 16.4414221,10.4257905 L16.4414221,10.4257905 L16.2646901,10.4206846 C14.6857809,10.3292003 13.433606,9.01981683 13.433606,7.41797454 C13.433606,5.75680476 14.7802522,4.41015854 16.441422,4.41015854 L16.441422,4.41015854 Z M16.442174,5.913314 L16.3052518,5.91942742 C15.5386076,5.98840671 14.9377101,6.63258324 14.937514,7.41722205 C14.9373072,8.24801607 15.610628,8.92167438 16.441422,8.92188205 L16.441422,8.92188205 L16.5783442,8.91576863 C17.3449885,8.84678934 17.9458859,8.2026128 17.9460821,7.417974 C17.9462888,6.58717997 17.272968,5.91352169 16.442174,5.913314 L16.442174,5.913314 Z" id="形状结合" fill="#1890FF" fill-rule="nonzero"></path>
    </g>
</svg>