<?xml version="1.0" encoding="UTF-8"?>
<svg width="32px" height="26px" viewBox="0 0 32 26" version="1.1" xmlns="http://www.w3.org/2000/svg" xmlns:xlink="http://www.w3.org/1999/xlink">
    <!-- Generator: Sketch 59.1 (86144) - https://sketch.com -->
    <title>用户同步</title>
    <desc>Created with Sketch.</desc>
    <g id="组件" stroke="none" stroke-width="1" fill="none" fill-rule="evenodd">
        <g id="数据管理菜单" transform="translate(-34.000000, -96.000000)" fill="#666666" fill-rule="nonzero" stroke="#FFFFFF">
            <g id="用户同步" transform="translate(34.000000, 96.000000)">
                <path d="M29.5246094,12.4679687 C28.8529256,11.6014263 27.9802715,10.9115404 26.9821094,10.4579687 C26.4437383,5.10112107 21.9409304,1.01943913 16.5571094,1.00789779 C14.2720916,0.999504162 12.0486914,1.74855003 10.2346094,3.13796875 C9.36738985,3.80777789 8.60849536,4.60714676 7.98460937,5.50796875 C7.5269289,6.17234336 7.14694662,6.887012 6.85210937,7.63796875 C3.55883249,8.52912163 1.20759958,11.430831 1.01854013,14.8373075 C0.82948068,18.2437841 2.84517264,21.3878578 6.01960937,22.6379687 C6.19208296,22.7033962 6.37514547,22.7364492 6.55960937,22.7354687 C7.28526391,22.7393805 7.90966046,22.2232756 8.04239034,21.5098524 C8.17512023,20.7964293 7.77811677,20.0902964 7.09960937,19.8329687 C6.19051813,19.4794307 5.40725308,18.8632622 4.84960937,18.0629687 C3.89103495,16.6754017 3.71124125,14.8931163 4.37337224,13.3420554 C5.03550323,11.7909946 6.44698785,10.6880086 8.11210937,10.4204687 L8.68210937,10.3604687 L8.68210937,10.2404687 L8.76460937,10.1954687 L8.97460937,10.0304687 C8.99299902,10.0161853 9.0083065,9.99832657 9.01960937,9.97796875 L9.27460937,9.65546875 L9.34210937,9.52046875 L9.34210937,9.39296875 C9.80078227,7.86743813 10.7300759,6.52600009 11.9971094,5.56046875 C14.2621795,3.86155831 17.2909465,3.5830544 19.8278538,4.84040908 C22.3647611,6.09776377 23.9773413,8.67663536 23.9971094,11.5079687 C24.0436133,12.2098931 24.5225133,12.8085181 25.1971094,13.0079687 C26.7925603,13.4423741 27.9028378,14.8869616 27.9121094,16.5404687 C27.8646573,17.3630203 27.5603724,18.1499641 27.0421094,18.7904687 C26.7185752,19.2977168 26.2053667,19.6542616 25.6171094,19.7804687 C24.7886823,19.7804687 24.1171094,20.4520416 24.1171094,21.2804687 C24.1171094,22.1088959 24.7886823,22.7804687 25.6171094,22.7804687 C27.1481799,22.6740373 28.5463333,21.8727241 29.4121094,20.6054687 C30.3320019,19.4417629 30.8573885,18.0153382 30.9121301,16.5329687 C30.915797,15.0611649 30.427422,13.6303583 29.5246094,12.4679687 L29.5246094,12.4679687 Z" id="路径"></path>
                <path d="M21.6196094,18.4679688 L10.0921094,18.4679688 C9.72918838,18.4703882 9.37870258,18.6004928 9.10210938,18.8354688 L9.02710938,18.9104688 C8.8067527,19.1265494 8.66207275,19.4080177 8.61460938,19.7129688 C8.60008499,19.8074136 8.60008499,19.9035239 8.61460938,19.9979688 C8.61431144,20.3559995 8.74809588,20.7011634 8.98960938,20.9654688 L12.0646094,24.3854688 C12.3503335,24.706362 12.759948,24.8893231 13.1896094,24.8880188 C13.5598855,24.8910552 13.9171199,24.7513846 14.1871094,24.4979688 C14.5032685,24.2126297 14.6832319,23.8063486 14.6821094,23.3804688 C14.6813484,23.0122942 14.5452069,22.6572586 14.2996094,22.3829688 L13.4596094,21.4679688 L21.6121094,21.4679688 C22.4405365,21.4679688 23.1121094,20.7963959 23.1121094,19.9679688 C23.1121094,19.1395416 22.4405365,18.4679688 21.6121094,18.4679688 L21.6196094,18.4679688 Z M19.6621094,11.3579688 C19.3976155,11.059556 19.0251868,10.8787392 18.6271094,10.8554688 C18.2281309,10.8330202 17.8366875,10.9707003 17.5396094,11.2379688 C17.2414662,11.5030504 17.0612034,11.8759806 17.0386842,12.2742901 C17.0161649,12.6725997 17.1532445,13.0634715 17.4196094,13.3604688 L18.2371094,14.2754688 L10.0921094,14.2754688 C9.69771266,14.2835955 9.32057071,14.4387319 9.03460938,14.7104688 C8.59746431,15.1378864 8.46346753,15.7878424 8.69591744,16.3533057 C8.92836734,16.9187689 9.48074314,17.2865718 10.0921094,17.282995 L21.6196094,17.282995 C21.967511,17.2819078 22.3042255,17.1599482 22.5721094,16.9379688 L22.6846094,16.8404688 C22.9016378,16.6209352 23.0479256,16.341421 23.1046094,16.0379688 C23.1114554,15.9430921 23.1114554,15.8478454 23.1046094,15.7529688 C23.095373,15.3945306 22.962944,15.0502153 22.7296094,14.7779688 L19.6621094,11.3579688 Z" id="形状"></path>
            </g>
        </g>
    </g>
</svg>