<?xml version="1.0" encoding="UTF-8"?>
<svg width="21px" height="24px" viewBox="0 0 21 24" version="1.1" xmlns="http://www.w3.org/2000/svg" xmlns:xlink="http://www.w3.org/1999/xlink">
    <!-- Generator: Sketch 59.1 (86144) - https://sketch.com -->
    <title>数据字典管理</title>
    <desc>Created with Sketch.</desc>
    <g id="组件" stroke="none" stroke-width="1" fill="none" fill-rule="evenodd">
        <g id="数据管理菜单" transform="translate(-40.000000, -331.000000)" fill="#666666" fill-rule="nonzero">
            <g id="数据字典管理" transform="translate(40.000000, 331.000000)">
                <path d="M17.9164379,0.010742236 L2.36920807,0.010742236 C1.11226398,0.010742236 0.0139285714,1.08045652 0.0139285714,2.30400932 L0.0139285714,21.5684068 C0.0139285714,22.7919596 1.11345652,23.8616739 2.36920807,23.8616739 L17.9164379,23.8616739 C19.173382,23.8616739 20.2717174,22.7919596 20.2717174,21.5684068 L20.2717174,2.45665528 C20.4291335,1.08164907 19.3296056,0.010742236 17.9164379,0.010742236 L17.9164379,0.010742236 Z M1.77531988,2.63076708 C1.77531988,2.18236957 2.08299689,1.88304037 2.54331988,1.88304037 L17.7435186,1.88304037 C18.2038416,1.88304037 18.5115186,2.18236957 18.5115186,2.63076708 L18.5115186,17.8774752 C18.5115186,18.3258727 18.2038416,18.6252019 17.7435186,18.6252019 L2.54331988,18.6252019 C2.08299689,18.6252019 1.77531988,18.3258727 1.77531988,17.8774752 L1.77531988,2.63076708 Z M17.9164379,22.4854752 L2.36920807,22.4854752 C1.89815217,22.4854752 1.58451242,22.1801832 1.58451242,21.7210528 L1.58451242,20.1922081 C1.89815217,20.344854 2.05556832,20.344854 2.36920807,20.344854 L17.9164379,20.344854 C18.2300776,20.344854 18.3874938,20.344854 18.7011369,20.1922081 L18.7011369,21.7210528 C18.7023261,22.1801832 18.3874938,22.4854752 17.9164379,22.4854752 L17.9164379,22.4854752 Z" id="形状"></path>
                <path d="M13.8355435,6.63176087 L5.50799068,6.63176087 C4.98804037,6.63176087 4.56707143,6.21079193 4.56707143,5.69084161 C4.56707143,5.1708913 4.98804037,4.74992236 5.50799068,4.74992236 L13.8343509,4.74992236 C14.3543012,4.74992236 14.7752702,5.1708913 14.7752702,5.69084161 C14.7752702,6.21079193 14.3543012,6.63176087 13.8355435,6.63176087 Z M10.6943758,10.3012267 L5.50799068,10.3012267 C4.98804037,10.3012267 4.56707143,9.88025776 4.56707143,9.36030745 C4.56707143,8.84035714 4.98804037,8.4193882 5.50799068,8.4193882 L10.6943758,8.4193882 C11.2143261,8.4193882 11.635295,8.84035714 11.635295,9.36030745 C11.635295,9.88025776 11.2143261,10.3012267 10.6943758,10.3012267 L10.6943758,10.3012267 Z M7.55201553,13.9706925 L5.50799068,13.9706925 C4.98804037,13.9706925 4.56707143,13.5497236 4.56707143,13.0297733 C4.56707143,12.509823 4.98804037,12.088854 5.50799068,12.088854 L7.55201553,12.088854 C8.07196584,12.088854 8.49293478,12.509823 8.49293478,13.0297733 C8.49293478,13.5497236 8.07196584,13.9706925 7.55201553,13.9706925 L7.55201553,13.9706925 Z" id="形状"></path>
            </g>
        </g>
    </g>
</svg>