<?xml version="1.0" encoding="UTF-8"?>
<svg width="13px" height="14px" viewBox="0 0 13 14" version="1.1" xmlns="http://www.w3.org/2000/svg" xmlns:xlink="http://www.w3.org/1999/xlink">
    <title>字典表</title>
    <g id="UI" stroke="none" stroke-width="1" fill="none" fill-rule="evenodd">
        <g id="字典表" fill="#FFFFFF" fill-rule="nonzero">
            <path d="M10.4512554,0.00626630435 L1.38203804,0.00626630435 C0.648820652,0.00626630435 0.008125,0.630266304 0.008125,1.34400543 L0.008125,12.5815707 C0.008125,13.2953098 0.649516304,13.9193098 1.38203804,13.9193098 L10.4512554,13.9193098 C11.1844728,13.9193098 11.8251685,13.2953098 11.8251685,12.5815707 L11.8251685,1.43304891 C11.9169946,0.630961957 11.2756033,0.00626630435 10.4512554,0.00626630435 L10.4512554,0.00626630435 Z M1.03560326,1.53461413 C1.03560326,1.27304891 1.21508152,1.09844022 1.48360326,1.09844022 L10.3503859,1.09844022 C10.6189076,1.09844022 10.7983859,1.27304891 10.7983859,1.53461413 L10.7983859,10.4285272 C10.7983859,10.6900924 10.6189076,10.8647011 10.3503859,10.8647011 L1.48360326,10.8647011 C1.21508152,10.8647011 1.03560326,10.6900924 1.03560326,10.4285272 L1.03560326,1.53461413 Z M10.4512554,13.1165272 L1.38203804,13.1165272 C1.10725543,13.1165272 0.924298913,12.9384402 0.924298913,12.6706141 L0.924298913,11.778788 C1.10725543,11.8678315 1.19908152,11.8678315 1.38203804,11.8678315 L10.4512554,11.8678315 C10.634212,11.8678315 10.726038,11.8678315 10.9089965,11.778788 L10.9089965,12.6706141 C10.9096902,12.9384402 10.726038,13.1165272 10.4512554,13.1165272 L10.4512554,13.1165272 Z" id="形状"></path>
            <path d="M8.0707337,3.86852717 L3.21299457,3.86852717 C2.90969022,3.86852717 2.664125,3.62296196 2.664125,3.31965761 C2.664125,3.01635326 2.90969022,2.77078804 3.21299457,2.77078804 L8.07003804,2.77078804 C8.37334239,2.77078804 8.61890761,3.01635326 8.61890761,3.31965761 C8.61890761,3.62296196 8.37334239,3.86852717 8.0707337,3.86852717 Z M6.23838587,6.00904891 L3.21299457,6.00904891 C2.90969022,6.00904891 2.664125,5.7634837 2.664125,5.46017935 C2.664125,5.156875 2.90969022,4.91130978 3.21299457,4.91130978 L6.23838587,4.91130978 C6.54169022,4.91130978 6.78725543,5.156875 6.78725543,5.46017935 C6.78725543,5.7634837 6.54169022,6.00904891 6.23838587,6.00904891 L6.23838587,6.00904891 Z M4.40534239,8.14957065 L3.21299457,8.14957065 C2.90969022,8.14957065 2.664125,7.90400543 2.664125,7.60070109 C2.664125,7.29739674 2.90969022,7.05183152 3.21299457,7.05183152 L4.40534239,7.05183152 C4.70864674,7.05183152 4.95421196,7.29739674 4.95421196,7.60070109 C4.95421196,7.90400543 4.70864674,8.14957065 4.40534239,8.14957065 L4.40534239,8.14957065 Z" id="形状"></path>
        </g>
    </g>
</svg>