<?xml version="1.0" encoding="UTF-8"?>
<svg width="25px" height="24px" viewBox="0 0 25 24" version="1.1" xmlns="http://www.w3.org/2000/svg" xmlns:xlink="http://www.w3.org/1999/xlink">
    <!-- Generator: Sketch 59.1 (86144) - https://sketch.com -->
    <title>调度管理</title>
    <desc>Created with Sketch.</desc>
    <g id="组件" stroke="none" stroke-width="1" fill="none" fill-rule="evenodd">
        <g id="数据管理菜单" transform="translate(-37.000000, -253.000000)" fill="#666666" fill-rule="nonzero">
            <g id="调度管理" transform="translate(37.000000, 253.000000)">
                <path d="M23.6369296,2.55428571 L8.70720226,2.55428571 C8.30814062,1.05131447 6.94101699,0.00301784935 5.37606076,0 C3.82397015,0.0184384124 2.47513928,1.06353838 2.07943888,2.55428571 L1.23370866,2.55428571 C0.884241848,2.48451968 0.526910303,2.63097293 0.328675844,2.92521573 C0.130441385,3.21945853 0.130441385,3.60339861 0.328675844,3.89764141 C0.526910303,4.19188421 0.884241848,4.33833746 1.23370866,4.26857142 L2.07943888,4.26857142 C2.46200505,5.7729105 3.81405657,6.83456758 5.37606076,6.85714287 C6.94101699,6.85412502 8.30814063,5.80582838 8.70720226,4.30285713 L23.6369296,4.30285713 C24.0479895,4.22079493 24.3437206,3.86215452 24.3437206,3.44571428 C24.3437206,3.02927403 24.0479895,2.67063363 23.6369296,2.58857142 L23.6369296,2.55428571 Z M5.37606076,5.14285713 C4.42282831,5.14285713 3.65008074,4.37534526 3.65008074,3.42857141 C3.65008074,2.48179755 4.42282834,1.71428571 5.37606079,1.71428571 C6.32929324,1.71428571 7.10204083,2.48179757 7.10204083,3.42857142 C7.10204083,3.88322826 6.92019702,4.31926355 6.59651297,4.64075448 C6.27282892,4.96224542 5.83381913,5.14285713 5.37606076,5.14285713 L5.37606076,5.14285713 Z M23.6369296,19.6971429 L8.70720226,19.6971429 C8.30814063,18.1941716 6.94101699,17.145875 5.37606076,17.1428571 C3.82397014,17.1612955 2.47513927,18.2063955 2.07943888,19.6971429 L1.23370866,19.6971429 C0.884241848,19.6273768 0.526910303,19.7738301 0.328675844,20.0680729 C0.130441385,20.3623157 0.130441385,20.7462558 0.328675844,21.0404986 C0.526910303,21.3347414 0.884241848,21.4811946 1.23370866,21.4114286 L2.07943888,21.4114286 C2.46200506,22.9157676 3.81405658,23.9774247 5.37606076,24 C6.94101699,23.9969822 8.30814062,22.9486855 8.70720226,21.4457143 L23.6369296,21.4457143 C23.9863964,21.5154803 24.343728,21.3690271 24.5419625,21.0747843 C24.7401969,20.7805415 24.7401969,20.3966014 24.5419625,20.1023586 C24.343728,19.8081158 23.9863964,19.6616625 23.6369296,19.7314286 L23.6369296,19.6971429 Z M5.37606076,22.2857143 C4.42282831,22.2857143 3.65008074,21.5182024 3.65008074,20.5714286 C3.65008074,19.6246547 4.42282834,18.8571429 5.37606079,18.8571429 C6.32929324,18.8571429 7.10204083,19.6246547 7.10204083,20.5714286 C7.10204083,21.0260854 6.92019702,21.4621207 6.59651297,21.7836116 C6.27282892,22.1051026 5.83381913,22.2857143 5.37606076,22.2857143 L5.37606076,22.2857143 Z M1.23370866,11.1257143 L16.1634361,11.1257143 C16.5624977,9.62274305 17.9296213,8.57444644 19.4945775,8.57142858 C21.0466682,8.58986699 22.395499,9.63496696 22.7911994,11.1257143 L23.6196698,11.1257143 C23.9691366,11.0559483 24.3264682,11.2024015 24.5247026,11.4966443 C24.7229371,11.7908871 24.7229371,12.1748272 24.5247026,12.46907 C24.3264682,12.7633128 23.9691366,12.909766 23.6196698,12.84 L22.7911994,12.84 C22.4086332,14.3443391 21.0565817,15.4059961 19.4945775,15.4285714 C17.9296213,15.4255536 16.5624977,14.3772569 16.1634361,12.8742857 L1.23370866,12.8742857 C0.884241848,12.9440517 0.526910303,12.7975985 0.328675844,12.5033557 C0.130441385,12.2091129 0.130441385,11.8251728 0.328675844,11.53093 C0.526910303,11.2366872 0.884241848,11.090234 1.23370866,11.16 L1.23370866,11.1257143 Z M19.4945775,13.7142857 C20.44781,13.7142857 21.2205576,12.9467739 21.2205576,12 C21.2205576,11.0532261 20.44781,10.2857143 19.4945775,10.2857143 C18.5413451,10.2857143 17.7685975,11.0532261 17.7685975,12 C17.7685975,12.9467739 18.5413451,13.7142857 19.4945775,13.7142857 Z" id="形状"></path>
            </g>
        </g>
    </g>
</svg>