<?xml version="1.0" encoding="UTF-8"?>
<svg width="30px" height="30px" viewBox="0 0 30 30" version="1.1" xmlns="http://www.w3.org/2000/svg" xmlns:xlink="http://www.w3.org/1999/xlink">
    <title>字典表备份</title>
    <g id="组件" stroke="none" stroke-width="1" fill="none" fill-rule="evenodd">
        <path d="M22.9025093,3 L7.3552795,3 C6.0983354,3 5,4.06971429 5,5.29326708 L5,24.5576646 C5,25.7812174 6.09952795,26.8509317 7.3552795,26.8509317 L22.9025093,26.8509317 C24.1594534,26.8509317 25.2577888,25.7812174 25.2577888,24.5576646 L25.2577888,5.44591304 C25.415205,4.07090683 24.315677,3 22.9025093,3 L22.9025093,3 Z M6.7613913,5.62002484 C6.7613913,5.17162733 7.06906832,4.87229814 7.5293913,4.87229814 L22.7295901,4.87229814 C23.189913,4.87229814 23.4975901,5.17162733 23.4975901,5.62002484 L23.4975901,20.8667329 C23.4975901,21.3151304 23.189913,21.6144596 22.7295901,21.6144596 L7.5293913,21.6144596 C7.06906832,21.6144596 6.7613913,21.3151304 6.7613913,20.8667329 L6.7613913,5.62002484 Z M22.9025093,25.4747329 L7.3552795,25.4747329 C6.8842236,25.4747329 6.57058385,25.169441 6.57058385,24.7103106 L6.57058385,23.1814658 C6.8842236,23.3341118 7.04163975,23.3341118 7.3552795,23.3341118 L22.9025093,23.3341118 C23.2161491,23.3341118 23.3735652,23.3341118 23.6872083,23.1814658 L23.6872083,24.7103106 C23.6883975,25.169441 23.3735652,25.4747329 22.9025093,25.4747329 L22.9025093,25.4747329 Z" id="形状" fill="#666666" fill-rule="nonzero"></path>
        <path d="M18.8216149,9.62101863 L10.4940621,9.62101863 C9.9741118,9.62101863 9.55314286,9.20004969 9.55314286,8.68009938 C9.55314286,8.16014907 9.9741118,7.73918012 10.4940621,7.73918012 L18.8204224,7.73918012 C19.3403727,7.73918012 19.7613416,8.16014907 19.7613416,8.68009938 C19.7613416,9.20004969 19.3403727,9.62101863 18.8216149,9.62101863 Z M15.6804472,13.2904845 L10.4940621,13.2904845 C9.9741118,13.2904845 9.55314286,12.8695155 9.55314286,12.3495652 C9.55314286,11.8296149 9.9741118,11.408646 10.4940621,11.408646 L15.6804472,11.408646 C16.2003975,11.408646 16.6213665,11.8296149 16.6213665,12.3495652 C16.6213665,12.8695155 16.2003975,13.2904845 15.6804472,13.2904845 L15.6804472,13.2904845 Z M12.538087,16.9599503 L10.4940621,16.9599503 C9.9741118,16.9599503 9.55314286,16.5389814 9.55314286,16.0190311 C9.55314286,15.4990807 9.9741118,15.0781118 10.4940621,15.0781118 L12.538087,15.0781118 C13.0580373,15.0781118 13.4790062,15.4990807 13.4790062,16.0190311 C13.4790062,16.5389814 13.0580373,16.9599503 12.538087,16.9599503 L12.538087,16.9599503 Z" id="形状" fill="#666666" fill-rule="nonzero"></path>
    </g>
</svg>