<?xml version="1.0" encoding="UTF-8"?>
<svg width="30px" height="30px" viewBox="0 0 30 30" version="1.1" xmlns="http://www.w3.org/2000/svg" xmlns:xlink="http://www.w3.org/1999/xlink">
    <title>工作空间</title>
    <g id="组件" stroke="none" stroke-width="1" fill="none" fill-rule="evenodd">
        <path d="M26.0769231,3 C26.5867244,3 27,3.41327562 27,3.92307692 L27,26.0769231 C27,26.5867244 26.5867244,27 26.0769231,27 L3,27 L3,3 L26.0769231,3 Z M23,4 L4,4 L4,26 L23,26 L23,4 Z M26,4 L24,4 L24,26 L26,26 L26,4 Z M19.1111111,16 C19.6020309,16 20,16.3837559 20,16.8571429 L20,21.1428571 C20,21.6162441 19.6020309,22 19.1111111,22 L12.8888889,22 C12.3979691,22 12,21.6162441 12,21.1428571 L12,16.8571429 C12,16.3837559 12.3979691,16 12.8888889,16 L19.1111111,16 Z M16.1111111,13 C16.6020309,13 17,13.3837559 17,13.8571429 L17,14.7142857 L16.1111111,14.7142857 L16.1111111,13.8571429 L9.88888889,13.8571429 L9.88888889,18.1428571 L10.7777778,18.1428571 L10.7777778,19 L9.88888889,19 C9.39796911,19 9,18.6162441 9,18.1428571 L9,13.8571429 C9,13.3837559 9.39796911,13 9.88888889,13 L16.1111111,13 Z M14.1111111,10 C14.6020309,10 15,10.3837559 15,10.8571429 L15,11.7142857 L14.1111111,11.7142857 L14.1111111,10.8571429 L7.88888889,10.8571429 L7.88888889,15.1428571 L8.77777778,15.1428571 L8.77777778,16 L7.88888889,16 C7.39796911,16 7,15.6162441 7,15.1428571 L7,10.8571429 C7,10.3837559 7.39796911,10 7.88888889,10 L14.1111111,10 Z" id="形状" fill="#1890FF" fill-rule="nonzero"></path>
    </g>
</svg>