<?xml version="1.0" encoding="UTF-8"?>
<svg width="34px" height="34px" viewBox="0 0 34 34" version="1.1" xmlns="http://www.w3.org/2000/svg" xmlns:xlink="http://www.w3.org/1999/xlink">
    <title>切片备份 10</title>
    <g id="UI" stroke="none" stroke-width="1" fill="none" fill-rule="evenodd">
        <path d="M21.0322322,9 C22.6686366,9 24,10.3313564 24,11.9677616 L24,23.0322384 C24.0025777,24.6686436 22.6712218,26 21.0322322,26 L9.96776025,26 C8.33135586,26 7,24.6686436 7,23.0322384 L7,11.9677616 C7,10.3313564 8.33135586,9 9.96776025,9 L21.0322322,9 Z M21.2568149,10 L9.74318508,10 C8.78012912,10 8,10.7828192 8,11.7431851 L8,23.2568149 C8,24.2198709 8.78281923,25 9.74318508,25 L21.2568149,25 C22.2198709,25 23,24.2171808 23,23.2568149 L23,11.7431851 C23,10.7801291 22.2171808,10 21.2568149,10 Z M24.0587531,6 C25.6805288,6 27.0000168,7.30050505 27.0000168,8.8989899 L27.0000168,22.3661616 C27.002545,22.7171717 26.7155958,23 26.3620333,23 C26.0084708,23 25.7215216,22.7171717 25.7215216,22.3686869 L25.7215216,8.8989899 C25.7215216,7.99494949 24.9759659,7.26262626 24.0613152,7.26262626 L11.6405117,7.26262626 C11.2869493,7.26262626 11,6.97979798 11,6.63131313 C11,6.28282828 11.2869493,6 11.6405117,6 L24.0587531,6 Z M12.8627319,13.1477109 L15.5,15.785 L18.1366858,13.1477982 C18.3118836,12.97263 18.5852135,12.9531668 18.7822185,13.0894088 L18.8521768,13.1477982 C19.0492744,13.3448625 19.0492744,13.6661043 18.8521768,13.8631686 L18.8521768,13.8631686 L16.714,16 L18.5281182,16 C18.7880317,16 19,16.2245989 19,16.5 C19,16.7754011 18.7880317,17 18.5281182,17 L16,17 L16,18.999 L18.5281182,19 C18.7880317,19 19,19.2245989 19,19.5 C19,19.7727273 18.7880317,20 18.5281182,20 L16,19.999 L16,21.4945946 C16,21.772973 15.7754011,22 15.5,22 C15.2245989,22 15,21.772973 15,21.4945946 L15,19.999 L12.4718818,20 C12.2119683,20 12,19.7754011 12,19.5 C12,19.2245989 12.2119683,19 12.4718818,19 L15,18.999 L15,17 L12.4718818,17 C12.2119683,17 12,16.7754011 12,16.5 C12,16.2245989 12.2119683,16 12.4718818,16 L14.285,16 L12.1477234,13.8626588 C11.9507589,13.6657109 11.9507589,13.3446588 12.1477234,13.1477109 C12.344688,12.950763 12.6657673,12.950763 12.8627319,13.1477109 Z" id="形状结合" fill="#000000" fill-rule="nonzero"></path>
    </g>
</svg>