<?xml version="1.0" encoding="UTF-8"?>
<svg width="30px" height="30px" viewBox="0 0 30 30" version="1.1" xmlns="http://www.w3.org/2000/svg" xmlns:xlink="http://www.w3.org/1999/xlink">
    <title>质检结果</title>
    <g id="组件" stroke="none" stroke-width="1" fill="none" fill-rule="evenodd">
        <g id="四性检测备份" transform="translate(5.000000, 4.000000)" fill="#666666" fill-rule="nonzero">
            <path d="M9.78621082,0.26276388 L19.4393708,2.97860406 L19.4393708,12.4741505 C19.4393708,17.8213845 10.4025657,21.3730562 10.0198113,21.5222349 L9.78619895,21.6122686 L9.55260938,21.52221 C9.16985985,21.3730505 0.133049827,17.829819 0.133049827,12.4741256 L0.133049827,3.05738583 L0.51861424,2.88571177 C0.74094626,2.78721024 5.58440961,1.43633033 9.61453675,0.319050358 L9.78621082,0.26276388 Z M9.78619895,1.60803135 C6.86493186,2.41855861 2.75038304,3.56117745 1.42763659,3.94673939 L1.42763659,12.4741476 C1.42763659,16.5267839 8.40999945,19.6450679 9.78619895,20.2248145 C11.1624059,19.6619472 18.1447613,16.5324235 18.1447613,12.4797872 L18.1447613,3.95799644 L9.78619895,1.60803135 Z M8.2017354,4.9823903 L10.8753524,12.3108994 L12.3641322,9.39242736 L15.9777412,9.39242736 L15.9777412,10.6870201 L13.15779,10.6870201 L10.6783701,15.5502083 L8.16514443,8.66072665 L7.37713127,10.6870448 L3.59467897,10.6870448 L3.59467897,9.3924521 L6.4934369,9.3924521 L8.2017354,4.9823903 Z" id="形状结合"></path>
        </g>
    </g>
</svg>