<?xml version="1.0" encoding="UTF-8"?>
<svg width="30px" height="30px" viewBox="0 0 30 30" version="1.1" xmlns="http://www.w3.org/2000/svg" xmlns:xlink="http://www.w3.org/1999/xlink">
    <title>概览</title>
    <g id="组件" stroke="none" stroke-width="1" fill="none" fill-rule="evenodd">
        <g id="概览" transform="translate(3.000000, 4.000000)" fill="#1890FF" fill-rule="nonzero">
            <path d="M13,23 C6.94183168,23 2,18.0717822 2,12 L2,11.210396 L12.210396,11.210396 L12.210396,1 L13,1 C19.0581683,1 24,5.92821782 24,11.9863861 C24,18.0445545 19.0717822,23 13,23 Z M3.6468099,12.8021961 C4.04521915,17.6792749 8.15295596,21.525985 13.1262025,21.525985 C18.3742141,21.525985 22.6468099,17.2533892 22.6468099,12.0053776 C22.6468099,7.03213104 18.8000998,2.92439423 13.923021,2.52598498 L13.923021,12.8021961 L3.6468099,12.8021961 Z" id="形状"></path>
            <path d="M10,0 L10,10 L0,10 C0,4.48 4.46666667,0 10,0 Z" id="路径"></path>
        </g>
    </g>
</svg>