<?xml version="1.0" encoding="UTF-8"?>
<svg width="15px" height="14px" viewBox="0 0 15 14" version="1.1" xmlns="http://www.w3.org/2000/svg" xmlns:xlink="http://www.w3.org/1999/xlink">
    <title>概览</title>
    <g id="UI" stroke="none" stroke-width="1" fill="none" fill-rule="evenodd">
        <g id="概览" fill="#FFFFFF" fill-rule="nonzero">
            <path d="M7.91304348,14 C4.22546276,14 1.2173913,11.0002152 1.2173913,7.30434783 L1.2173913,6.82371933 L7.43241498,6.82371933 L7.43241498,0.608695652 L7.91304348,0.608695652 C11.6006242,0.608695652 14.6086957,3.60848041 14.6086957,7.29606113 C14.6086957,10.9836418 11.6089109,14 7.91304348,14 Z M2.21979733,7.79264111 C2.46230731,10.7612978 4.96266884,13.1027735 7.9898624,13.1027735 C11.1843042,13.1027735 13.7850147,10.502063 13.7850147,7.30762115 C13.7850147,4.28042759 11.443539,1.78006606 8.47488237,1.53755607 L8.47488237,7.79264111 L2.21979733,7.79264111 Z" id="形状"></path>
            <path d="M6.08695652,0 L6.08695652,6.08695652 L0,6.08695652 C0,2.72695652 2.71884058,0 6.08695652,0 Z" id="路径"></path>
        </g>
    </g>
</svg>