<?xml version="1.0" encoding="UTF-8"?>
<svg width="24px" height="23px" viewBox="0 0 24 23" version="1.1" xmlns="http://www.w3.org/2000/svg" xmlns:xlink="http://www.w3.org/1999/xlink">
    <!-- Generator: Sketch 59.1 (86144) - https://sketch.com -->
    <title>概览</title>
    <desc>Created with Sketch.</desc>
    <g id="组件" stroke="none" stroke-width="1" fill="none" fill-rule="evenodd">
        <g id="工作空间左侧栏" transform="translate(-38.000000, -20.000000)" fill="#666666" fill-rule="nonzero">
            <g id="概览" transform="translate(38.000000, 20.000000)">
                <path d="M13,23 C6.94183168,23 2,18.0717822 2,12 L2,11.210396 L12.210396,11.210396 L12.210396,1 L13,1 C19.0581683,1 24,5.92821782 24,11.9863861 C24,18.0445545 19.0717822,23 13,23 Z M3.6468099,12.8021961 C4.04521915,17.6792749 8.15295596,21.525985 13.1262025,21.525985 C18.3742141,21.525985 22.6468099,17.2533892 22.6468099,12.0053776 C22.6468099,7.03213104 18.8000998,2.92439423 13.923021,2.52598498 L13.923021,12.8021961 L3.6468099,12.8021961 Z" id="形状"></path>
                <path d="M10,1.3628855e-14 L10,10 L7.47318873e-15,10 C7.47318873e-15,4.48 4.46666667,1.3628855e-14 10,1.3628855e-14 Z" id="路径"></path>
            </g>
        </g>
    </g>
</svg>