<?xml version="1.0" encoding="UTF-8"?>
<svg width="30px" height="30px" viewBox="0 0 30 30" version="1.1" xmlns="http://www.w3.org/2000/svg" xmlns:xlink="http://www.w3.org/1999/xlink">
    <title>数据源管理</title>
    <g id="组件" stroke="none" stroke-width="1" fill="none" fill-rule="evenodd">
        <path d="M4.52380953,22.2132505 L4.52380953,17.9068323 C6.47494824,19.4869565 10.1055901,20.5569358 14.2629399,20.5569358 L14.2629399,19.0331263 C8.31677018,19.0331263 4.5238095,16.7971015 4.52380953,15.2567288 L4.52380953,10.9503106 C6.47494824,12.5304348 10.1055901,13.6004141 14.2629399,13.6004141 C18.4202898,13.6004141 22.0509317,12.5403727 24.0020704,10.9503106 L24.0020704,14.9917184 L25.5258799,14.9917184 L25.5258799,8.30020706 C25.5258799,5.37184265 20.484058,3 14.2629399,3 C8.04182192,3 3,5.37184265 3,8.30020706 L3,22.2132505 C3,25.1416149 8.04182195,27.5134576 14.2629399,27.5134576 L14.2629399,25.989648 C8.31677018,25.989648 4.5238095,23.7536232 4.52380953,22.2132505 Z M14.2629399,4.52380953 C20.2256729,4.52380953 24.0020704,6.75983438 24.0020704,8.30020706 C24.0020704,9.84057974 20.2256729,12.0766046 14.2629399,12.0766046 C8.30020703,12.0766046 4.52380953,9.84057971 4.52380953,8.30020706 C4.52380953,6.7598344 8.31677018,4.52380953 14.2629399,4.52380953 Z M16.2505176,25.5258799 L26.8509317,25.5258799 L26.8509317,26.8509317 L16.2505176,26.8509317 L16.2505176,25.5258799 Z" id="形状" fill="#1890FF" fill-rule="nonzero"></path>
        <path d="M16.2505176,21.5507247 L26.8509317,21.5507247 L26.8509317,22.8757764 L16.2505176,22.8757764 L16.2505176,21.5507247 Z M16.2505176,17.5755694 L26.8509317,17.5755694 L26.8509317,18.9006211 L16.2505176,18.9006211 L16.2505176,17.5755694 Z" id="形状" fill="#1890FF" fill-rule="nonzero"></path>
        <path d="M18.5991719,16.9130435 L21.9118012,16.9130435 L21.9118012,19.563147 L18.5991719,19.563147 L18.5991719,16.9130435 Z M22.6604555,20.8881988 L25.9730849,20.8881988 L25.9730849,23.5383023 L22.6604555,23.5383023 L22.6604555,20.8881988 Z M18.6853002,24.8633541 L21.9979296,24.8633541 L21.9979296,27.5134576 L18.6853002,27.5134576 L18.6853002,24.8633541 Z" id="形状" fill="#1890FF" fill-rule="nonzero"></path>
    </g>
</svg>