<?xml version="1.0" encoding="UTF-8"?>
<svg width="20px" height="20px" viewBox="0 0 20 20" version="1.1" xmlns="http://www.w3.org/2000/svg" xmlns:xlink="http://www.w3.org/1999/xlink">
    <title>资产管理</title>
    <g id="UI" stroke="none" stroke-width="1" fill="none" fill-rule="evenodd">
        <g id="资产管理" fill="#1890FF" fill-rule="nonzero">
            <path d="M14.0322322,3 C15.6686366,3 17,4.33135645 17,5.96776156 L17,17.0322384 C17.0025777,18.6686436 15.6712218,20 14.0322322,20 L2.96776025,20 C1.33135586,20 1.98951966e-13,18.6686436 1.98951966e-13,17.0322384 L1.98951966e-13,5.96776156 C1.98951966e-13,4.33135645 1.33135586,3 2.96776025,3 L14.0322322,3 Z M13.3730273,4 L2.62697274,4 C1.72812052,4 1,4.73063128 1,5.62697274 L1,16.3730273 C1,17.2718795 1.73063128,18 2.62697274,18 L13.3730273,18 C14.2718795,18 15,17.2693687 15,16.3730273 L15,5.62697274 C15,4.72812052 14.2693687,4 13.3730273,4 Z M17.0587531,-8.17124146e-14 C18.6805288,-8.17124146e-14 20.0000168,1.30050505 20.0000168,2.8989899 L20.0000168,16.3661616 C20.002545,16.7171717 19.7155958,17 19.3620333,17 C19.0084708,17 18.7215216,16.7171717 18.7215216,16.3686869 L18.7215216,2.8989899 C18.7215216,1.99494949 17.9759659,1.26262626 17.0613152,1.26262626 L4.64051173,1.26262626 C4.28694925,1.26262626 4,0.97979798 4,0.631313131 C4,0.282828283 4.28694925,-8.17124146e-14 4.64051173,-8.17124146e-14 L17.0587531,-8.17124146e-14 Z M5.86273187,7.14771092 L8.5,9.785 L11.1366858,7.14779821 C11.3118836,6.97262996 11.5852135,6.95316682 11.7822185,7.08940879 L11.8521768,7.14779821 C12.0492744,7.34486249 12.0492744,7.66610427 11.8521768,7.86316855 L11.8521768,7.86316855 L9.714,10 L11.5281182,10 C11.7880317,10 12,10.2245989 12,10.5 C12,10.7754011 11.7880317,11 11.5281182,11 L9,11 L9,12.999 L11.5281182,13 C11.7880317,13 12,13.2245989 12,13.5 C12,13.7727273 11.7880317,14 11.5281182,14 L9,13.999 L9,15.4945946 C9,15.772973 8.77540107,16 8.5,16 C8.22459893,16 8,15.772973 8,15.4945946 L8,13.999 L5.47188176,14 C5.21196828,14 5,13.7754011 5,13.5 C5,13.2245989 5.21196828,13 5.47188176,13 L8,12.999 L8,11 L5.47188176,11 C5.21196828,11 5,10.7754011 5,10.5 C5,10.2245989 5.21196828,10 5.47188176,10 L7.285,10 L5.14772344,7.86265876 C4.95075885,7.66571086 4.95075885,7.34465882 5.14772344,7.14771092 C5.34468803,6.95076303 5.66576728,6.95076303 5.86273187,7.14771092 Z" id="形状结合"></path>
        </g>
    </g>
</svg>