<?xml version="1.0" encoding="UTF-8"?>
<svg width="19px" height="19px" viewBox="0 0 19 19" version="1.1" xmlns="http://www.w3.org/2000/svg" xmlns:xlink="http://www.w3.org/1999/xlink">
    <title>全部产品</title>
    <g id="UI" stroke="none" stroke-width="1" fill="none" fill-rule="evenodd">
        <path d="M0.0038655599,14.5113372 C0.0038655599,13.5314178 0.00579833984,12.5514983 0.00193277995,11.5715789 C-4.55635529e-13,11.1792246 0.114034017,10.8313242 0.38269043,10.5414072 C0.616556803,10.2901458 0.906473796,10.1451873 1.24664307,10.1026661 C1.34521484,10.0910695 1.4457194,10.0891367 1.54622396,10.0891367 L7.41607666,10.0891367 C8.02490234,10.0891367 8.54675293,10.4486338 8.75935872,11.0072072 C8.82314046,11.1734262 8.85019938,11.3473764 8.85019938,11.5232594 C8.85213216,13.5178883 8.85213216,15.5125172 8.85019938,17.5071461 C8.85019938,18.2222747 8.3476766,18.8059743 7.64221191,18.9180755 C7.56296794,18.931605 7.48179118,18.9354705 7.40061442,18.9354705 C5.41371663,18.9354705 3.42488607,18.9374033 1.43798828,18.9354705 C0.72672526,18.9354705 0.150756836,18.4542083 0.0231933594,17.7564747 C0.00773111979,17.6675669 -4.55635529e-13,17.5767262 -4.55635529e-13,17.4878183 C0.0038655599,16.5001678 0.0038655599,15.5067189 0.0038655599,14.5113372 Z M1.42445882,14.5171355 L1.42445882,17.4066416 C1.42445882,17.5148772 1.42445882,17.5148772 1.52882894,17.5148772 L7.32137044,17.5148772 C7.42574056,17.5148772 7.42767334,17.5148772 7.42767334,17.4066416 L7.42767334,11.6295623 C7.42767334,11.5232594 7.42767334,11.5213266 7.32137044,11.5213266 L1.52882894,11.5213266 C1.4263916,11.5213266 1.42445882,11.5213266 1.42445882,11.623764 L1.42445882,14.5171355 L1.42445882,14.5171355 Z M9.90353904,14.5094044 C9.90353904,13.5256194 9.90549723,12.5399017 9.90353904,11.5561167 C9.90163167,11.1811574 10.0098674,10.8487192 10.2611287,10.5684661 C10.4949951,10.305608 10.7887777,10.1529184 11.1366781,10.1065317 C11.2294515,10.094935 11.3222249,10.0930022 11.4130656,10.0930022 L17.3196411,10.0930022 C18.0096436,10.0930022 18.5778809,10.5568694 18.7209066,11.2275441 C18.7460327,11.3493092 18.7518311,11.4730071 18.7518311,11.596705 C18.7537638,13.5488128 18.7518311,15.5009205 18.7537638,17.4530283 C18.7537638,17.8473154 18.6416626,18.1990814 18.3710734,18.4909311 C18.0830892,18.7963104 17.7235921,18.9432016 17.3061117,18.9432016 L11.4633179,18.9432016 C11.3608805,18.9432016 11.260376,18.9393361 11.1579386,18.931605 C10.5433146,18.8794199 9.99247233,18.3459726 9.91902669,17.7332814 C9.90743001,17.6405079 9.90353904,17.5477345 9.90353904,17.4568939 L9.90353904,14.5094044 Z M14.3238322,17.5129445 L17.2133382,17.5129445 C17.3254395,17.5129445 17.3254395,17.5129445 17.3254395,17.3989105 L17.3254395,11.6353606 C17.3254395,11.5193939 17.3254395,11.5193939 17.2133382,11.5193939 L11.436259,11.5193939 C11.3260905,11.5193939 11.3260905,11.5193939 11.3260905,11.6276295 L11.3260905,17.4047088 C11.3260905,17.5129445 11.3260905,17.5129445 11.436259,17.5129445 L14.3238322,17.5129445 L14.3238322,17.5129445 Z M4.42220052,8.84249362 L1.40513102,8.84249362 C1.01084391,8.84249362 0.676472982,8.69560235 0.403951009,8.41534925 C0.143025716,8.14862562 0.00579833984,7.82391859 0.00579833984,7.45089206 C0.0038655599,5.43306979 0.00193277995,3.41331475 0.00579833984,1.39549248 C0.00773111979,0.632044403 0.635884603,0.00389092033 1.3973999,0.00389092033 C3.41522217,0.00195814038 5.43497721,0.00195814038 7.45279948,0.00389092033 C8.18532308,0.00389092033 8.78641764,0.570195445 8.84440104,1.29885349 C8.85213216,1.38582858 8.85406494,1.47473646 8.85406494,1.56171156 L8.85406494,7.3890431 C8.85406494,7.76786797 8.73809814,8.10610446 8.47910563,8.38635755 C8.21431478,8.67240899 7.88380941,8.83669528 7.4895223,8.84056084 C6.67195638,8.84635918 5.85439046,8.84249362 5.03489176,8.84249362 L4.42220052,8.84249362 Z M4.42220052,7.42190036 L7.325236,7.42190036 C7.42574056,7.42190036 7.42574056,7.42190036 7.42574056,7.32332858 L7.42574056,1.51725762 C7.42574056,1.42061862 7.42574056,1.42061862 7.33103434,1.42061862 L1.51723226,1.42061862 C1.42252604,1.42061862 1.42252604,1.42061862 1.42252604,1.51532484 L1.42252604,7.3213958 C1.42252604,7.42190036 1.42252604,7.42190036 1.52496338,7.42190036 C2.49135335,7.42383314 3.45774333,7.42383314 4.42220052,7.42190036 Z M18.7460675,4.42222588 C18.7556966,6.85173028 16.7514038,8.8444264 14.325765,8.8444264 C11.9117228,8.8444264 9.90356445,6.8691253 9.90356445,4.42222588 C9.90356445,1.97339369 11.9136556,-0.00577297941 14.3334961,1.26524299e-05 C16.766866,0.00775648022 18.7460675,1.98499037 18.7460675,4.42222588 L18.7460675,4.42222588 Z M17.3254477,4.43188978 C17.329305,2.78516127 15.976359,1.42448418 14.3296305,1.4225514 C12.6906331,1.4225514 11.3473511,2.75037123 11.3260905,4.3816375 C11.3048299,6.06508884 12.6771037,7.41610202 14.3180339,7.4219189 C15.9608968,7.4276987 17.3215739,6.07281996 17.3254477,4.43188978 Z" id="全部产品" fill="#FFFFFF" fill-rule="nonzero"></path>
    </g>
</svg>