<?xml version="1.0" encoding="UTF-8"?>
<svg width="34px" height="34px" viewBox="0 0 34 34" version="1.1" xmlns="http://www.w3.org/2000/svg" xmlns:xlink="http://www.w3.org/1999/xlink">
    <title>切片备份 18</title>
    <g id="UI" stroke="none" stroke-width="1" fill="none" fill-rule="evenodd">
        <path d="M21.46667,21.5330332 L11.7321175,21.5330332 C9.67524858,21.5330332 8,19.8599406 8,17.8009157 L8,11.7510476 C8,9.69417867 9.67309253,8.01893009 11.7321175,8.01893009 L21.4688261,8.01893009 C23.5278511,8.01893009 25.2009436,9.69202263 25.2009436,11.7510476 L25.2009436,17.8009157 C25.1987875,19.8599406 23.525695,21.5330332 21.46667,21.5330332 Z" id="形状备份-8" stroke="#1890FF" fill-rule="nonzero"></path>
        <path d="M15.5490754,19.0118811 L15.3765917,18.9881646 C14.7685864,18.8070566 14.2080142,18.4965858 13.7315277,18.0783127 C13.5913847,17.9618862 13.5094549,17.7872463 13.5094549,17.6061384 C13.5094549,17.4228744 13.5913847,17.2503906 13.7315277,17.1339641 C13.8522664,17.0498782 13.9298841,16.9140473 13.9406643,16.76528 C13.9600687,16.5906402 13.8759829,16.4203125 13.7272157,16.3276025 C13.5784484,16.2348925 13.3887163,16.2392045 13.239949,16.3340706 C13.0717773,16.4073762 12.8798892,16.4073762 12.7117175,16.3340706 C12.5413898,16.258609 12.414183,16.1098417 12.3667499,15.9287338 C12.2524795,15.5535816 12.1942662,15.1654931 12.1942662,14.7730925 C12.1985783,14.4151887 12.2481674,14.061597 12.3408774,13.7166295 C12.3753741,13.5484578 12.4831765,13.4040026 12.6362558,13.3242289 C12.7958033,13.2509233 12.9790673,13.2509233 13.1407709,13.3242289 C13.2895381,13.375974 13.4533977,13.3522575 13.5827605,13.2617035 C13.7121233,13.1711496 13.789741,13.0266944 13.7918971,12.869303 C13.789741,12.7313159 13.7272157,12.5997971 13.6194133,12.5135552 C13.4878944,12.3992847 13.4124328,12.2332691 13.4102767,12.0586293 C13.4102767,11.8861455 13.4814263,11.7222859 13.606477,11.6037033 C14.110992,11.1466213 14.7168413,10.8145901 15.3744356,10.6334821 C15.6956866,10.5472403 16.0277179,10.7326603 16.12474,11.0517553 C16.2066698,11.2414874 16.398558,11.357914 16.6033825,11.3471337 C16.8146751,11.3492898 17.0022512,11.2069907 17.0583084,11.0021662 C17.1747349,10.6895394 17.5175464,10.5256798 17.8323293,10.6334821 C18.4877676,10.8145901 19.0914608,11.1509334 19.5895077,11.6166396 C19.7145584,11.7352222 19.7857079,11.8990818 19.7857079,12.0715655 C19.7792398,12.2440493 19.7037782,12.4079089 19.5765714,12.5264915 C19.468769,12.6148894 19.4062437,12.7442522 19.4040876,12.8822392 C19.4040876,13.0116021 19.4558327,13.1366528 19.5485428,13.2293628 C19.6412528,13.3220728 19.7663035,13.373818 19.8956663,13.373818 L20.0552138,13.373818 C20.2104492,13.3005124 20.3915572,13.3005124 20.5467926,13.373818 C20.70634,13.4492796 20.8206105,13.5937348 20.8529512,13.7662185 C20.9478173,14.1111861 20.9952504,14.4647778 20.9995624,14.8226816 C20.9952504,15.1913657 20.9456613,15.5578937 20.8529512,15.9157975 C20.8055182,16.0818131 20.6955598,16.2219562 20.5467926,16.3081981 C20.3894011,16.3707234 20.2126053,16.3707234 20.0552138,16.3081981 C19.9064466,16.2435166 19.7361189,16.260765 19.6024439,16.353475 C19.468769,16.4461851 19.3954634,16.6014205 19.4040876,16.763124 C19.4083997,16.898955 19.466613,17.0261617 19.5636351,17.1188718 C19.6994661,17.2245181 19.7727717,17.3905337 19.7598354,17.5608614 C19.7663035,17.7333452 19.6929979,17.9015168 19.5636351,18.0157873 C19.0677443,18.4642451 18.4748313,18.7919643 17.8323293,18.9730722 C17.6620016,19.0226613 17.4787376,18.9946327 17.3278143,18.8997666 C17.176891,18.8092127 17.0734007,18.6561333 17.0453721,18.4814935 C17.0087193,18.2551086 16.812519,18.091249 16.583978,18.091249 C16.355437,18.091249 16.1592368,18.2572646 16.122584,18.4814935 C16.0880872,18.6518212 15.9845969,18.8027445 15.8401418,18.8997666 C15.756056,18.962292 15.6547217,19.0011009 15.5490754,19.0118811 Z M15.1332303,17.8990818 C15.4593912,17.3962505 16.0188476,17.0927398 16.6168091,17.0927398 C17.2147705,17.0927398 17.7742269,17.3962505 18.1003878,17.8990818 L18.3971035,17.7314714 C18.2951782,17.5095008 18.2430831,17.2671452 18.2430831,17.0225246 C18.2453481,16.0802822 18.9678849,15.2965903 19.9078623,15.2150501 C19.9146573,15.1244498 19.9146573,15.0338496 19.9078623,14.9432494 C19.9146573,14.8617092 19.9146573,14.780169 19.9078623,14.6986288 C19.3099008,14.6578587 18.7708294,14.3249028 18.4695837,13.8084816 C18.1660729,13.2920603 18.1411579,12.6578587 18.3993685,12.1187873 C18.2702632,12.0372471 18.1366279,11.9647669 17.9984625,11.8990818 C17.6473866,12.2977228 17.1422904,12.5264883 16.612279,12.5264883 C16.0822677,12.5264883 15.5749064,12.2977228 15.2260956,11.8990818 C15.0834002,11.9625019 14.9452349,12.0349821 14.8138645,12.1187873 C15.0720752,12.6601237 15.0448951,13.2920603 14.7436494,13.8084816 C14.4424036,14.3249028 13.9033323,14.6578587 13.3053708,14.6986288 C13.2985758,14.780169 13.2985758,14.8617092 13.3053708,14.9432494 C13.2985758,15.0338496 13.2985758,15.1244498 13.3053708,15.2150501 C13.787817,15.2105201 14.2498781,15.4007805 14.591894,15.7405314 C14.9339098,16.0802822 15.1264353,16.5423434 15.1264353,17.0225246 C15.1196403,17.2875302 15.0539551,17.5480059 14.9271148,17.7835665 L15.1332303,17.8990818 Z" id="形状备份-7" fill="#1890FF" fill-rule="nonzero"></path>
        <path d="M15.2199243,15.3219409 C14.9872891,14.7607596 15.1158507,14.1159113 15.5443891,13.6873728 C15.9729276,13.2588344 16.6177759,13.1302728 17.1789572,13.362908 C17.7401386,13.5955432 18.1054166,14.1424399 18.1054166,14.7485157 C18.1054166,15.5749827 17.4340397,16.2484003 16.605532,16.2484003 C15.9994562,16.2484003 15.4525595,15.8831223 15.2199243,15.3219409 Z M16.2756633,14.6480418 C16.2196061,14.7817167 16.2519468,14.9347961 16.353281,15.0361303 C16.4546152,15.1374645 16.6076946,15.1676491 16.7413695,15.113748 C16.8750444,15.0576907 16.9612863,14.9283279 16.9612863,14.7838728 C16.9612863,14.5876725 16.8017388,14.428125 16.6055385,14.428125 C16.4610834,14.428125 16.3317205,14.5143669 16.2756633,14.6480418 Z M17.5663809,23.2470906 L17.5663809,21.5351892 L15.6302506,21.5351892 L15.6302506,23.2470906 L11.0723671,23.2470906 C10.5376674,23.2470906 10.1043019,23.6804561 10.1043019,24.2151557 C10.1043019,24.7498554 10.5376674,24.958992 11.0723671,24.958992 L22.1285765,24.958992 C22.6632762,24.958992 23.0966416,24.7498554 23.0966416,24.2151557 C23.0944856,23.6783 22.6611201,23.2470906 22.1264205,23.2470906 L17.5663809,23.2470906 Z" id="形状备份-6" fill="#1890FF" fill-rule="nonzero"></path>
    </g>
</svg>