<?xml version="1.0" encoding="UTF-8"?>
<svg width="34px" height="34px" viewBox="0 0 34 34" version="1.1" xmlns="http://www.w3.org/2000/svg" xmlns:xlink="http://www.w3.org/1999/xlink">
    <title>切片备份 19</title>
    <g id="UI" stroke="none" stroke-width="1" fill="none" fill-rule="evenodd">
        <path d="M24.5339506,22 L8.46604938,22 C7.65679012,22 7,21.34375 7,20.5351563 L7,8.46484375 C7,7.65625 7.65679012,7 8.46604938,7 L24.5339506,7 C25.3432099,7 26,7.65625 26,8.46484375 L26,20.5351563 C26,21.34375 25.3432099,22 24.5339506,22 Z M8.41319443,8 C8.18652777,8 8,8.18672726 8,8.41363637 L8,20.5863636 C8,20.8132727 8.18652777,21 8.41319443,21 L24.5868056,21 C24.8134722,21 25,20.8132727 25,20.5863636 L25,8.41363637 C25,8.18672729 24.8134722,8 24.5868056,8 L8.41319443,8 Z" id="形状备份-17" fill="#1890FF" fill-rule="nonzero"></path>
        <path d="M15.7687255,19 C15.5967744,19 15.4319879,18.9138498 15.3316831,18.7661637 L12.8503333,15.174931 L10.9158835,17.1563856 C10.705721,17.3729919 10.3642071,17.3705304 10.1564328,17.1539242 C9.94627037,16.937318 9.94865858,16.5853329 10.158821,16.3711881 L12.5422542,13.9294452 C12.6545001,13.8137578 12.8097337,13.7571448 12.9673556,13.769452 C13.1249774,13.7842206 13.26827,13.8679094 13.3590219,14.0008268 L15.5251281,17.1391556 L16.8840193,11.4212436 C16.9317835,11.2169445 17.0894054,11.0569513 17.290015,11.0126455 C17.4906246,10.9683397 17.6983988,11.0421827 17.8249739,11.2070988 L21.5075932,15.9330528 L23.0814234,14.2912761 C23.2891976,14.0746698 23.6307116,14.0722084 23.840874,14.2863532 C24.0510365,14.500498 24.0534247,14.8524831 23.8456504,15.0690893 L21.8491072,17.1539242 C21.7416377,17.2671502 21.5911805,17.3262246 21.4383351,17.3188403 C21.2854897,17.311456 21.1421971,17.2351515 21.0466687,17.1120798 L17.6697403,12.7750325 L16.2917434,18.5766333 C16.241591,18.7858552 16.0768045,18.9483099 15.8714185,18.9876928 C15.8355953,18.9950771 15.8021604,19 15.7687255,19 L15.7687255,19 Z M24.4724138,24 L8.52758622,24 C8.2368276,24 8,23.7755556 8,23.5 C8,23.2244444 8.2368276,23 8.52758622,23 L24.4724138,23 C24.7631724,23 25,23.2244444 25,23.5 C25,23.7755556 24.7631724,24 24.4724138,24 Z" id="形状备份-16" fill="#1890FF" fill-rule="nonzero"></path>
    </g>
</svg>