<?xml version="1.0" encoding="UTF-8"?>
<svg width="34px" height="34px" viewBox="0 0 34 34" version="1.1" xmlns="http://www.w3.org/2000/svg" xmlns:xlink="http://www.w3.org/1999/xlink">
    <title>切片备份 14</title>
    <g id="UI" stroke="none" stroke-width="1" fill="none" fill-rule="evenodd">
        <path d="M11.2302907,26 C10.6549249,26 10.0894366,25.8864211 9.56345841,25.6592634 C9.3831936,25.5827211 9.25231637,25.4197601 9.21527566,25.2247007 C9.17823494,25.0296413 9.23996947,24.8321128 9.37825482,24.6913738 L11.2920253,22.7778166 C11.3340048,22.7358418 11.3340048,22.6617686 11.2920253,22.6197938 L10.3808236,21.7086936 C10.3388441,21.6667188 10.2647627,21.6667188 10.2227832,21.7086936 L8.30901274,23.6222508 L8.30407397,23.627189 C8.16331925,23.765459 7.96576873,23.8271866 7.77315701,23.7901501 C7.58054526,23.7531135 7.41756612,23.6222509 7.34101528,23.4420061 C7.00517943,22.6617686 6.91628172,21.8000505 7.07926088,20.9457398 C7.40028045,19.2618095 8.69423621,17.9605906 10.3758848,17.6297304 C11.1290461,17.481584 11.8896155,17.5309661 12.5958586,17.7704694 L18.771781,11.595235 C18.5347204,10.8989471 18.4828634,10.1483389 18.6236182,9.40513796 C18.6828833,9.09403059 18.7791892,8.78786143 18.907597,8.49650692 C19.4632078,7.24220102 20.5991231,6.3385082 21.9424665,6.07925205 C22.7968724,5.91629104 23.6586865,6.00517887 24.439011,6.34097728 C24.6192758,6.41751956 24.750153,6.58048057 24.7871937,6.77553997 C24.8242344,6.97059934 24.7624999,7.16812785 24.6242146,7.30886689 L22.7104441,9.22242409 C22.6684646,9.2643989 22.6684646,9.33847207 22.7104441,9.38044688 L23.6216458,10.291547 C23.6636253,10.3335218 23.7377067,10.3335218 23.7796862,10.291547 L25.6934566,8.37798983 C25.8342114,8.23725079 26.0317619,8.17552312 26.226843,8.21502882 C26.4194547,8.25206541 26.5824339,8.38292802 26.6589847,8.56317278 C26.9948206,9.34341029 27.0837183,10.2051283 26.9207391,11.059439 C26.5997196,12.7433694 25.3057638,14.0445883 23.6241152,14.3754485 C22.8709539,14.5235949 22.1128538,14.4742128 21.4090802,14.2347095 L15.2331577,20.4099438 C15.4702183,21.1037626 15.519606,21.8519018 15.3788512,22.5951027 C15.3195861,22.9062101 15.2232802,23.2123792 15.0948724,23.5037337 C14.5392616,24.7580396 13.4033462,25.6617325 12.0600029,25.9209886 C11.7834322,25.9728398 11.5068614,26 11.2302907,26 Z M10.7069205,24.9685587 C11.059383,25.0185715 11.4243441,25.008569 11.7868055,24.9410516 C12.7866989,24.748502 13.6291092,24.0783295 14.044065,23.1430888 C14.1390548,22.9280334 14.2090474,22.7004748 14.2540426,22.4704156 C14.3790293,21.8127463 14.3040373,21.1525764 14.0415652,20.5599238 C13.9465753,20.3473691 13.9915706,20.0973047 14.156553,19.9322622 L20.9308312,13.1555178 C21.0958136,12.9904753 21.3457869,12.9454637 21.5582643,13.0404882 C22.1582004,13.308057 22.8256292,13.3805757 23.4905584,13.2505423 C24.7379255,13.0054792 25.7003229,12.0377301 25.9402974,10.7874082 C26.0102899,10.4248149 26.0177891,10.0622215 25.9677945,9.7071301 L24.657934,11.0174674 C24.1754854,11.5000916 23.3905691,11.5000916 22.9056207,11.0174674 L21.983219,10.0947299 C21.5007704,9.61210564 21.5007704,8.82690351 21.983219,8.34177864 L23.2930795,7.03144133 C22.940617,6.98142846 22.5756559,6.99143103 22.2131945,7.05894841 C21.2133011,7.25149799 20.3708908,7.92167049 19.955935,8.85691124 C19.8609452,9.0719666 19.7909526,9.29952517 19.7459574,9.5295844 C19.6209707,10.1897543 19.6959628,10.8499243 19.9609345,11.4450775 C20.0559244,11.6576322 20.0109292,11.9076966 19.8459467,12.0727391 L13.0741683,18.8469829 C12.9091859,19.0120253 12.6592125,19.0570369 12.4467352,18.9620125 C11.8467991,18.691943 11.1768705,18.6194243 10.5094416,18.7519584 C9.2620745,18.9970215 8.29967707,19.9647706 8.05970262,21.2150925 C7.98971007,21.5776858 7.98221088,21.9402791 8.03220554,22.2953705 L9.34206597,20.9850332 C9.82451456,20.502409 10.6094309,20.502409 11.0943793,20.9850332 L12.016781,21.9077708 C12.4992296,22.390395 12.4992296,23.1755971 12.016781,23.660722 L10.7069205,24.9685587 L10.7069205,24.9685587 Z" id="形状备份-15" fill="#1890FF" fill-rule="nonzero"></path>
        <path d="M13.4883553,16 C13.3390942,16 13.1924065,15.9448345 13.079174,15.8345035 L11.7461177,14.5356068 L10.5803369,15.6715146 C10.410488,15.8370111 10.1814494,15.9297894 9.93954342,15.9297894 C9.69763745,15.9297894 9.46859884,15.8370111 9.29874997,15.6715146 L7.33004722,13.7532598 C6.88998426,13.3244734 6.88998426,12.6223671 7.33004722,12.1935808 L11.6457525,7.98846539 C11.6611933,7.97342026 11.6766341,7.96088265 11.6920749,7.94834503 C12.2788255,7.34904713 12.9659414,6.87763289 13.7405552,6.54162488 C14.5692117,6.18304913 15.4493377,6 16.3629187,6 C17.0989304,6 17.8220749,6.12036108 18.5117642,6.35606821 C18.8102864,6.45887663 18.9544006,6.73971918 18.9904292,6.94784353 C19.0264577,7.17352055 18.9595476,7.43430291 18.8102864,7.63239718 C18.6738927,7.81293882 18.4783091,7.93079237 18.2569909,7.96339017 C18.251844,7.96339017 18.246697,7.9658977 18.2389766,7.9658977 C16.2188045,8.20411233 14.6181076,9.69107324 14.2603956,11.6218656 L15.8302109,13.1514544 C16.056676,13.3721164 16.056676,13.7281846 15.8302109,13.9488466 C15.6037457,14.1695085 15.2383133,14.1695085 15.0118482,13.9488466 L13.2361555,12.218656 C13.1049086,12.0907723 13.0457189,11.9102307 13.074027,11.7321966 L13.074027,11.7271816 C13.2310086,10.495988 13.8151857,9.3324975 14.7210463,8.45235708 C15.3180908,7.87061184 16.0412352,7.42427283 16.8261429,7.14593781 C16.6717348,7.13340019 16.5173268,7.12587761 16.3629187,7.12587764 C14.8960421,7.12587764 13.4806349,7.72517554 12.4821295,8.77331996 C12.4589683,8.79839518 12.4332336,8.81845537 12.4074989,8.83851554 L8.16385074,12.9759278 L9.93696994,14.7036108 L11.3369364,13.3395186 C11.5634015,13.1188566 11.9288339,13.1188566 12.1552991,13.3395186 L13.8975367,15.0371114 C14.1240018,15.2577734 14.1240018,15.6138415 13.8975367,15.8345035 C13.7890516,15.9403404 13.6418719,15.9998683 13.4883553,16 Z M23.7610948,26 C23.4317873,26 23.1204888,25.8713551 22.8889445,25.6397942 L17.1697992,19.9202401 C16.9434003,19.693825 16.9434003,19.3284734 17.1697992,19.1020583 C17.3961981,18.8756432 17.7615236,18.8756432 17.9879225,19.1020583 L23.7070678,24.8216124 C23.7250768,24.8396227 23.7456585,24.8421956 23.7610948,24.8421956 C23.7765311,24.8421956 23.7971128,24.8396227 23.8151218,24.8216124 L24.8184807,23.8156089 C24.8467805,23.787307 24.8467805,23.7358491 24.8184807,23.7075472 L19.1019081,17.9879931 C18.8755092,17.761578 18.8755092,17.3962264 19.1019081,17.1698113 C19.328307,16.9433962 19.6936325,16.9433962 19.9200314,17.1698113 L25.6391767,22.8893654 C26.1202744,23.3704974 26.1202744,24.1552316 25.6391767,24.6363636 L24.6332452,25.6423671 C24.4017009,25.8713551 24.0904023,26 23.7610948,26 L23.7610948,26 Z" id="形状备份-14" fill="#1890FF" fill-rule="nonzero"></path>
    </g>
</svg>