<?xml version="1.0" encoding="UTF-8"?>
<svg width="24px" height="25px" viewBox="0 0 24 25" version="1.1" xmlns="http://www.w3.org/2000/svg" xmlns:xlink="http://www.w3.org/1999/xlink">
    <!-- Generator: Sketch 59.1 (86144) - https://sketch.com -->
    <title>数据源配置</title>
    <desc>Created with Sketch.</desc>
    <g id="组件" stroke="none" stroke-width="1" fill="none" fill-rule="evenodd">
        <g id="工作空间左侧栏" transform="translate(-38.000000, -173.000000)" fill="#666666" fill-rule="nonzero">
            <g id="数据源配置" transform="translate(38.000000, 173.000000)">
                <path d="M1.53545549,19.2138975 L1.53545549,14.9074793 C3.48659421,16.4876035 7.11723604,17.5575828 11.2745859,17.5575828 L11.2745859,16.0337733 C5.32841614,16.0337733 1.53545546,13.7977485 1.53545549,12.2573758 L1.53545549,7.95095756 C3.48659421,9.53108178 7.11723604,10.6010611 11.2745859,10.6010611 C15.4319358,10.6010611 19.0625776,9.54101966 21.0137164,7.95095756 L21.0137164,11.9923654 L22.5375259,11.9923654 L22.5375259,5.30085405 C22.5375259,2.37248964 17.4957039,0.00064699146 11.2745859,0.00064699146 C5.05346789,0.00064699146 0.0116459627,2.37248964 0.0116459627,5.30085405 L0.0116459627,19.2138975 C0.0116459627,22.1422619 5.05346792,24.5141046 11.2745859,24.5141046 L11.2745859,22.990295 C5.32841614,22.990295 1.53545546,20.7542702 1.53545549,19.2138975 Z M11.2745859,1.52445652 C17.2373188,1.52445652 21.0137164,3.76048137 21.0137164,5.30085405 C21.0137164,6.84122673 17.2373188,9.07725154 11.2745859,9.07725154 C5.31185299,9.07725154 1.53545549,6.8412267 1.53545549,5.30085405 C1.53545549,3.7604814 5.32841614,1.52445652 11.2745859,1.52445652 Z M13.2621636,22.5265269 L23.8625776,22.5265269 L23.8625776,23.8515787 L13.2621636,23.8515787 L13.2621636,22.5265269 Z" id="形状"></path>
                <path d="M13.2621636,18.5513716 L23.8625776,18.5513716 L23.8625776,19.8764234 L13.2621636,19.8764234 L13.2621636,18.5513716 Z M13.2621636,14.5762163 L23.8625776,14.5762163 L23.8625776,15.9012681 L13.2621636,15.9012681 L13.2621636,14.5762163 Z" id="形状"></path>
                <path d="M15.6108178,13.9136905 L18.9234472,13.9136905 L18.9234472,16.563794 L15.6108178,16.563794 L15.6108178,13.9136905 Z M19.6721014,17.8888457 L22.9847309,17.8888457 L22.9847309,20.5389493 L19.6721014,20.5389493 L19.6721014,17.8888457 Z M15.6969462,21.864001 L19.0095756,21.864001 L19.0095756,24.5141046 L15.6969462,24.5141046 L15.6969462,21.864001 Z" id="形状"></path>
            </g>
        </g>
    </g>
</svg>