<?xml version="1.0" encoding="UTF-8"?>
<svg width="14px" height="14px" viewBox="0 0 14 14" version="1.1" xmlns="http://www.w3.org/2000/svg" xmlns:xlink="http://www.w3.org/1999/xlink">
    <title>数据源管理</title>
    <g id="UI" stroke="none" stroke-width="1" fill="none" fill-rule="evenodd">
        <g id="数据源管理" fill="#FFFFFF" fill-rule="nonzero">
            <path d="M0.853333337,10.7594203 L0.853333337,8.34782609 C1.94597102,9.23269565 3.97913045,9.83188405 6.30724637,9.83188405 L6.30724637,8.97855073 C2.9773913,8.97855073 0.853333321,7.72637682 0.853333337,6.86376812 L0.853333337,4.45217392 C1.94597102,5.33704348 3.97913045,5.93623189 6.30724637,5.93623189 C8.63536229,5.93623189 10.6685217,5.3426087 11.7611594,4.45217392 L11.7611594,6.71536233 L12.6144928,6.71536233 L12.6144928,2.96811595 C12.6144928,1.32823189 9.79107246,-3.97903932e-15 6.30724637,-3.97903932e-15 C2.82342028,-3.97903932e-15 -2.327738e-13,1.32823189 -2.327738e-13,2.96811595 L-2.327738e-13,10.7594203 C-2.327738e-13,12.3993044 2.82342029,13.7275362 6.30724637,13.7275362 L6.30724637,12.8742029 C2.9773913,12.8742029 0.853333321,11.622029 0.853333337,10.7594203 Z M6.30724637,0.853333337 C9.6463768,0.853333337 11.7611594,2.10550725 11.7611594,2.96811595 C11.7611594,3.83072465 9.6463768,5.08289855 6.30724637,5.08289855 C2.96811593,5.08289855 0.853333337,3.83072464 0.853333337,2.96811595 C0.853333337,2.10550727 2.9773913,0.853333337 6.30724637,0.853333337 Z M7.42028985,12.6144928 L13.3565217,12.6144928 L13.3565217,13.3565217 L7.42028985,13.3565217 L7.42028985,12.6144928 Z" id="形状"></path>
            <path d="M7.42028985,10.3884058 L13.3565217,10.3884058 L13.3565217,11.1304348 L7.42028985,11.1304348 L7.42028985,10.3884058 Z M7.42028985,8.16231884 L13.3565217,8.16231884 L13.3565217,8.90434784 L7.42028985,8.90434784 L7.42028985,8.16231884 Z" id="形状"></path>
            <path d="M8.73553624,7.79130435 L10.5906087,7.79130435 L10.5906087,9.27536232 L8.73553624,9.27536232 L8.73553624,7.79130435 Z M11.0098551,10.0173913 L12.8649275,10.0173913 L12.8649275,11.5014493 L11.0098551,11.5014493 L11.0098551,10.0173913 Z M8.78376812,12.2434783 L10.6388406,12.2434783 L10.6388406,13.7275362 L8.78376812,13.7275362 L8.78376812,12.2434783 Z" id="形状"></path>
        </g>
    </g>
</svg>