<?xml version="1.0" encoding="UTF-8"?>
<svg width="16px" height="14px" viewBox="0 0 16 14" version="1.1" xmlns="http://www.w3.org/2000/svg" xmlns:xlink="http://www.w3.org/1999/xlink">
    <title>节点管理</title>
    <g id="UI" stroke="none" stroke-width="1" fill="none" fill-rule="evenodd">
        <g id="节点管理" fill="#FFFFFF" fill-rule="nonzero">
            <path d="M12.7655807,11.1700808 C12.2747875,11.1700808 11.8319169,11.4734095 11.6352691,11.9421903 L9.28541076,11.9421903 C9.18791313,11.2528068 8.71694995,10.6823419 8.07743154,10.4824207 L8.07743154,8.33843805 L11.0387158,8.33843805 C11.8550519,8.33843805 12.5193579,7.64560764 12.5193579,6.79421903 C12.5193579,5.94283041 11.8550519,5.25 11.0387158,5.25 L4.1279509,5.25 C3.31161473,5.25 2.64730878,5.94283041 2.64730878,6.79421903 C2.64730878,7.64560764 3.31161473,8.33843805 4.1279509,8.33843805 L7.08923513,8.33843805 L7.08923513,10.4806973 C6.44806421,10.6806185 5.97710104,11.2510833 5.8812559,11.9404668 L3.53139754,11.9404668 C3.26038716,11.2889994 2.53328612,10.990841 1.90864023,11.2734883 C1.45750708,11.4785799 1.16666667,11.9421903 1.16666667,12.455781 C1.16831917,13.165846 1.72190746,13.7414812 2.40273843,13.7397577 C2.89187913,13.7380343 3.33309726,13.436429 3.52974504,12.9710951 L6.02998111,12.9710951 C6.30760151,13.5777526 6.89754485,14 7.58333333,14 C8.26912181,14 8.85906516,13.5760292 9.13668555,12.9710951 L11.6352691,12.9710951 C11.9062795,13.6225625 12.6333805,13.9207209 13.2580264,13.6380737 C13.7091596,13.4329821 14,12.9693717 14,12.455781 C14,11.745716 13.4464117,11.1700808 12.7655807,11.1700808 L12.7655807,11.1700808 Z M4.31035346,7.304918 C4.04702726,7.29123849 3.84274997,7.01764832 3.8555173,6.69520276 C3.86668871,6.39229935 4.06458234,6.15193085 4.31035346,6.13825134 L10.9828798,6.13825134 C11.246206,6.15193085 11.4504833,6.42552102 11.4377159,6.74796658 C11.4265445,7.05086999 11.2286509,7.29123849 10.9828798,7.304918 L4.31035346,7.304918 Z M6.70833333,12.2503152 C6.70833333,11.7678933 7.10091146,11.3753152 7.58333333,11.3753152 C8.06575521,11.3753152 8.45833333,11.7678933 8.45833333,12.2503152 C8.45833333,12.7327371 8.06575521,13.1253152 7.58333333,13.1253152 C7.10091146,13.1253152 6.70833333,12.7327371 6.70833333,12.2503152 Z" id="形状"></path>
            <path d="M3.79168885,10.5 L5.23725331,10.5 C5.51654855,10.5 5.74337014,10.2756808 5.74337014,9.99946688 C5.74337014,9.72325295 5.51654855,9.49893376 5.23725331,9.49893376 L3.79168885,9.49893376 C2.25641137,9.49725974 1.01227802,8.26685224 1.01058532,6.74851265 C1.00381453,5.39255337 2.0025066,4.23747694 3.35666535,4.03157201 L3.65796567,3.98469935 L3.75614218,3.7001153 C4.31642536,2.08468233 5.85508823,0.998240879 7.58333333,0.998240879 C9.31157843,0.998240879 10.8485486,2.0830083 11.4105245,3.7001153 L11.5103937,3.98469935 L11.811694,4.03157201 C13.1658528,4.23747694 14.1645448,5.39255337 14.157774,6.74851265 C14.157774,8.26517822 12.9102553,9.49893376 11.3766705,9.49893376 L9.83970034,9.49893376 C9.5604051,9.49893376 9.33358351,9.72325295 9.33358351,9.99946688 C9.33358351,10.2756808 9.5604051,10.5 9.83970034,10.5 L11.3749778,10.5 C13.4654604,10.5 15.1666667,8.81760608 15.1666667,6.75018668 C15.1750858,5.01422399 13.9715772,3.50258049 12.2619518,3.10416283 C11.2006299,0.547928475 8.24687112,-0.672434879 5.66212061,0.375504023 C4.41121647,0.882733236 3.41760249,1.86538521 2.90302217,3.10416283 C1.19508945,3.50090647 -0.00841913505,5.01422399 0,6.75018668 C0,8.81760608 1.70120628,10.5 3.79168885,10.5 Z" id="路径"></path>
        </g>
    </g>
</svg>