<?xml version="1.0" encoding="UTF-8"?>
<svg width="30px" height="30px" viewBox="0 0 30 30" version="1.1" xmlns="http://www.w3.org/2000/svg" xmlns:xlink="http://www.w3.org/1999/xlink">
    <title>概览备份 3</title>
    <g id="组件" stroke="none" stroke-width="1" fill="none" fill-rule="evenodd">
        <path d="M16,27 C9.94183168,27 5,22.0717822 5,16 L5,15.210396 L15.210396,15.210396 L15.210396,5 L16,5 C22.0581683,5 27,9.92821782 27,15.9863861 C27,22.0445545 22.0717822,27 16,27 Z M6.6468099,16.8021961 C7.04521915,21.6792749 11.152956,25.525985 16.1262025,25.525985 C21.3742141,25.525985 25.6468099,21.2533892 25.6468099,16.0053776 C25.6468099,11.032131 21.8000998,6.92439423 16.923021,6.52598498 L16.923021,16.8021961 L6.6468099,16.8021961 Z" id="形状备份-7" fill="#666666" fill-rule="nonzero"></path>
        <path d="M13,4 L13,14 L3,14 C3,8.48 7.46666667,4 13,4 Z" id="路径备份-2" fill="#666666" fill-rule="nonzero"></path>
    </g>
</svg>