<?xml version="1.0" encoding="UTF-8"?>
<svg width="30px" height="30px" viewBox="0 0 30 30" version="1.1" xmlns="http://www.w3.org/2000/svg" xmlns:xlink="http://www.w3.org/1999/xlink">
    <title>调度管理</title>
    <g id="组件" stroke="none" stroke-width="1" fill="none" fill-rule="evenodd">
        <g id="调度管理" transform="translate(3.000000, 3.000000)" fill="#1890FF" fill-rule="nonzero">
            <path d="M23.4569296,2.55428571 L8.52720226,2.55428571 C8.12814062,1.05131447 6.76101699,0.00301784935 5.19606076,0 C3.64397015,0.0184384124 2.29513928,1.06353838 1.89943888,2.55428571 L1.05370866,2.55428571 C0.704241848,2.48451968 0.346910303,2.63097293 0.148675844,2.92521573 C-0.0495586148,3.21945853 -0.0495586148,3.60339861 0.148675844,3.89764141 C0.346910303,4.19188421 0.704241848,4.33833746 1.05370866,4.26857142 L1.89943888,4.26857142 C2.28200505,5.7729105 3.63405657,6.83456758 5.19606076,6.85714287 C6.76101699,6.85412502 8.12814063,5.80582838 8.52720226,4.30285713 L23.4569296,4.30285713 C23.8679895,4.22079493 24.1637206,3.86215452 24.1637206,3.44571428 C24.1637206,3.02927403 23.8679895,2.67063363 23.4569296,2.58857142 L23.4569296,2.55428571 Z M5.19606076,5.14285713 C4.24282831,5.14285713 3.47008074,4.37534526 3.47008074,3.42857141 C3.47008074,2.48179755 4.24282834,1.71428571 5.19606079,1.71428571 C6.14929324,1.71428571 6.92204083,2.48179757 6.92204083,3.42857142 C6.92204083,3.88322826 6.74019702,4.31926355 6.41651297,4.64075448 C6.09282892,4.96224542 5.65381913,5.14285713 5.19606076,5.14285713 L5.19606076,5.14285713 Z M23.4569296,19.6971429 L8.52720226,19.6971429 C8.12814063,18.1941716 6.76101699,17.145875 5.19606076,17.1428571 C3.64397014,17.1612955 2.29513927,18.2063955 1.89943888,19.6971429 L1.05370866,19.6971429 C0.704241848,19.6273768 0.346910303,19.7738301 0.148675844,20.0680729 C-0.0495586148,20.3623157 -0.0495586148,20.7462558 0.148675844,21.0404986 C0.346910303,21.3347414 0.704241848,21.4811946 1.05370866,21.4114286 L1.89943888,21.4114286 C2.28200506,22.9157676 3.63405658,23.9774247 5.19606076,24 C6.76101699,23.9969822 8.12814062,22.9486855 8.52720226,21.4457143 L23.4569296,21.4457143 C23.8063964,21.5154803 24.163728,21.3690271 24.3619625,21.0747843 C24.5601969,20.7805415 24.5601969,20.3966014 24.3619625,20.1023586 C24.163728,19.8081158 23.8063964,19.6616625 23.4569296,19.7314286 L23.4569296,19.6971429 Z M5.19606076,22.2857143 C4.24282831,22.2857143 3.47008074,21.5182024 3.47008074,20.5714286 C3.47008074,19.6246547 4.24282834,18.8571429 5.19606079,18.8571429 C6.14929324,18.8571429 6.92204083,19.6246547 6.92204083,20.5714286 C6.92204083,21.0260854 6.74019702,21.4621207 6.41651297,21.7836116 C6.09282892,22.1051026 5.65381913,22.2857143 5.19606076,22.2857143 L5.19606076,22.2857143 Z M1.05370866,11.1257143 L15.9834361,11.1257143 C16.3824977,9.62274305 17.7496213,8.57444644 19.3145775,8.57142858 C20.8666682,8.58986699 22.215499,9.63496696 22.6111994,11.1257143 L23.4396698,11.1257143 C23.7891366,11.0559483 24.1464682,11.2024015 24.3447026,11.4966443 C24.5429371,11.7908871 24.5429371,12.1748272 24.3447026,12.46907 C24.1464682,12.7633128 23.7891366,12.909766 23.4396698,12.84 L22.6111994,12.84 C22.2286332,14.3443391 20.8765817,15.4059961 19.3145775,15.4285714 C17.7496213,15.4255536 16.3824977,14.3772569 15.9834361,12.8742857 L1.05370866,12.8742857 C0.704241848,12.9440517 0.346910303,12.7975985 0.148675844,12.5033557 C-0.0495586148,12.2091129 -0.0495586148,11.8251728 0.148675844,11.53093 C0.346910303,11.2366872 0.704241848,11.090234 1.05370866,11.16 L1.05370866,11.1257143 Z M19.3145775,13.7142857 C20.26781,13.7142857 21.0405576,12.9467739 21.0405576,12 C21.0405576,11.0532261 20.26781,10.2857143 19.3145775,10.2857143 C18.3613451,10.2857143 17.5885975,11.0532261 17.5885975,12 C17.5885975,12.9467739 18.3613451,13.7142857 19.3145775,13.7142857 Z" id="形状"></path>
        </g>
    </g>
</svg>