<?xml version="1.0" encoding="UTF-8"?>
<svg width="30px" height="30px" viewBox="0 0 30 30" version="1.1" xmlns="http://www.w3.org/2000/svg" xmlns:xlink="http://www.w3.org/1999/xlink">
    <title>规则分类</title>
    <g id="组件" stroke="none" stroke-width="1" fill="none" fill-rule="evenodd">
        <g id="规则备份" transform="translate(4.000000, 4.000000)" fill="#666666" fill-rule="nonzero">
            <path d="M7.5537304,2.66602715 C7.96902284,2.66602715 8.30568442,3.0026887 8.3056844,3.41798115 C8.3056844,3.83327359 7.96902284,4.16993517 7.5537304,4.16993515 L7.5537304,4.16993515 L2.66602943,4.16993515 C2.25073699,4.16993515 1.91407537,4.5065967 1.91407543,4.92188915 L1.91407543,4.92188915 L1.91407543,11.689475 L1.91407543,11.689475 L1.92093989,11.7915107 C1.97073174,12.1585398 2.28534469,12.441429 2.66602943,12.441429 L2.66602943,12.441429 L3.83531559,12.441429 C4.35641971,11.5458518 5.31516106,10.937521 6.42579712,10.937521 C7.80295387,10.9301918 9.00826329,11.8613694 9.3488538,13.1957728 C9.75866168,14.8013098 8.78930368,16.4350685 7.1837597,16.8448646 L7.1837597,16.8448646 L7.19398598,16.9433076 C7.25442512,17.2968993 7.56160144,17.5640262 7.92969801,17.5652366 L7.92969801,17.5652366 L15.5988768,17.5652366 C15.9808695,16.3425594 17.1088005,15.449238 18.457054,15.449238 C19.8820558,15.4492191 21.1115076,16.4491206 21.4018488,17.8442161 C21.7403221,19.4705422 20.6962927,21.0633171 19.069969,21.401781 C17.4436428,21.7402543 15.850868,20.6962249 15.5124041,19.0699012 L15.5124041,19.0699012 L7.92970009,19.0699018 C6.69803469,19.0688092 5.69522862,18.0794022 5.67757201,16.8478613 L5.67757201,16.8478613 L5.50671602,16.7989566 C4.27094845,16.40548 3.42010536,15.2556623 3.41798324,13.9453026 L3.41798324,13.9453026 L2.6660293,13.9453375 C1.42015197,13.9453375 0.410167301,12.9353528 0.410167301,11.6894755 L0.410167301,11.6894755 L0.410167301,4.92188915 L0.410167301,4.92188915 L0.415371641,4.76743908 C0.494742225,3.59359987 1.47206352,2.66602715 2.6660293,2.66602715 L2.6660293,2.66602715 Z M18.457806,16.952394 L18.3208838,16.9585074 C17.5542396,17.0274867 16.9533421,17.6716632 16.953146,18.456302 C16.9529392,19.2870961 17.62626,19.9607544 18.457054,19.960962 L18.457054,19.960962 L18.5939762,19.9548486 C19.3606205,19.8858693 19.9615179,19.2416928 19.9617141,18.457054 C19.9619208,17.62626 19.2886,16.9526017 18.457806,16.952394 L18.457806,16.952394 Z M6.42616593,12.4414218 C5.59537425,12.4414218 4.92188195,13.1149117 4.92188195,13.9457057 L4.92188195,13.9457057 L4.92802946,14.0824383 C4.99719968,14.8490652 5.64152714,15.4498016 6.42616594,15.4498016 C7.25695997,15.4498016 7.93044992,14.7763116 7.93044992,13.9455176 L7.93044992,13.9455176 L7.92430241,13.8087854 C7.85513219,13.0421603 7.21080473,12.4414218 6.42616593,12.4414218 Z M12.441422,0.410158542 L12.6188694,0.415676734 C13.9120557,0.493995017 15.0181879,1.39804996 15.3432126,2.66602054 L15.3432126,2.66602054 L19.2090079,2.66602054 C20.4548852,2.66602054 21.4648699,3.67600521 21.4648699,4.92188254 L21.4648699,4.92188254 L21.4648699,11.6894685 C21.4648699,12.9353459 20.4548852,13.9453305 19.2090079,13.9453305 L19.2090079,13.9453305 L12.065445,13.9453305 C11.6501526,13.9453305 11.313491,13.608669 11.313491,13.1933765 C11.313491,12.7780841 11.6501526,12.4414226 12.065445,12.4414225 L12.065445,12.4414225 L19.209008,12.4414225 C19.6243005,12.4414225 19.960962,12.104761 19.960962,11.6894685 L19.960962,11.6894685 L19.960962,4.92188254 C19.960962,4.5065901 19.6243005,4.16992852 19.209008,4.16992854 L19.209008,4.16992854 L15.3432126,4.16992854 C15.0034233,5.49553415 13.8098844,6.42338781 12.4414221,6.42579054 L12.4414221,6.42579054 L12.2646901,6.42068458 C10.6857809,6.32920035 9.43360601,5.01981683 9.43360601,3.41797454 C9.43360601,1.75680476 10.7802522,0.410158542 12.441422,0.410158542 L12.441422,0.410158542 Z M12.442174,1.913314 L12.3052518,1.91942742 C11.5386076,1.98840671 10.9377101,2.63258324 10.937514,3.41722205 C10.9373072,4.24801607 11.610628,4.92167438 12.441422,4.92188205 L12.441422,4.92188205 L12.5783442,4.91576863 C13.3449885,4.84678934 13.9458859,4.2026128 13.9460821,3.417974 C13.9462888,2.58717997 13.272968,1.91352169 12.442174,1.913314 L12.442174,1.913314 Z" id="形状结合"></path>
        </g>
    </g>
</svg>