<?xml version="1.0" encoding="UTF-8"?>
<svg width="20px" height="19px" viewBox="0 0 20 19" version="1.1" xmlns="http://www.w3.org/2000/svg" xmlns:xlink="http://www.w3.org/1999/xlink">
    <title>首页</title>
    <g id="UI" stroke="none" stroke-width="1" fill="none" fill-rule="evenodd">
        <g id="首页" transform="translate(-0.000000, 0.000000)" fill="#1890FF" fill-rule="nonzero">
            <path d="M17.4285714,19 L12.4965079,19 C12.1815873,19 11.9250794,18.7595238 11.9250794,18.4642857 L11.9250794,14.1333333 L8.07492063,14.1333333 L8.07492063,18.4642857 C8.07492063,18.7595238 7.8184127,19 7.50349207,19 L2.57142859,19 C2.25650796,19 2,18.7595238 2,18.4642857 L2,9.53571428 C2,9.24047618 2.25650793,9 2.57142859,9 C2.88634925,9 3.14285715,9.24047618 3.14285715,9.53571428 L3.14285715,17.9285714 L6.9320635,17.9285714 L6.9320635,13.597619 C6.9320635,13.3023809 7.18857143,13.0619048 7.50349207,13.0619048 L12.4990476,13.0619048 C12.8139683,13.0619048 13.0704762,13.3023809 13.0704762,13.597619 L13.0704762,17.9285714 L16.8571428,17.9285714 L16.8571428,9.53571428 C16.8571428,9.24047618 17.1136508,9 17.4285714,9 C17.743492,9 18,9.24047618 18,9.53571428 L18,18.4642857 C18,18.7595238 17.7434921,19 17.4285714,19 Z" id="路径"></path>
            <path d="M19.4417086,11 C19.3009788,11 19.15778,10.9431958 19.0491464,10.8295875 L9.99799595,1.40267589 L0.946845471,10.8295875 C0.729578348,11.0568042 0.37898825,11.0542222 0.161721128,10.8270054 C-0.0555459948,10.5997887 -0.0530770455,10.2305616 0.164190077,10.0059269 L9.60790271,0.168476031 C9.82516983,-0.0561586769 10.1757599,-0.0561586769 10.3930271,0.168476031 L19.8367397,10.0059269 C20.0540068,10.2331436 20.0540068,10.5997887 19.8392087,10.8270054 C19.7256372,10.9431958 19.5849074,11 19.4417086,11 L19.4417086,11 Z M16.494382,7 C16.2157303,7 15.988764,6.71629214 15.988764,6.36797754 L15.988764,3.26404493 L13.505618,3.26404493 C13.2269663,3.26404493 13,2.98033707 13,2.63202246 C13,2.28370786 13.2269663,2 13.505618,2 L16.494382,2 C16.7730337,2 17,2.28370786 17,2.63202246 L17,6.36797754 C17,6.71629214 16.7730337,7 16.494382,7 Z" id="形状"></path>
        </g>
    </g>
</svg>