<?xml version="1.0" encoding="UTF-8"?>
<svg width="34px" height="34px" viewBox="0 0 34 34" version="1.1" xmlns="http://www.w3.org/2000/svg" xmlns:xlink="http://www.w3.org/1999/xlink">
    <title>切片备份 12</title>
    <g id="UI" stroke="none" stroke-width="1" fill="none" fill-rule="evenodd">
        <path d="M16,19 C14.3469388,19 13,17.6556123 13,16 C13,14.3469388 14.3443877,13 16,13 C17.6530612,13 19,14.3443877 19,16 C19,17.6556123 17.6556123,19 16,19 L16,19 Z M16,14 C14.8980716,14 14,14.8980716 14,16 C14,17.1019284 14.8980716,18 16,18 C17.1019284,18 18,17.1019284 18,16 C18,14.8980717 17.1046832,14 16,14 Z" id="形状" fill="#000000" fill-rule="nonzero"></path>
        <path d="M17.646108,23 L17,22.1046778 C18.0145915,21.4319763 18.9938489,20.6431249 19.9100099,19.7647412 C22.1209107,17.6450055 23.7387045,15.2227961 24.4630521,12.9409344 C25.1520657,10.7776425 24.9476331,9.03055436 23.8926599,8.01666251 C23.2869337,7.43591298 22.4313454,7.12376012 21.3561813,7.09230287 C20.265874,7.05842583 18.9812296,7.32460267 17.6385364,7.85695641 L17.2044326,6.85032392 C18.6960335,6.25747545 20.1447288,5.96468092 21.3940392,6.00339752 C22.7493516,6.04453395 23.8926599,6.47525651 24.6977711,7.24716941 C25.4019278,7.92229071 25.8259362,8.81761289 25.9571769,9.90409844 C26.0783221,10.9083111 25.9420337,12.0359331 25.5533594,13.2579269 C24.7734868,15.706754 23.0572625,18.2910893 20.7176449,20.5342343 C19.745959,21.458594 18.7162244,22.2885818 17.646108,23 L17.646108,23 Z M10.9055523,26 C10.8388089,26 10.7746326,26 10.7104563,25.9975641 C9.3191142,25.9610259 8.14853855,25.5274395 7.32451489,24.7455223 C6.60830742,24.065912 6.1770427,23.1646368 6.04355599,22.0709271 C5.9203375,21.0600372 6.0589583,19.9249176 6.45428431,18.6947987 C7.24750334,16.2296891 8.99309862,13.6281702 11.3727557,11.3701103 C12.3020285,10.4883221 13.2954776,9.68935379 14.3248654,9 L14.9922989,9.89396762 C14.0168191,10.5492191 13.0747111,11.3067775 12.1890782,12.1447199 C9.94034075,14.2785499 8.2948605,16.7168649 7.55811661,19.0138988 C6.85731145,21.1915747 7.06524266,22.9502794 8.13827033,23.9709127 C8.75949688,24.5603955 9.63486157,24.8746239 10.7386939,24.9038544 C11.8579285,24.933085 13.1748261,24.6602665 14.553333,24.1121937 L15,25.1230835 C13.5547498,25.6955151 12.1428713,26 10.9055523,26 L10.9055523,26 Z" id="形状" fill="#000000" fill-rule="nonzero"></path>
        <path d="M22.1046778,15 C21.4319763,13.9854085 20.6431249,13.0061511 19.7647413,12.0899901 C17.6450055,9.87908934 15.2227961,8.2612955 12.9409344,7.53694786 C10.7800623,6.84793427 9.03055437,7.05236687 8.01666252,8.10734007 C7.43591299,8.71306633 7.12376013,9.56865465 7.09230288,10.6438187 C7.05842583,11.734126 7.32460268,13.0187704 7.85695639,14.3614636 L6.8503239,14.7955674 C6.25747543,13.3039665 5.96468089,11.8552712 6.00339753,10.6059608 C6.04453396,9.25064836 6.47525651,8.10734007 7.24716941,7.30222893 C7.92229071,6.59807218 8.8176129,6.17406381 9.90409845,6.04282313 C10.9083112,5.92167788 12.0359331,6.05796629 13.2579269,6.44664062 C15.706754,7.22651316 18.2910894,8.94273753 20.5342344,11.2823551 C21.458594,12.2464694 22.2885819,13.2787279 23,14.3488443 L22.1046778,15 L22.1046778,15 Z M21.3382903,26 C20.5223946,26 19.6358692,25.8485454 18.6933271,25.545636 C16.2285917,24.7524244 13.6274677,23.0068454 11.3697506,20.6272105 C10.4880962,19.6979464 9.68924915,18.7045066 9,17.6751283 L9.89383192,17.0077011 C10.5489839,17.9831717 11.3064273,18.925271 12.1442425,19.8108956 C14.2777487,22.0596121 16.7156936,23.705077 19.0123789,24.441814 C19.8599361,24.713919 20.6441701,24.8499715 21.3455968,24.8499715 C22.446447,24.8499715 23.34515,24.5188249 23.9686404,23.8616657 C24.5580336,23.240445 24.8722143,22.3650884 24.9014404,21.2612664 C24.9306665,20.1420422 24.6578895,18.8251569 24.1098999,17.4466629 L25.1206363,17 C25.7270781,18.5273816 26.0315168,20.0111238 25.9974196,21.2920707 C25.960887,22.6833999 25.5273663,23.8539646 24.7455678,24.6779806 C24.0660607,25.3941814 23.1649223,25.8254421 22.0713786,25.9589276 C21.8326987,25.9845978 21.5867122,26 21.3382903,26 L21.3382903,26 Z" id="形状" fill="#000000" fill-rule="nonzero"></path>
    </g>
</svg>