<?xml version="1.0" encoding="UTF-8"?>
<svg width="15px" height="14px" viewBox="0 0 15 14" version="1.1" xmlns="http://www.w3.org/2000/svg" xmlns:xlink="http://www.w3.org/1999/xlink">
    <title>调度管理</title>
    <g id="UI" stroke="none" stroke-width="1" fill="none" fill-rule="evenodd">
        <g id="调度管理" fill="#FFFFFF" fill-rule="nonzero">
            <path d="M13.788209,1.49 L5.07920132,1.49 C4.84641536,0.613266773 4.04892658,0.00176041212 3.13603544,0 C2.23064925,0.0107557406 1.44383125,0.620397387 1.21300601,1.49 L0.719663384,1.49 C0.515807745,1.44930315 0.307364344,1.53473421 0.191727576,1.70637584 C0.0760908081,1.87801747 0.0760908081,2.10198252 0.191727576,2.27362415 C0.307364344,2.44526579 0.515807745,2.53069685 0.719663384,2.49 L1.21300601,2.49 C1.43616961,3.36753112 2.22486633,3.98683109 3.13603544,4 C4.04892658,3.99823959 4.84641537,3.38673322 5.07920132,2.50999999 L13.788209,2.50999999 C14.0279939,2.46213037 14.2005037,2.25292347 14.2005037,2.01 C14.2005037,1.76707652 14.0279939,1.55786962 13.788209,1.51 L13.788209,1.49 Z M3.13603544,3 C2.57998318,3 2.12921377,2.55228473 2.12921377,2 C2.12921377,1.44771524 2.5799832,0.999999998 3.13603546,0.999999998 C3.69208773,0.999999998 4.14285715,1.44771525 4.14285715,2 C4.14285715,2.26521649 4.03678159,2.5195704 3.8479659,2.70710678 C3.6591502,2.89464316 3.40306116,3 3.13603544,3 L3.13603544,3 Z M13.788209,11.49 L5.07920132,11.49 C4.84641537,10.6132668 4.04892658,10.0017604 3.13603544,9.99999999 C2.23064925,10.0107557 1.44383124,10.6203974 1.21300601,11.49 L0.719663384,11.49 C0.515807745,11.4493032 0.307364344,11.5347342 0.191727576,11.7063758 C0.0760908081,11.8780175 0.0760908081,12.1019825 0.191727576,12.2736242 C0.307364344,12.4452658 0.515807745,12.5306969 0.719663384,12.49 L1.21300601,12.49 C1.43616962,13.3675311 2.22486634,13.9868311 3.13603544,14 C4.04892658,13.9982396 4.84641536,13.3867332 5.07920132,12.51 L13.788209,12.51 C13.9920646,12.5506969 14.200508,12.4652658 14.3161448,12.2936242 C14.4317815,12.1219825 14.4317815,11.8980175 14.3161448,11.7263758 C14.200508,11.5547342 13.9920646,11.4693032 13.788209,11.51 L13.788209,11.49 Z M3.13603544,13 C2.57998318,13 2.12921377,12.5522847 2.12921377,12 C2.12921377,11.4477152 2.5799832,11 3.13603546,11 C3.69208773,11 4.14285715,11.4477153 4.14285715,12 C4.14285715,12.2652165 4.03678159,12.5195704 3.8479659,12.7071068 C3.6591502,12.8946432 3.40306116,13 3.13603544,13 L3.13603544,13 Z M0.719663384,6.49 L9.42867103,6.49 C9.66145699,5.61326678 10.4589458,5.00176042 11.3718369,5 C12.2772231,5.01075574 13.0640411,5.62039739 13.2948663,6.49 L13.7781407,6.49 C13.9819964,6.44930315 14.1904398,6.53473421 14.3060765,6.70637584 C14.4217133,6.87801748 14.4217133,7.10198252 14.3060765,7.27362416 C14.1904398,7.44526579 13.9819964,7.53069685 13.7781407,7.49 L13.2948663,7.49 C13.0717027,8.36753112 12.283006,8.98683108 11.3718369,9 C10.4589458,8.99823958 9.66145699,8.38673322 9.42867103,7.51 L0.719663384,7.51 C0.515807745,7.55069685 0.307364344,7.46526579 0.191727576,7.29362416 C0.0760908081,7.12198252 0.0760908081,6.89801748 0.191727576,6.72637584 C0.307364344,6.55473421 0.515807745,6.46930315 0.719663384,6.51 L0.719663384,6.49 Z M11.3718369,8 C11.9278892,8 12.3786586,7.55228475 12.3786586,7 C12.3786586,6.44771525 11.9278892,6 11.3718369,6 C10.8157846,6 10.3650152,6.44771525 10.3650152,7 C10.3650152,7.55228475 10.8157846,8 11.3718369,8 Z" id="形状"></path>
        </g>
    </g>
</svg>