<?xml version="1.0" encoding="UTF-8"?>
<svg width="12px" height="14px" viewBox="0 0 12 14" version="1.1" xmlns="http://www.w3.org/2000/svg" xmlns:xlink="http://www.w3.org/1999/xlink">
    <title>集群管理</title>
    <g id="UI" stroke="none" stroke-width="1" fill="none" fill-rule="evenodd">
        <g id="集群管理" fill="#FFFFFF" fill-rule="nonzero">
            <path d="M8.00149851,1.75 C8.22252093,1.75 8.40201792,1.96131565 8.40201792,2.22151777 L8.40201792,2.22151777 L8.40201792,4.10601184 C8.40201792,4.36621395 8.22252093,4.57752961 8.00149851,4.57752961 L8.00149851,4.57752961 L6.40076042,4.57752961 L6.40076042,7.42398301 C8.72886319,7.62110582 10.7086882,9.49929197 11.3690764,12.1344297 C11.7374471,12.2274717 12.0013345,12.6106784 12,13.0538105 C12,13.5742147 11.6423405,13.9952691 11.2002956,13.9952691 C10.7582508,13.9952691 10.4005964,13.5742147 10.4005964,13.0538105 C10.4005964,12.8219941 10.47561,12.5980626 10.6082235,12.4261715 C10.0549977,10.1773944 8.38192497,8.56256437 6.39942089,8.36701854 L6.39942089,8.36701854 L6.39942089,12.2463955 C6.63785719,12.4104016 6.79994029,12.7116053 6.79994029,13.0585415 C6.79994029,13.5789457 6.44228584,14 6.00024101,14 C5.55819618,14 5.20054173,13.5789457 5.20054173,13.0585415 C5.20054173,12.7100283 5.36262483,12.4088247 5.60106113,12.2463955 L5.60106113,12.2463955 L5.60106113,8.3701725 C3.61855705,8.56571833 1.94548435,10.1805484 1.39225855,12.4293254 C1.51951388,12.5949086 1.59988566,12.8141092 1.59988566,13.0569645 C1.59988566,13.5000965 1.33733783,13.8848803 0.968967134,13.9779222 C0.536299013,14.086734 0.111668071,13.7634526 0.0179009862,13.2556643 C-0.0745265691,12.7462989 0.200077037,12.2463955 0.631405628,12.1360067 C1.29179381,9.49929197 3.27295837,7.6226828 5.60106113,7.42555999 L5.60106113,7.42555999 L5.60106113,4.57752961 L4.00032304,4.57752961 C3.77930063,4.57752961 3.59980363,4.36621395 3.59980363,4.10601184 L3.59980363,4.10601184 L3.59980363,2.22151777 C3.59980363,1.96131565 3.77930063,1.75 4.00032304,1.75 L4.00032304,1.75 Z M8.79993303,2.17603713e-14 C9.46291646,2.17603713e-14 10,0.615275785 10,1.37478081 L10,1.37478081 L10,5.04188586 C10,5.80139088 9.46291646,6.41666667 8.79993303,6.41666667 L8.79993303,6.41666667 L7.66683409,6.41666667 C7.44583961,6.41666667 7.26636531,6.21106329 7.26636531,5.95789495 C7.26636531,5.70472661 7.44583961,5.49912323 7.66683409,5.49912323 L7.66683409,5.49912323 L8.79993303,5.49912323 C9.02092751,5.49912323 9.20040181,5.29351985 9.20040181,5.04035151 L9.20040181,5.04035151 L9.20040181,1.37478081 C9.20040181,1.12161247 9.02092751,0.916009087 8.79993303,0.916009087 L8.79993303,0.916009087 L3.20006697,0.916009087 C2.97907249,0.916009087 2.79959819,1.12161247 2.79959819,1.37478081 L2.79959819,1.37478081 L2.79959819,5.03881715 C2.79959819,5.29198549 2.97907249,5.49758887 3.20006697,5.49758887 L3.20006697,5.49758887 L4.16842458,5.49758887 C4.38941905,5.49758887 4.56889335,5.70319225 4.56889335,5.95636059 C4.56889335,6.20952893 4.38941905,6.41513231 4.16842458,6.41513231 L4.16842458,6.41513231 L3.20006697,6.41513231 C2.5384229,6.41513231 2,5.79985653 2,5.04035151 L2,5.04035151 L2,1.37478081 C2,0.615275785 2.53708354,2.17603713e-14 3.20006697,2.17603713e-14 L3.20006697,2.17603713e-14 Z" id="形状结合"></path>
        </g>
    </g>
</svg>