<?xml version="1.0" encoding="UTF-8"?>
<svg width="14px" height="14px" viewBox="0 0 14 14" version="1.1" xmlns="http://www.w3.org/2000/svg" xmlns:xlink="http://www.w3.org/1999/xlink">
    <title>规则分类</title>
    <g id="UI" stroke="none" stroke-width="1" fill="none" fill-rule="evenodd">
        <g id="规则分类" fill="#FFFFFF" fill-rule="nonzero">
            <path d="M4.83438746,1.70625737 C5.10017462,1.70625737 5.31563803,1.92172077 5.31563802,2.18750793 C5.31563802,2.4532951 5.10017462,2.66875851 4.83438746,2.66875849 L4.83438746,2.66875849 L1.70625884,2.66875849 C1.44047167,2.66875849 1.22500824,2.88422189 1.22500828,3.15000905 L1.22500828,3.15000905 L1.22500828,7.48126402 L1.22500828,7.48126402 L1.23276187,7.56776937 C1.27351031,7.7922719 1.47000358,7.96251457 1.70625884,7.96251458 L1.70625884,7.96251458 L2.45460197,7.96251458 C2.78810861,7.38934516 3.40170308,7.00001346 4.11251015,7.00001346 C4.99389048,6.99532277 5.7652885,7.5912764 5.98326643,8.44529462 C6.24554348,9.47283825 5.62515436,10.5184438 4.59760621,10.7807133 L4.59760621,10.7807133 L4.6080992,10.8641339 C4.6547826,11.0802206 4.84656377,11.2410002 5.07500672,11.2417514 L5.07500672,11.2417514 L9.98328118,11.2417514 C10.2277565,10.459238 10.9496323,9.88751232 11.8125146,9.88751232 C12.7245157,9.88750025 13.5113649,10.5274372 13.6971832,11.4202983 C13.9138061,12.461147 13.2456273,13.4805229 12.2047801,13.6971398 C11.1639314,13.9137627 10.1445555,13.2455839 9.92793861,12.2047367 L9.92793861,12.2047367 L5.07500806,12.2047372 C4.2867422,12.2040379 3.64494632,11.5708174 3.63364609,10.7826312 L3.63364609,10.7826312 L3.4864254,10.7388402 C2.71607495,10.4758695 2.18884564,9.75016993 2.18750928,8.92499366 L2.18750928,8.92499366 L1.70625875,8.92501599 C0.908897258,8.92501599 0.262507073,8.27862581 0.262507073,7.48126431 L0.262507073,7.48126431 L0.262507073,3.15000905 L0.262507073,3.15000905 L0.269116167,3.01096622 C0.339075369,2.2788383 0.955800876,1.70625737 1.70625875,1.70625737 L1.70625875,1.70625737 Z M11.8129959,10.8495322 L11.7007181,10.8559813 C11.2218951,10.9114748 10.8501368,11.3183043 10.8500134,11.8120333 C10.8498811,12.3437415 11.2808064,12.7748828 11.8125146,12.7750157 L11.8125146,12.7750157 L11.9247924,12.7685666 C12.4036154,12.7130731 12.7753736,12.3062436 12.775497,11.8125146 C12.7756293,11.2808064 12.344704,10.8496651 11.8129959,10.8495322 L11.8129959,10.8495322 Z M4.1127462,7.96250992 C3.58103952,7.96250992 3.15000445,8.39354349 3.15000445,8.92525167 L3.15000445,8.92525167 L3.15648151,9.03740741 C3.21209432,9.51621652 3.61901718,9.88787302 4.1127462,9.88787302 C4.64445438,9.88787302 5.07548795,9.45683945 5.07548795,8.92513127 L5.07548795,8.92513127 L5.06901089,8.81297581 C5.01339808,8.33416771 4.60647522,7.96250992 4.1127462,7.96250992 Z M7.96251008,0.262501467 L8.12530759,0.2696481 C8.93167407,0.339261225 9.61577691,0.910889783 9.81965608,1.70625315 L9.81965608,1.70625315 L12.2937651,1.70625315 C13.0911266,1.70625315 13.7375167,2.35264333 13.7375167,3.15000483 L13.7375167,3.15000483 L13.7375167,7.48125987 C13.7375167,8.27862136 13.0911266,8.92501155 12.2937651,8.92501155 L12.2937651,8.92501155 L7.7218848,8.92501155 C7.45609764,8.92501155 7.24063426,8.70954815 7.24063424,8.44376099 C7.24063424,8.17797382 7.45609764,7.96251044 7.7218848,7.96251043 L7.7218848,7.96251043 L12.2937651,7.96251043 C12.5595523,7.96251043 12.7750157,7.74704703 12.7750157,7.48125987 L12.7750157,7.48125987 L12.7750157,3.15000483 C12.7750157,2.88421766 12.5595523,2.66875426 12.2937651,2.66875427 L12.2937651,2.66875427 L9.81965604,2.66875427 C9.60219094,3.51714186 8.83832599,4.1109682 7.96251013,4.11250595 L7.96251013,4.11250595 L7.81207239,4.10671432 C6.81923445,4.0299682 6.03750784,3.20002624 6.03750784,2.18750371 C6.03750784,1.12435505 6.89936143,0.262501467 7.96251008,0.262501467 L7.96251008,0.262501467 Z M7.96299137,1.22452096 L7.85071359,1.23097006 C7.37189058,1.2864636 7.00013236,1.69329309 7.00000895,2.18702211 C6.99987663,2.71873029 7.43080192,3.1498716 7.9625101,3.15000451 L7.9625101,3.15000451 L8.07478787,3.14355541 C8.55361089,3.08806187 8.92536909,2.68123238 8.92549252,2.18750336 C8.92562483,1.65579518 8.49469955,1.22465388 7.96299137,1.22452096 L7.96299137,1.22452096 Z" id="形状结合"></path>
        </g>
    </g>
</svg>