<?xml version="1.0" encoding="UTF-8"?>
<svg width="19px" height="17px" viewBox="0 0 19 17" version="1.1" xmlns="http://www.w3.org/2000/svg" xmlns:xlink="http://www.w3.org/1999/xlink">
    <title>数据管理</title>
    <g id="UI" stroke="none" stroke-width="1" fill="none" fill-rule="evenodd">
        <g id="数据管理" transform="translate(-0.000000, 0.000000)" fill="#1890FF" fill-rule="nonzero">
            <path d="M17.5339506,15 L1.46604938,15 C0.65679012,15 0,14.34375 0,13.5351563 L0,1.46484375 C0,0.656249997 0.65679012,0 1.46604938,0 L17.5339506,0 C18.3432099,0 19,0.656249997 19,1.46484375 L19,13.5351563 C19,14.34375 18.3432099,15 17.5339506,15 Z M1.41319443,1 C1.18652777,1 1,1.18672726 1,1.41363637 L1,13.5863636 C1,13.8132727 1.18652777,14 1.41319443,14 L17.5868056,14 C17.8134722,14 18,13.8132727 18,13.5863636 L18,1.41363637 C18,1.18672729 17.8134722,1 17.5868056,1 L1.41319443,1 Z" id="形状"></path>
            <path d="M8.76872546,12 C8.59677436,12 8.4319879,11.9138498 8.33168308,11.7661637 L5.85033328,8.17493098 L3.91588348,10.1563856 C3.70572103,10.3729919 3.36420706,10.3705304 3.15643282,10.1539242 C2.94627037,9.937318 2.94865858,9.5853329 3.15882104,9.37118808 L5.54225424,6.9294452 C5.65450009,6.81375779 5.80973372,6.7571448 5.96735556,6.76945197 C6.1249774,6.78422057 6.26826998,6.86790935 6.35902192,7.00082681 L8.52512806,10.1391556 L9.88401935,4.42124359 C9.93178353,4.21694453 10.0894054,4.0569513 10.290015,4.01264549 C10.4906246,3.96833969 10.6983988,4.04218271 10.8249739,4.2070988 L14.5075932,8.93305276 L16.0814234,7.29127606 C16.2891976,7.07466983 16.6307116,7.07220839 16.840874,7.28635318 C17.0510365,7.50049797 17.0534247,7.85248307 16.8456504,8.0690893 L14.8491072,10.1539242 C14.7416377,10.2671502 14.5911805,10.3262246 14.4383351,10.3188403 C14.2854897,10.311456 14.1421971,10.2351515 14.0466687,10.1120798 L10.6697403,5.77503249 L9.29174336,11.5766333 C9.24159096,11.7858552 9.0768045,11.9483099 8.87141847,11.9876928 C8.83559534,11.9950771 8.80216039,12 8.76872546,12 L8.76872546,12 Z M17.4724138,17 L1.52758622,17 C1.2368276,17 1,16.7755556 1,16.5 C1,16.2244444 1.2368276,16 1.52758622,16 L17.4724138,16 C17.7631724,16 18,16.2244444 18,16.5 C18,16.7755556 17.7631724,17 17.4724138,17 Z" id="形状"></path>
        </g>
    </g>
</svg>