<?xml version="1.0" encoding="UTF-8"?>
<svg width="20px" height="20px" viewBox="0 0 20 20" version="1.1" xmlns="http://www.w3.org/2000/svg" xmlns:xlink="http://www.w3.org/1999/xlink">
    <title>BI可视化</title>
    <g id="UI" stroke="none" stroke-width="1" fill="none" fill-rule="evenodd">
        <g id="BI可视化" transform="translate(-0.000000, 0.000000)" fill="#1890FF" fill-rule="nonzero">
            <path d="M18.4433935,14 C18.1366414,14 17.886787,13.7468672 17.886787,13.4360902 L17.886787,2.12781956 L3.11321305,2.12781956 L3.11321305,13.4360902 C3.11321305,13.7468671 2.86335857,14 2.55660654,14 C2.2498545,14 2,13.7468672 2,13.4360902 L2,1.56390979 C2,1.25313285 2.24985447,1 2.55660654,1 L18.4433935,1 C18.7501455,1 19,1.25313282 19,1.56390979 L19,13.4360902 C19,13.7468671 18.7501455,14 18.4433935,14 L18.4433935,14 Z M19.4444445,16 L0.555555547,16 C0.249382708,16 0,15.7755556 0,15.5 C0,15.2244444 0.249382708,15 0.555555547,15 L19.4444445,15 C19.7506173,15 20,15.2244444 20,15.5 C20,15.7755556 19.7506173,16 19.4444445,16 Z" id="形状"></path>
            <path d="M5.5,13 C5.22444444,13 5,12.7653346 5,12.4772305 L5,8.52276951 C5,8.23466542 5.22444444,8 5.5,8 C5.77555556,8 6,8.23466542 6,8.52276951 L6,12.4749071 C6,12.7653346 5.77555556,13 5.5,13 L5.5,13 Z M9.5,14 C9.22444444,14 9,13.7378666 9,13.4160395 L9,4.58396054 C9,4.26213339 9.22444444,4 9.5,4 C9.77555556,4 10,4.26213339 10,4.58396054 L10,13.4160395 C10,13.7378666 9.77555556,14 9.5,14 L9.5,14 Z M14.5,13 C14.2244444,13 14,12.7399779 14,12.4207429 L14,6.57925707 C14,6.26002206 14.2244444,6 14.5,6 C14.7755555,6 15,6.26002206 15,6.57925707 L15,12.4207429 C15,12.7399779 14.7755556,13 14.5,13 L14.5,13 Z M5.63692436,20 C5.53511789,20 5.43048346,19.9796952 5.33150492,19.9368295 C5.02325752,19.8014641 4.91013923,19.4946359 5.07698874,19.2487222 L7.80596795,15.2644682 C7.97564542,15.0185544 8.36024768,14.9283108 8.66849508,15.0614201 C8.97674248,15.1967855 9.08986077,15.5036136 8.92301126,15.7495274 L6.19403205,19.7337814 C6.08091373,19.9052442 5.863161,20 5.63692436,20 L5.63692436,20 Z M14.3695226,20 C14.1482914,20 13.932661,19.8932071 13.8178448,19.7050483 L12.0787996,16.8496104 C11.9107759,16.5724574 12.0199913,16.2241093 12.3252343,16.071548 C12.6304773,15.9189868 13.0141315,16.0181516 13.1821552,16.2953045 L14.9212004,19.1507424 C15.0892241,19.4278954 14.9800087,19.7762435 14.6747656,19.9288047 C14.5767518,19.9771158 14.4731372,20 14.3695226,20 L14.3695226,20 Z M9.5,2 C9.22444444,2 9,1.76993167 9,1.48747153 L9,0.512528468 C9,0.230068331 9.22444444,0 9.5,0 C9.77555556,0 10,0.230068331 10,0.512528468 L10,1.48747153 C10,1.76993167 9.77555556,2 9.5,2 L9.5,2 Z" id="形状"></path>
        </g>
    </g>
</svg>