<?xml version="1.0" encoding="UTF-8"?>
<svg width="30px" height="30px" viewBox="0 0 30 30" version="1.1" xmlns="http://www.w3.org/2000/svg" xmlns:xlink="http://www.w3.org/1999/xlink">
    <title>质检结果备份</title>
    <g id="组件" stroke="none" stroke-width="1" fill="none" fill-rule="evenodd">
        <path d="M14.7862108,4.26276388 L24.4393708,6.97860406 L24.4393708,16.4741505 C24.4393708,21.8213845 15.4025657,25.3730562 15.0198113,25.5222349 L14.7861989,25.6122686 L14.5526094,25.52221 C14.1698599,25.3730505 5.13304983,21.829819 5.13304983,16.4741256 L5.13304983,7.05738583 L5.51861424,6.88571177 C5.74094626,6.78721024 10.5844096,5.43633033 14.6145368,4.31905036 L14.7862108,4.26276388 Z M14.7861989,5.60803135 C11.8649319,6.41855861 7.75038304,7.56117745 6.42763659,7.94673939 L6.42763659,16.4741476 C6.42763659,20.5267839 13.4099995,23.6450679 14.7861989,24.2248145 C16.1624059,23.6619472 23.1447613,20.5324235 23.1447613,16.4797872 L23.1447613,7.95799644 L14.7861989,5.60803135 Z M13.2017354,8.9823903 L15.8753524,16.3108994 L17.3641322,13.3924274 L20.9777412,13.3924274 L20.9777412,14.6870201 L18.15779,14.6870201 L15.6783701,19.5502083 L13.1651444,12.6607266 L12.3771313,14.6870448 L8.59467897,14.6870448 L8.59467897,13.3924521 L11.4934369,13.3924521 L13.2017354,8.9823903 Z" id="形状结合" fill="#1890FF" fill-rule="nonzero"></path>
    </g>
</svg>