<?xml version="1.0" encoding="UTF-8"?>
<svg width="24px" height="20px" viewBox="0 0 24 20" version="1.1" xmlns="http://www.w3.org/2000/svg" xmlns:xlink="http://www.w3.org/1999/xlink">
    <!-- Generator: Sketch 59.1 (86144) - https://sketch.com -->
    <title>实体模型</title>
    <desc>Created with Sketch.</desc>
    <g id="组件" stroke="none" stroke-width="1" fill="none" fill-rule="evenodd">
        <g id="工作空间左侧栏" transform="translate(-38.000000, -252.000000)" fill="#666666" fill-rule="nonzero">
            <g id="实体模型" transform="translate(38.000000, 252.000000)">
                <path d="M23.9986467,11.3856988 C24.0388272,10.4632346 23.1709289,10.1280369 23.1709289,10.1280369 L18.3707015,8.07126357 C18.3707015,8.07126357 18.3814163,4.4967149 18.3707015,3.53402699 C18.357308,2.56597593 17.5028032,2.23077819 17.5028032,2.23077819 C17.5028032,2.23077819 13.704409,0.696913341 12.576677,0.13109956 C11.9873634,-0.16387445 11.3766202,0.13109956 11.3766202,0.13109956 C11.3766202,0.13109956 7.80323658,1.73468554 6.69693417,2.18787288 C5.6870649,2.60083649 5.70313709,3.49112168 5.70313709,3.49112168 L5.70313709,8.04176617 C5.70313709,8.04176617 2.55566655,9.42278085 1.23238957,9.95105248 C-0.0346347409,10.4551899 9.37980258e-05,11.5144147 9.37980258e-05,11.5144147 C9.37980258e-05,11.5144147 0.0109031307,15.1452766 9.37980258e-05,16.091875 C-0.0105264559,17.1135577 0.897552279,17.4353476 0.897552279,17.4353476 C0.897552279,17.4353476 3.95126838,18.9933467 5.41115897,19.6691053 C6.4906744,20.1678795 7.18981466,19.6851948 7.18981466,19.6851948 L11.9846847,17.2932237 C11.9846847,17.2932237 15.7777215,19.1032915 16.6697281,19.6744685 C17.7063843,20.3341376 18.4082033,19.7870949 18.4082033,19.7870949 C18.4082033,19.7870949 22.6325105,17.6150136 23.294149,17.3093132 C23.9986467,16.9821602 23.9986467,16.1750041 23.9986467,16.1750041 C23.9986467,16.1750041 23.9584662,12.308163 23.9986467,11.3856988 Z M6.46053825,13 L2,10.9986273 L6.45781675,9 L11,10.9794097 L6.46053825,13 Z M11,16.7350993 L7,19 L7,14.9555345 L11,13 L11,16.7350993 L11,16.7350993 Z M11.9018524,5 L7,3.03459321 L11.9018524,1 L17,3.03459321 L11.9018524,5 L11.9018524,5 Z M13,6.84916801 L17,5 L17,8.11057434 L13,10 L13,6.84916801 Z M17.5013799,13 L13,10.9986273 L17.3081877,9 L22,10.9986273 L17.5013799,13 L17.5013799,13 Z M22,16.8676749 L18,19 L18,14.9536862 L22,13 L22,16.8676749 Z" id="形状"></path>
            </g>
        </g>
    </g>
</svg>