<?xml version="1.0" encoding="UTF-8"?>
<svg width="14px" height="14px" viewBox="0 0 14 14" version="1.1" xmlns="http://www.w3.org/2000/svg" xmlns:xlink="http://www.w3.org/1999/xlink">
    <title>成员管理</title>
    <g id="UI" stroke="none" stroke-width="1" fill="none" fill-rule="evenodd">
        <g id="成员管理" fill="#FFFFFF" fill-rule="nonzero">
            <path d="M13.4976028,1.75 C13.6308469,1.75 13.7586335,1.80092414 13.8528513,1.89156968 C13.947069,1.98221522 14,2.10515696 14,2.23334912 L14,2.23334912 L14,12.4909841 C14,13.3243906 13.2977658,14 12.4315161,14 L12.4315161,14 L2.83573049,14 C2.5582642,14 2.33333333,13.7835972 2.33333333,13.5166509 C2.33333333,13.2497045 2.5582642,13.0333018 2.83573049,13.0333018 L2.83573049,13.0333018 L12.4315161,13.0333018 C12.7430023,13.0333018 12.9952057,12.7906605 12.9952057,12.4909841 L12.9952057,12.4909841 L12.9952057,2.23334912 C12.9952057,2.10515696 13.0481367,1.98221522 13.1423544,1.89156968 C13.2365722,1.80092414 13.3643588,1.75 13.4976028,1.75 Z M10.78,1.02102933e-14 C11.5918586,1.02102933e-14 12.25,0.658141418 12.25,1.47 L12.25,1.47 L12.25,10.78 C12.25,11.5918586 11.5918586,12.25 10.78,12.25 L10.78,12.25 L1.47,12.25 C0.658141418,12.25 1.02102933e-14,11.5918586 1.02102933e-14,10.78 L1.02102933e-14,10.78 L1.02102933e-14,1.47 C1.02102933e-14,0.658141418 0.658141418,1.02102933e-14 1.47,1.02102933e-14 L1.47,1.02102933e-14 Z M10.8946533,0.898803711 L1.39465332,0.898803711 C1.11851095,0.898803711 0.89465332,1.12266134 0.89465332,1.39880371 L0.89465332,1.39880371 L0.89465332,10.8988037 C0.89465332,11.1749461 1.11851095,11.3988037 1.39465332,11.3988037 L1.39465332,11.3988037 L10.8946533,11.3988037 C11.0272616,11.3988037 11.1544385,11.3461253 11.2482067,11.2523571 C11.3419749,11.1585889 11.3946533,11.031412 11.3946533,10.8988037 L11.3946533,10.8988037 L11.3946533,1.39880371 C11.3946533,1.26619547 11.3419749,1.13901851 11.2482067,1.04525032 C11.1544385,0.951482131 11.0272616,0.898803711 10.8946533,0.898803711 L10.8946533,0.898803711 Z M6.00785482,2.42387132 C7.50485482,2.42387132 8.48235482,3.31825864 8.58235482,4.87336453 C8.78585482,4.99375371 8.93685482,5.21130738 8.84285482,5.54166667 C8.72135482,5.96729455 8.57085482,6.20617702 8.36135482,6.29054424 C8.06635482,7.01904096 7.52385482,7.61245534 6.96235482,7.95039819 L6.96235482,7.95039819 L6.96235482,8.30398216 C8.43135482,8.45091383 9.50785482,8.92820479 9.50785482,9.4946027 C9.50785482,10.178072 2.50785482,10.178072 2.50785482,9.4946027 C2.50785482,8.92820479 3.58435482,8.45091383 5.05335482,8.30398216 L5.05335482,8.30398216 L5.05335482,7.95561189 C4.52485482,7.64468551 4.00885482,7.11383559 3.69285482,6.45927868 C3.46935482,6.35784842 3.30785482,6.09337141 3.17635482,5.63219554 C3.08385482,5.30894585 3.20235482,5.08238669 3.38685482,4.94066872 C3.46585482,3.34432717 4.48935482,2.42387132 6.00785482,2.42387132 Z" id="形状结合"></path>
        </g>
    </g>
</svg>