<?xml version="1.0" encoding="UTF-8"?>
<svg width="18px" height="14px" viewBox="0 0 18 14" version="1.1" xmlns="http://www.w3.org/2000/svg" xmlns:xlink="http://www.w3.org/1999/xlink">
    <title>数据同步</title>
    <g id="UI" stroke="none" stroke-width="1" fill="none" fill-rule="evenodd">
        <g id="数据同步" fill="#FFFFFF" fill-rule="nonzero" stroke="#0072DB" stroke-width="0.5">
            <path d="M15.8978666,6.71352163 C15.5361907,6.24692184 15.0663,5.87544485 14.5288281,5.63121394 C14.238936,2.7467575 11.8143471,0.548928761 8.91536659,0.542714195 C7.6849724,0.538194549 6.48775689,0.941526937 5.51094351,1.68967548 C5.04397915,2.05034194 4.63534366,2.48077133 4.29940505,2.96582933 C4.05296171,3.3235695 3.84835587,3.70839108 3.68959736,4.1127524 C1.91629442,4.59260396 0.650245927,6.15506283 0.548444685,7.98931944 C0.446643443,9.82357605 1.53201604,11.5165388 3.24132812,12.1896755 C3.33419852,12.2249057 3.43277064,12.2427034 3.53209736,12.2421755 C3.92283441,12.2442818 4.25904794,11.9663791 4.33051788,11.5822282 C4.40198782,11.1980773 4.18821672,10.8178519 3.82286659,10.6792909 C3.33335592,10.4889242 2.91159781,10.1571412 2.61132812,9.72621394 C2.09517267,8.97906245 1.99836067,8.01937032 2.35489274,7.1841837 C2.71142482,6.34899708 3.471455,5.75508155 4.36805889,5.61102163 L4.67498197,5.57871394 L4.67498197,5.51409856 L4.71940505,5.48986779 L4.83248197,5.40102163 C4.84238409,5.39333055 4.85062658,5.38371431 4.85671274,5.3727524 L4.99402043,5.19909856 L5.03036659,5.12640625 L5.03036659,5.0577524 C5.2773443,4.23631284 5.7777332,3.51400005 6.45998197,2.99409856 C7.67963513,2.07930063 9.31050964,1.92933698 10.6765367,2.60637412 C12.0425637,3.28341126 12.9108761,4.67203443 12.9215204,6.19659856 C12.946561,6.57455784 13.2044302,6.89689435 13.5676743,7.00429087 C14.4267633,7.23820142 15.024605,8.01605627 15.0295974,8.90640625 C15.0040462,9.34931862 14.8402005,9.7730576 14.5611358,10.1179447 C14.3869251,10.3910783 14.1105821,10.5830639 13.7938281,10.6510216 C13.347752,10.6510216 12.9861358,11.0126378 12.9861358,11.4587139 C12.9861358,11.9047901 13.347752,12.2664062 13.7938281,12.2664062 C14.6182507,12.209097 15.3711025,11.7776207 15.8372897,11.0952524 C16.3326164,10.4686416 16.6155169,9.70056673 16.6449931,8.90236779 C16.6469676,8.109858 16.3839965,7.33942372 15.8978666,6.71352163 L15.8978666,6.71352163 Z" id="路径"></path>
            <path d="M11.6413281,9.94429087 L5.43421274,9.94429087 C5.23879374,9.94559366 5.05007062,10.01565 4.90113582,10.1421755 L4.8607512,10.1825601 C4.74209761,10.2989112 4.66419302,10.4504711 4.63863582,10.6146755 C4.630815,10.6655304 4.630815,10.7172821 4.63863582,10.768137 C4.63847539,10.9609228 4.71051317,11.1467803 4.84055889,11.2890986 L6.49632813,13.130637 C6.65017957,13.3034257 6.87074123,13.4019432 7.10209736,13.4012409 C7.3014768,13.4028759 7.49383377,13.3276686 7.63921274,13.1912139 C7.80945225,13.0375698 7.90635564,12.8188031 7.9057512,12.5894832 C7.90534145,12.3912354 7.83203449,12.2000623 7.69978966,12.0523678 L7.24748197,11.5596755 L11.6372897,11.5596755 C12.0833658,11.5596755 12.444982,11.1980593 12.444982,10.7519832 C12.444982,10.305907 12.0833658,9.94429087 11.6372897,9.94429087 L11.6413281,9.94429087 Z M10.5872897,6.11582933 C10.4448699,5.95514554 10.2443314,5.85778262 10.029982,5.8452524 C9.81514739,5.83316475 9.60437017,5.90730018 9.44440505,6.05121394 C9.2838664,6.19395019 9.18680185,6.39475876 9.17467609,6.60923314 C9.16255033,6.82370752 9.23636242,7.03417696 9.37978966,7.19409856 L9.81998197,7.68679087 L5.43421274,7.68679087 C5.22184528,7.69116679 5.01876884,7.77470178 4.86478966,7.92102163 C4.62940386,8.1511696 4.55725175,8.50114592 4.68241708,8.80562613 C4.80758242,9.11010634 5.10501554,9.30815404 5.43421274,9.30622807 L11.6413281,9.30622807 C11.8286597,9.30564267 12.0099676,9.23997211 12.1542127,9.12044471 L12.2147897,9.06794471 C12.3316511,8.94973435 12.4104215,8.79922669 12.4409435,8.63582933 C12.4446298,8.58474189 12.4446298,8.53345522 12.4409435,8.48236779 C12.4359701,8.28936265 12.3646621,8.10396206 12.2390204,7.95736779 L10.5872897,6.11582933 Z" id="形状"></path>
        </g>
    </g>
</svg>