<?xml version="1.0" encoding="UTF-8"?>
<svg width="12px" height="14px" viewBox="0 0 12 14" version="1.1" xmlns="http://www.w3.org/2000/svg" xmlns:xlink="http://www.w3.org/1999/xlink">
    <title>权限管理</title>
    <g id="UI" stroke="none" stroke-width="1" fill="none" fill-rule="evenodd">
        <g id="权限管理" fill="#FFFFFF" fill-rule="nonzero">
            <path d="M6.99999999,2.9076923 C7.00000001,2.21514668 6.67744799,1.57520813 6.15384616,1.22893532 C5.63024433,0.882662505 4.98514027,0.882662505 4.46153844,1.22893532 C3.93793661,1.57520813 3.6153846,2.21514668 3.61538461,2.9076923 L3.61538461,2.9076923 L3.61538461,4.84615385 L2.76923077,4.84615385 L2.76923077,2.9076923 C2.76923077,1.30240384 3.90625,1.77635684e-15 5.3076923,1.77635684e-15 C6.70913461,1.77635684e-15 7.84615385,1.30240384 7.84615385,2.9076923 L7.84615385,2.9076923 L7.84615385,4.84615385 L10.2757666,4.84615385 C10.7182331,4.84615385 11.0769231,5.27306181 11.0769231,5.79967948 L11.0769231,5.79967948 L11.0769231,13.0464744 C11.0769231,13.573092 10.7182331,14 10.2757666,14 L10.2757666,14 L0.801156489,14 C0.358689978,14 3.5971226e-13,13.573092 3.5971226e-13,13.0464744 L3.5971226e-13,13.0464744 L3.5971226e-13,5.79967948 C3.5971226e-13,5.27306181 0.358689983,4.84615385 0.801156489,4.84615385 L0.801156489,4.84615385 L6.99999999,4.84615385 Z M10.1538462,5.92307692 L0.923076923,5.92307692 L0.923076923,12.9230769 L10.1538462,12.9230769 L10.1538462,5.92307692 Z M5.3076923,6.46153846 C5.52010952,6.46153846 5.69230769,6.6820834 5.69230769,6.95413937 L5.69230769,6.95413937 L5.69230769,9.51350894 C6.15336579,9.72228428 6.46159109,10.2806277 6.46153846,10.9069538 C6.46147763,11.7230666 5.94490093,12.3846154 5.30769231,12.3846154 C4.67048369,12.3846154 4.15390699,11.7230666 4.15384615,10.9069538 C4.15384615,10.2576442 4.46057692,9.70608511 4.92307692,9.50781324 L4.92307692,9.50781324 L4.92307692,9.12466211 L4.5264423,9.12466211 C4.47916874,9.12466211 4.43383138,9.10061022 4.40040392,9.05779759 C4.36697646,9.01498496 4.34819711,8.95691857 4.34819712,8.89637237 C4.34785065,8.76925004 4.42720474,8.6652862 4.5264423,8.66284876 L4.5264423,8.66284876 L4.92307692,8.66284876 L4.92307692,7.66225316 L4.53846153,7.66225316 C4.44001943,7.66225316 4.36021635,7.56004437 4.36021635,7.43396344 C4.35986987,7.3068411 4.43922397,7.20287726 4.53846153,7.20043982 L4.53846153,7.20043982 L4.92307692,7.20043982 L4.92307692,6.95413937 C4.92307692,6.68208341 5.09527509,6.46153846 5.3076923,6.46153846 Z" id="形状结合"></path>
        </g>
    </g>
</svg>