<?xml version="1.0" encoding="UTF-8"?>
<svg width="20px" height="20px" viewBox="0 0 20 20" version="1.1" xmlns="http://www.w3.org/2000/svg"
  xmlns:xlink="http://www.w3.org/1999/xlink">
  <!-- Generator: Sketch 59.1 (86144) - https://sketch.com -->
  <title>工作空间</title>
  <desc>Created with Sketch.</desc>
  <g id="UI" stroke="none" stroke-width="1" fill="none" fill-rule="evenodd">
    <g id="一级菜单" transform="translate(-17.000000, -141.000000)" fill="#000" fill-rule="nonzero">
      <g id="编组-6" transform="translate(-1.000000, 64.000000)">
        <g id="工作空间备份" transform="translate(18.000000, 77.000000)">
          <path
            d="M19.2307692,0 C19.6556037,0 20,0.344396346 20,0.769230769 L20,19.2307692 C20,19.6556037 19.6556037,20 19.2307692,20 L0,20 L0,0 L19.2307692,0 Z M17,1 L1,1 L1,19 L17,19 L17,1 Z M14.2222222,11 C14.651777,11 15,11.3197966 15,11.7142857 L15,15.2857143 C15,15.6802034 14.651777,16 14.2222222,16 L8.77777778,16 C8.34822297,16 8,15.6802034 8,15.2857143 L8,11.7142857 C8,11.3197966 8.34822297,11 8.77777778,11 L14.2222222,11 Z M11.2222222,8 C11.651777,8 12,8.31979661 12,8.71428571 L12,9.42857143 L11.2222222,9.42857143 L11.2222222,8.71428571 L5.77777778,8.71428571 L5.77777778,12.2857143 L6.55555556,12.2857143 L6.55555556,13 L5.77777778,13 C5.34822297,13 5,12.6802034 5,12.2857143 L5,8.71428571 C5,8.31979661 5.34822297,8 5.77777778,8 L11.2222222,8 Z M9.22222222,6 C9.65177703,6 10,6.31979661 10,6.71428571 L10,7.42857143 L9.22222222,7.42857143 L9.22222222,6.71428571 L3.77777778,6.71428571 L3.77777778,10.2857143 L4.55555556,10.2857143 L4.55555556,11 L3.77777778,11 C3.34822297,11 3,10.6802034 3,10.2857143 L3,6.71428571 C3,6.31979661 3.34822297,6 3.77777778,6 L9.22222222,6 Z"
            id="形状"></path>
        </g>
      </g>
    </g>
  </g>
</svg>