<?xml version="1.0" encoding="UTF-8"?>
<svg width="34px" height="34px" viewBox="0 0 34 34" version="1.1" xmlns="http://www.w3.org/2000/svg" xmlns:xlink="http://www.w3.org/1999/xlink">
    <title>切片备份 20</title>
    <g id="UI" stroke="none" stroke-width="1" fill="none" fill-rule="evenodd">
        <path d="M26.2307692,6 C26.6556037,6 27,6.34439635 27,6.76923077 L27,25.2307692 C27,25.6556037 26.6556037,26 26.2307692,26 L7,26 L7,6 L26.2307692,6 Z M24,7 L8,7 L8,25 L24,25 L24,7 Z M21.2222222,17 C21.651777,17 22,17.3197966 22,17.7142857 L22,21.2857143 C22,21.6802034 21.651777,22 21.2222222,22 L15.7777778,22 C15.348223,22 15,21.6802034 15,21.2857143 L15,17.7142857 C15,17.3197966 15.348223,17 15.7777778,17 L21.2222222,17 Z M18.2222222,14 C18.651777,14 19,14.3197966 19,14.7142857 L19,15.4285714 L18.2222222,15.4285714 L18.2222222,14.7142857 L12.7777778,14.7142857 L12.7777778,18.2857143 L13.5555556,18.2857143 L13.5555556,19 L12.7777778,19 C12.348223,19 12,18.6802034 12,18.2857143 L12,14.7142857 C12,14.3197966 12.348223,14 12.7777778,14 L18.2222222,14 Z M16.2222222,12 C16.651777,12 17,12.3197966 17,12.7142857 L17,13.4285714 L16.2222222,13.4285714 L16.2222222,12.7142857 L10.7777778,12.7142857 L10.7777778,16.2857143 L11.5555556,16.2857143 L11.5555556,17 L10.7777778,17 C10.348223,17 10,16.6802034 10,16.2857143 L10,12.7142857 C10,12.3197966 10.348223,12 10.7777778,12 L16.2222222,12 Z" id="形状备份-5" fill="#000000" fill-rule="nonzero"></path>
    </g>
</svg>