<?xml version="1.0" encoding="UTF-8"?>
<svg width="14px" height="14px" viewBox="0 0 14 14" version="1.1" xmlns="http://www.w3.org/2000/svg" xmlns:xlink="http://www.w3.org/1999/xlink">
    <title>工作空间</title>
    <g id="UI" stroke="none" stroke-width="1" fill="none" fill-rule="evenodd">
        <path d="M13.4615385,0 C13.7589226,0 14,0.241077442 14,0.538461538 L14,13.4615385 C14,13.7589226 13.7589226,14 13.4615385,14 L0,14 L0,0 L13.4615385,0 Z M11.6666667,0.583333333 L0.583333333,0.583333333 L0.583333333,13.4166667 L11.6666667,13.4166667 L11.6666667,0.583333333 Z M13.4166667,0.583333333 L12.25,0.583333333 L12.25,13.4166667 L13.4166667,13.4166667 L13.4166667,0.583333333 Z M9.39814815,7.58333333 C9.68451802,7.58333333 9.91666667,7.80719096 9.91666667,8.08333333 L9.91666667,10.5833333 C9.91666667,10.8594757 9.68451802,11.0833333 9.39814815,11.0833333 L5.76851852,11.0833333 C5.48214865,11.0833333 5.25,10.8594757 5.25,10.5833333 L5.25,8.08333333 C5.25,7.80719096 5.48214865,7.58333333 5.76851852,7.58333333 L9.39814815,7.58333333 Z M7.64814815,5.83333333 C7.93451802,5.83333333 8.16666667,6.05719096 8.16666667,6.33333333 L8.16666667,6.83333333 L7.64814815,6.83333333 L7.64814815,6.33333333 L4.01851852,6.33333333 L4.01851852,8.83333333 L4.53703704,8.83333333 L4.53703704,9.33333333 L4.01851852,9.33333333 C3.73214865,9.33333333 3.5,9.10947571 3.5,8.83333333 L3.5,6.33333333 C3.5,6.05719096 3.73214865,5.83333333 4.01851852,5.83333333 L7.64814815,5.83333333 Z M6.48148148,4.08333333 C6.76785135,4.08333333 7,4.30719096 7,4.58333333 L7,5.08333333 L6.48148148,5.08333333 L6.48148148,4.58333333 L2.85185185,4.58333333 L2.85185185,7.08333333 L3.37037037,7.08333333 L3.37037037,7.58333333 L2.85185185,7.58333333 C2.56548198,7.58333333 2.33333333,7.35947571 2.33333333,7.08333333 L2.33333333,4.58333333 C2.33333333,4.30719096 2.56548198,4.08333333 2.85185185,4.08333333 L6.48148148,4.08333333 Z" id="工作空间" fill="#FFFFFF" fill-rule="nonzero"></path>
    </g>
</svg>