<?xml version="1.0" encoding="UTF-8"?>
<svg width="34px" height="34px" viewBox="0 0 34 34" version="1.1" xmlns="http://www.w3.org/2000/svg" xmlns:xlink="http://www.w3.org/1999/xlink">
    <title>切片备份 16</title>
    <g id="UI" stroke="none" stroke-width="1" fill="none" fill-rule="evenodd">
        <path d="M25.4433935,20 C25.1366414,20 24.886787,19.7468672 24.886787,19.4360902 L24.886787,8.12781956 L10.113213,8.12781956 L10.113213,19.4360902 C10.113213,19.7468671 9.86335857,20 9.55660654,20 C9.2498545,20 9,19.7468672 9,19.4360902 L9,7.56390979 C9,7.25313285 9.24985447,7 9.55660654,7 L25.4433935,7 C25.7501455,7 26,7.25313282 26,7.56390979 L26,19.4360902 C26,19.7468671 25.7501455,20 25.4433935,20 L25.4433935,20 Z M26.4444445,22 L7.55555555,22 C7.24938271,22 7,21.7755556 7,21.5 C7,21.2244444 7.24938271,21 7.55555555,21 L26.4444445,21 C26.7506173,21 27,21.2244444 27,21.5 C27,21.7755556 26.7506173,22 26.4444445,22 Z" id="形状备份-13" fill="#1890FF" fill-rule="nonzero"></path>
        <path d="M12.5,19 C12.2244444,19 12,18.7653346 12,18.4772305 L12,14.5227695 C12,14.2346654 12.2244444,14 12.5,14 C12.7755556,14 13,14.2346654 13,14.5227695 L13,18.4749071 C13,18.7653346 12.7755556,19 12.5,19 L12.5,19 Z M16.5,20 C16.2244444,20 16,19.7378666 16,19.4160395 L16,10.5839605 C16,10.2621334 16.2244444,10 16.5,10 C16.7755556,10 17,10.2621334 17,10.5839605 L17,19.4160395 C17,19.7378666 16.7755556,20 16.5,20 L16.5,20 Z M21.5,19 C21.2244444,19 21,18.7399779 21,18.4207429 L21,12.5792571 C21,12.2600221 21.2244444,12 21.5,12 C21.7755555,12 22,12.2600221 22,12.5792571 L22,18.4207429 C22,18.7399779 21.7755556,19 21.5,19 L21.5,19 Z M12.6369244,26 C12.5351179,26 12.4304835,25.9796952 12.3315049,25.9368295 C12.0232575,25.8014641 11.9101392,25.4946359 12.0769887,25.2487222 L14.805968,21.2644682 C14.9756454,21.0185544 15.3602477,20.9283108 15.6684951,21.0614201 C15.9767425,21.1967855 16.0898608,21.5036136 15.9230113,21.7495274 L13.194032,25.7337814 C13.0809137,25.9052442 12.863161,26 12.6369244,26 L12.6369244,26 Z M21.3695226,26 C21.1482914,26 20.932661,25.8932071 20.8178448,25.7050483 L19.0787996,22.8496104 C18.9107759,22.5724574 19.0199913,22.2241093 19.3252343,22.071548 C19.6304773,21.9189868 20.0141315,22.0181516 20.1821552,22.2953045 L21.9212004,25.1507424 C22.0892241,25.4278954 21.9800087,25.7762435 21.6747656,25.9288047 C21.5767518,25.9771158 21.4731372,26 21.3695226,26 L21.3695226,26 Z M16.5,8 C16.2244444,8 16,7.76993167 16,7.48747153 L16,6.51252847 C16,6.23006833 16.2244444,6 16.5,6 C16.7755556,6 17,6.23006833 17,6.51252847 L17,7.48747153 C17,7.76993167 16.7755556,8 16.5,8 L16.5,8 Z" id="形状备份-12" fill="#1890FF" fill-rule="nonzero"></path>
    </g>
</svg>