<?xml version="1.0" encoding="UTF-8"?>
<svg width="30px" height="30px" viewBox="0 0 30 30" version="1.1" xmlns="http://www.w3.org/2000/svg" xmlns:xlink="http://www.w3.org/1999/xlink">
    <title>字典表</title>
    <g id="组件" stroke="none" stroke-width="1" fill="none" fill-rule="evenodd">
        <g id="字典表" transform="translate(5.000000, 3.000000)" fill="#1890FF" fill-rule="nonzero">
            <path d="M17.9025093,3.37507799e-14 L2.3552795,3.37507799e-14 C1.0983354,3.37507799e-14 4.54747351e-13,1.06971429 4.54747351e-13,2.29326708 L4.54747351e-13,21.5576646 C4.54747351e-13,22.7812174 1.09952795,23.8509317 2.3552795,23.8509317 L17.9025093,23.8509317 C19.1594534,23.8509317 20.2577888,22.7812174 20.2577888,21.5576646 L20.2577888,2.44591304 C20.415205,1.07090683 19.315677,3.37507799e-14 17.9025093,3.37507799e-14 L17.9025093,3.37507799e-14 Z M1.7613913,2.62002484 C1.7613913,2.17162733 2.06906832,1.87229814 2.5293913,1.87229814 L17.7295901,1.87229814 C18.189913,1.87229814 18.4975901,2.17162733 18.4975901,2.62002484 L18.4975901,17.8667329 C18.4975901,18.3151304 18.189913,18.6144596 17.7295901,18.6144596 L2.5293913,18.6144596 C2.06906832,18.6144596 1.7613913,18.3151304 1.7613913,17.8667329 L1.7613913,2.62002484 Z M17.9025093,22.4747329 L2.3552795,22.4747329 C1.8842236,22.4747329 1.57058385,22.169441 1.57058385,21.7103106 L1.57058385,20.1814658 C1.8842236,20.3341118 2.04163975,20.3341118 2.3552795,20.3341118 L17.9025093,20.3341118 C18.2161491,20.3341118 18.3735652,20.3341118 18.6872083,20.1814658 L18.6872083,21.7103106 C18.6883975,22.169441 18.3735652,22.4747329 17.9025093,22.4747329 L17.9025093,22.4747329 Z" id="形状"></path>
            <path d="M13.8216149,6.62101863 L5.49406211,6.62101863 C4.9741118,6.62101863 4.55314286,6.20004969 4.55314286,5.68009938 C4.55314286,5.16014907 4.9741118,4.73918012 5.49406211,4.73918012 L13.8204224,4.73918012 C14.3403727,4.73918012 14.7613416,5.16014907 14.7613416,5.68009938 C14.7613416,6.20004969 14.3403727,6.62101863 13.8216149,6.62101863 Z M10.6804472,10.2904845 L5.49406211,10.2904845 C4.9741118,10.2904845 4.55314286,9.86951553 4.55314286,9.34956522 C4.55314286,8.82961491 4.9741118,8.40864596 5.49406211,8.40864596 L10.6804472,8.40864596 C11.2003975,8.40864596 11.6213665,8.82961491 11.6213665,9.34956522 C11.6213665,9.86951553 11.2003975,10.2904845 10.6804472,10.2904845 L10.6804472,10.2904845 Z M7.53808696,13.9599503 L5.49406211,13.9599503 C4.9741118,13.9599503 4.55314286,13.5389814 4.55314286,13.0190311 C4.55314286,12.4990807 4.9741118,12.0781118 5.49406211,12.0781118 L7.53808696,12.0781118 C8.05803727,12.0781118 8.47900621,12.4990807 8.47900621,13.0190311 C8.47900621,13.5389814 8.05803727,13.9599503 7.53808696,13.9599503 L7.53808696,13.9599503 Z" id="形状"></path>
        </g>
    </g>
</svg>