<?xml version="1.0" encoding="UTF-8"?>
<svg width="13px" height="14px" viewBox="0 0 13 14" version="1.1" xmlns="http://www.w3.org/2000/svg" xmlns:xlink="http://www.w3.org/1999/xlink">
    <title>质检结果</title>
    <g id="UI" stroke="none" stroke-width="1" fill="none" fill-rule="evenodd">
        <g id="质检结果" fill="#FFFFFF" fill-rule="nonzero">
            <path d="M6.26317493,0.168168883 L12.4411973,1.9063066 L12.4411973,7.98345635 C12.4411973,11.4056861 6.65764208,13.6787559 6.41267921,13.7742304 L6.26316733,13.8318519 L6.11367001,13.7742144 C5.8687103,13.6787523 0.085151889,11.4110842 0.085151889,7.98344036 L0.085151889,1.95672693 L0.331913114,1.84685553 C0.474205607,1.78381456 3.57402215,0.919251408 6.15330352,0.204192229 L6.26317493,0.168168883 Z M6.26316733,1.02914007 C4.39355639,1.54787751 1.76024515,2.27915357 0.913687417,2.52591321 L0.913687417,7.98345445 C0.913687417,10.5771417 5.38239965,12.5728434 6.26316733,12.9438813 C7.14393975,12.5836462 11.6126472,10.5807511 11.6126472,7.98706383 L11.6126472,2.53311772 L6.26316733,1.02914007 Z M5.24911066,3.18872979 L6.96022552,7.87897559 L7.91304464,6.01115351 L10.2257544,6.01115351 L10.2257544,6.83969284 L8.42098561,6.83969284 L6.83415687,9.95213334 L6.83414579,9.95213334 L5.22569243,5.54286506 L4.72136401,6.83970867 L2.30059454,6.83970867 L2.30059454,6.01116934 L4.15579962,6.01116934 L5.24911066,3.18872979 Z" id="形状结合"></path>
        </g>
    </g>
</svg>