<?xml version="1.0" encoding="UTF-8"?>
<svg width="26px" height="24px" viewBox="0 0 26 24" version="1.1" xmlns="http://www.w3.org/2000/svg" xmlns:xlink="http://www.w3.org/1999/xlink">
    <!-- Generator: Sketch 59.1 (86144) - https://sketch.com -->
    <title>开发</title>
    <desc>Created with Sketch.</desc>
    <g id="组件" stroke="none" stroke-width="1" fill="none" fill-rule="evenodd">
        <g id="数据管理菜单" transform="translate(-37.000000, -175.000000)" fill="#666666" fill-rule="nonzero">
            <g id="开发" transform="translate(37.000000, 175.000000)">
                <path d="M24.5666396,18.2853084 L0.909496753,18.2853084 C0.410795455,18.2853084 0.00560064935,17.8801136 0.00560064935,17.3814123 L0.00560064935,0.908685065 C0.00560064935,0.409983766 0.410795455,0.00478896094 0.909496753,0.00478896094 L24.5510552,0.00478896094 C25.0497565,0.00478896094 25.4549513,0.409983766 25.4549513,0.908685065 L25.4549513,17.3658279 C25.4705357,17.8645292 25.0653409,18.2853084 24.5666396,18.2853084 L24.5666396,18.2853084 Z M1.92248377,16.3528409 L23.5224838,16.3528409 L23.5224838,1.92167208 L1.92248377,1.92167208 L1.92248377,16.3528409 Z" id="形状"></path>
                <path d="M14.4991071,23.9892045 C14.0004058,23.9892045 13.595211,23.5840097 13.595211,23.0853084 L13.595211,17.8489448 C13.595211,17.3502435 14.0004058,16.9450487 14.4991071,16.9450487 C14.9978084,16.9450487 15.4030032,17.3502435 15.4030032,17.8489448 L15.4030032,23.0853084 C15.4030032,23.5840097 14.982224,23.9892045 14.4991071,23.9892045 Z M11.0393669,23.9892045 C10.5406656,23.9892045 10.1354708,23.5840097 10.1354708,23.0853084 L10.1354708,17.8489448 C10.1354708,17.3502435 10.5406656,16.9450487 11.0393669,16.9450487 C11.5380682,16.9450487 11.943263,17.3502435 11.943263,17.8489448 L11.943263,23.0853084 C11.943263,23.5840097 11.5224838,23.9892045 11.0393669,23.9892045 Z" id="形状"></path>
                <path d="M19.7043019,23.9892045 L5.81858766,23.9892045 C5.31988636,23.9892045 4.91469156,23.5840097 4.91469156,23.0853084 C4.91469156,22.5866071 5.31988636,22.1814123 5.81858766,22.1814123 L19.7043019,22.1814123 C20.2030032,22.1814123 20.6081981,22.5866071 20.6081981,23.0853084 C20.6081981,23.5840097 20.2030032,23.9892045 19.7043019,23.9892045 Z M7.26793831,13.2515422 C7.03417208,13.2515422 6.80040584,13.1580357 6.62897727,12.9866071 L3.40300325,9.76063312 C3.04456169,9.40219156 3.04456169,8.8411526 3.40300325,8.48271104 L6.64456169,5.2411526 C7.00300325,4.88271104 7.56404221,4.88271104 7.92248377,5.2411526 C8.28092532,5.59959416 8.28092532,6.16063312 7.92248377,6.51907468 L5.31988636,9.12167208 L7.90689935,11.7086851 C8.26534091,12.0671266 8.26534091,12.6281656 7.90689935,12.9866071 C7.73547078,13.1736201 7.50170455,13.2515422 7.26793831,13.2515422 L7.26793831,13.2515422 Z M18.2393669,13.2515422 C18.0056006,13.2515422 17.7718344,13.1580357 17.6004058,12.9866071 C17.2419643,12.6281656 17.2419643,12.0671266 17.6004058,11.7086851 L20.1874188,9.12167208 L17.6004058,6.53465909 C17.2419643,6.17621753 17.2419643,5.61517857 17.6004058,5.25673701 C17.9588474,4.89829545 18.5198864,4.89829545 18.8783279,5.25673701 L22.1198864,8.49829545 C22.2913149,8.66972403 22.3848214,8.90349026 22.3848214,9.13725649 C22.3848214,9.38660714 22.2913149,9.62037338 22.1198864,9.77621753 L18.8939123,13.0021916 C18.6913149,13.1736201 18.4575487,13.2515422 18.2393669,13.2515422 Z M10.5250812,13.9840097 C10.369237,13.9840097 10.2289773,13.9528409 10.0887175,13.8593344 C9.66793831,13.6099838 9.49650974,13.0645292 9.74586039,12.6125812 L14.2965097,4.64894481 C14.5458604,4.22816558 15.0913149,4.05673701 15.543263,4.30608766 C15.9640422,4.55543831 16.1354708,5.10089286 15.8861201,5.55284091 L11.3198864,13.5320617 C11.117289,13.8281656 10.8211851,13.9840097 10.5250812,13.9840097 L10.5250812,13.9840097 Z" id="形状"></path>
            </g>
        </g>
    </g>
</svg>