<?xml version="1.0" encoding="UTF-8"?>
<svg width="30px" height="30px" viewBox="0 0 30 30" version="1.1" xmlns="http://www.w3.org/2000/svg" xmlns:xlink="http://www.w3.org/1999/xlink">
    <title>工作空间</title>
    <g id="组件" stroke="none" stroke-width="1" fill="none" fill-rule="evenodd">
        <g id="工作空间" transform="translate(3.000000, 3.000000)" fill="#1890FF" fill-rule="nonzero">
            <path d="M23.0769231,0 C23.5867244,0 24,0.413275616 24,0.923076923 L24,23.0769231 C24,23.5867244 23.5867244,24 23.0769231,24 L0,24 L0,0 L23.0769231,0 Z M20,1 L1,1 L1,23 L20,23 L20,1 Z M23,1 L21,1 L21,23 L23,23 L23,1 Z M16.1111111,13 C16.6020309,13 17,13.3837559 17,13.8571429 L17,18.1428571 C17,18.6162441 16.6020309,19 16.1111111,19 L9.88888889,19 C9.39796911,19 9,18.6162441 9,18.1428571 L9,13.8571429 C9,13.3837559 9.39796911,13 9.88888889,13 L16.1111111,13 Z M13.1111111,10 C13.6020309,10 14,10.3837559 14,10.8571429 L14,11.7142857 L13.1111111,11.7142857 L13.1111111,10.8571429 L6.88888889,10.8571429 L6.88888889,15.1428571 L7.77777778,15.1428571 L7.77777778,16 L6.88888889,16 C6.39796911,16 6,15.6162441 6,15.1428571 L6,10.8571429 C6,10.3837559 6.39796911,10 6.88888889,10 L13.1111111,10 Z M11.1111111,7 C11.6020309,7 12,7.38375593 12,7.85714286 L12,8.71428571 L11.1111111,8.71428571 L11.1111111,7.85714286 L4.88888889,7.85714286 L4.88888889,12.1428571 L5.77777778,12.1428571 L5.77777778,13 L4.88888889,13 C4.39796911,13 4,12.6162441 4,12.1428571 L4,7.85714286 C4,7.38375593 4.39796911,7 4.88888889,7 L11.1111111,7 Z" id="形状"></path>
        </g>
    </g>
</svg>