<?xml version="1.0" encoding="UTF-8"?>
<svg width="19px" height="17px" viewBox="0 0 19 17" version="1.1" xmlns="http://www.w3.org/2000/svg" xmlns:xlink="http://www.w3.org/1999/xlink">
    <!-- Generator: Sketch 59.1 (86144) - https://sketch.com -->
    <title>折叠备份</title>
    <desc>Created with Sketch.</desc>
    <g id="组件" stroke="none" stroke-width="1" fill="none" fill-rule="evenodd">
        <g id="工作空间左侧栏" transform="translate(-41.000000, -796.000000)" fill="#666666" fill-rule="nonzero">
            <g id="折叠备份" transform="translate(38.000000, 792.000000)">
                <path d="M21.24,19 C21.6597338,19 22,19.4477187 22,20 C22,20.5522812 21.6597338,21 21.24,21 L3.76,21 C3.34026625,21 3,20.5522812 3,20 C3,19.4477187 3.34026625,19 3.76,19 L21.24,19 Z M14.2258065,14 C14.653379,14 15,14.4477188 15,15 C15,15.5522813 14.653379,16 14.2258065,16 L3.77419355,16 C3.34662097,16 3,15.5522813 3,15 C3,14.4477188 3.34662097,14 3.77419355,14 L14.2258065,14 Z M21.6690107,9.04407795 C21.8045731,8.93947362 22,9.03275339 22,9.20098444 L22,14.7990897 C22,14.9673663 21.8022981,15.0604869 21.6690107,14.9559053 L18.0774905,12.1569208 C17.9741698,12.0773306 17.9741698,11.9227663 18.0774905,11.8431988 L21.6690107,9.04407795 Z M14.2258065,9 C14.653379,9 15,9.44771875 15,10 C15,10.5522813 14.653379,11 14.2258065,11 L3.77419355,11 C3.34662097,11 3,10.5522813 3,10 C3,9.44771875 3.34662097,9 3.77419355,9 L14.2258065,9 Z M21.24,4 C21.6597338,4 22,4.44771875 22,5 C22,5.55228125 21.6597338,6 21.24,6 L3.76,6 C3.34026625,6 3,5.55228125 3,5 C3,4.44771875 3.34026625,4 3.76,4 L21.24,4 Z" id="形状"></path>
            </g>
        </g>
    </g>
</svg>