<?xml version="1.0" encoding="UTF-8"?>
<svg width="12px" height="12px" viewBox="0 0 12 12" version="1.1" xmlns="http://www.w3.org/2000/svg" xmlns:xlink="http://www.w3.org/1999/xlink">
    <!-- Generator: Sketch 59.1 (86144) - https://sketch.com -->
    <title>table备份 7</title>
    <desc>Created with Sketch.</desc>
    <g id="UI" stroke="none" stroke-width="1" fill="none" fill-rule="evenodd">
        <g id="table备份-7" fill="#1890FF" fill-rule="nonzero">
            <path d="M10,12 L2,12 C0.9,12 0,11.1 0,9.99999999 L0,2.49999999 C0,2.2 0.200000004,1.99999999 0.5,1.99999999 L11.5,1.99999999 C11.8,1.99999999 12,2.2 12,2.49999999 L12,9.99999999 C12,11.1 11.1,12 10,12 Z M0.999999996,3 L0.999999996,10 C0.999999996,10.55 1.45,11 2,11 L10,11 C10.55,11 11,10.55 11,10 L11,3 L0.999999996,3 Z" id="形状"></path>
            <path d="M11.5,2.5 L0.500000004,2.5 L0.500000004,2 C0.500000004,1.15000001 1.15000001,0.500000004 2,0.500000004 L10,0.500000004 C10.85,0.500000004 11.5,1.15000001 11.5,2 L11.5,2.5 Z" id="路径"></path>
            <path d="M11.5,3 L0.5,3 C0.200000004,3 0,2.8 0,2.5 L0,2 C0,0.9 0.9,0 2,0 L10,0 C11.1,0 12,0.9 12,2 L12,2.5 C12,2.8 11.8,3 11.5,3 Z M0.999999996,2 L11,2 C11,1.45000001 10.55,0.999999996 10,0.999999996 L2,0.999999996 C1.45,0.999999996 0.999999996,1.45 0.999999996,2 Z" id="形状"></path>
            <path d="M3.5,12 C3.2,12 3,11.8 3,11.5 L3,2.49999999 C3,2.2 3.2,1.99999999 3.5,1.99999999 C3.8,1.99999999 4,2.2 4,2.49999999 L4,11.5 C4,11.8 3.8,12 3.5,12 Z" id="路径"></path>
            <path d="M11.5,5.99999999 L0.5,5.99999999 C0.200000004,5.99999999 0,5.8 0,5.49999999 C0,5.2 0.200000004,4.99999999 0.5,4.99999999 L11.5,4.99999999 C11.8,4.99999999 12,5.2 12,5.49999999 C12,5.8 11.8,5.99999999 11.5,5.99999999 Z" id="路径"></path>
            <path d="M11.5,8.99999999 L0.5,8.99999999 C0.200000004,8.99999999 0,8.8 0,8.49999999 C0,8.2 0.200000004,7.99999999 0.5,7.99999999 L11.5,7.99999999 C11.8,7.99999999 12,8.2 12,8.49999999 C12,8.8 11.8,8.99999999 11.5,8.99999999 Z" id="路径"></path>
        </g>
    </g>
</svg>