<?xml version="1.0" encoding="UTF-8"?>
<svg width="11px" height="12px" viewBox="0 0 11 12" version="1.1" xmlns="http://www.w3.org/2000/svg" xmlns:xlink="http://www.w3.org/1999/xlink">
    <!-- Generator: Sketch 59.1 (86144) - https://sketch.com -->
    <title>txt(1)</title>
    <desc>Created with Sketch.</desc>
    <g id="UI" stroke="none" stroke-width="1" fill="none" fill-rule="evenodd">
        <g id="新建同步任务2-2" transform="translate(-168.000000, -615.000000)" fill="#2696FF" fill-rule="nonzero">
            <g id="txt(1)" transform="translate(168.000000, 615.000000)">
                <path d="M10.0000628,4.72245603 L9.83121859,4.72245603 L9.83121859,3.20888819 C9.83121859,3.11240578 9.79503769,3.01592337 9.72267588,2.94959171 L6.76187186,0.103360553 C6.68951005,0.0370288945 6.60508794,0.00084798995 6.50860553,0.00084798995 L1.02116834,0.00084798995 C0.460364322,0.00084798995 0.00810301508,0.453109296 0.00810301508,1.01391332 L0.00810301508,10.9757224 C0.00810301508,11.5365264 0.460364322,11.9887877 1.02116834,11.9887877 L8.82418342,11.9887877 C9.08951005,11.9887877 9.35483668,11.880245 9.54177136,11.6872802 C9.73473618,11.4943153 9.83724874,11.241049 9.83121859,10.9757224 L9.83121859,10.2641646 L10.006093,10.2641646 C10.2714196,10.2641646 10.5186558,10.161652 10.7055905,9.96868719 C10.8925251,9.78175251 10.9950377,9.53451633 10.9890075,9.27521985 L10.9890075,5.71140075 C10.9890075,5.16868719 10.5427764,4.72245603 10.0000628,4.72245603 Z M6.55081658,0.905370603 L8.73976131,3.00386307 L6.55081658,2.94959171 L6.55081658,0.905370603 Z M9.1076005,10.9757224 C9.11363065,11.0541143 9.0834799,11.1264761 9.02920854,11.1807475 C8.97493719,11.2350188 8.90257538,11.2651696 8.82418342,11.2651696 L1.02116834,11.2651696 C0.864384422,11.2651696 0.731721106,11.1325063 0.731721106,10.9757224 L0.731721106,1.01391332 C0.731721106,0.857129397 0.864384422,0.72446608 1.02116834,0.72446608 L5.82719849,0.72446608 L5.82719849,3.3053706 C5.82719849,3.50436558 5.97795226,3.6611495 6.17694724,3.66717965 L9.1076005,3.73954146 L9.1076005,4.72245603 L2.89654523,4.72245603 C2.35383166,4.72245603 1.9076005,5.16868719 1.9076005,5.71140075 L1.9076005,9.27521985 C1.9076005,9.81793342 2.35383166,10.2641646 2.89654523,10.2641646 L9.1076005,10.2641646 L9.1076005,10.9757224 Z M10.2653894,9.27521985 C10.2653894,9.34758166 10.2412688,9.41391332 10.1930276,9.46215452 C10.1447864,9.51039573 10.0784548,9.54054648 10.006093,9.54054648 L2.89654523,9.54054648 C2.75182161,9.54054648 2.63121859,9.41994347 2.63121859,9.27521985 L2.63121859,5.71140075 C2.63121859,5.56667714 2.75182161,5.44607412 2.89654523,5.44607412 L10.0000628,5.44607412 C10.1447864,5.44607412 10.2653894,5.56667714 10.2653894,5.71140075 L10.2653894,9.27521985 Z" id="形状"></path>
                <path d="M3.84976131,6.36905944 L3.84976131,6.66905944 L4.55176131,6.66905944 L4.55176131,8.51105944 L4.90276131,8.51105944 L4.90276131,6.66905944 L5.60476131,6.66905944 L5.60476131,6.36905944 L3.84976131,6.36905944 Z M5.71276131,6.36905944 L6.42976131,7.40405944 L5.66476131,8.51105944 L6.09376131,8.51105944 L6.64576131,7.68305944 L7.19776131,8.51105944 L7.62676131,8.51105944 L6.85576131,7.40405944 L7.57876131,6.36905944 L7.14976131,6.36905944 L6.64576131,7.12505944 L6.14176131,6.36905944 L5.71276131,6.36905944 Z M7.68676131,6.36905944 L9.44176131,6.36905944 L9.44176131,6.66905944 L8.73976131,6.66905944 L8.73976131,8.51105944 L8.38876131,8.51105944 L8.38876131,6.66905944 L7.68676131,6.66905944 L7.68676131,6.36905944 Z" id="TXT"></path>
            </g>
        </g>
    </g>
</svg>