<?xml version="1.0" encoding="UTF-8"?>
<svg width="1440px" height="900px" viewBox="0 0 1440 900" version="1.1" xmlns="http://www.w3.org/2000/svg" xmlns:xlink="http://www.w3.org/1999/xlink">
    <!-- Generator: Sketch 59.1 (86144) - https://sketch.com -->
    <title>编组 5</title>
    <desc>Created with Sketch.</desc>
    <g id="UI" stroke="none" stroke-width="1" fill="none" fill-rule="evenodd">
        <g id="登录页">
            <g id="编组-5">
                <rect id="矩形" fill="#F3F9FF" x="0" y="0" width="1442" height="900"></rect>
                <path d="M790,8 C790,3.58173 792.853309,0 796.372549,0 L1433.62745,0 C1437.14828,0 1440,3.58172 1440,8 L1440,892 C1440,896.418 1437.14828,900 1433.62745,900 L796.372549,900 C792.853309,900 790,896.418 790,892 L790,8 Z" id="路径备份-5" fill="#FFFFFF" fill-rule="nonzero"></path>
                <path d="M1364.99945,682 C1382.67283,682 1397,667.673073 1397,650 C1397,632.326927 1382.67283,618 1364.99945,618 C1347.32717,618 1333,632.326927 1333,650 C1333,667.673073 1347.32717,682 1364.99945,682 Z" id="路径" stroke="#D7DDF2" stroke-width="1.2294386" opacity="0.3"></path>
                <path d="M1373.2566,690.384824 C1373.36006,690.281798 1373.46462,690.076829 1373.67264,689.973803 C1374.19324,689.461924 1374.60928,688.845935 1375.02642,688.23103 C1375.02642,688.128004 1375.12987,688.128004 1375.12987,688.026062 C1375.54591,687.513099 1375.85849,686.897109 1376.27453,686.384146 C1376.37909,686.179178 1376.48365,686.077236 1376.58711,685.871183 C1376.89969,685.359305 1377.31572,684.743315 1377.6283,684.12841 C1377.6283,684.025384 1377.73176,684.025384 1377.73176,683.923442 C1378.04434,683.307452 1378.46038,682.589521 1378.77296,681.974616 C1378.87752,681.769648 1378.98097,681.666621 1378.98097,681.461653 C1379.18899,680.94869 1379.50157,680.333785 1379.70959,679.820822 C1379.81415,679.717796 1379.81415,679.512827 1379.91761,679.409801 C1380.12673,678.69187 1380.43821,678.076965 1380.64623,677.359033 C1380.64623,677.154065 1380.75079,677.051039 1380.75079,676.84607 C1380.95881,676.231165 1381.06336,675.718202 1381.16682,675.102213 C1381.16682,674.897245 1381.27138,674.692276 1381.27138,674.590334 C1381.4794,673.872403 1381.58396,673.154472 1381.68742,672.333514 C1381.68742,672.230488 1381.68742,672.128546 1381.68742,671.923577 C1381.79198,671.307588 1381.89544,670.589657 1381.89544,669.974752 C1381.89544,669.769783 1381.89544,669.564815 1381.89544,669.358762 C1381.89544,668.538889 1382,667.820958 1382,667 L1364.20063,667 C1364.20063,674.077371 1360.03695,680.127732 1354,682.999458 L1361.80676,699 C1362.43082,698.692005 1363.15943,698.384011 1363.78459,697.974074 C1363.99261,697.871048 1364.09717,697.769106 1364.30519,697.666079 C1364.82579,697.359169 1365.34528,697.051174 1365.86588,696.641238 C1365.97044,696.538211 1366.0739,696.538211 1366.17846,696.435185 C1366.80252,696.025248 1367.42767,695.615312 1367.94827,695.205375 C1368.05173,695.102349 1368.25975,694.999322 1368.36431,694.89738 C1368.88491,694.487444 1369.30094,694.179449 1369.71698,693.769512 C1369.82154,693.666486 1370.02956,693.56346 1370.13412,693.461518 C1370.65472,692.948555 1371.17421,692.538618 1371.69481,692.025655 C1371.79937,691.922629 1371.90283,691.820687 1372.00739,691.71766 C1372.42343,691.204697 1372.84057,690.794761 1373.2566,690.384824 Z" id="路径" fill="#85B3FF" fill-rule="nonzero" opacity="0.2"></path>
                <g id="编组-2备份" transform="translate(143.000000, 372.000000)">
                    <path d="M31.9994489,64 C49.6728262,64 64,49.6730729 64,32 C64,14.3269271 49.6728262,0 31.9994489,0 C14.3271738,0 0,14.3269271 0,32 C0,49.6730729 14.3271738,64 31.9994489,64 Z" id="路径" stroke="#D7DDF2" stroke-width="1.2294386"></path>
                    <path d="M40.2566038,72.3848239 C40.3600629,72.2817975 40.4646226,72.0768292 40.6726415,71.9738028 C41.193239,71.4619243 41.6092767,70.8459349 42.0264151,70.2310299 C42.0264151,70.1280035 42.1298742,70.1280035 42.1298742,70.0260616 C42.5459119,69.5130986 42.8584906,68.8971092 43.2745283,68.3841461 C43.3790881,68.1791778 43.4836478,68.0772359 43.5871069,67.8711831 C43.8996855,67.3593046 44.3157233,66.7433151 44.6283019,66.1284102 C44.6283019,66.0253838 44.731761,66.0253838 44.731761,65.9234419 C45.0443396,65.3074525 45.4603774,64.5895211 45.772956,63.9746162 C45.8775157,63.7696479 45.9809748,63.6666215 45.9809748,63.4616532 C46.1889937,62.9486901 46.5015723,62.3337852 46.7095912,61.8208222 C46.8141509,61.7177958 46.8141509,61.5128275 46.9176101,61.4098011 C47.1267296,60.6918697 47.4382075,60.0769648 47.6462264,59.3590334 C47.6462264,59.1540651 47.7507862,59.0510387 47.7507862,58.8460704 C47.958805,58.2311655 48.0633648,57.7182025 48.1668239,57.102213 C48.1668239,56.8972447 48.2713836,56.6922764 48.2713836,56.5903345 C48.4794025,55.8724032 48.5839623,55.1544718 48.6874214,54.3335141 C48.6874214,54.2304877 48.6874214,54.1285458 48.6874214,53.9235775 C48.7919811,53.307588 48.8954403,52.5896567 48.8954403,51.9747518 C48.8954403,51.7697834 48.8954403,51.5648151 48.8954403,51.3587623 C48.8954403,50.5388891 49,49.8209577 49,49 L31.2006289,49 C31.2006289,56.0773715 27.0369497,62.1277324 21,64.9994578 L28.806761,81 C29.4308176,80.6920053 30.159434,80.3840106 30.7845912,79.9740739 C30.9926101,79.8710475 31.0971698,79.7691056 31.3051887,79.6660792 C31.8257862,79.359169 32.345283,79.0511743 32.8658805,78.6412377 C32.9704403,78.5382113 33.0738994,78.5382113 33.1784591,78.4351849 C33.8025157,78.0252482 34.427673,77.6153116 34.9482704,77.205375 C35.0517296,77.1023486 35.2597484,76.9993222 35.3643082,76.8973803 C35.8849057,76.4874437 36.3009434,76.1794489 36.7169811,75.7695123 C36.8215409,75.6664859 37.0295597,75.5634595 37.1341195,75.4615176 C37.654717,74.9485546 38.1742138,74.538618 38.6948113,74.0256549 C38.7993711,73.9226285 38.9028302,73.8206866 39.0073899,73.7176602 C39.4234277,73.2046972 39.840566,72.7947606 40.2566038,72.3848239 Z" id="路径" fill="#D6E4FF" fill-rule="nonzero"></path>
                </g>
                <path d="M325.288943,474.989669 C261.626357,526.066012 181.062218,625.002345 253.74569,688.017614 C326.429162,751.032883 425.449498,710.233501 441.624161,693.623728 C457.798824,677.012857 525.505898,604.446227 542.406354,585.86383 C559.30681,567.280336 593.523244,462.738986 552.878826,428.479888 C512.234408,394.221887 449.503731,375.430922 325.288943,474.989669 Z" id="路径" fill="#ECF2FF" fill-rule="nonzero"></path>
                <path d="M319.202396,713 C311.725415,712.688987 304.457043,712.064762 297.707998,711.02622 L298.434835,705.932417 C305.080674,706.972059 312.141535,707.596283 319.409906,707.907296 L319.202396,713 Z M340.8,712.896695 L340.592489,707.699588 C342.046163,707.596283 343.603044,707.596283 345.056719,707.491879 C351.495047,707.076462 356.790418,706.556642 361.566463,705.724709 L362.397604,710.817413 C357.412951,711.649346 352.014373,712.272471 345.368534,712.688987 C343.810555,712.792292 342.253674,712.896695 340.8,712.896695 Z M276.525415,706.452238 L276.317904,706.348933 C269.465652,704.374054 262.612302,701.671646 256.070767,698.346113 L258.354485,693.668826 C264.585303,696.786651 271.126837,699.384655 277.771578,701.25623 L276.525415,706.452238 Z M383.371578,704.374054 L381.08786,699.696768 L381.607187,699.489059 C386.798253,696.891055 391.886114,693.253409 398.012626,687.848593 L401.439301,691.693947 C395.000973,697.410876 389.602396,701.25623 383.995209,704.061942 L383.371578,704.374054 Z M237.483718,687.016661 C231.565814,682.548181 226.061834,677.558782 221.390094,672.25837 L225.23179,668.828433 C229.69602,673.921137 234.888185,678.598424 240.598578,682.859194 L237.483718,687.016661 Z M417.014697,677.247769 L413.588022,673.401316 C418.260861,669.244949 423.451928,664.775371 429.890256,659.474958 L433.212626,663.423617 C426.775396,668.725128 421.686438,673.090303 417.014697,677.247769 Z M208.825253,654.277851 C205.295371,647.625685 202.803044,640.662506 201.246163,633.594924 L206.334024,632.555282 C207.683394,639.104143 210.071416,645.651905 213.394885,651.887555 L208.825253,654.277851 Z M449.618066,649.808272 L446.295696,645.75521 C451.176045,641.702148 456.990742,636.921556 462.597929,632.036561 L466.024604,635.985219 C460.313113,640.870215 454.498415,645.75521 449.618066,649.808272 Z M481.910717,621.539041 L478.276532,617.796992 C480.457043,615.614405 482.637555,613.536221 484.71486,611.353634 C487.517904,608.443517 490.322046,605.428997 492.91758,602.518881 L496.759276,605.948818 C494.059439,608.963338 491.256394,611.976759 488.349046,614.991279 C486.376045,617.173866 484.091229,619.356454 481.910717,621.539041 Z M205.191067,611.976759 L200,611.561342 C200.622533,604.701468 202.076207,597.426177 204.46423,590.150886 L209.448883,591.710348 C207.164067,598.673527 205.814697,605.533401 205.191067,611.976759 Z M510.569183,589.423357 L506.415671,586.305532 C510.776694,580.588604 514.826999,574.768371 518.564392,568.948138 L522.925415,571.75495 C519.188022,577.575183 515.03451,583.603124 510.569183,589.423357 Z M217.444092,572.378075 L212.771254,570.092183 C215.678603,564.167546 219.209582,558.139605 223.363094,551.384135 L223.466301,551.279731 L227.827324,554.085444 L227.724117,554.189847 C223.673812,560.634305 220.351441,566.662246 217.444092,572.378075 Z M533.620462,552.942498 L528.948721,550.552202 C532.166787,544.212148 534.97093,537.664386 537.358952,531.221028 L542.239301,532.9871 C539.851279,539.743669 536.94393,546.394736 533.620462,552.942498 Z M239.561023,536.313732 L235.303206,533.299212 C239.456719,527.478979 243.817742,521.76315 248.283069,516.150625 L252.332277,519.371755 C247.971254,524.880975 243.714535,530.596804 239.561023,536.313732 Z M547.949694,513.655926 L544.315508,510.01828 L546.185303,511.888756 L543.588671,511.888756 L543.588671,511.576643 L543.692976,511.26563 C545.249857,504.51016 546.392813,497.545882 546.807835,490.582703 L552,490.894815 C551.480674,498.065702 550.442021,505.237689 548.780836,512.096464 L548.780836,512.823993 L547.949694,513.655926 Z M266.142183,503.26281 L262.300487,499.728469 C267.076532,494.428057 272.061185,489.230949 277.149046,484.138246 L280.783231,487.880295 C275.798578,492.868595 270.815022,498.065702 266.142183,503.26281 Z M296.254323,473.537421 L292.827648,469.587664 C298.227324,464.911476 303.730206,460.234189 309.337392,455.869014 L312.556556,459.922077 C307.053674,464.287251 301.549694,468.860135 296.254323,473.537421 Z M546.392813,469.587664 C545.665976,462.520081 544.419813,455.556902 542.446812,449.113544 L547.430368,447.658486 C549.403369,454.413956 550.753837,461.689247 551.480674,469.067843 L546.392813,469.587664 Z M329.688833,447.346374 L326.678278,443.084504 C332.492976,439.031441 338.619488,435.081683 344.641697,431.340733 L347.341535,435.809213 C341.422533,439.446858 335.400324,443.292212 329.688833,447.346374 Z M534.55481,429.98898 C531.024928,423.856635 526.871416,418.348514 522.095371,413.567922 L525.729557,409.825873 C530.817417,414.815272 535.281647,420.73881 539.020137,427.390975 L534.55481,429.98898 Z M365.719975,425.208388 L363.227648,420.635505 C369.561672,417.205568 376,413.983339 382.43723,411.073223 L384.617742,415.75051 C378.388022,418.660626 371.949694,421.882855 365.719975,425.208388 Z M404.242346,407.332273 L402.373649,402.447277 C404.242346,401.719748 406.007835,400.992219 407.876532,400.367995 C412.861185,398.49752 417.844741,396.834753 422.72509,395.379695 L424.178765,400.367995 C419.505926,401.823053 414.626675,403.48582 409.642021,405.25299 C407.876532,405.980519 406.007835,406.708048 404.242346,407.332273 Z M505.481323,401.615345 C499.563419,398.600824 493.021884,396.314932 486.06423,394.963179 L487.102882,389.870475 C494.578765,391.325533 501.536419,393.716928 507.869345,397.042461 L505.481323,401.615345 Z M444.63451,395.379695 L443.700162,390.286991 C451.176045,388.935238 458.444417,388.207708 465.297767,388 L465.400973,393.197107 C458.859439,393.404816 451.798578,394.132345 444.63451,395.379695 Z" id="形状" fill="#D8E1F5" fill-rule="nonzero"></path>
                <path d="M413,733 C455.525496,733 490,698.525741 490,655.999452 C490,613.474259 455.525496,579 413,579 C370.473409,579 336,613.474259 336,655.999452 C336,698.525741 370.473409,733 413,733 Z" id="路径" fill="#D8E1F5" fill-rule="nonzero"></path>
                <path d="M404,597.857868 C404,597.857868 428.862197,594.324251 438.577099,601.600315 C447.770633,608.564234 441.189463,616.984465 441.189463,616.984465 C441.189463,616.984465 464.902882,619.582745 454.246866,639.540264 C443.591954,659.497783 433.354579,671.450532 433.354579,671.450532 C433.354579,671.450532 439.30834,683.40438 430.012079,689.017501 C420.714713,694.630622 421.341018,674.360958 421.341018,674.360958 L404,597.857868 Z" id="路径" fill="#2F54EB" fill-rule="nonzero"></path>
                <path d="M361.007311,621 C361.007311,621 360.698922,632.642015 364.087941,638.927134 C367.579032,645.212253 372.610981,655 372.610981,655 L376,623.060177 L361.007311,621 Z" id="路径" fill="#2F54EB" fill-rule="nonzero"></path>
                <path d="M426,675 L387,689.586612 L387.925955,711 C392.556817,710.897177 417.870965,708.414117 425.897721,707.792805 L426,675 Z" id="路径" fill="#FF826E" fill-rule="nonzero"></path>
                <path d="M421.792662,676.358411 C421.89688,676.045612 422,675.313905 422,675 L386,689.73915 L386.518893,703.536585 C389.008045,704.582197 391.602511,705 394.299,705 C406.541809,704.896102 416.501706,697.682927 421.792662,676.358411 Z" id="路径" fill="#E45341" fill-rule="nonzero"></path>
                <path d="M371.455052,624 C371.455052,624 369.061666,645.689273 370.414067,663.849623 C371.767568,682.009972 377.595324,693.320962 389.771331,693.94423 C401.947337,694.5664 421.928532,690.207916 426.819843,669.453544 C431.19066,651.084707 434,637.490232 434,637.490232 L424.321918,624.519024 L371.455052,624 Z" id="路径" fill="#FF826E" fill-rule="nonzero"></path>
                <path d="M421,673.884286 C421,673.884286 421.315719,679.879544 430.042448,677.398371 C438.768066,674.814453 446.127423,651.453166 436.350151,649.385157 C426.572878,647.318241 427.834641,654.243667 427.834641,654.243667 L421,673.884286 Z" id="路径" fill="#FF826E" fill-rule="nonzero"></path>
                <path d="M410.988371,651.101269 C411.10651,648.892809 410.311121,647.057384 409.212783,647.001314 C408.114444,646.945245 407.129566,648.690271 407.011427,650.898731 C406.894458,653.107191 407.688677,654.942616 408.787016,654.998686 C409.885354,655.054755 410.870232,653.309729 410.988371,651.101269 Z" id="路径" fill="#000000" fill-rule="nonzero"></path>
                <path d="M380.988573,650.101855 C381.105542,647.893079 380.311323,646.057392 379.212984,646.001314 C378.114646,645.945237 377.128598,647.690513 377.011629,649.899289 C376.89349,652.10692 377.688879,653.943751 378.787217,653.998685 C379.884386,654.054762 380.870434,652.310631 380.988573,650.101855 Z" id="路径" fill="#000000" fill-rule="nonzero"></path>
                <path d="M405,641.220095 C405,641.220095 409.987897,637.10087 414,644" id="路径" stroke="#401616" stroke-width="1.330628"></path>
                <path d="M383,639.37086 C383,639.37086 378.604574,635.387987 374,641" id="路径" stroke="#401616" stroke-width="1.330628"></path>
                <path d="M385,675.923986 C385,675.923986 393.675933,681.160632 407,675" id="路径" stroke="#401616" stroke-width="1.330628"></path>
                <path d="M412.00238,622.804724 C412.00238,622.804724 411.584042,632.468003 421.841059,639.116726 C421.841059,639.116726 428.958331,651.689096 426.131786,660 C426.131786,660 433.458226,656.052733 436.075603,642.75309 C438.691873,629.454545 434.923514,620 434.923514,620 L412.00238,622.804724 Z" id="路径" fill="#2F54EB" fill-rule="nonzero"></path>
                <path d="M417.306939,643.822889 L401.41964,643 C400.368348,643 399.526202,643.720572 399.526202,644.646867 L399,654.323433 C399,655.353133 399.73646,656.176022 400.683179,656.176022 L416.570478,657 C417.62177,657 418.463916,656.279428 418.463916,655.353133 L418.990118,645.778884 C419.094691,644.750272 418.35823,643.926295 417.306939,643.822889 Z" id="路径" fill="#CCDDFF" fill-rule="nonzero" opacity="0.4"></path>
                <path d="M384.306756,641.830109 L368.420728,641 C367.368334,641 366.526197,641.725934 366.526197,642.659121 L366,652.304613 C366,653.340879 366.736453,654.170988 367.684275,654.170988 L383.570303,655 C384.622697,655 385.463722,654.274066 385.463722,653.340879 L385.989919,643.696483 C386.095603,642.763296 385.35915,641.933187 384.306756,641.830109 Z" id="路径" fill="#CCDDFF" fill-rule="nonzero" opacity="0.4"></path>
                <path d="M367.420146,644 L367.007194,653.115918 C366.90341,654.388089 367.936881,655.5549 369.176828,655.5549 L383.228101,656.296906 C384.468048,656.402266 385.60421,655.341937 385.60421,654.070887 L385.810686,648.876842 C385.810686,648.876842 392.113111,643.046152 398.518228,649.512367 L398.209061,654.706412 C398.105277,655.978583 399.138748,657.144273 400.378694,657.144273 L416.289341,657.99276 C417.529288,658.098121 418.665451,657.038912 418.665451,655.766741 L418.97571,650.254374 L434.059362,648.66388 C439.12184,648.346678 442.014685,650.784538 440.672047,655.341937" id="路径" stroke="#0D3178" stroke-width="2.661243"></path>
                <path d="M391.786832,646 L392,655.920148 C392,655.920148 388.266733,653.071313 384.640615,657.186668 C381.013368,661.302023 383.573645,670.48346 390.613841,668.795138" id="路径" stroke="#401616" stroke-width="1.330628"></path>
                <path d="M387.780182,711.276682 L367,718.463701 C379.948417,728.187578 395.924424,734 413.258541,734 C414.19928,734 415.242706,734 416.182341,733.894949 C434.143618,725.861939 452,711.276682 452,711.276682 L426.206957,708 L387.780182,711.276682 Z" id="路径" fill="#FF826E" fill-rule="nonzero"></path>
                <path d="M412.549479,734 C432.778819,734 451.235184,726.168422 465,713.428996 L436.428414,708 L397.9511,712.280703 L377.825404,714.787073 L365,717.710803 C378.138541,727.943859 394.614642,734 412.549479,734 Z" id="路径" fill="#ADC6FF" fill-rule="nonzero"></path>
                <polygon id="路径" fill="#061178" fill-rule="nonzero" points="398 711.795731 409.430381 731 436 707.493718 425.289395 697"></polygon>
                <polygon id="路径" fill="#061178" fill-rule="nonzero" points="398 711.436317 386.290598 728 378 713.90466 386.808898 703"></polygon>
                <path d="M414.272736,624.033639 C414.272736,624.033639 405.163104,632.479685 393.050863,635.569489 C384.768783,637.630084 391.083787,631.964536 392.843975,625.579085 C392.843975,625.579085 385.70142,632.685526 371.622103,632.788992 C351.745549,633.09721 348.640043,593.031042 352.366212,590.662228 C355.989486,588.189949 368.619493,592.104209 373.485188,595.29639 C373.485188,595.29639 366.13465,587.365493 374.002955,585.202521 C381.14551,583.245391 414.790502,595.915004 418,604.155208 L414.272736,624.033639 Z" id="路径" fill="#2F54EB" fill-rule="nonzero"></path>
                <path d="M541.999451,614 C572.375722,614 597,589.375722 597,559.000549 C597,528.624278 572.375722,504 541.999451,504 C511.624278,504 487,528.624278 487,559.000549 C487,589.375722 511.624278,614 541.999451,614 Z" id="路径" fill="#D8E1F5" fill-rule="nonzero"></path>
                <path d="M530,588.593369 C525.707618,589.418334 521.313654,590.24221 517.021272,589.933801 C512.626227,589.624303 508.232263,588.077902 505.268012,584.883751 C501.179874,580.348078 500.872967,572.825312 504.654197,567.981231 C506.801469,565.301457 510.071546,563.446648 513.545869,563.13715 C510.786943,559.529971 508.436507,555.613294 507.31154,551.28468 C506.187654,546.956065 506.596143,542.009545 509.049242,538.298837 C511.50234,534.485689 516.203212,532.217853 520.598257,533.248786 L530,588.593369 Z" id="路径" fill="#78284B" fill-rule="nonzero"></path>
                <path d="M575.273992,554.070626 C579.117134,552.820326 583.584141,553.341376 587.012105,555.529125 C590.440069,557.716874 593.036578,561.259574 593.763689,565.322222 C594.802732,570.94802 592.309468,576.885567 588.361982,581.052865 C584.415595,585.220164 579.221477,587.928963 573.924114,590.221363 C568.10723,592.720861 561.770823,594.70041 555.537662,593.762961 C549.3056,592.930162 543.176783,588.450013 542.138838,582.199616 C541.619316,578.656917 542.658359,575.115319 543.593059,571.67727 C545.358114,565.322222 547.021023,558.967174 548.578489,552.508577 C549.720778,548.028428 550.864165,543.34008 552.733564,539.069232 C554.083441,535.944033 556.161528,532.714184 559.589492,531.463884 C563.536977,530.110035 568.729997,531.880284 571.535194,534.693734 C575.897857,539.069232 576.105446,545.736028 575.68917,551.570026 C575.378335,551.987527 575.378335,553.967077 575.273992,554.070626 Z" id="路径" fill="#78284B" fill-rule="nonzero"></path>
                <path d="M528.213667,552.587147 C520.279451,553.111327 513.077063,549.233729 507.439884,544.098323 C503.159293,540.220726 497.104873,532.779152 497.001114,522.71779 C496.896252,511.503898 504.203501,507.521021 515.164376,508.0452 C526.125251,508.56938 535.416054,514.753145 539.486921,525.023957 C540.73975,520.41273 541.992579,515.905674 543.245408,511.294447 C546.794171,511.398618 550.239175,513.704786 551.700625,517.058204 C553.162075,520.41273 552.43135,524.499778 550.135416,527.224845 C553.475558,525.652307 557.546424,526.491216 560.574187,528.586825 C563.601949,530.683543 565.480641,534.665311 567.150711,538.019837 C568.612161,540.744905 569.760128,543.679423 569.968749,546.823391 C570.178474,549.967359 569.342886,553.216606 567.150711,555.417494 C563.705707,558.876192 557.756149,558.666741 553.684179,555.941674 C551.910349,554.683865 550.65752,552.273526 549.404691,550.491538 C548.777725,549.548459 548.255621,548.605379 547.838379,547.55702 C547.421137,546.613941 547.107654,545.356132 546.376929,544.622503 C545.437583,543.679423 544.811721,544.622503 544.080996,545.356132 C543.245408,546.089761 542.409821,546.927562 541.470475,547.55702 C539.696646,548.919 537.713092,550.072638 535.624675,551.015718 C533.223879,551.853518 530.718221,552.482976 528.213667,552.587147 Z" id="路径" fill="#78284B" fill-rule="nonzero"></path>
                <path d="M530,588.593369 C525.707618,589.418334 521.313654,590.24221 517.021272,589.933801 C512.626227,589.624303 508.232263,588.077902 505.268012,584.883751 C501.179874,580.348078 500.872967,572.825312 504.654197,567.981231 C506.801469,565.301457 510.071546,563.446648 513.545869,563.13715 C510.786943,559.529971 508.436507,555.613294 507.31154,551.28468 C506.187654,546.956065 506.596143,542.009545 509.049242,538.298837 C511.50234,534.485689 516.203212,532.217853 520.598257,533.248786 L530,588.593369 Z" id="路径" fill="#1890FF" fill-rule="nonzero"></path>
                <path d="M575.273992,554.070626 C579.117134,552.820326 583.584141,553.341376 587.012105,555.529125 C590.440069,557.716874 593.036578,561.259574 593.763689,565.322222 C594.802732,570.94802 592.309468,576.885567 588.361982,581.052865 C584.415595,585.220164 579.221477,587.928963 573.924114,590.221363 C568.10723,592.720861 561.770823,594.70041 555.537662,593.762961 C549.3056,592.930162 543.176783,588.450013 542.138838,582.199616 C541.619316,578.656917 542.658359,575.115319 543.593059,571.67727 C545.358114,565.322222 547.021023,558.967174 548.578489,552.508577 C549.720778,548.028428 550.864165,543.34008 552.733564,539.069232 C554.083441,535.944033 556.161528,532.714184 559.589492,531.463884 C563.536977,530.110035 568.729997,531.880284 571.535194,534.693734 C575.897857,539.069232 576.105446,545.736028 575.68917,551.570026 C575.378335,551.987527 575.378335,553.967077 575.273992,554.070626 Z" id="路径" fill="#1890FF" fill-rule="nonzero"></path>
                <path d="M530.818731,597.150045 C530.818731,597.150045 518.876032,603.320478 515,606.56272 L538.466667,612 L570,604.575575 L553.342699,596 L530.818731,597.150045 Z" id="路径" fill="#FF826E" fill-rule="nonzero"></path>
                <path d="M553,577 L530,587.027222 L530.524166,600.94286 C533.254937,600.532813 536.091208,603.193251 538.821979,602.988768 C543.547245,602.579803 548.169234,599.510399 552.894501,599.407617 L553,577 Z" id="路径" fill="#FF826E" fill-rule="nonzero"></path>
                <path d="M553,577 L530,587.027222 L530.524166,600.94286 C533.254937,600.532813 536.091208,603.193251 538.821979,602.988768 C543.547245,602.579803 548.169234,599.510399 552.894501,599.407617 L553,577 Z" id="路径" fill="#FF826E" fill-rule="nonzero"></path>
                <path d="M530,587.341552 L530.315388,597.683103 C531.36483,597.893996 532.415383,598 533.465936,598 C541.972527,598 549.008788,592.934113 552.790112,577.949575 C552.895611,577.738682 552.895611,577.210893 553,577 L530,587.341552 Z" id="路径" fill="#E45341" fill-rule="nonzero"></path>
                <path d="M519.712119,536.49758 C517.042709,539.798477 515.501663,543.820183 515.296407,548.151588 C514.98798,554.030389 514.679554,562.8993 515.706918,570.324408 C517.247965,582.802822 529.161481,588.78413 533.680363,588.991322 C539.535037,589.197423 550.729615,585.794021 554.52956,572.180413 C558.124249,559.701999 561,548.873488 561,548.873488 L560.69266,546.913888 C559.356869,537.941382 552.167491,530.928476 543.129726,529.794372 L538.097161,529.176067 C531.009868,528.248065 524.128916,531.032072 519.712119,536.49758 Z" id="路径" fill="#FF826E" fill-rule="nonzero"></path>
                <path d="M551,573.628679 C551,573.628679 551.41078,577.291898 557.26928,575.512304 C563.127781,573.628679 567.238838,559.184969 560.557691,558.138019 C553.77548,557.196206 555.008905,561.382901 555.008905,561.382901 L551,573.628679 Z" id="路径" fill="#FF826E" fill-rule="nonzero"></path>
                <path d="M529.878789,559 L530.082548,561.252722 C530.184966,563.183303 529.165095,564.899501 527.431531,565.543784 C526.820256,565.758167 526.207902,566.186933 525.596627,567.045599 C523.353127,570.049228 527.941466,574.125907 531,570.692377" id="路径" stroke="#78284B" stroke-width="0.9252763"></path>
                <path d="M528,576.104268 C528,576.104268 537.899894,592.939467 540,574 L528,576.104268 Z" id="路径" fill="#FFFFFF" fill-rule="nonzero"></path>
                <path d="M541.50061,564 C542.328996,564 543,562.880313 543,561.500529 C543,560.119687 542.328996,559 541.50061,559 C540.672224,559 540,560.119687 540,561.500529 C540,562.880313 540.672224,564 541.50061,564 Z" id="路径" fill="#000000" fill-rule="nonzero"></path>
                <path d="M521.49939,564 C522.327776,564 523,562.880313 523,561.499471 C523,560.119687 522.327776,559 521.49939,559 C520.671004,559 520,560.119687 520,561.499471 C520,562.880313 520.671004,564 521.49939,564 Z" id="路径" fill="#000000" fill-rule="nonzero"></path>
                <path d="M518,556 C518,556 519.448314,551.643023 524,553.430471" id="路径" stroke="#78284B" stroke-width="0.9252763"></path>
                <path d="M539,552.674284 C539,552.674284 542.660215,550.10396 545,555" id="路径" stroke="#78284B" stroke-width="0.9144564"></path>
                <path d="M528.213667,552.587147 C520.279451,553.111327 513.077063,549.233729 507.439884,544.098323 C503.159293,540.220726 497.104873,532.779152 497.001114,522.71779 C496.896252,511.503898 504.203501,507.521021 515.164376,508.0452 C526.125251,508.56938 535.416054,514.753145 539.486921,525.023957 C540.73975,520.41273 541.992579,515.905674 543.245408,511.294447 C546.794171,511.398618 550.239175,513.704786 551.700625,517.058204 C553.162075,520.41273 552.43135,524.499778 550.135416,527.224845 C553.475558,525.652307 557.546424,526.491216 560.574187,528.586825 C563.601949,530.683543 565.480641,534.665311 567.150711,538.019837 C568.612161,540.744905 569.760128,543.679423 569.968749,546.823391 C570.178474,549.967359 569.342886,553.216606 567.150711,555.417494 C563.705707,558.876192 557.756149,558.666741 553.684179,555.941674 C551.910349,554.683865 550.65752,552.273526 549.404691,550.491538 C548.777725,549.548459 548.255621,548.605379 547.838379,547.55702 C547.421137,546.613941 547.107654,545.356132 546.376929,544.622503 C545.437583,543.679423 544.811721,544.622503 544.080996,545.356132 C543.245408,546.089761 542.409821,546.927562 541.470475,547.55702 C539.696646,548.919 537.713092,550.072638 535.624675,551.015718 C533.223879,551.853518 530.718221,552.482976 528.213667,552.587147 Z" id="路径" fill="#78284B" fill-rule="nonzero"></path>
                <path d="M542.277592,614 C553.216294,614 563.433678,610.693078 572,604.933033 L557.13825,598 C553.938702,600.773439 547.540696,604.825885 537.943142,604.825885 C528.654412,604.825885 525.454864,602.159594 524.423631,600.239955 C522.358984,601.412942 517.818288,603.760045 514,605.892852 C522.256406,611.013393 531.85396,614 542.277592,614 Z" id="路径" fill="#332A75" fill-rule="nonzero"></path>
                <path d="M528.213667,552.587147 C520.279451,553.111327 513.077063,549.233729 507.439884,544.098323 C503.159293,540.220726 497.104873,532.779152 497.001114,522.71779 C496.896252,511.503898 504.203501,507.521021 515.164376,508.0452 C526.125251,508.56938 535.416054,514.753145 539.486921,525.023957 C540.73975,520.41273 541.992579,515.905674 543.245408,511.294447 C546.794171,511.398618 550.239175,513.704786 551.700625,517.058204 C553.162075,520.41273 552.43135,524.499778 550.135416,527.224845 C553.475558,525.652307 557.546424,526.491216 560.574187,528.586825 C563.601949,530.683543 565.480641,534.665311 567.150711,538.019837 C568.612161,540.744905 569.760128,543.679423 569.968749,546.823391 C570.178474,549.967359 569.342886,553.216606 567.150711,555.417494 C563.705707,558.876192 557.756149,558.666741 553.684179,555.941674 C551.910349,554.683865 550.65752,552.273526 549.404691,550.491538 C548.777725,549.548459 548.255621,548.605379 547.838379,547.55702 C547.421137,546.613941 547.107654,545.356132 546.376929,544.622503 C545.437583,543.679423 544.811721,544.622503 544.080996,545.356132 C543.245408,546.089761 542.409821,546.927562 541.470475,547.55702 C539.696646,548.919 537.713092,550.072638 535.624675,551.015718 C533.223879,551.853518 530.718221,552.482976 528.213667,552.587147 Z" id="路径" fill="#1890FF" fill-rule="nonzero"></path>
                <path d="M240.000548,633 C281.422183,633 315,599.421087 315,557.999452 C315,516.578913 281.422183,483 240.000548,483 C198.578913,483 165,516.578913 165,557.999452 C165,599.421087 198.578913,633 240.000548,633 Z" id="路径" fill="#599AF7" fill-rule="nonzero"></path>
                <path d="M223.842122,511 C216.862132,511 211.340714,517.03022 208.736437,523.164883 C206.131059,529.298447 205.609983,536.265358 203.005707,542.400021 C197.692498,554.668249 184.981778,562.361864 174.97999,571.719974 C172.479267,574.00783 170.187857,576.502373 168,579.102459 C176.854981,610.710267 205.922849,634 240.512136,634 C257.493914,634 273.226432,628.385354 285.832497,618.819457 C288.749639,608.837986 290,598.440941 290,588.043896 C289.79179,567.97651 284.582135,548.222455 276.87286,529.610678 L223.842122,511 Z" id="路径" fill="#EBF9FF" fill-rule="nonzero"></path>
                <path d="M193,616.61866 C205.776007,626.844862 222.082906,633 239.73956,633 C254.17613,633 267.574847,628.931143 279,621.83602 C274.845299,616.201624 264.251526,606.498372 239.94713,607.020219 C213.66917,607.750583 198.608791,613.906825 193,616.61866 Z" id="路径" fill="#1400FF" fill-rule="nonzero"></path>
                <path d="M274,585 C276.760626,585 279,582.761447 279,580.000529 C279,577.238553 276.760626,575 274,575 C271.238317,575 269,577.238553 269,580.000529 C269,582.761447 271.238317,585 274,585 Z" id="路径" fill="#1890FF" fill-rule="nonzero"></path>
                <path d="M226,582 L255,594.696662 L254.367747,612.388137 C250.887569,611.868738 247.40739,615.198613 243.927212,614.990633 C238.021725,614.470134 232.116238,610.51522 226.210751,610.51522 L226,582 Z" id="路径" fill="#FF826E" fill-rule="nonzero"></path>
                <path d="M226,582 L255,594.696662 L254.367747,612.388137 C250.887569,611.868738 247.40739,615.198613 243.927212,614.990633 C238.021725,614.470134 232.116238,610.51522 226.210751,610.51522 L226,582 Z" id="路径" fill="#FF826E" fill-rule="nonzero"></path>
                <path d="M255,594.792708 L254.474485,607.584317 C253.21347,607.896629 251.848019,608 250.481457,608 C239.764501,608 230.93851,601.760352 226.209984,583.144779 C226.105547,582.832466 226,582.207842 226,582 L255,594.792708 Z" id="路径" fill="#E45341" fill-rule="nonzero"></path>
                <path d="M268.058435,530.652434 C271.363351,534.818325 273.325987,540.025964 273.636164,545.337118 C274.049005,552.835281 274.359182,563.978462 273.119566,573.351992 C271.156931,589.181938 256.17996,596.784717 250.499567,596.992847 C243.165624,597.200976 229.015428,592.931571 224.160718,575.747132 C219.71885,559.917186 216,546.27425 216,546.27425 L216.413934,543.774496 C218.169056,532.319671 227.155457,523.467015 238.517335,522.009008 L244.921838,521.175389 C253.804483,520.134742 262.480707,523.77976 268.058435,530.652434 Z" id="路径" fill="#FF826E" fill-rule="nonzero"></path>
                <path d="M228,577.132088 C228,577.132088 227.493948,581.613631 220.309724,579.372321 C213.126569,577.132088 207.965483,559.408398 216.262379,558.185963 C224.559275,556.964605 223.142758,562.159146 223.142758,562.159146 L228,577.132088 Z" id="路径" fill="#FF826E" fill-rule="nonzero"></path>
                <path d="M255.422012,560 L254.765966,568.518074 C254.765966,568.518074 258.267192,566.205072 261.222292,569.885859 C264.176235,573.566646 258.04851,578.614105 254,574.407333" id="路径" stroke="#78284B" stroke-width="1.1598522"></path>
                <path d="M256,583.757165 C256,583.757165 247.352461,585.806221 242,578" id="路径" stroke="#78284B" stroke-width="1.1598522"></path>
                <path d="M240.5,566 C241.327826,566 242,564.433906 242,562.5 C242,560.56725 241.327826,559 240.5,559 C239.671183,559 239,560.56725 239,562.5 C239,564.433906 239.671183,566 240.5,566 Z" id="路径" fill="#000000" fill-rule="nonzero"></path>
                <path d="M265.5,567 C266.327826,567 267,565.433008 267,563.499422 C267,561.566992 266.327826,560 265.5,560 C264.671183,560 264,561.566992 264,563.499422 C264,565.433008 264.671183,567 265.5,567 Z" id="路径" fill="#000000" fill-rule="nonzero"></path>
                <path d="M271,556 C271,556 269.02781,550.201195 263,552.567518" id="路径" stroke="#78284B" stroke-width="1.1598522"></path>
                <path d="M244,551.659049 C244,551.659049 239.199774,549.12319 236,554" id="路径" stroke="#78284B" stroke-width="1.1464518"></path>
                <path d="M215.029672,528.994678 C210.483958,536.761977 208.418122,545.980442 209.141328,554.99191 C209.141328,555.095956 213.376785,554.163924 213.790826,554.059878 C215.33993,553.645885 216.890127,553.0238 218.33654,552.298765 C221.229367,550.848694 223.811936,548.880584 226.085339,546.602527 C227.221495,545.463498 228.254959,544.116378 229.18464,542.873303 C230.010538,541.734275 232.903364,536.970069 232.903364,536.970069 C232.903364,536.970069 235.487026,541.941271 236.519398,542.873303 C237.759336,544.013427 238.999275,545.152456 240.445689,546.084488 C243.54499,548.259594 247.058332,549.916662 250.674365,550.745743 C253.980141,551.573729 257.699957,551.780726 260.799258,550.227704 C263.898559,548.673587 265.861705,544.738463 264.621766,541.630229 C266.791386,544.738463 268.961006,547.845601 271.751141,550.227704 C274.643968,552.609807 278.260001,554.37092 281.978726,554.163924 C288.591369,553.748836 293.550032,546.913569 293.964073,540.284204 C294.377022,533.654839 291.173938,527.233565 287.247647,521.743228 C281.255519,513.250894 272.989988,505.896494 262.968878,503.099302 C252.946676,500.303206 241.066204,502.789355 234.453561,510.867696 C236.623181,507.346565 238.792801,503.514391 238.896584,499.371174 C239.103059,495.227958 236.519398,490.670748 232.387725,490.048664 C229.080857,489.634671 225.878865,491.913823 224.328668,494.916916 C222.778471,497.921103 223.915719,508.69259 223.915719,512.110771 L215.029672,528.994678 Z" id="路径" fill="#EBF9FF" fill-rule="nonzero"></path>
                <path d="M239,535 C228.837617,542.684104 223.133612,555.843814 224.170903,568.581638 C224.378142,570.687726 221.890178,571.845407 220.438409,570.265841 C219.401118,569.10816 218.882473,567.634344 218.363827,566.054778 C215.564457,556.474972 217.119297,545.631737 222.616063,537.315361 L239,535 Z" id="路径" fill="#EBF9FF" fill-rule="nonzero"></path>
                <path d="M218.999471,585 C221.761447,585 224,582.761447 224,580.000529 C224,577.238553 221.761447,575 218.999471,575 C216.238553,575 214,577.238553 214,580.000529 C214,582.761447 216.238553,585 218.999471,585 Z" id="路径" fill="#1890FF" fill-rule="nonzero"></path>
                <path d="M226.531763,602 C226.531763,602 231.080521,608.283458 244,614.669299 C244,614.669299 238.832646,626 226.531763,626 C214.231974,626 204,611.475834 204,611.475834 C204,611.475834 214.438537,606.532063 226.531763,602 Z" id="路径" fill="#5E81FF" fill-rule="nonzero"></path>
                <path d="M244,615.242991 C244,615.242991 249.705949,612.909159 254.89198,604 C254.89198,604 262.569015,607.076262 269,613.970093 C269,613.970093 266.821604,625 259.767594,625 C252.713584,625 245.971086,622.348785 244,615.242991 Z" id="路径" fill="#5E81FF" fill-rule="nonzero"></path>
                <path d="M208.81784,500.560113 C205.002181,501.901234 202.114538,506.232073 203.249748,510.149672 C203.661957,511.593285 204.589972,512.934406 205.724092,514.068361 C209.127542,517.574902 214.180919,519.430664 219.131788,518.914932 C222.637745,518.502783 230.578765,516.027706 228.722734,511.077553 C227.794719,508.706059 225.628986,506.644222 223.771865,504.994534 C221.813327,503.241264 219.647594,501.694069 217.17216,500.86977 C214.490621,499.941889 211.499379,499.632232 208.81784,500.560113 Z" id="路径" fill="#EBF9FF" fill-rule="nonzero"></path>
                <path d="M390.49945,515 C431.092227,515 464,482.093326 464,441.49945 C464,400.906674 431.092227,368 390.49945,368 C349.906674,368 317,400.906674 317,441.49945 C317,482.093326 349.906674,515 390.49945,515 Z" id="路径" fill="#D6E4FF" fill-rule="nonzero"></path>
                <path d="M354.629125,457 C354.629125,457 349.070293,477.47221 371,478 L371,459.426939 L354.629125,457 Z" id="路径" fill="#061178" fill-rule="nonzero"></path>
                <path d="M421.656957,382.348927 C407.067881,377.664032 394.980104,386.513157 393,388.699294 C393,403.689639 408.943304,412.954856 417.280234,423.364879 C417.80143,424.614258 416.759038,425.863637 415.613069,426.592349 C414.988295,433.04729 411.549284,475 419.468596,475 C434.891806,475 431.139857,449.911152 431.139857,449.911152 C431.139857,449.911152 439.268529,439.18851 443.85351,430.235912 C454.065863,410.456099 437.496683,387.449916 421.656957,382.348927 Z" id="路径" fill="#061178" fill-rule="nonzero"></path>
                <path d="M371,512.266957 C377.261889,514.05416 383.837205,515 390.621102,515 C398.762441,515 406.590355,513.632923 414,511.21553 L414,478 L371,478 L371,512.266957 Z" id="路径" fill="#FF826E" fill-rule="nonzero"></path>
                <path d="M363.064324,440.186826 C363.064324,440.186826 357.156042,430.276053 351.95977,435.542004 C346.764575,440.806863 346.459736,450.201302 352.368018,457.221478 C358.2763,464.241654 365,461.453669 365,461.453669 L363.064324,440.186826 Z" id="路径" fill="#FF826E" fill-rule="nonzero"></path>
                <path d="M362.720912,443.744648 C362.720912,443.744648 358.880263,437.773912 355.573131,440.911223 C352.267128,444.048535 351.946792,449.815966 355.786313,454.066103 C359.626962,458.31624 364,456.697293 364,456.697293 L362.720912,443.744648 Z" id="路径" fill="#E45341" fill-rule="nonzero"></path>
                <path d="M420.93563,440.194285 C420.93563,440.194285 426.844849,430.271564 432.039921,435.543863 C437.234993,440.815069 437.540903,450.220834 431.631683,457.249473 C425.723541,464.174284 419,461.486767 419,461.486767 L420.93563,440.194285 Z" id="路径" fill="#FF826E" fill-rule="nonzero"></path>
                <path d="M422.280118,443.744648 C422.280118,443.744648 426.120471,437.773912 429.426221,440.911223 C432.733098,444.048535 433.053409,449.815966 429.213056,454.066103 C425.37383,458.31624 421,456.697293 421,456.697293 L422.280118,443.744648 Z" id="路径" fill="#E45341" fill-rule="nonzero"></path>
                <path d="M414,478 L371,478 L371,496.047769 C376.322716,500.941367 383.523779,504 391.456536,504 L393.543464,504 C401.476221,504 408.677284,500.941367 414,496.047769 L414,478 Z" id="路径" fill="#E45341" fill-rule="nonzero"></path>
                <path d="M394.291611,405 L388.708389,405 C373.406187,405 361,417.514661 361,432.950659 L361,459.23277 C361,476.233652 374.647024,490 391.499453,490 C408.352976,490 422,476.233652 422,459.23277 L422,432.950659 C422,417.619428 409.593813,405 394.291611,405 Z" id="路径" fill="#FF826E" fill-rule="nonzero"></path>
                <path d="M390.298802,441 L391,450.392757 C391,450.392757 387.393387,447.839732 384.287781,451.923493 C381.183234,456.007253 383.887399,464.582826 390.298802,462.745512" id="路径" stroke="#78284B" stroke-width="1.311934"></path>
                <path d="M385,472.071337 C385,472.071337 399.611002,490.630136 405,467 L385,472.071337 Z" id="路径" fill="#FFFFFF" fill-rule="nonzero"></path>
                <path d="M407.999413,448 C409.104846,448 410,446.43325 410,444.500514 C410,442.56675 409.104846,441 407.999413,441 C406.895154,441 406,442.56675 406,444.500514 C406,446.43325 406.895154,448 407.999413,448 Z" id="路径" fill="#000000" fill-rule="nonzero"></path>
                <path d="M376,448 C377.104583,448 378,446.43325 378,444.500514 C378,442.56675 377.104583,441 376,441 C374.895417,441 374,442.56675 374,444.500514 C374,446.43325 374.895417,448 376,448 Z" id="路径" fill="#000000" fill-rule="nonzero"></path>
                <path d="M404,433.494263 C404,433.494263 408.771181,428.82251 413,436" id="路径" stroke="#78284B" stroke-width="1.311934"></path>
                <path d="M380,433.494263 C380,433.494263 375.228819,428.82251 371,436" id="路径" stroke="#78284B" stroke-width="1.311934"></path>
                <path d="M417,411.75231 C417,411.75231 417.634374,450.812052 424.921855,449.987115 C432.210453,449.163267 431.999367,410 431.999367,410 L417,411.75231 Z" id="路径" fill="#061178" fill-rule="nonzero"></path>
                <path d="M350,412.05611 C350,412.05611 351.577748,451.007012 358.832718,449.980044 C366.0888,448.951988 364.932452,410 364.932452,410 L350,412.05611 Z" id="路径" fill="#332A75" fill-rule="nonzero"></path>
                <path d="M413.577805,497 L403,514 C410.827665,512.651838 418.231457,510.163765 425,506.535783 L413.577805,497 Z" id="路径" fill="#00B5F2" fill-rule="nonzero"></path>
                <path d="M370.151776,497 L357,507.303063 C363.469907,510.497372 370.575701,512.763458 378,514 L370.151776,497 Z" id="路径" fill="#00B5F2" fill-rule="nonzero"></path>
                <path d="M418.824663,416.503028 C410.237946,407.77833 393.686911,399.470924 393.789733,387.008168 C393.582996,387.215716 393.47908,387.320039 393.47908,387.320039 C384.479981,365.926135 358.824839,364.887298 345.479877,375.896121 C332.134915,386.903845 345.375961,403.935949 345.375961,403.935949 C345.375961,403.935949 335.962293,397.497572 333.272518,407.051364 C332.23883,410.79052 332.859043,428.549591 359.134398,429.899201 C385.410847,431.249909 417.272491,418.579605 417.272491,418.579605 C417.272491,418.579605 417.272491,418.787153 417.169669,419.306572 C418.307273,418.579605 419.444876,417.540768 418.824663,416.503028 Z" id="路径" fill="#061178" fill-rule="nonzero"></path>
                <path d="M586.275424,471 L497.723483,471 C495.655003,471 494,469.336301 494,467.258326 L494,373 L590,373 L590,467.258326 C590,469.336301 588.344997,471 586.275424,471 Z" id="路径" fill="#DADEF2" fill-rule="nonzero"></path>
                <path d="M586.275424,361 L497.723483,361 C495.655003,361 494,362.714124 494,364.857628 L494,373 L590,373 L590,364.857628 C590,362.714124 588.344997,361 586.275424,361 Z" id="路径" fill="#332A75" fill-rule="nonzero"></path>
                <path d="M504,367.500496 C504,368.343905 503.343688,369 502.5,369 C501.656312,369 501,368.343905 501,367.500496 C501,366.656095 501.656312,366 502.5,366 C503.343688,366 504,366.656095 504,367.500496 Z" id="路径" fill="#DADEF2" fill-rule="nonzero"></path>
                <path d="M512,367.500496 C512,368.343905 511.343688,369 510.5,369 C509.656312,369 509,368.343905 509,367.500496 C509,366.656095 509.656312,366 510.5,366 C511.343688,366 512,366.656095 512,367.500496 Z" id="路径" fill="#DADEF2" fill-rule="nonzero"></path>
                <path d="M518.5,369 C519.328817,369 520,368.328048 520,367.500496 C520,366.671952 519.328817,366 518.5,366 C517.671183,366 517,366.671952 517,367.500496 C517,368.328048 517.671183,369 518.5,369 Z" id="路径" fill="#DADEF2" fill-rule="nonzero"></path>
                <path d="M578.835399,462 L506.164601,462 C503.874786,462 502,460.137487 502,457.860232 L502,383.139768 C502,380.862513 503.874786,379 506.164601,379 L578.835399,379 C581.125214,379 583,380.862513 583,383.139768 L583,457.860232 C583,460.137487 581.125214,462 578.835399,462 Z" id="路径" fill="#FFFFFF" fill-rule="nonzero"></path>
                <path d="M523.145732,447 L509.854268,447 C508.824724,447 508,446.11072 508,445.000587 C508,443.88928 508.824724,443 509.854268,443 L523.145732,443 C524.176365,443 525,443.88928 525,445.000587 C525,446.11072 524.176365,447 523.145732,447 Z" id="路径" fill="#DADEF2" fill-rule="nonzero"></path>
                <path d="M549.105556,447 L528.894444,447 C527.84148,447 527,446.11072 527,445.000587 C527,443.88928 527.84148,443 528.894444,443 L549.105556,443 C550.15852,443 551,443.88928 551,445.000587 C551,446.11072 550.15852,447 549.105556,447 Z" id="路径" fill="#DADEF2" fill-rule="nonzero"></path>
                <path d="M533.10439,455 L508.887799,455 C507.839145,455 507,454.11072 507,453.000587 C507,451.88928 507.839145,451 508.887799,451 L533.10439,451 C534.151936,451 534.991081,451.88928 534.991081,453.000587 C535.09639,454.11072 534.257245,455 533.10439,455 Z" id="路径" fill="#DADEF2" fill-rule="nonzero"></path>
                <path d="M563.112708,455 L538.8884,455 C537.839412,455 537,454.11072 537,453.000587 C537,451.88928 537.839412,451 538.8884,451 L563.112708,451 C564.161697,451 565,451.88928 565,453.000587 C565,454.11072 564.161697,455 563.112708,455 Z" id="路径" fill="#DADEF2" fill-rule="nonzero"></path>
                <polyline id="路径" stroke="#D6E2FF" stroke-width="1.564459" points="508 383 508 436 578 436"></polyline>
                <polygon id="路径" fill="#2F54EB" fill-rule="nonzero" points="542 421 534 421 534 437 542 437"></polygon>
                <polygon id="路径" fill="#00B7FF" fill-rule="nonzero" points="553 407 545 407 545 437 553 437"></polygon>
                <polygon id="路径" fill="#2F54EB" fill-rule="nonzero" points="564 406 556 406 556 437 564 437"></polygon>
                <polygon id="路径" fill="#00B7FF" fill-rule="nonzero" points="575 391 567 391 567 436 575 436"></polygon>
                <polygon id="路径" fill="#2F54EB" fill-rule="nonzero" points="520 427 512 427 512 437 520 437"></polygon>
                <polygon id="路径" fill="#00B7FF" fill-rule="nonzero" points="531 422 523 422 523 437 531 437"></polygon>
                <path d="M515.332696,390 L513.652958,390 C513.280121,390 513,389.66745 513,389.222092 L513,386.777908 C513,386.33255 513.280121,386 513.652958,386 L515.332696,386 C515.705533,386 515.985654,386.33255 515.985654,386.777908 L515.985654,389.222092 C516.07837,389.555817 515.705533,390 515.332696,390 Z" id="路径" fill="#2F54EB" fill-rule="nonzero"></path>
                <path d="M515.332696,397 L513.652958,397 C513.280121,397 513,396.666373 513,396.22232 L513,393.77768 C513,393.333627 513.280121,393 513.652958,393 L515.332696,393 C515.705533,393 515.985654,393.333627 515.985654,393.77768 L515.985654,396.22232 C516.07837,396.666373 515.705533,397 515.332696,397 Z" id="路径" fill="#00B7FF" fill-rule="nonzero"></path>
                <path d="M532.11082,390 L519.881148,390 C518.835575,390 518,389.111633 518,388 C518,386.888367 518.835575,386 519.881148,386 L532.11082,386 C533.156394,386 533.991968,386.888367 533.991968,388 C534.096968,389 533.156394,390 532.11082,390 Z" id="路径" fill="#DADEF2" fill-rule="nonzero"></path>
                <path d="M539.158462,397 L520.84262,397 C519.819063,397 519,396.11072 519,394.999413 C519,393.88928 519.819063,393 520.84262,393 L539.158462,393 C540.182019,393 541,393.88928 541,394.999413 C541,396.11072 540.182019,397 539.158462,397 Z" id="路径" fill="#DADEF2" fill-rule="nonzero"></path>
                <path d="M444.000548,573 C457.807231,573 469,561.807476 469,548 C469,534.193621 457.807231,523 444.000548,523 C430.192769,523 419,534.193621 419,548 C419,561.807476 430.192769,573 444.000548,573 Z" id="路径" fill="#78C5FF" fill-rule="nonzero"></path>
                <path d="M432.499451,553 C435.536658,553 438,550.53751 438,547.5 C438,544.46249 435.536658,542 432.499451,542 C429.462244,542 427,544.46249 427,547.5 C427,550.53751 429.462244,553 432.499451,553 Z" id="路径" fill="#FFFFFF" fill-rule="nonzero"></path>
                <path d="M451.5,544 C454.53751,544 457,541.53751 457,538.5 C457,535.46249 454.53751,533 451.5,533 C448.46249,533 446,535.46249 446,538.5 C446,541.53751 448.46249,544 451.5,544 Z" id="路径" fill="#FFFFFF" fill-rule="nonzero"></path>
                <path d="M456.876853,558.651789 C457.513167,555.681883 455.620681,552.759153 452.651948,552.122823 C449.682117,551.48759 446.759461,553.379026 446.123147,556.348932 C445.486833,559.317741 447.379319,562.241568 450.348052,562.876801 C453.317883,563.513131 456.240539,561.621695 456.876853,558.651789 Z" id="路径" fill="#FFFFFF" fill-rule="nonzero"></path>
                <path d="M450.800552,559 C450.488241,559 450.175931,558.896 449.86472,558.793096 L431.248143,549.47474 C430.520151,549.060931 430,548.336219 430,547.507507 C430,546.67989 430.416781,545.955178 431.248143,545.540274 L449.86472,536.223013 C450.903922,535.705205 452.256536,536.119014 452.776687,537.15463 C453.295739,538.190246 452.880057,539.535671 451.839755,540.053479 L437.072078,547.507507 L451.839755,554.961535 C452.880057,555.479343 453.295739,556.825863 452.776687,557.860384 C452.359906,558.585097 451.631914,559 450.800552,559 Z" id="路径" fill="#FFFFFF" fill-rule="nonzero"></path>
                <path d="M245.314205,311 L312.68815,311 C316.762684,311 320,314.203926 320,318.233966 L320,368.355954 C320,372.385994 316.762684,375.58992 312.68815,375.58992 L307.047423,375.58992 L307.047423,393.985175 C307.047423,395.742307 304.853868,396.672233 303.601355,395.431968 L283.54568,375.58992 L245.314205,375.58992 C241.240776,375.58992 238.002355,372.385994 238.002355,368.355954 L238.002355,318.233966 C237.898532,314.203926 241.240776,311 245.314205,311 Z" id="路径" fill="#85B3FF" fill-rule="nonzero"></path>
                <path d="M265.070246,352 C264.65422,352 264.238195,351.894349 263.925626,351.789811 L249.769759,345.478575 C248.728595,344.953658 248,343.9016 248,342.745004 C248,341.587295 248.728595,340.430699 249.874315,340.01032 L263.925626,334.225114 C265.487372,333.594546 267.152573,334.330764 267.776611,335.907739 C268.40175,337.485826 267.673155,339.168452 266.11141,339.800131 L258.512894,342.955193 L266.11141,346.320444 C267.568599,346.951012 268.297193,348.739288 267.673155,350.211724 C267.256029,351.263782 266.215966,352 265.070246,352 Z" id="路径" fill="#FFFFFF" fill-rule="nonzero"></path>
                <path d="M293.032697,352 C291.888042,352 290.846846,351.369432 290.327349,350.211724 C289.702192,348.739288 290.327349,346.951012 291.888042,346.320444 L299.486788,342.955193 L291.888042,339.800131 C290.327349,339.168452 289.598733,337.380176 290.22279,335.907739 C290.846846,334.330764 292.616659,333.594546 294.073892,334.225114 L308.125628,340.01032 C309.271383,340.430699 310,341.587295 310,342.745004 C310,343.9016 309.271383,345.058197 308.230188,345.478575 L294.178452,351.68416 C293.761313,351.894349 293.345275,352 293.032697,352 Z" id="路径" fill="#FFFFFF" fill-rule="nonzero"></path>
                <path d="M277.903631,355 C277.696053,355 277.384137,355 277.176559,354.897057 C275.618079,354.487454 274.68343,352.847958 275.098585,351.31032 L280.188084,332.146739 C280.604338,330.610185 282.266058,329.686953 283.823441,330.097639 C285.381921,330.507243 286.31657,332.146739 285.901415,333.684377 L280.811916,352.847958 C280.395662,354.17971 279.253435,355 277.903631,355 Z" id="路径" fill="#FFFFFF" fill-rule="nonzero"></path>
                <polygon id="路径" fill="#D6E4FF" fill-rule="nonzero" points="288 726 288 655 183 655 183 726"></polygon>
                <polygon id="路径" fill="#ADC6FF" fill-rule="nonzero" points="235 654 183 654 183 701 235 701"></polygon>
                <polygon id="路径" fill="#10239E" fill-rule="nonzero" points="288 654 288 647 183 647 183 654"></polygon>
                <path d="M191.500601,654 C192.881279,654 194,652.881279 194,651.500601 C194,650.119923 192.881279,649 191.500601,649 C190.119923,649 189,650.119923 189,651.500601 C189,652.881279 190.119923,654 191.500601,654 Z" id="路径" fill="#DADEF2" fill-rule="nonzero"></path>
                <path d="M228.966289,652 L198.137629,652 C197.517403,652 197,651.545411 197,651.000481 C197,650.454589 197.517403,650 198.137629,650 L228.862371,650 C229.482597,650 230,650.454589 230,651.000481 C230,651.636713 229.586516,652 228.966289,652 Z" id="路径" fill="#DADEF2" fill-rule="nonzero"></path>
                <path d="M269.863934,672 L247.136066,672 C246.515599,672 246,671.545192 246,671 C246,670.454808 246.515599,670 247.136066,670 L269.863934,670 C270.483309,670 271,670.454808 271,671 C271,671.545192 270.483309,672 269.863934,672 Z" id="路径" fill="#FFFFFF" fill-rule="nonzero"></path>
                <path d="M262.881654,677 L247.118346,677 C246.507557,677 246,676.546154 246,676 C246,675.454808 246.507557,675 247.118346,675 L262.881654,675 C263.491367,675 264,675.454808 264,676 C264,676.636538 263.491367,677 262.881654,677 Z" id="路径" fill="#FFFFFF" fill-rule="nonzero"></path>
                <path d="M265.849966,681 L247.148929,681 C246.521437,681 246,680.545192 246,680 C246,679.454808 246.521437,679 247.148929,679 L265.849966,679 C266.477458,679 267,679.454808 267,680 C267,680.545192 266.477458,681 265.849966,681 Z" id="路径" fill="#FFFFFF" fill-rule="nonzero"></path>
                <path d="M264.909832,689 L248.089063,689 C246.940134,689 246,688.100185 246,687.000529 C246,685.899815 246.940134,685 248.089063,685 L264.909832,685 C266.058762,685 267,685.899815 267,687.000529 C267,688.100185 266.058762,689 264.909832,689 Z" id="路径" fill="#10239E" fill-rule="nonzero"></path>
                <path d="M280.862421,652 L274.137579,652 C273.51738,652 273,651.545411 273,651.000481 C273,650.454589 273.51738,650 274.137579,650 L280.862421,650 C281.48262,650 282,650.454589 282,651.000481 C282,651.636713 281.48262,652 280.862421,652 Z" id="路径" fill="#DADEF2" fill-rule="nonzero"></path>
                <path d="M216.07193,721 L194.92807,721 C194.413324,721 194,720.59658 194,720.093102 L194,706.905833 C194,706.40342 194.413324,706 194.92807,706 L216.07193,706 C216.587767,706 217,706.40342 217,706.905833 L217,720.093102 C217,720.496523 216.587767,721 216.07193,721 Z" id="路径" fill="#597EF7" fill-rule="nonzero"></path>
                <path d="M246.058254,721 L224.927541,721 C224.411998,721 224,720.59658 224,720.093102 L224,706.905833 C224,706.40342 224.411998,706 224.927541,706 L246.058254,706 C246.573797,706 246.986885,706.40342 246.986885,706.905833 L246.986885,720.093102 C247.08934,720.496523 246.573797,721 246.058254,721 Z" id="路径" fill="#7499F7" fill-rule="nonzero"></path>
                <path d="M277.05905,721 L255.927574,721 C255.412013,721 255,720.59658 255,720.093102 L255,706.905833 C255,706.40342 255.412013,706 255.927574,706 L277.05905,706 C277.574611,706 277.986624,706.40342 277.986624,706.905833 L277.986624,720.093102 C278.090172,720.496523 277.574611,721 277.05905,721 Z" id="路径" fill="#9ECBFF" fill-rule="nonzero"></path>
                <path d="M205.5,693 C212.403692,693 218,687.404547 218,680.500551 C218,673.596555 212.403692,668 205.5,668 C198.596308,668 193,673.596555 193,680.500551 C193,687.404547 198.596308,693 205.5,693 Z" id="路径" fill="#FFFFFF" fill-rule="nonzero"></path>
                <path d="M226.892163,672.300894 C227.611048,667.943067 224.659834,663.826724 220.300894,663.107838 C215.943067,662.388953 211.826723,665.340167 211.107837,669.697994 C210.388952,674.056934 213.340166,678.173277 217.699106,678.892163 C222.056933,679.611048 226.173277,676.659834 226.892163,672.300894 Z" id="路径" fill="#DADEF2" fill-rule="nonzero"></path>
                <path d="M310,754 C324.911546,754 337,741.911546 337,727 C337,712.088454 324.911546,700 310,700 C295.088454,700 283,712.088454 283,727 C283,741.911546 295.088454,754 310,754 Z" id="路径" fill="#1890FF" fill-rule="nonzero"></path>
                <path d="M307.073806,740 C306.129713,740 305.186728,739.586402 304.55844,738.967643 L295.022213,729.57603 C293.659262,728.233748 293.659262,725.963872 295.022213,724.519008 C296.384057,723.176726 298.689993,723.176726 300.157105,724.519008 L306.759108,731.020894 L319.544256,714.404964 C320.800831,712.856428 323.001499,712.546503 324.573879,713.682532 C326.146259,714.921142 326.459849,717.088438 325.307435,718.635882 L310.008029,738.451464 C309.378634,739.277568 308.435649,739.792656 307.387395,739.896328 C307.283235,740 307.177966,740 307.073806,740 Z" id="路径" fill="#FFFFFF" fill-rule="nonzero"></path>
                <path d="M430,282 L430,340 L488,340 C488,307.91701 462.025636,282 430,282 Z" id="路径" stroke="#2F54EB" stroke-width="1.2294386"></path>
                <path d="M865.052764,783 C863.911642,816.111923 881.32773,848.600439 912.635693,865 L954,786.114841 L865.052764,783 Z" id="路径" stroke="#ADC6FF" stroke-width="1.2294386" opacity="0.2"></path>
                <polygon id="路径" fill="#D8E1F5" fill-rule="nonzero" points="508 266 463 266 463 311 508 311"></polygon>
                <path d="M902.052456,791 L922,791 C922,768.96306 904.140747,751 882,751 L882,770.947544 C893.069821,771.052456 902.052456,780.033986 902.052456,791 Z" id="路径" fill="#85B3FF" fill-rule="nonzero" opacity="0.2"></path>
                <path d="M515.052764,722 C513.911642,755.111923 531.32773,787.600439 562.635693,804 L604,725.114841 L515.052764,722 Z" id="路径备份-4" stroke="#ADC6FF" stroke-width="1.2294386"></path>
                <path d="M552.052456,730 L572,730 C572,707.96306 554.140747,690 532,690 L532,709.947544 C543.069821,710.052456 552.052456,719.033986 552.052456,730 Z" id="路径备份-3" fill="#85B3FF" fill-rule="nonzero"></path>
                <text id="iCredit可信数据中台" font-family="PingFangSC-Medium, PingFang SC" font-size="26" font-weight="400" fill="#000000">
                    <tspan x="130" y="183">iCredit可信数据中台</tspan>
                </text>
                <path d="M1326,53 L1326,111 L1384,111 C1384,78.9170096 1358.02564,53 1326,53 Z" id="路径备份-2" stroke="#2F54EB" stroke-width="1.2294386" opacity="0.142415365"></path>
                <polygon id="路径备份" fill="#85B3FF" fill-rule="nonzero" opacity="0.08" points="1404 37 1359 37 1359 82 1404 82"></polygon>
                <g id="编组-4" transform="translate(125.000000, 90.000000)" stroke="#1890FF" stroke-width="2.4">
                    <g id="编组-3" transform="translate(19.913458, 0.000000)">
                        <polygon id="矩形" points="14.6620289 2.44249065e-14 27.1807026 7.28280874 14.720798 14.768442 2.26089345 7.28280874"></polygon>
                        <line x1="28.2828215" y1="8.42683059" x2="28.2828215" y2="21.9458391" id="直线" stroke-linecap="square"></line>
                        <line x1="14.6620289" y1="14.768442" x2="14.6620289" y2="28.6145959" id="直线备份" stroke-linecap="square"></line>
                        <line x1="1.15384615" y1="8.42223256" x2="1.15384615" y2="35.4694456" id="直线备份-2" stroke-linecap="square"></line>
                    </g>
                    <g id="编组-3备份" transform="translate(44.067002, 34.723278) rotate(120.000000) translate(-44.067002, -34.723278) translate(28.067002, 14.723278)">
                        <polygon id="矩形" points="16.9697212 -2.84217094e-14 29.4883949 7.28280874 17.0284904 14.768442 4.56858575 7.28280874"></polygon>
                        <line x1="30.5905138" y1="8.42683059" x2="30.5905138" y2="22.2729844" id="直线" stroke-linecap="square"></line>
                        <line x1="16.9697212" y1="14.768442" x2="17.0284904" y2="30.9032087" id="直线备份" stroke-linecap="square"></line>
                        <line x1="3.46153846" y1="8.42223256" x2="3.3642738" y2="37.4143519" id="直线备份-2" stroke-linecap="square"></line>
                    </g>
                    <g id="编组-3备份-2" transform="translate(29.290212, 33.953699) scale(-1, 1) rotate(120.000000) translate(-29.290212, -33.953699) translate(13.290212, 10.453699)">
                        <polygon id="矩形" points="14.6620289 2.44249065e-14 27.1807026 7.28280874 14.720798 14.768442 2.26089345 7.28280874"></polygon>
                        <line x1="28.2828215" y1="8.42683059" x2="29.3086823" y2="45.6742885" id="直线" stroke-linecap="square"></line>
                        <line x1="14.6620289" y1="14.768442" x2="14.720798" y2="29.8677087" id="直线备份" stroke-linecap="square"></line>
                        <line x1="1.15384615" y1="8.42223256" x2="2.26089345" y2="21.0919058" id="直线备份-2" stroke-linecap="square"></line>
                    </g>
                </g>
            </g>
        </g>
    </g>
</svg>
