<?xml version="1.0" encoding="UTF-8"?>
<svg width="617px" height="719px" viewBox="0 0 617 719" version="1.1" xmlns="http://www.w3.org/2000/svg" xmlns:xlink="http://www.w3.org/1999/xlink">
    <!-- Generator: Sketch 59.1 (86144) - https://sketch.com -->
    <title>编组 5备份</title>
    <desc>Created with Sketch.</desc>
    <g id="UI" stroke="none" stroke-width="1" fill="none" fill-rule="evenodd">
        <g id="编组-5备份" transform="translate(1.000000, 0.000000)">
            <g id="编组-2备份" transform="translate(0.000000, 141.333333)">
                <path d="M42.6659319,85.3333333 C66.230435,85.3333333 85.3333333,66.2307639 85.3333333,42.6666667 C85.3333333,19.1025694 66.230435,0 42.6659319,0 C19.1028984,0 0,19.1025694 0,42.6666667 C0,66.2307639 19.1028984,85.3333333 42.6659319,85.3333333 Z" id="路径" stroke="#D7DDF2" stroke-width="1.63925147"></path>
                <path d="M53.6754717,96.5130986 C53.8134172,96.3757301 53.9528302,96.102439 54.2301887,95.9650704 C54.9243187,95.2825657 55.4790356,94.4612465 56.0352201,93.6413732 C56.0352201,93.5040047 56.1731656,93.5040047 56.1731656,93.3680821 C56.7278826,92.6841314 57.1446541,91.8628122 57.6993711,91.1788615 C57.8387841,90.9055704 57.9781971,90.7696479 58.1161426,90.4949108 C58.532914,89.8124061 59.087631,88.9910869 59.5044025,88.1712136 C59.5044025,88.0338451 59.642348,88.0338451 59.642348,87.8979225 C60.0591195,87.0766033 60.6138365,86.1193615 61.030608,85.2994883 C61.170021,85.0261972 61.3079665,84.8888286 61.3079665,84.6155376 C61.5853249,83.9315869 62.0020964,83.1117136 62.2794549,82.4277629 C62.4188679,82.2903944 62.4188679,82.0171033 62.5568134,81.8797348 C62.8356394,80.922493 63.2509434,80.1026197 63.5283019,79.1453779 C63.5283019,78.8720868 63.6677149,78.7347183 63.6677149,78.4614272 C63.9450734,77.641554 64.0844864,76.9576033 64.2224319,76.136284 C64.2224319,75.862993 64.3618449,75.5897019 64.3618449,75.4537793 C64.6392034,74.4965375 64.7786164,73.5392958 64.9165618,72.4446854 C64.9165618,72.3073169 64.9165618,72.1713944 64.9165618,71.8981033 C65.0559748,71.076784 65.1939203,70.1195423 65.1939203,69.299669 C65.1939203,69.0263779 65.1939203,68.7530868 65.1939203,68.4783498 C65.1939203,67.3851854 65.3333333,66.4279437 65.3333333,65.3333333 L41.6008386,65.3333333 C41.6008386,74.7698286 36.0492662,82.8369765 28,86.6659437 L38.4090147,108 C39.2410901,107.58934 40.2125786,107.178681 41.0461216,106.632099 C41.3234801,106.49473 41.4628931,106.358808 41.7402516,106.221439 C42.4343816,105.812225 43.127044,105.401566 43.821174,104.854984 C43.960587,104.717615 44.0985325,104.717615 44.2379455,104.580246 C45.070021,104.033664 45.9035639,103.487082 46.5976939,102.9405 C46.7356394,102.803131 47.0129979,102.665763 47.1524109,102.52984 C47.8465409,101.983258 48.4012579,101.572599 48.9559748,101.026016 C49.0953878,100.888648 49.3727463,100.751279 49.5121593,100.615357 C50.2062893,99.9314061 50.8989518,99.3848239 51.5930818,98.7008732 C51.7324948,98.5635047 51.8704403,98.4275822 52.0098532,98.2902136 C52.5645702,97.6062629 53.1207547,97.0596808 53.6754717,96.5130986 Z" id="路径" fill="#D6E4FF" fill-rule="nonzero"></path>
            </g>
            <path d="M243.051925,278.652891 C158.168476,346.754682 50.7496239,478.669793 147.66092,562.690152 C244.572216,646.710511 376.599331,592.311335 398.165548,570.164971 C419.731765,548.017143 510.007864,451.261636 532.541805,426.485107 C555.075747,401.707114 600.697658,262.318649 546.505101,216.639851 C492.312544,170.962517 408.671642,145.907896 243.051925,278.652891 Z" id="路径" fill="#ECF2FF" fill-rule="nonzero"></path>
            <path d="M234.936527,596 C224.96722,595.585316 215.276057,594.753017 206.27733,593.368294 L207.246446,586.576557 C216.107565,587.962745 225.522046,588.795044 235.213209,589.209728 L234.936527,596 Z M263.733333,595.86226 L263.456652,588.932784 C265.394885,588.795044 267.470726,588.795044 269.408958,588.655839 C277.993396,588.10195 285.053891,587.408856 291.421951,586.299612 L292.530139,593.089884 C285.883934,594.199127 278.685831,595.029961 269.824712,595.585316 C267.747407,595.723055 265.671566,595.86226 263.733333,595.86226 Z M178.033886,587.269651 L177.757205,587.131911 C168.620869,584.498739 159.483069,580.895529 150.761023,576.461484 L153.80598,570.225102 C162.113737,574.382202 170.835783,577.846207 179.695438,580.341639 L178.033886,587.269651 Z M320.495438,584.498739 L317.45048,578.262357 L318.142915,577.985412 C325.064338,574.521407 331.848151,569.671213 340.016835,562.464791 L344.585735,567.59193 C336.001298,575.214501 328.803194,580.341639 321.326945,584.08259 L320.495438,584.498739 Z M125.978291,561.355548 C118.087752,555.397575 110.749112,548.745043 104.520125,541.677827 L109.642387,537.104577 C115.594693,543.894849 122.51758,550.131231 130.131437,555.812259 L125.978291,561.355548 Z M365.35293,548.330359 L360.78403,543.201755 C367.014481,537.659932 373.935904,531.700494 382.520341,524.633278 L386.950168,529.898156 C378.367195,536.966838 371.581917,542.787071 365.35293,548.330359 Z M87.7670035,517.703801 C83.0604949,508.834247 79.7373924,499.550008 77.6615513,490.126565 L84.4453649,488.740377 C86.2445248,497.472191 89.4285548,506.20254 93.8598461,514.51674 L87.7670035,517.703801 Z M408.824088,511.744363 L404.394261,506.34028 C410.901393,500.936197 418.654323,494.562075 426.130572,488.048748 L430.699472,493.313626 C423.084151,499.826953 415.331221,506.34028 408.824088,511.744363 Z M451.880957,474.052055 L447.035375,469.062656 C449.942724,466.152539 452.850073,463.381628 455.619813,460.471511 C459.357205,456.591356 463.096062,452.571996 466.556773,448.691841 L471.679035,453.26509 C468.079251,457.28445 464.341859,461.302345 460.465394,465.321705 C457.834727,468.231822 454.788305,471.141938 451.880957,474.052055 Z M82.9214223,461.302345 L76,460.748456 C76.8300437,451.601957 78.7682761,441.901569 81.9523061,432.201181 L88.5985111,434.280464 C85.5520898,443.564702 83.7529299,452.711201 82.9214223,461.302345 Z M490.092244,431.231142 L484.554227,427.074042 C490.368925,419.451472 495.769333,411.691161 500.752522,403.930851 L506.56722,407.673266 C501.58403,415.433577 496.046014,423.470832 490.092244,431.231142 Z M99.2587898,408.5041 L93.0283385,405.456244 C96.9048035,397.556729 101.612776,389.519473 107.150792,380.51218 L107.288401,380.372975 L113.103098,384.113925 L112.96549,384.25313 C107.565082,392.845739 103.135255,400.882995 99.2587898,408.5041 Z M520.827282,382.589997 L514.598295,379.402936 C518.88905,370.949531 522.627906,362.219182 525.811936,353.628038 L532.319068,355.982799 C529.135038,364.991559 525.258574,373.859648 520.827282,382.589997 Z M128.748031,360.418309 L123.070942,356.398949 C128.608958,348.638639 134.423656,341.017533 140.377426,333.534167 L145.776369,337.829007 C139.961672,345.174633 134.286047,352.795738 128.748031,360.418309 Z M539.932926,330.207901 L535.087345,325.357707 L537.580403,327.851674 L534.118228,327.851674 L534.118228,327.435524 L534.257301,327.02084 C536.333142,318.013546 537.857085,308.727842 538.410447,299.443604 L545.333333,299.859754 C544.640898,309.420937 543.256028,318.983585 541.041115,328.128619 L541.041115,329.098657 L539.932926,330.207901 Z M164.189578,316.350413 L159.067315,311.637959 C165.435375,304.570743 172.08158,297.641266 178.865394,290.850994 L183.710975,295.840393 C177.06477,302.49146 170.420029,309.420937 164.189578,316.350413 Z M204.339098,276.716562 L199.770198,271.450218 C206.969765,265.215301 214.306941,258.978919 221.78319,253.158686 L226.075409,258.562769 C218.738232,264.383002 211.399592,270.480179 204.339098,276.716562 Z M537.857085,271.450218 C536.887968,262.026775 535.226417,252.742536 532.59575,244.151392 L539.240491,242.211314 C541.871158,251.218608 543.671782,260.918996 544.640898,270.757124 L537.857085,271.450218 Z M248.918445,241.795165 L244.904371,236.112671 C252.657301,230.708588 260.825985,225.442245 268.855596,220.454311 L272.455379,226.412283 C264.563377,231.262477 256.533766,236.389616 248.918445,241.795165 Z M522.07308,218.651973 C517.366571,210.475513 511.828555,203.131352 505.460495,196.75723 L510.306076,191.767831 C517.08989,198.420363 523.042196,206.318413 528.02685,215.187967 L522.07308,218.651973 Z M296.959967,212.277851 L293.636864,206.180673 C302.082229,201.607424 310.666667,197.311119 319.24964,193.430964 L322.156989,199.667346 C313.850697,203.547502 305.266259,207.843806 296.959967,212.277851 Z M348.323127,188.44303 L345.831533,181.929703 C348.323127,180.959664 350.677114,179.989626 353.168709,179.157326 C359.814914,176.66336 366.459655,174.446337 372.966787,172.50626 L374.90502,179.157326 C368.674569,181.097404 362.1689,183.314426 355.522695,185.670653 C353.168709,186.640692 350.677114,187.610731 348.323127,188.44303 Z M483.30843,180.820459 C475.417891,176.801099 466.695845,173.753243 457.418973,171.950905 L458.803843,165.160634 C468.771686,167.100711 478.048559,170.289237 486.49246,174.723282 L483.30843,180.820459 Z M402.179347,172.50626 L400.93355,165.715988 C410.901393,163.91365 420.592556,162.943611 429.730356,162.666667 L429.867964,169.596143 C421.145918,169.873088 411.731437,170.843127 402.179347,172.50626 Z" id="形状" fill="#D8E1F5" fill-rule="nonzero"></path>
            <path d="M360,622.666667 C416.700661,622.666667 462.666667,576.700988 462.666667,519.999269 C462.666667,463.299012 416.700661,417.333333 360,417.333333 C303.297878,417.333333 257.333333,463.299012 257.333333,519.999269 C257.333333,576.700988 303.297878,622.666667 360,622.666667 Z" id="路径" fill="#D8E1F5" fill-rule="nonzero"></path>
            <path d="M348,442.477157 C348,442.477157 381.149595,437.765667 394.102798,447.467087 C406.360844,456.752312 397.585951,467.979286 397.585951,467.979286 C397.585951,467.979286 429.203843,471.44366 414.995821,498.053685 C400.789273,524.663711 387.139439,540.60071 387.139439,540.60071 C387.139439,540.60071 395.077786,556.539174 382.682772,564.023335 C370.286284,571.507496 371.121357,544.481277 371.121357,544.481277 L348,442.477157 Z" id="路径" fill="#2F54EB" fill-rule="nonzero"></path>
            <path d="M290.676415,473.333333 C290.676415,473.333333 290.26523,488.85602 294.783921,497.236179 C299.43871,505.616338 306.147975,518.666667 306.147975,518.666667 L310.666667,476.080236 L290.676415,473.333333 Z" id="路径" fill="#2F54EB" fill-rule="nonzero"></path>
            <path d="M377.333333,545.333333 L325.333333,564.78215 L326.56794,593.333333 C332.742423,593.196236 366.49462,589.885489 377.196961,589.057073 L377.333333,545.333333 Z" id="路径" fill="#FF826E" fill-rule="nonzero"></path>
            <path d="M371.723549,547.144548 C371.862506,546.727483 372,545.751873 372,545.333333 L324,564.985533 L324.691858,583.382114 C328.010726,584.776263 331.470015,585.333333 335.065334,585.333333 C351.389078,585.194803 364.668942,575.577236 371.723549,547.144548 Z" id="路径" fill="#E45341" fill-rule="nonzero"></path>
            <path d="M304.606736,477.333333 C304.606736,477.333333 301.415555,506.252364 303.218756,530.466163 C305.023423,554.679963 312.793766,569.761283 329.028441,570.592306 C345.263116,571.421866 371.90471,565.610555 378.426457,537.938059 C384.254214,513.446277 388,495.320309 388,495.320309 L375.095891,478.025365 L304.606736,477.333333 Z" id="路径" fill="#FF826E" fill-rule="nonzero"></path>
            <path d="M370.666667,543.845715 C370.666667,543.845715 371.087625,551.839392 382.723264,548.531161 C394.357422,545.085937 404.169897,513.937555 391.133534,511.18021 C378.097171,508.424322 379.779522,517.658222 379.779522,517.658222 L370.666667,543.845715 Z" id="路径" fill="#FF826E" fill-rule="nonzero"></path>
            <path d="M357.317828,513.468358 C357.475346,510.523745 356.414828,508.076512 354.950377,508.001752 C353.485926,507.926993 352.172755,510.253695 352.015236,513.198308 C351.859278,516.142922 352.918237,518.590155 354.382688,518.664914 C355.847139,518.739674 357.16031,516.412972 357.317828,513.468358 Z" id="路径" fill="#000000" fill-rule="nonzero"></path>
            <path d="M317.318097,512.135807 C317.474055,509.190772 316.415097,506.74319 314.950646,506.668419 C313.486195,506.593649 312.171464,508.920684 312.015505,511.865718 C311.857987,514.809226 312.918506,517.258335 314.382957,517.33158 C315.845848,517.40635 317.160579,515.080841 317.318097,512.135807 Z" id="路径" fill="#000000" fill-rule="nonzero"></path>
            <path d="M349.333333,500.29346 C349.333333,500.29346 355.983862,494.80116 361.333333,504" id="路径" stroke="#401616" stroke-width="1.77417067"></path>
            <path d="M320,497.827814 C320,497.827814 314.139432,492.517316 308,500" id="路径" stroke="#401616" stroke-width="1.77417067"></path>
            <path d="M322.666667,546.565315 C322.666667,546.565315 334.234578,553.54751 352,545.333333" id="路径" stroke="#401616" stroke-width="1.77417067"></path>
            <path d="M358.669839,475.739632 C358.669839,475.739632 358.112056,488.624004 371.788079,497.488968 C371.788079,497.488968 381.277774,514.252129 377.509047,525.333333 C377.509047,525.333333 387.277635,520.07031 390.76747,502.337453 C394.25583,484.606061 389.231353,472 389.231353,472 L358.669839,475.739632 Z" id="路径" fill="#2F54EB" fill-rule="nonzero"></path>
            <path d="M365.742585,503.763852 L344.55952,502.666667 C343.157797,502.666667 342.034936,503.62743 342.034936,504.862489 L341.333333,517.764578 C341.333333,519.137511 342.315281,520.234697 343.577572,520.234697 L364.760638,521.333333 C366.16236,521.333333 367.285221,520.37257 367.285221,519.137511 L367.986824,506.371845 C368.126254,505.000363 367.144307,503.901726 365.742585,503.763852 Z" id="路径" fill="#CCDDFF" fill-rule="nonzero" opacity="0.4"></path>
            <path d="M321.742342,501.106812 L300.560971,500 C299.157779,500 298.034929,500.967912 298.034929,502.212162 L297.333333,515.072818 C297.333333,516.454505 298.315271,517.561317 299.579033,517.561317 L320.760404,518.666667 C322.163596,518.666667 323.284963,517.698755 323.284963,516.454505 L323.986558,503.595311 C324.127471,502.351061 323.145533,501.244249 321.742342,501.106812 Z" id="路径" fill="#CCDDFF" fill-rule="nonzero" opacity="0.4"></path>
            <path d="M299.226861,504 L298.676259,516.154557 C298.53788,517.850785 299.915842,519.406533 301.569104,519.406533 L320.304135,520.395875 C321.957397,520.536355 323.47228,519.122583 323.47228,517.427849 L323.747581,510.502456 C323.747581,510.502456 332.150815,502.728203 340.690971,511.349823 L340.278748,518.275216 C340.140369,519.971444 341.51833,521.525697 343.171593,521.525697 L364.385788,522.657014 C366.039051,522.797494 367.553934,521.385216 367.553934,519.688988 L367.967614,512.339165 L388.079149,510.218506 C394.82912,509.79557 398.686247,513.046051 396.896062,519.122583" id="路径" stroke="#0D3178" stroke-width="3.548324"></path>
            <path d="M331.715775,506.666667 L332,519.89353 C332,519.89353 327.022311,516.095085 322.187486,521.582224 C317.351158,527.069364 320.76486,539.31128 330.151789,537.060184" id="路径" stroke="#401616" stroke-width="1.77417067"></path>
            <path d="M326.373577,593.702242 L298.666667,603.284934 C315.931222,616.250104 337.232565,624 360.344721,624 C361.59904,624 362.990275,624 364.243122,623.859933 C388.191491,613.149251 412,593.702242 412,593.702242 L377.609277,589.333333 L326.373577,593.702242 Z" id="路径" fill="#FF826E" fill-rule="nonzero"></path>
            <path d="M359.399305,624 C386.371759,624 410.980245,613.557896 429.333333,596.571995 L391.237885,589.333333 L339.9348,595.040938 L313.100538,598.382764 L296,602.281071 C313.518055,615.925146 335.48619,624 359.399305,624 Z" id="路径" fill="#ADC6FF" fill-rule="nonzero"></path>
            <polygon id="路径" fill="#061178" fill-rule="nonzero" points="340 594.394308 355.240508 620 390.666667 588.65829 376.385859 574.666667"></polygon>
            <polygon id="路径" fill="#061178" fill-rule="nonzero" points="340 593.915089 324.387464 616 313.333333 597.206214 325.07853 582.666667"></polygon>
            <path d="M361.696981,477.378185 C361.696981,477.378185 349.550806,488.639579 333.401151,492.759318 C322.358378,495.506779 330.778383,487.952714 333.125301,479.438781 C333.125301,479.438781 323.601894,488.914035 304.829471,489.051989 C278.327399,489.462946 274.186723,436.041389 279.15495,432.882971 C283.985981,429.586598 300.825991,434.805612 307.313584,439.061853 C307.313584,439.061853 297.512867,428.487324 308.00394,425.603361 C317.527347,422.993854 362.387337,439.886672 366.666667,450.873611 L361.696981,477.378185 Z" id="路径" fill="#2F54EB" fill-rule="nonzero"></path>
            <path d="M531.999268,464 C572.500963,464 605.333333,431.167629 605.333333,390.667398 C605.333333,350.165704 572.500963,317.333333 531.999268,317.333333 C491.499037,317.333333 458.666667,350.165704 458.666667,390.667398 C458.666667,431.167629 491.499037,464 531.999268,464 Z" id="路径" fill="#D8E1F5" fill-rule="nonzero"></path>
            <path d="M516,430.124492 C510.276824,431.224446 504.418205,432.322946 498.695029,431.911735 C492.834969,431.499071 486.97635,429.437203 483.024016,425.178335 C477.573166,419.130771 477.163956,409.100417 482.205596,402.641641 C485.068625,399.068609 489.428728,396.59553 494.061158,396.182866 C490.382591,391.373295 487.248676,386.151059 485.74872,380.379573 C484.250205,374.608087 484.794857,368.012726 488.065656,363.065115 C491.336454,357.980919 497.604282,354.957137 503.464342,356.331715 L516,430.124492 Z" id="路径" fill="#78284B" fill-rule="nonzero"></path>
            <path d="M576.365322,384.094168 C581.489512,382.427101 587.445521,383.121835 592.01614,386.038834 C596.586758,388.955832 600.048771,393.679432 601.018252,399.096296 C602.403643,406.59736 599.07929,414.514089 593.815976,420.070487 C588.554127,425.626885 581.628636,429.238618 574.565486,432.295151 C566.80964,435.627815 558.361098,438.267214 550.050217,437.017281 C541.7408,435.906883 533.569044,429.933351 532.185117,421.599488 C531.492422,416.875889 532.877813,412.153758 534.124079,407.569693 C536.477486,399.096296 538.694697,390.622899 540.771319,382.011436 C542.29437,376.037904 543.818886,369.786773 546.311418,364.092309 C548.111255,359.925378 550.882037,355.618912 555.452656,353.951846 C560.71597,352.146714 567.639995,354.507045 571.380258,358.258311 C577.197143,364.092309 577.473928,372.981371 576.918893,380.760035 C576.504447,381.316703 576.504447,383.956102 576.365322,384.094168 Z" id="路径" fill="#78284B" fill-rule="nonzero"></path>
            <path d="M513.618223,382.116197 C503.039268,382.815102 493.436085,377.644973 485.919846,370.797764 C480.212391,365.627634 472.13983,355.705536 472.001485,342.290386 C471.861669,327.33853 481.604669,322.028028 496.219168,322.726934 C510.833667,323.42584 523.221406,331.67086 528.649228,345.365276 C530.319667,339.216974 531.990106,333.207566 533.660544,327.059263 C538.392228,327.198158 542.985566,330.273048 544.934166,334.744272 C546.882766,339.216974 545.908466,344.66637 542.847222,348.299794 C547.300744,346.203077 552.728566,347.321621 556.765582,350.115767 C560.802599,352.91139 563.307521,358.220415 565.534282,362.693116 C567.482882,366.32654 569.013504,370.239231 569.291665,374.431188 C569.571298,378.623145 568.457182,382.955475 565.534282,385.889992 C560.940943,390.501589 553.008199,390.222322 547.578905,386.588898 C545.213799,384.91182 543.54336,381.698035 541.872922,379.322051 C541.036966,378.064612 540.340828,376.807172 539.784505,375.40936 C539.228183,374.151921 538.810205,372.474843 537.835905,371.49667 C536.583444,370.239231 535.748961,371.49667 534.774661,372.474843 C533.660544,373.453015 532.546428,374.570082 531.293967,375.40936 C528.928861,377.225334 526.284122,378.763517 523.499567,380.020957 C520.298506,381.138024 516.957628,381.977302 513.618223,382.116197 Z" id="路径" fill="#78284B" fill-rule="nonzero"></path>
            <path d="M516,430.124492 C510.276824,431.224446 504.418205,432.322946 498.695029,431.911735 C492.834969,431.499071 486.97635,429.437203 483.024016,425.178335 C477.573166,419.130771 477.163956,409.100417 482.205596,402.641641 C485.068625,399.068609 489.428728,396.59553 494.061158,396.182866 C490.382591,391.373295 487.248676,386.151059 485.74872,380.379573 C484.250205,374.608087 484.794857,368.012726 488.065656,363.065115 C491.336454,357.980919 497.604282,354.957137 503.464342,356.331715 L516,430.124492 Z" id="路径" fill="#1890FF" fill-rule="nonzero"></path>
            <path d="M576.365322,384.094168 C581.489512,382.427101 587.445521,383.121835 592.01614,386.038834 C596.586758,388.955832 600.048771,393.679432 601.018252,399.096296 C602.403643,406.59736 599.07929,414.514089 593.815976,420.070487 C588.554127,425.626885 581.628636,429.238618 574.565486,432.295151 C566.80964,435.627815 558.361098,438.267214 550.050217,437.017281 C541.7408,435.906883 533.569044,429.933351 532.185117,421.599488 C531.492422,416.875889 532.877813,412.153758 534.124079,407.569693 C536.477486,399.096296 538.694697,390.622899 540.771319,382.011436 C542.29437,376.037904 543.818886,369.786773 546.311418,364.092309 C548.111255,359.925378 550.882037,355.618912 555.452656,353.951846 C560.71597,352.146714 567.639995,354.507045 571.380258,358.258311 C577.197143,364.092309 577.473928,372.981371 576.918893,380.760035 C576.504447,381.316703 576.504447,383.956102 576.365322,384.094168 Z" id="路径" fill="#1890FF" fill-rule="nonzero"></path>
            <path d="M517.091641,441.533393 C517.091641,441.533393 501.168043,449.760638 496,454.083627 L527.288889,461.333333 L569.333333,451.4341 L547.123599,440 L517.091641,441.533393 Z" id="路径" fill="#FF826E" fill-rule="nonzero"></path>
            <path d="M546.666667,414.666667 L516,428.036296 L516.698888,446.59048 C520.339916,446.04375 524.12161,449.591001 527.762638,449.318357 C534.062994,448.77307 540.225645,444.680533 546.526001,444.54349 L546.666667,414.666667 Z" id="路径" fill="#FF826E" fill-rule="nonzero"></path>
            <path d="M546.666667,414.666667 L516,428.036296 L516.698888,446.59048 C520.339916,446.04375 524.12161,449.591001 527.762638,449.318357 C534.062994,448.77307 540.225645,444.680533 546.526001,444.54349 L546.666667,414.666667 Z" id="路径" fill="#FF826E" fill-rule="nonzero"></path>
            <path d="M516,428.455402 L516.420517,442.244137 C517.819774,442.525328 519.220511,442.666667 520.621248,442.666667 C531.963369,442.666667 541.34505,435.91215 546.386815,415.932767 C546.527481,415.651576 546.527481,414.947857 546.666667,414.666667 L516,428.455402 Z" id="路径" fill="#E45341" fill-rule="nonzero"></path>
            <path d="M502.282825,360.66344 C498.723612,365.064636 496.668883,370.426911 496.395209,376.202117 C495.983974,384.040519 495.572739,395.865733 496.942558,405.765878 C498.997286,422.403763 514.881974,430.378839 520.907151,430.655096 C528.713382,430.929898 543.639487,426.392028 548.70608,408.240551 C553.498998,391.602666 557.333333,377.164651 557.333333,377.164651 L556.923546,374.55185 C555.142492,362.588509 545.556654,353.237968 533.506301,351.725829 L526.796215,350.901423 C517.34649,349.664087 508.171888,353.376096 502.282825,360.66344 Z" id="路径" fill="#FF826E" fill-rule="nonzero"></path>
            <path d="M544,410.171572 C544,410.171572 544.547706,415.055865 552.359041,412.683072 C560.170375,410.171572 565.651784,390.913293 556.743589,389.517359 C547.70064,388.261609 549.345207,393.843868 549.345207,393.843868 L544,410.171572 Z" id="路径" fill="#FF826E" fill-rule="nonzero"></path>
            <path d="M515.838386,390.666667 L516.110064,393.670296 C516.246621,396.244404 514.886794,398.532668 512.575375,399.391712 C511.760341,399.677556 510.943869,400.249244 510.128835,401.394132 C507.137503,405.398971 513.255288,410.834543 517.333333,406.256503" id="路径" stroke="#78284B" stroke-width="1.23370173"></path>
            <path d="M513.333333,413.472357 C513.333333,413.472357 526.533192,435.91929 529.333333,410.666667 L513.333333,413.472357 Z" id="路径" fill="#FFFFFF" fill-rule="nonzero"></path>
            <path d="M531.334147,397.333333 C532.438661,397.333333 533.333333,395.840417 533.333333,394.000705 C533.333333,392.159583 532.438661,390.666667 531.334147,390.666667 C530.229633,390.666667 529.333333,392.159583 529.333333,394.000705 C529.333333,395.840417 530.229633,397.333333 531.334147,397.333333 Z" id="路径" fill="#000000" fill-rule="nonzero"></path>
            <path d="M504.665853,397.333333 C505.770367,397.333333 506.666667,395.840417 506.666667,393.999295 C506.666667,392.159583 505.770367,390.666667 504.665853,390.666667 C503.561339,390.666667 502.666667,392.159583 502.666667,393.999295 C502.666667,395.840417 503.561339,397.333333 504.665853,397.333333 Z" id="路径" fill="#000000" fill-rule="nonzero"></path>
            <path d="M500,386.666667 C500,386.666667 501.931085,380.857364 508,383.240627" id="路径" stroke="#78284B" stroke-width="1.23370173"></path>
            <path d="M528,382.232378 C528,382.232378 532.880287,378.80528 536,385.333333" id="路径" stroke="#78284B" stroke-width="1.2192752"></path>
            <path d="M513.618223,382.116197 C503.039268,382.815102 493.436085,377.644973 485.919846,370.797764 C480.212391,365.627634 472.13983,355.705536 472.001485,342.290386 C471.861669,327.33853 481.604669,322.028028 496.219168,322.726934 C510.833667,323.42584 523.221406,331.67086 528.649228,345.365276 C530.319667,339.216974 531.990106,333.207566 533.660544,327.059263 C538.392228,327.198158 542.985566,330.273048 544.934166,334.744272 C546.882766,339.216974 545.908466,344.66637 542.847222,348.299794 C547.300744,346.203077 552.728566,347.321621 556.765582,350.115767 C560.802599,352.91139 563.307521,358.220415 565.534282,362.693116 C567.482882,366.32654 569.013504,370.239231 569.291665,374.431188 C569.571298,378.623145 568.457182,382.955475 565.534282,385.889992 C560.940943,390.501589 553.008199,390.222322 547.578905,386.588898 C545.213799,384.91182 543.54336,381.698035 541.872922,379.322051 C541.036966,378.064612 540.340828,376.807172 539.784505,375.40936 C539.228183,374.151921 538.810205,372.474843 537.835905,371.49667 C536.583444,370.239231 535.748961,371.49667 534.774661,372.474843 C533.660544,373.453015 532.546428,374.570082 531.293967,375.40936 C528.928861,377.225334 526.284122,378.763517 523.499567,380.020957 C520.298506,381.138024 516.957628,381.977302 513.618223,382.116197 Z" id="路径" fill="#78284B" fill-rule="nonzero"></path>
            <path d="M532.370122,464 C546.955058,464 560.578238,459.59077 572,451.91071 L552.184334,442.666667 C547.918269,446.364585 539.387595,451.767846 526.590856,451.767846 C514.205883,451.767846 509.939818,448.212792 508.564842,445.653273 C505.811979,447.217256 499.757717,450.346727 494.666667,453.190469 C505.675209,460.017858 518.471947,464 532.370122,464 Z" id="路径" fill="#332A75" fill-rule="nonzero"></path>
            <path d="M513.618223,382.116197 C503.039268,382.815102 493.436085,377.644973 485.919846,370.797764 C480.212391,365.627634 472.13983,355.705536 472.001485,342.290386 C471.861669,327.33853 481.604669,322.028028 496.219168,322.726934 C510.833667,323.42584 523.221406,331.67086 528.649228,345.365276 C530.319667,339.216974 531.990106,333.207566 533.660544,327.059263 C538.392228,327.198158 542.985566,330.273048 544.934166,334.744272 C546.882766,339.216974 545.908466,344.66637 542.847222,348.299794 C547.300744,346.203077 552.728566,347.321621 556.765582,350.115767 C560.802599,352.91139 563.307521,358.220415 565.534282,362.693116 C567.482882,366.32654 569.013504,370.239231 569.291665,374.431188 C569.571298,378.623145 568.457182,382.955475 565.534282,385.889992 C560.940943,390.501589 553.008199,390.222322 547.578905,386.588898 C545.213799,384.91182 543.54336,381.698035 541.872922,379.322051 C541.036966,378.064612 540.340828,376.807172 539.784505,375.40936 C539.228183,374.151921 538.810205,372.474843 537.835905,371.49667 C536.583444,370.239231 535.748961,371.49667 534.774661,372.474843 C533.660544,373.453015 532.546428,374.570082 531.293967,375.40936 C528.928861,377.225334 526.284122,378.763517 523.499567,380.020957 C520.298506,381.138024 516.957628,381.977302 513.618223,382.116197 Z" id="路径" fill="#1890FF" fill-rule="nonzero"></path>
            <path d="M129.334065,489.333333 C184.562911,489.333333 229.333333,444.561449 229.333333,389.332602 C229.333333,334.105218 184.562911,289.333333 129.334065,289.333333 C74.105218,289.333333 29.3333333,334.105218 29.3333333,389.332602 C29.3333333,444.561449 74.105218,489.333333 129.334065,489.333333 Z" id="路径" fill="#599AF7" fill-rule="nonzero"></path>
            <path d="M107.789496,326.666667 C98.4828433,326.666667 91.1209516,334.70696 87.6485829,342.886511 C84.1747454,351.064597 83.4799778,360.353811 80.0076091,368.533362 C72.9233307,384.890998 55.9757037,395.149152 42.6399865,407.626632 C39.30569,410.677107 36.2504756,414.003164 33.3333333,417.469945 C45.1399745,459.61369 83.8971321,490.666667 130.016181,490.666667 C152.658552,490.666667 173.635243,483.180472 190.443329,470.425942 C194.332852,457.117314 196,443.254588 196,429.391861 C195.722387,402.635347 188.776181,376.296606 178.497147,351.480903 L107.789496,326.666667 Z" id="路径" fill="#EBF9FF" fill-rule="nonzero"></path>
            <path d="M66.6666667,467.491547 C83.7013426,481.126482 105.443874,489.333333 128.98608,489.333333 C148.234839,489.333333 166.099797,483.908191 181.333333,474.448026 C175.793732,466.935499 161.668701,453.99783 129.262841,454.693625 C94.2255596,455.667444 74.1450549,463.875766 66.6666667,467.491547 Z" id="路径" fill="#1400FF" fill-rule="nonzero"></path>
            <path d="M174.666667,425.333333 C178.347501,425.333333 181.333333,422.348595 181.333333,418.667372 C181.333333,414.984738 178.347501,412 174.666667,412 C170.984422,412 168,414.984738 168,418.667372 C168,422.348595 170.984422,425.333333 174.666667,425.333333 Z" id="路径" fill="#1890FF" fill-rule="nonzero"></path>
            <path d="M110.666667,421.333333 L149.333333,438.262216 L148.49033,461.850849 C143.850092,461.158317 139.209854,465.598151 134.569616,465.320844 C126.695633,464.626845 118.821651,459.353626 110.947668,459.353626 L110.666667,421.333333 Z" id="路径" fill="#FF826E" fill-rule="nonzero"></path>
            <path d="M110.666667,421.333333 L149.333333,438.262216 L148.49033,461.850849 C143.850092,461.158317 139.209854,465.598151 134.569616,465.320844 C126.695633,464.626845 118.821651,459.353626 110.947668,459.353626 L110.666667,421.333333 Z" id="路径" fill="#FF826E" fill-rule="nonzero"></path>
            <path d="M149.333333,438.390278 L148.632646,455.445756 C146.951294,455.862172 145.130692,456 143.30861,456 C129.019334,456 117.251347,447.680469 110.946645,422.859705 C110.807397,422.443288 110.666667,421.610456 110.666667,421.333333 L149.333333,438.390278 Z" id="路径" fill="#E45341" fill-rule="nonzero"></path>
            <path d="M166.74458,352.869912 C171.151135,358.424433 173.767982,365.367952 174.181552,372.44949 C174.732007,382.447042 175.145577,397.304616 173.492755,409.802657 C170.875908,430.909251 150.906613,441.04629 143.332756,441.323796 C133.554165,441.601301 114.687237,435.908761 108.214291,412.996176 C102.2918,391.889582 97.3333333,373.699001 97.3333333,373.699001 L97.8852449,370.365994 C100.225408,355.092895 112.207276,343.289353 127.356446,341.345344 L135.895784,340.233852 C147.739311,338.846323 159.307609,343.706346 166.74458,352.869912 Z" id="路径" fill="#FF826E" fill-rule="nonzero"></path>
            <path d="M113.333333,414.842784 C113.333333,414.842784 112.658598,420.818175 103.079632,417.829762 C93.5020926,414.842784 86.6206435,391.211197 97.6831721,389.581284 C108.745701,387.952807 106.857011,394.878861 106.857011,394.878861 L113.333333,414.842784 Z" id="路径" fill="#FF826E" fill-rule="nonzero"></path>
            <path d="M149.896016,392 L149.021288,403.357432 C149.021288,403.357432 153.68959,400.27343 157.629723,405.181145 C161.568314,410.088861 153.398014,416.818807 148,411.209777" id="路径" stroke="#78284B" stroke-width="1.5464696"></path>
            <path d="M150.666667,423.67622 C150.666667,423.67622 139.136615,426.408294 132,416" id="路径" stroke="#78284B" stroke-width="1.5464696"></path>
            <path d="M130,400 C131.103767,400 132,397.911875 132,395.333333 C132,392.756334 131.103767,390.666667 130,390.666667 C128.894911,390.666667 128,392.756334 128,395.333333 C128,397.911875 128.894911,400 130,400 Z" id="路径" fill="#000000" fill-rule="nonzero"></path>
            <path d="M163.333333,401.333333 C164.437101,401.333333 165.333333,399.244011 165.333333,396.665896 C165.333333,394.089322 164.437101,392 163.333333,392 C162.228244,392 161.333333,394.089322 161.333333,396.665896 C161.333333,399.244011 162.228244,401.333333 163.333333,401.333333 Z" id="路径" fill="#000000" fill-rule="nonzero"></path>
            <path d="M170.666667,386.666667 C170.666667,386.666667 168.03708,378.934927 160,382.090024" id="路径" stroke="#78284B" stroke-width="1.5464696"></path>
            <path d="M134.666667,380.878732 C134.666667,380.878732 128.266366,377.497587 124,384" id="路径" stroke="#78284B" stroke-width="1.5286024"></path>
            <path d="M96.0395633,350.659571 C89.9786109,361.015969 87.2241622,373.307256 88.1884377,385.322547 C88.1884377,385.461274 93.835713,384.218565 94.387768,384.079837 C96.4532404,383.527847 98.5201694,382.6984 100.44872,381.731686 C104.305823,379.798258 107.749248,377.174112 110.780452,374.136702 C112.295326,372.617997 113.673279,370.821837 114.912853,369.164404 C116.01405,367.6457 119.871152,361.293425 119.871152,361.293425 C119.871152,361.293425 123.316034,367.921695 124.69253,369.164404 C126.345782,370.684569 127.999034,372.203274 129.927585,373.445984 C134.059986,376.346125 138.744443,378.555549 143.56582,379.660991 C147.973521,380.764972 152.933276,381.040968 157.065678,378.970272 C161.198079,376.898116 163.815606,371.651283 162.162355,367.506972 C165.055181,371.651283 167.948008,375.794135 171.668189,378.970272 C175.525291,382.146409 180.346668,384.494561 185.304967,384.218565 C194.121825,383.665114 200.733376,374.551425 201.285431,365.712272 C201.836029,356.873118 197.56525,348.31142 192.330195,340.990971 C184.340692,329.667859 173.319984,319.861992 159.958504,316.132403 C146.595568,312.404275 130.754939,315.71914 121.938081,326.490262 C124.830908,321.795419 127.723735,316.685854 127.862112,311.161566 C128.137412,305.637277 124.69253,299.560998 119.183633,298.731552 C114.774476,298.179561 110.505153,301.218431 108.438224,305.222554 C106.371295,309.228138 107.887625,323.59012 107.887625,328.147694 L96.0395633,350.659571 Z" id="路径" fill="#EBF9FF" fill-rule="nonzero"></path>
            <path d="M128,358.666667 C114.450156,368.912139 106.844816,386.458419 108.227871,403.442185 C108.50419,406.250302 105.186905,407.793876 103.251213,405.687788 C101.868158,404.144214 101.17663,402.179126 100.485103,400.073038 C96.7526091,387.299963 98.8257294,372.842315 106.154751,361.753815 L128,358.666667 Z" id="路径" fill="#EBF9FF" fill-rule="nonzero"></path>
            <path d="M101.332628,425.333333 C105.015262,425.333333 108,422.348595 108,418.667372 C108,414.984738 105.015262,412 101.332628,412 C97.6514046,412 94.6666667,414.984738 94.6666667,418.667372 C94.6666667,422.348595 97.6514046,425.333333 101.332628,425.333333 Z" id="路径" fill="#1890FF" fill-rule="nonzero"></path>
            <path d="M111.375684,448 C111.375684,448 117.440695,456.377944 134.666667,464.892398 C134.666667,464.892398 127.776861,480 111.375684,480 C94.9759647,480 81.3333333,460.634445 81.3333333,460.634445 C81.3333333,460.634445 95.2513821,454.04275 111.375684,448 Z" id="路径" fill="#5E81FF" fill-rule="nonzero"></path>
            <path d="M134.666667,465.657321 C134.666667,465.657321 142.274599,462.545545 149.189306,450.666667 C149.189306,450.666667 159.425354,454.768349 168,463.960125 C168,463.960125 165.095472,478.666667 155.690125,478.666667 C146.284778,478.666667 137.294782,475.131713 134.666667,465.657321 Z" id="路径" fill="#5E81FF" fill-rule="nonzero"></path>
            <path d="M87.7571203,312.746818 C82.669575,314.534979 78.8193835,320.30943 80.3329973,325.532896 C80.8826092,327.457713 82.119963,329.245874 83.6321228,330.757815 C88.1700563,335.433202 94.9078914,337.907552 101.509051,337.219909 C106.18366,336.670377 116.771687,333.370275 114.296979,326.770071 C113.059625,323.608079 110.171981,320.858963 107.69582,318.659379 C105.084436,316.321686 102.196792,314.258759 98.8962129,313.159694 C95.3208273,311.922519 91.3325059,311.509643 87.7571203,312.746818 Z" id="路径" fill="#EBF9FF" fill-rule="nonzero"></path>
            <path d="M329.999267,332 C384.122969,332 428,288.124434 428,233.999267 C428,179.875566 384.122969,136 329.999267,136 C275.875566,136 232,179.875566 232,233.999267 C232,288.124434 275.875566,332 329.999267,332 Z" id="路径" fill="#D6E4FF" fill-rule="nonzero"></path>
            <path d="M282.172166,254.666667 C282.172166,254.666667 274.760391,281.962947 304,282.666667 L304,257.902586 L282.172166,254.666667 Z" id="路径" fill="#061178" fill-rule="nonzero"></path>
            <path d="M371.54261,155.131903 C352.090508,148.885376 335.973471,160.684209 333.333333,163.599059 C333.333333,183.586185 354.591072,195.939808 365.706979,209.819838 C366.401907,211.485677 365.012051,213.151515 363.484091,214.123132 C362.65106,222.72972 358.065711,278.666667 368.624794,278.666667 C389.189075,278.666667 384.186476,245.214869 384.186476,245.214869 C384.186476,245.214869 395.024705,230.918013 401.138013,218.981216 C414.754484,192.608131 392.662244,161.933221 371.54261,155.131903 Z" id="路径" fill="#061178" fill-rule="nonzero"></path>
            <path d="M304,328.355943 C312.349186,330.738881 321.116273,332 330.161469,332 C341.016588,332 351.453807,330.17723 361.333333,326.95404 L361.333333,282.666667 L304,282.666667 L304,328.355943 Z" id="路径" fill="#FF826E" fill-rule="nonzero"></path>
            <path d="M293.419099,232.249101 C293.419099,232.249101 285.54139,219.034738 278.613027,226.056005 C271.686101,233.075818 271.279648,245.601736 279.157357,254.96197 C287.035066,264.322205 296,260.604892 296,260.604892 L293.419099,232.249101 Z" id="路径" fill="#FF826E" fill-rule="nonzero"></path>
            <path d="M292.961216,236.992864 C292.961216,236.992864 287.84035,229.031883 283.430842,233.214964 C279.022837,237.398046 278.595723,245.087955 283.715084,250.754804 C288.835949,256.421653 294.666667,254.263057 294.666667,254.263057 L292.961216,236.992864 Z" id="路径" fill="#E45341" fill-rule="nonzero"></path>
            <path d="M370.58084,232.259046 C370.58084,232.259046 378.459799,219.028752 385.386562,226.058484 C392.313324,233.086759 392.721203,245.627779 384.842244,254.999298 C376.964722,264.232379 368,260.649023 368,260.649023 L370.58084,232.259046 Z" id="路径" fill="#FF826E" fill-rule="nonzero"></path>
            <path d="M372.37349,236.992864 C372.37349,236.992864 377.493962,229.031883 381.901627,233.214964 C386.310797,237.398046 386.737879,245.087955 381.617407,250.754804 C376.49844,256.421653 370.666667,254.263057 370.666667,254.263057 L372.37349,236.992864 Z" id="路径" fill="#E45341" fill-rule="nonzero"></path>
            <path d="M361.333333,282.666667 L304,282.666667 L304,306.730359 C311.096955,313.255156 320.698372,317.333333 331.275381,317.333333 L334.057952,317.333333 C344.634961,317.333333 354.236378,313.255156 361.333333,306.730359 L361.333333,282.666667 Z" id="路径" fill="#E45341" fill-rule="nonzero"></path>
            <path d="M335.055481,185.333333 L327.611186,185.333333 C307.208249,185.333333 290.666667,202.019548 290.666667,222.600879 L290.666667,257.643694 C290.666667,280.311537 308.862699,298.666667 331.332605,298.666667 C353.803968,298.666667 372,280.311537 372,257.643694 L372,222.600879 C372,202.159237 355.458418,185.333333 335.055481,185.333333 Z" id="路径" fill="#FF826E" fill-rule="nonzero"></path>
            <path d="M329.731737,233.333333 L330.666667,245.857009 C330.666667,245.857009 325.857849,242.452976 321.717041,247.89799 C317.577645,253.343004 321.183199,264.777102 329.731737,262.327349" id="路径" stroke="#78284B" stroke-width="1.74924533"></path>
            <path d="M322.666667,274.761783 C322.666667,274.761783 342.148002,299.506848 349.333333,268 L322.666667,274.761783 Z" id="路径" fill="#FFFFFF" fill-rule="nonzero"></path>
            <path d="M353.33255,242.666667 C354.806461,242.666667 356,240.577667 356,238.000685 C356,235.422333 354.806461,233.333333 353.33255,233.333333 C351.860206,233.333333 350.666667,235.422333 350.666667,238.000685 C350.666667,240.577667 351.860206,242.666667 353.33255,242.666667 Z" id="路径" fill="#000000" fill-rule="nonzero"></path>
            <path d="M310.666667,242.666667 C312.139444,242.666667 313.333333,240.577667 313.333333,238.000685 C313.333333,235.422333 312.139444,233.333333 310.666667,233.333333 C309.19389,233.333333 308,235.422333 308,238.000685 C308,240.577667 309.19389,242.666667 310.666667,242.666667 Z" id="路径" fill="#000000" fill-rule="nonzero"></path>
            <path d="M348,223.325685 C348,223.325685 354.361575,217.096681 360,226.666667" id="路径" stroke="#78284B" stroke-width="1.74924533"></path>
            <path d="M316,223.325685 C316,223.325685 309.638425,217.096681 304,226.666667" id="路径" stroke="#78284B" stroke-width="1.74924533"></path>
            <path d="M365.333333,194.336414 C365.333333,194.336414 366.179165,246.416069 375.895807,245.316153 C385.613937,244.21769 385.33249,192 385.33249,192 L365.333333,194.336414 Z" id="路径" fill="#061178" fill-rule="nonzero"></path>
            <path d="M276,194.74148 C276,194.74148 278.103663,246.676016 287.776957,245.306725 C297.451733,243.935985 295.909936,192 295.909936,192 L276,194.74148 Z" id="路径" fill="#332A75" fill-rule="nonzero"></path>
            <path d="M360.770407,308 L346.666667,330.666667 C357.103553,328.869117 366.975277,325.551687 376,320.714378 L360.770407,308 Z" id="路径" fill="#00B5F2" fill-rule="nonzero"></path>
            <path d="M302.869034,308 L285.333333,321.737418 C293.959875,325.996497 303.434268,329.017944 313.333333,330.666667 L302.869034,308 Z" id="路径" fill="#00B5F2" fill-rule="nonzero"></path>
            <path d="M367.766218,200.670705 C356.317261,189.037774 334.249215,177.961233 334.386311,161.344224 C334.110661,161.620955 333.972107,161.760052 333.972107,161.760052 C321.973309,133.234847 287.766452,131.84973 269.973169,146.528161 C252.179886,161.205127 269.834615,183.914599 269.834615,183.914599 C269.834615,183.914599 257.283058,175.330096 253.696691,188.068485 C252.31844,193.054027 253.14539,216.732788 288.179197,218.532268 C323.214463,220.333213 365.696655,203.439474 365.696655,203.439474 C365.696655,203.439474 365.696655,203.716204 365.559559,204.408763 C367.076363,203.439474 368.593168,202.054357 367.766218,200.670705 Z" id="路径" fill="#061178" fill-rule="nonzero"></path>
            <path d="M591.033898,273.333333 L472.964643,273.333333 C470.20667,273.333333 468,271.115068 468,268.344434 L468,142.666667 L596,142.666667 L596,268.344434 C596,271.115068 593.79333,273.333333 591.033898,273.333333 Z" id="路径" fill="#DADEF2" fill-rule="nonzero"></path>
            <path d="M591.033898,126.666667 L472.964643,126.666667 C470.20667,126.666667 468,128.952165 468,131.810171 L468,142.666667 L596,142.666667 L596,131.810171 C596,128.952165 593.79333,126.666667 591.033898,126.666667 Z" id="路径" fill="#332A75" fill-rule="nonzero"></path>
            <path d="M481.333333,135.333994 C481.333333,136.45854 480.458251,137.333333 479.333333,137.333333 C478.208416,137.333333 477.333333,136.45854 477.333333,135.333994 C477.333333,134.208127 478.208416,133.333333 479.333333,133.333333 C480.458251,133.333333 481.333333,134.208127 481.333333,135.333994 Z" id="路径" fill="#DADEF2" fill-rule="nonzero"></path>
            <path d="M492,135.333994 C492,136.45854 491.124917,137.333333 490,137.333333 C488.875083,137.333333 488,136.45854 488,135.333994 C488,134.208127 488.875083,133.333333 490,133.333333 C491.124917,133.333333 492,134.208127 492,135.333994 Z" id="路径" fill="#DADEF2" fill-rule="nonzero"></path>
            <path d="M500.666667,137.333333 C501.771756,137.333333 502.666667,136.437397 502.666667,135.333994 C502.666667,134.22927 501.771756,133.333333 500.666667,133.333333 C499.561577,133.333333 498.666667,134.22927 498.666667,135.333994 C498.666667,136.437397 499.561577,137.333333 500.666667,137.333333 Z" id="路径" fill="#DADEF2" fill-rule="nonzero"></path>
            <path d="M581.113866,261.333333 L484.219468,261.333333 C481.166381,261.333333 478.666667,258.849983 478.666667,255.813642 L478.666667,156.186358 C478.666667,153.150017 481.166381,150.666667 484.219468,150.666667 L581.113866,150.666667 C584.166952,150.666667 586.666667,153.150017 586.666667,156.186358 L586.666667,255.813642 C586.666667,258.849983 584.166952,261.333333 581.113866,261.333333 Z" id="路径" fill="#FFFFFF" fill-rule="nonzero"></path>
            <path d="M506.860976,241.333333 L489.139024,241.333333 C487.766299,241.333333 486.666667,240.147626 486.666667,238.66745 C486.666667,237.185707 487.766299,236 489.139024,236 L506.860976,236 C508.235153,236 509.333333,237.185707 509.333333,238.66745 C509.333333,240.147626 508.235153,241.333333 506.860976,241.333333 Z" id="路径" fill="#DADEF2" fill-rule="nonzero"></path>
            <path d="M541.474075,241.333333 L514.525925,241.333333 C513.121974,241.333333 512,240.147626 512,238.66745 C512,237.185707 513.121974,236 514.525925,236 L541.474075,236 C542.878026,236 544,237.185707 544,238.66745 C544,240.147626 542.878026,241.333333 541.474075,241.333333 Z" id="路径" fill="#DADEF2" fill-rule="nonzero"></path>
            <path d="M520.139187,252 L487.850399,252 C486.452193,252 485.333333,250.814293 485.333333,249.334116 C485.333333,247.852374 486.452193,246.666667 487.850399,246.666667 L520.139187,246.666667 C521.535915,246.666667 522.654775,247.852374 522.654775,249.334116 C522.795186,250.814293 521.676326,252 520.139187,252 Z" id="路径" fill="#DADEF2" fill-rule="nonzero"></path>
            <path d="M560.150278,252 L527.851201,252 C526.45255,252 525.333333,250.814293 525.333333,249.334116 C525.333333,247.852374 526.45255,246.666667 527.851201,246.666667 L560.150278,246.666667 C561.548929,246.666667 562.666667,247.852374 562.666667,249.334116 C562.666667,250.814293 561.548929,252 560.150278,252 Z" id="路径" fill="#DADEF2" fill-rule="nonzero"></path>
            <polyline id="路径" stroke="#D6E2FF" stroke-width="2.08594533" points="486.666667 156 486.666667 226.666667 580 226.666667"></polyline>
            <polygon id="路径" fill="#2F54EB" fill-rule="nonzero" points="532 206.666667 521.333333 206.666667 521.333333 228 532 228"></polygon>
            <polygon id="路径" fill="#00B7FF" fill-rule="nonzero" points="546.666667 188 536 188 536 228 546.666667 228"></polygon>
            <polygon id="路径" fill="#2F54EB" fill-rule="nonzero" points="561.333333 186.666667 550.666667 186.666667 550.666667 228 561.333333 228"></polygon>
            <polygon id="路径" fill="#00B7FF" fill-rule="nonzero" points="576 166.666667 565.333333 166.666667 565.333333 226.666667 576 226.666667"></polygon>
            <polygon id="路径" fill="#2F54EB" fill-rule="nonzero" points="502.666667 214.666667 492 214.666667 492 228 502.666667 228"></polygon>
            <polygon id="路径" fill="#00B7FF" fill-rule="nonzero" points="517.333333 208 506.666667 208 506.666667 228 517.333333 228"></polygon>
            <path d="M496.443595,165.333333 L494.203943,165.333333 C493.706828,165.333333 493.333333,164.889933 493.333333,164.296122 L493.333333,161.037211 C493.333333,160.4434 493.706828,160 494.203943,160 L496.443595,160 C496.94071,160 497.314205,160.4434 497.314205,161.037211 L497.314205,164.296122 C497.437826,164.741089 496.94071,165.333333 496.443595,165.333333 Z" id="路径" fill="#2F54EB" fill-rule="nonzero"></path>
            <path d="M496.443595,174.666667 L494.203943,174.666667 C493.706828,174.666667 493.333333,174.221831 493.333333,173.62976 L493.333333,170.37024 C493.333333,169.778169 493.706828,169.333333 494.203943,169.333333 L496.443595,169.333333 C496.94071,169.333333 497.314205,169.778169 497.314205,170.37024 L497.314205,173.62976 C497.437826,174.221831 496.94071,174.666667 496.443595,174.666667 Z" id="路径" fill="#00B7FF" fill-rule="nonzero"></path>
            <path d="M518.814427,165.333333 L502.508197,165.333333 C501.114099,165.333333 500,164.148844 500,162.666667 C500,161.184489 501.114099,160 502.508197,160 L518.814427,160 C520.208525,160 521.322625,161.184489 521.322625,162.666667 C521.462624,164 520.208525,165.333333 518.814427,165.333333 Z" id="路径" fill="#DADEF2" fill-rule="nonzero"></path>
            <path d="M528.211282,174.666667 L503.79016,174.666667 C502.425417,174.666667 501.333333,173.480959 501.333333,171.999217 C501.333333,170.519041 502.425417,169.333333 503.79016,169.333333 L528.211282,169.333333 C529.576026,169.333333 530.666667,170.519041 530.666667,171.999217 C530.666667,173.480959 529.576026,174.666667 528.211282,174.666667 Z" id="路径" fill="#DADEF2" fill-rule="nonzero"></path>
            <path d="M401.334065,409.333333 C419.742974,409.333333 434.666667,394.409968 434.666667,376 C434.666667,357.591494 419.742974,342.666667 401.334065,342.666667 C382.923692,342.666667 368,357.591494 368,376 C368,394.409968 382.923692,409.333333 401.334065,409.333333 Z" id="路径" fill="#78C5FF" fill-rule="nonzero"></path>
            <path d="M385.999268,382.666667 C390.048878,382.666667 393.333333,379.383347 393.333333,375.333333 C393.333333,371.28332 390.048878,368 385.999268,368 C381.949659,368 378.666667,371.28332 378.666667,375.333333 C378.666667,379.383347 381.949659,382.666667 385.999268,382.666667 Z" id="路径" fill="#FFFFFF" fill-rule="nonzero"></path>
            <path d="M411.333333,370.666667 C415.383347,370.666667 418.666667,367.383347 418.666667,363.333333 C418.666667,359.28332 415.383347,356 411.333333,356 C407.28332,356 404,359.28332 404,363.333333 C404,367.383347 407.28332,370.666667 411.333333,370.666667 Z" id="路径" fill="#FFFFFF" fill-rule="nonzero"></path>
            <path d="M418.50247,390.202385 C419.350889,386.24251 416.827575,382.345537 412.869264,381.497097 C408.909489,380.65012 405.012615,383.172035 404.164196,387.131909 C403.315778,391.090321 405.839092,394.988757 409.797403,395.835734 C413.757177,396.684174 417.654052,394.162259 418.50247,390.202385 Z" id="路径" fill="#FFFFFF" fill-rule="nonzero"></path>
            <path d="M410.400736,390.666667 C409.984322,390.666667 409.567908,390.528001 409.15296,390.390794 L384.330857,377.96632 C383.360202,377.414575 382.666667,376.448292 382.666667,375.343343 C382.666667,374.239853 383.222374,373.27357 384.330857,372.720366 L409.15296,360.297351 C410.538563,359.60694 412.342048,360.158685 413.035583,361.539506 C413.727651,362.920328 413.17341,364.714228 411.78634,365.404639 L392.096104,375.343343 L411.78634,385.282047 C413.17341,385.972457 413.727651,387.767817 413.035583,389.147179 C412.479875,390.113462 411.509219,390.666667 410.400736,390.666667 Z" id="路径" fill="#FFFFFF" fill-rule="nonzero"></path>
            <path d="M136.41894,60 L226.250867,60 C231.683579,60 236,64.2719011 236,69.6452882 L236,136.474605 C236,141.847992 231.683579,146.119894 226.250867,146.119894 L218.729897,146.119894 L218.729897,170.6469 C218.729897,172.989743 215.805157,174.229644 214.13514,172.575957 L187.39424,146.119894 L136.41894,146.119894 C130.987701,146.119894 126.669807,141.847992 126.669807,136.474605 L126.669807,69.6452882 C126.531375,64.2719011 130.987701,60 136.41894,60 Z" id="路径" fill="#85B3FF" fill-rule="nonzero"></path>
            <path d="M162.760327,114.666667 C162.205627,114.666667 161.650927,114.525799 161.234168,114.386414 L142.359678,105.971434 C140.971459,105.271544 140,103.868801 140,102.326672 C140,100.78306 140.971459,99.2409318 142.499087,98.6804273 L161.234168,90.9668185 C163.316495,90.1260618 165.536765,91.107686 166.368815,93.2103191 C167.202333,95.314435 166.230874,97.5579356 164.148546,98.4001751 L154.017192,102.606924 L164.148546,107.093925 C166.091465,107.934682 167.062925,110.31905 166.230874,112.282299 C165.674706,113.685042 164.287955,114.666667 162.760327,114.666667 Z" id="路径" fill="#FFFFFF" fill-rule="nonzero"></path>
            <path d="M200.043595,114.666667 C198.517389,114.666667 197.129129,113.82591 196.436466,112.282299 C195.602922,110.31905 196.436466,107.934682 198.517389,107.093925 L208.64905,102.606924 L198.517389,98.4001751 C196.436466,97.5579356 195.464977,95.1735675 196.297053,93.2103191 C197.129129,91.107686 199.488878,90.1260618 201.431856,90.9668185 L220.167504,98.6804273 C221.695178,99.2409318 222.666667,100.78306 222.666667,102.326672 C222.666667,103.868801 221.695178,105.410929 220.306917,105.971434 L201.571269,114.245547 C201.015084,114.525799 200.460367,114.666667 200.043595,114.666667 Z" id="路径" fill="#FFFFFF" fill-rule="nonzero"></path>
            <path d="M179.871508,118.666667 C179.594737,118.666667 179.178849,118.666667 178.902079,118.52941 C176.824105,117.983272 175.577906,115.797277 176.131447,113.747093 L182.917446,88.1956524 C183.472451,86.1469137 185.688078,84.9159368 187.764588,85.4635193 C189.842562,86.0096569 191.08876,88.1956524 190.53522,90.2458359 L183.749221,115.797277 C183.194216,117.572947 181.671247,118.666667 179.871508,118.666667 Z" id="路径" fill="#FFFFFF" fill-rule="nonzero"></path>
            <polygon id="路径" fill="#D6E4FF" fill-rule="nonzero" points="193.333333 613.333333 193.333333 518.666667 53.3333333 518.666667 53.3333333 613.333333"></polygon>
            <polygon id="路径" fill="#ADC6FF" fill-rule="nonzero" points="122.666667 517.333333 53.3333333 517.333333 53.3333333 580 122.666667 580"></polygon>
            <polygon id="路径" fill="#10239E" fill-rule="nonzero" points="193.333333 517.333333 193.333333 508 53.3333333 508 53.3333333 517.333333"></polygon>
            <path d="M64.6674678,517.333333 C66.5083714,517.333333 68,515.841705 68,514.000801 C68,512.159897 66.5083714,510.666667 64.6674678,510.666667 C62.8265641,510.666667 61.3333333,512.159897 61.3333333,514.000801 C61.3333333,515.841705 62.8265641,517.333333 64.6674678,517.333333 Z" id="路径" fill="#DADEF2" fill-rule="nonzero"></path>
            <path d="M114.621718,514.666667 L73.516839,514.666667 C72.6898701,514.666667 72,514.060548 72,513.333974 C72,512.606119 72.6898701,512 73.516839,512 L114.483161,512 C115.31013,512 116,512.606119 116,513.333974 C116,514.182284 115.448687,514.666667 114.621718,514.666667 Z" id="路径" fill="#DADEF2" fill-rule="nonzero"></path>
            <path d="M169.151912,541.333333 L138.848088,541.333333 C138.020799,541.333333 137.333333,540.726923 137.333333,540 C137.333333,539.273077 138.020799,538.666667 138.848088,538.666667 L169.151912,538.666667 C169.977745,538.666667 170.666667,539.273077 170.666667,540 C170.666667,540.726923 169.977745,541.333333 169.151912,541.333333 Z" id="路径" fill="#FFFFFF" fill-rule="nonzero"></path>
            <path d="M159.842205,548 L138.824462,548 C138.010076,548 137.333333,547.394872 137.333333,546.666667 C137.333333,545.939744 138.010076,545.333333 138.824462,545.333333 L159.842205,545.333333 C160.655157,545.333333 161.333333,545.939744 161.333333,546.666667 C161.333333,547.515385 160.655157,548 159.842205,548 Z" id="路径" fill="#FFFFFF" fill-rule="nonzero"></path>
            <path d="M163.799954,553.333333 L138.865239,553.333333 C138.028583,553.333333 137.333333,552.726923 137.333333,552 C137.333333,551.273077 138.028583,550.666667 138.865239,550.666667 L163.799954,550.666667 C164.636611,550.666667 165.333333,551.273077 165.333333,552 C165.333333,552.726923 164.636611,553.333333 163.799954,553.333333 Z" id="路径" fill="#FFFFFF" fill-rule="nonzero"></path>
            <path d="M162.546443,564 L140.118751,564 C138.586845,564 137.333333,562.800247 137.333333,561.334038 C137.333333,559.86642 138.586845,558.666667 140.118751,558.666667 L162.546443,558.666667 C164.078349,558.666667 165.333333,559.86642 165.333333,561.334038 C165.333333,562.800247 164.078349,564 162.546443,564 Z" id="路径" fill="#10239E" fill-rule="nonzero"></path>
            <path d="M183.816561,514.666667 L174.850105,514.666667 C174.023173,514.666667 173.333333,514.060548 173.333333,513.333974 C173.333333,512.606119 174.023173,512 174.850105,512 L183.816561,512 C184.643494,512 185.333333,512.606119 185.333333,513.333974 C185.333333,514.182284 184.643494,514.666667 183.816561,514.666667 Z" id="路径" fill="#DADEF2" fill-rule="nonzero"></path>
            <path d="M97.4292398,606.666667 L69.2374269,606.666667 C68.5510985,606.666667 68,606.128773 68,605.45747 L68,587.874444 C68,587.204561 68.5510985,586.666667 69.2374269,586.666667 L97.4292398,586.666667 C98.1170223,586.666667 98.6666667,587.204561 98.6666667,587.874444 L98.6666667,605.45747 C98.6666667,605.995364 98.1170223,606.666667 97.4292398,606.666667 Z" id="路径" fill="#597EF7" fill-rule="nonzero"></path>
            <path d="M137.411006,606.666667 L109.236721,606.666667 C108.549331,606.666667 108,606.128773 108,605.45747 L108,587.874444 C108,587.204561 108.549331,586.666667 109.236721,586.666667 L137.411006,586.666667 C138.098396,586.666667 138.64918,587.204561 138.64918,587.874444 L138.64918,605.45747 C138.785786,605.995364 138.098396,606.666667 137.411006,606.666667 Z" id="路径" fill="#7499F7" fill-rule="nonzero"></path>
            <path d="M178.745399,606.666667 L150.570099,606.666667 C149.882684,606.666667 149.333333,606.128773 149.333333,605.45747 L149.333333,587.874444 C149.333333,587.204561 149.882684,586.666667 150.570099,586.666667 L178.745399,586.666667 C179.432815,586.666667 179.982165,587.204561 179.982165,587.874444 L179.982165,605.45747 C180.12023,605.995364 179.432815,606.666667 178.745399,606.666667 Z" id="路径" fill="#9ECBFF" fill-rule="nonzero"></path>
            <path d="M83.3333333,569.333333 C92.5382559,569.333333 100,561.872729 100,552.667401 C100,543.462073 92.5382559,536 83.3333333,536 C74.1284107,536 66.6666667,543.462073 66.6666667,552.667401 C66.6666667,561.872729 74.1284107,569.333333 83.3333333,569.333333 Z" id="路径" fill="#FFFFFF" fill-rule="nonzero"></path>
            <path d="M111.856217,541.734526 C112.814731,535.92409 108.879778,530.435632 103.067858,529.477118 C97.2574223,528.518604 91.7689639,532.453557 90.8104497,538.263992 C89.8519355,544.075912 93.7868886,549.564369 99.5988084,550.522884 C105.409244,551.481398 110.897703,547.546445 111.856217,541.734526 Z" id="路径" fill="#DADEF2" fill-rule="nonzero"></path>
            <path d="M222.666667,650.666667 C242.548728,650.666667 258.666667,634.548728 258.666667,614.666667 C258.666667,594.784606 242.548728,578.666667 222.666667,578.666667 C202.784606,578.666667 186.666667,594.784606 186.666667,614.666667 C186.666667,634.548728 202.784606,650.666667 222.666667,650.666667 Z" id="路径" fill="#1890FF" fill-rule="nonzero"></path>
            <path d="M218.765074,632 C217.506283,632 216.24897,631.448537 215.411254,630.623524 L202.696285,618.101374 C200.879016,616.311664 200.879016,613.285162 202.696285,611.358678 C204.512076,609.568968 207.586657,609.568968 209.542806,611.358678 L218.345477,620.027858 L235.392342,597.873285 C237.067774,595.808571 240.001998,595.395337 242.098505,596.910043 C244.195012,598.561523 244.613132,601.45125 243.07658,603.514509 L222.677372,629.935286 C221.838179,631.036758 220.580865,631.723541 219.183194,631.86177 C219.044313,632 218.903955,632 218.765074,632 Z" id="路径" fill="#FFFFFF" fill-rule="nonzero"></path>
            <path d="M382.666667,21.3333333 L382.666667,98.6666667 L460,98.6666667 C460,55.8893461 425.367515,21.3333333 382.666667,21.3333333 Z" id="路径" stroke="#2F54EB" stroke-width="1.63925147"></path>
            <polygon id="路径" fill="#D8E1F5" fill-rule="nonzero" points="486.666667 0 426.666667 0 426.666667 60 486.666667 60"></polygon>
            <path d="M496.070352,608 C494.548856,652.149231 517.770307,695.467252 559.514257,717.333333 L614.666667,612.153121 L496.070352,608 Z" id="路径备份-4" stroke="#ADC6FF" stroke-width="1.63925147"></path>
            <path d="M545.403274,618.666667 L572,618.666667 C572,589.28408 548.187663,565.333333 518.666667,565.333333 L518.666667,591.930059 C533.426428,592.069941 545.403274,604.045314 545.403274,618.666667 Z" id="路径备份-3" fill="#85B3FF" fill-rule="nonzero"></path>
        </g>
    </g>
</svg>