<?xml version="1.0" encoding="UTF-8"?>
<svg width="56px" height="57px" viewBox="0 0 56 57" version="1.1" xmlns="http://www.w3.org/2000/svg" xmlns:xlink="http://www.w3.org/1999/xlink">
    <!-- Generator: Sketch 59.1 (86144) - https://sketch.com -->
    <title>编组 4</title>
    <desc>Created with Sketch.</desc>
    <g id="UI" stroke="none" stroke-width="1" fill="none" fill-rule="evenodd">
        <g id="登录页" transform="translate(-132.000000, -88.000000)" stroke="#1890FF" stroke-width="2.4">
            <g id="编组-5">
                <g id="编组-4" transform="translate(125.000000, 90.000000)">
                    <g id="编组-3" transform="translate(19.913458, 0.000000)">
                        <polygon id="矩形" points="14.6620289 2.44249065e-14 27.1807026 7.28280874 14.720798 14.768442 2.26089345 7.28280874"></polygon>
                        <line x1="28.2828215" y1="8.42683059" x2="28.2828215" y2="21.9458391" id="直线" stroke-linecap="square"></line>
                        <line x1="14.6620289" y1="14.768442" x2="14.6620289" y2="28.6145959" id="直线备份" stroke-linecap="square"></line>
                        <line x1="1.15384615" y1="8.42223256" x2="1.15384615" y2="35.4694456" id="直线备份-2" stroke-linecap="square"></line>
                    </g>
                    <g id="编组-3备份" transform="translate(44.067002, 34.723278) rotate(120.000000) translate(-44.067002, -34.723278) translate(28.067002, 14.723278)">
                        <polygon id="矩形" points="16.9697212 -2.84217094e-14 29.4883949 7.28280874 17.0284904 14.768442 4.56858575 7.28280874"></polygon>
                        <line x1="30.5905138" y1="8.42683059" x2="30.5905138" y2="22.2729844" id="直线" stroke-linecap="square"></line>
                        <line x1="16.9697212" y1="14.768442" x2="17.0284904" y2="30.9032087" id="直线备份" stroke-linecap="square"></line>
                        <line x1="3.46153846" y1="8.42223256" x2="3.3642738" y2="37.4143519" id="直线备份-2" stroke-linecap="square"></line>
                    </g>
                    <g id="编组-3备份-2" transform="translate(29.290212, 33.953699) scale(-1, 1) rotate(120.000000) translate(-29.290212, -33.953699) translate(13.290212, 10.453699)">
                        <polygon id="矩形" points="14.6620289 2.44249065e-14 27.1807026 7.28280874 14.720798 14.768442 2.26089345 7.28280874"></polygon>
                        <line x1="28.2828215" y1="8.42683059" x2="29.3086823" y2="45.6742885" id="直线" stroke-linecap="square"></line>
                        <line x1="14.6620289" y1="14.768442" x2="14.720798" y2="29.8677087" id="直线备份" stroke-linecap="square"></line>
                        <line x1="1.15384615" y1="8.42223256" x2="2.26089345" y2="21.0919058" id="直线备份-2" stroke-linecap="square"></line>
                    </g>
                </g>
            </g>
        </g>
    </g>
</svg>